<?xml version="1.0" encoding="utf-8"?>
<!-- Generator: Adobe Illustrator 16.0.0, SVG Export Plug-In . SVG Version: 6.00 Build 0)  -->
<!DOCTYPE svg PUBLIC "-//W3C//DTD SVG 1.1//EN" "http://www.w3.org/Graphics/SVG/1.1/DTD/svg11.dtd">
<svg version="1.1" id="Layer_1" xmlns="http://www.w3.org/2000/svg" xmlns:xlink="http://www.w3.org/1999/xlink" x="0px" y="0px"
	 width="286.688px" height="59.856px" viewBox="0 0 286.688 59.856" enable-background="new 0 0 286.688 59.856"
	 xml:space="preserve">
<path fill="#29AAE1" d="M283.105,15.405v-0.054c0.554-0.166,0.936-0.551,0.936-1.073c0-0.413-0.191-0.771-0.441-0.964
	c-0.326-0.221-0.711-0.358-1.564-0.358c-0.747,0-1.32,0.083-1.734,0.165v4.487h1.047v-1.789h0.494c0.578,0,0.852,0.221,0.936,0.717
	c0.137,0.522,0.221,0.907,0.357,1.072h1.127c-0.109-0.138-0.191-0.412-0.327-1.101C283.795,15.901,283.547,15.544,283.105,15.405z
	 M281.869,15.075h-0.496v-1.293c0.11-0.027,0.301-0.056,0.576-0.056c0.662,0,0.965,0.276,0.965,0.688
	C282.914,14.884,282.447,15.075,281.869,15.075z M81.042,18.413c4.224,0,8.06,1.638,10.933,4.296
	c1.134-2.946,2.676-5.683,4.56-8.153c-4.285-3.328-9.652-5.326-15.493-5.326c-13.98,0-25.315,11.333-25.315,25.312
	c0,13.98,11.335,25.314,25.315,25.314c5.841,0,11.208-2.002,15.493-5.33c-1.884-2.47-3.426-5.203-4.56-8.15
	c-2.873,2.66-6.708,4.296-10.933,4.296c-8.91,0-16.134-7.221-16.134-16.13S72.132,18.413,81.042,18.413z M28.746,0
	c-1.637,0-3.041,0.978-3.677,2.377L0,57.935h9.982l3.633-7.943h30.31l3.583,7.943h9.981L32.421,2.377C31.784,0.978,30.38,0,28.746,0
	z M17.602,41.062l11.144-24.693l11.146,24.693H17.602z M148.581,34.524c0-13.899-10.793-24.729-24.263-25.296
	c-0.05-0.001-0.097-0.004-0.147-0.006c-0.451-0.025-0.582,0.188-0.421,0.521c0.023,0.054,0.045,0.105,0.072,0.156
	c0.891,1.884,3.18,6.482,7.193,9.646c5.18,4.081,8.322,8.919,8.322,14.978c0,7.69-6.026,16.099-15.891,16.099
	c-9.861,0-15.89-8.408-15.89-16.099c0-6.059,3.144-10.896,8.324-14.978c4.087-3.224,6.431-7.907,7.236-9.74
	c0.171-0.356,0.077-0.597-0.341-0.605h-0.08c-13.715,0.293-24.783,11.542-24.783,25.323c0,11.294,9.57,24.433,25.015,24.433
	c6.893,0,12.736-2.103,17.102-5.661l4.803,4.546h13.879l-12.704-12.026C147.676,42.471,148.581,38.647,148.581,34.524z
	 M265.084,17.505l-1.811-1.876c-4.364-4.529-9.348-6.825-14.811-6.825c-6.357,0-11.729,2.391-15.956,7.104
	c-4.258,4.744-6.417,10.774-6.417,17.927c0,7.294,2.162,13.441,6.417,18.279c4.259,4.719,9.734,7.11,16.265,7.11
	c5.142,0,10.036-2.142,14.541-6.355l1.771-1.658v6.58h9.431V10.182h-9.431V17.505z M261.6,46.327
	c-2.816,3.145-6.551,4.739-11.095,4.739c-4.283,0-7.882-1.652-10.703-4.913c-2.705-3.174-4.08-7.317-4.08-12.319
	c0-4.697,1.413-8.71,4.196-11.929c2.854-3.214,6.449-4.845,10.69-4.845c4.479,0,8.182,1.615,11.007,4.805
	c2.777,3.214,4.186,7.325,4.186,12.224C265.801,38.989,264.389,43.104,261.6,46.327z M282.088,10.755h-0.025
	c-2.59,0-4.653,2.008-4.653,4.515c0,2.559,2.063,4.542,4.653,4.542c2.614,0,4.625-1.983,4.625-4.542
	C286.688,12.763,284.677,10.755,282.088,10.755z M282.088,18.875c-2.034,0-3.523-1.596-3.523-3.605c0-1.982,1.489-3.606,3.471-3.606
	h0.027c2.008,0,3.467,1.624,3.467,3.606C285.529,17.279,284.07,18.902,282.088,18.875z M191.301,34.135c0,9.868-5.016,16-13.097,16
	c-8.091,0-13.118-6.132-13.118-16V10.21h-9.579l-0.005,23.925c0,14.571,9.518,25.148,22.622,25.148
	c13.184,0,22.761-10.577,22.761-25.148V10.182h-9.607L191.301,34.135z M209.744,57.935h9.541V10.182h-9.541V57.935z"/>
</svg>
