<?xml version="1.0" encoding="utf-8"?>
<!-- Generator: Adobe Illustrator 16.0.0, SVG Export Plug-In . SVG Version: 6.00 Build 0)  -->
<!DOCTYPE svg PUBLIC "-//W3C//DTD SVG 1.1//EN" "http://www.w3.org/Graphics/SVG/1.1/DTD/svg11.dtd">
<svg version="1.1"
	 id="svg2" xmlns:dc="http://purl.org/dc/elements/1.1/" xmlns:rdf="http://www.w3.org/1999/02/22-rdf-syntax-ns#" xmlns:cc="http://creativecommons.org/ns#" xmlns:svg="http://www.w3.org/2000/svg"
	 xmlns="http://www.w3.org/2000/svg" xmlns:xlink="http://www.w3.org/1999/xlink" x="0px" y="0px" width="555.412px"
	 height="280.675px" viewBox="0 0 555.412 280.675" enable-background="new 0 0 555.412 280.675" xml:space="preserve">
<g id="g10" transform="matrix(1.25,0,0,-1.25,0,280.675)">
	<g id="g12" transform="scale(0.1,0.1)">
		<path id="path14" fill="#5EA8E0" d="M3703.132,1312.04c38.547,131.238,132.055,208.688,256.516,212.5
			c3.148,0.078,6.281,0.141,9.375,0.141c58.656,0,80.773-17.23,112.117-51.203c29.109-31.508,44-76.258,46.438-132.938
			c0.312-7.18,0.422-49.59-0.25-59.93h-433.398L3703.132,1312.04z M4423.789,1078.161c8.703,43.109,22.555,156.23,18.938,251.48
			c-4.359,114.949-49.078,225.109-125.93,310.199c-76.734,85.008-187.266,129.969-319.594,129.969
			c-7.555,0-15.188-0.148-23.055-0.449c-346.766-10.539-577.711-263.75-636.352-660.816
			c-31.695-214.578,4.773-387.312,105.43-499.523c77.93-86.859,238.852-132.773,378.133-132.773c6.602,0,13.234,0.094,19.938,0.305
			c252.57,7.695,390.234,93.359,532.273,269.695l10.359,12.797L4160.039,898.45l-8.508-8.344
			c-86.109-84.812-157.578-124.227-293.516-128.391c-2.922-0.078-5.836-0.109-8.719-0.109c-58.148,0-103.906,18.328-136.781,53.766
			c-98.039,105.648-51.477,262.781-51.477,262.781h762.75"/>
		<path id="path16" fill="#5EA8E0" d="M483.683,751.231c-18.254,0-34.004,0-48.496,2.891l-23.852,4.758l63.75,284.133
			c64.535,289.386,214.719,366.586,293.262,366.586c51.598,0,138.133-26.168,138.133-201.457
			C906.48,934.833,687.863,751.231,483.683,751.231z M923.398,1715.68c-119.953,0-209.133-29.141-289.176-94.453l-43.465-35.5
			l148.082,659.691H390.773L0,477.552h417.976c420.121,0,849.082,306.828,849.082,794.617
			C1267.058,1545.739,1135.371,1715.68,923.398,1715.68"/>
		<path id="path18" fill="#5EA8E0" d="M2978.117,790.638c-137.719-29.922-95.93,99.531-95.93,99.531l134.914,544.019h254.859
			l65.68,281.512h-262.461l77.789,355H2822.96l-82.055-355h-234.867l0.031,0.098l-118.414-0.098h-8.68v-0.012l-228.117-0.211
			l-335.348-802.59l-157.371,802.261H1297.68l274.039-1182.465l0.023-2.633c0.297-51.82-18.852-97.508-56.941-135.836
			c-77.57-78.031-215.43-105.328-282.859-112.359L1325.48-0.003c425.168,12.234,645.93,472.328,648.531,478.883l410.918,955.308
			h269.273L2527.96,891.216c-9.734-48.664-17.102-90.031-17.102-133.672c0-165.641,134.484-282.438,321.773-279.992
			c149.367,1.961,273.18,13.75,468.164,116.5l-118.5,253.164C3066.226,811.356,3030.843,802.091,2978.117,790.638"/>
	</g>
</g>
</svg>
