<?xml version="1.0" encoding="utf-8"?>
<!-- Generator: Adobe Illustrator 16.0.0, SVG Export Plug-In . SVG Version: 6.00 Build 0)  -->
<!DOCTYPE svg PUBLIC "-//W3C//DTD SVG 1.1//EN" "http://www.w3.org/Graphics/SVG/1.1/DTD/svg11.dtd">
<svg version="1.1"
	 id="svg2" xmlns:dc="http://purl.org/dc/elements/1.1/" xmlns:rdf="http://www.w3.org/1999/02/22-rdf-syntax-ns#" xmlns:cc="http://creativecommons.org/ns#" xmlns:svg="http://www.w3.org/2000/svg"
	 xmlns="http://www.w3.org/2000/svg" xmlns:xlink="http://www.w3.org/1999/xlink" x="0px" y="0px" width="220.238px"
	 height="220.238px" viewBox="0 0 220.238 220.238" enable-background="new 0 0 220.238 220.238" xml:space="preserve">
<g id="g10" transform="matrix(1.25,0,0,-1.25,0,220.2375)">
	<g id="g12" transform="scale(0.1,0.1)">
		<path id="path14" fill="#100F0D" d="M725.606,870.763c0,49.035,1.855,65.422,8.867,85.949
			c16.836,51.879,57.441,78.047,113.086,78.047c53.711,0,92.984-26.168,110.742-70.555c1.352-2.352,0.445-4.668-2.367-5.594
			l-50.922-22.906c-2.805-1.402-5.172-0.492-6.562,2.355c-8.844,20.551-23.82,35.945-50.441,35.945
			c-24.754,0-40.645-13.07-47.656-35.004c-3.75-11.699-5.137-22.914-5.137-68.238c0-45.328,1.387-56.547,5.137-68.211
			c7.012-21.992,22.902-35.07,47.656-35.07c26.621,0,41.597,15.43,50.441,36.016c1.391,2.781,3.758,3.734,6.562,2.312l23.188-10.453
			l27.734-12.445c2.812-0.914,3.719-3.273,2.367-5.602c-17.758-44.391-57.031-70.547-110.742-70.547
			c-55.645,0-96.25,26.156-113.086,78.031C727.461,805.357,725.606,821.716,725.606,870.763"/>
		<path id="path16" fill="#100F0D" d="M1253.496,711.888c-3.281,0-5.141,1.883-6.117,4.664l-55.086,197.652h-0.953l-30.438-108.269
			l-25.156-89.383c-0.945-2.781-2.797-4.664-6.055-4.664h-46.758c-2.773,0-4.656,1.883-5.594,4.664l-82.266,308.386
			c-0.445,2.801,0.492,4.691,3.781,4.691h60.266c3.266,0,5.156-1.891,5.641-4.691l45.734-199.519h0.945l54.211,199.519
			c0.906,2.801,2.789,4.691,6.039,4.691h40.664c2.805,0,4.695-1.891,5.609-4.691l56.086-199.519h0.914l43.938,199.519
			c0.453,3.281,2.336,4.691,5.594,4.691h59.828c3.227,0,4.172-1.891,3.734-4.691l-81.758-308.386
			c-0.477-2.781-2.82-4.664-6.102-4.664H1253.496"/>
		<path id="path18" fill="#100F0D" d="M880.977,56.56c-220.223,0-427.246,85.742-582.949,241.438
			C142.324,453.732,56.543,660.771,56.543,880.947c0,220.223,85.781,427.254,241.484,582.945
			c155.703,155.719,362.754,241.469,582.949,241.469c220.176,0,427.215-85.75,582.91-241.469
			c155.719-155.691,241.469-362.723,241.469-582.945c0-220.199-85.75-427.23-241.469-582.949
			C1308.191,142.302,1101.152,56.56,880.977,56.56z M880.977,1761.9C395.215,1761.9,0,1366.7,0,880.947
			C0,395.185,395.215-0.002,880.977-0.002c485.738,0,880.933,395.188,880.933,880.949
			C1761.91,1366.7,1366.715,1761.9,880.977,1761.9"/>
		<path id="path20" fill="#33B7E7" d="M643.41,897.478h-90.996v92.211c0,6.363-4.648,10.973-11.047,10.973h-33.223
			c-6.375,0-11.004-4.609-11.004-10.973v-92.211h-90.988c-6.395,0-11.016-4.629-11.016-11.016v-32.027
			c0-6.391,4.621-11.039,11.016-11.039h90.988v-92.164c0-6.375,4.629-11.016,11.004-11.016h33.223
			c6.398,0,11.047,4.641,11.047,11.016v92.164h90.996c6.348,0,11.016,4.648,11.016,11.039v32.027
			C654.426,892.849,649.758,897.478,643.41,897.478"/>
	</g>
</g>
</svg>
