<?xml version="1.0" encoding="utf-8"?>
<!-- Generator: Adobe Illustrator 16.0.0, SVG Export Plug-In . SVG Version: 6.00 Build 0)  -->
<!DOCTYPE svg PUBLIC "-//W3C//DTD SVG 1.1//EN" "http://www.w3.org/Graphics/SVG/1.1/DTD/svg11.dtd">
<svg version="1.1" id="Laag_1" xmlns="http://www.w3.org/2000/svg" xmlns:xlink="http://www.w3.org/1999/xlink" x="0px" y="0px"
	 width="660.92px" height="218.452px" viewBox="0 0 660.92 218.452" enable-background="new 0 0 660.92 218.452"
	 xml:space="preserve">
<g>
	<path fill="#231F20" d="M24.111,150.069c-16.2,0-24.111-8.1-24.111-24.111V72.461C0,56.449,7.912,48.35,24.111,48.35h38.616V5.956
		h17.519v120.002c0,16.012-8.1,24.111-24.111,24.111H24.111z M62.727,64.361H24.111c-4.521,0-6.593,3.391-6.593,8.1v53.497
		c0,4.709,2.072,8.1,6.593,8.1h32.023c4.521,0,6.593-3.391,6.593-8.1V64.361z"/>
	<path fill="#231F20" d="M305.229,150.069V72.461c0-4.709-2.261-8.1-6.593-8.1h-22.228c-4.333,0-6.593,3.391-6.593,8.1v77.608
		h-17.519V72.461c0-4.709-2.449-8.1-6.593-8.1h-22.039c-4.521,0-6.593,3.391-6.593,8.1v77.608h-17.519V72.461
		c0-16.012,8.1-24.111,24.111-24.111h22.039c5.462,0,12.809,3.579,15.447,8.854c2.448-5.463,9.418-8.854,15.258-8.854h22.228
		c16.012,0,24.111,8.1,24.111,24.111v77.608H305.229z"/>
	<path fill="#231F20" d="M365.753,150.069c-16.199,0-24.111-8.1-24.111-24.111V72.461c0-16.012,7.912-24.111,24.111-24.111h31.835
		c16.2,0,24.3,8.1,24.3,24.111v10.737c0,14.504-8.477,17.519-23.923,19.967l-38.805,6.028v16.765c0,4.709,2.072,8.1,6.593,8.1
		h51.237v16.012H365.753z M404.37,72.461c0-4.709-2.072-8.1-6.781-8.1h-31.835c-4.521,0-6.593,3.391-6.593,8.1V93.37l38.051-6.028
		c4.897-0.753,7.158-2.26,7.158-4.709V72.461z"/>
	<path fill="#231F20" d="M462.551,150.069c-16.199,0-24.111-8.1-24.111-24.111V72.461c0-16.012,7.912-24.111,24.111-24.111h38.616
		V5.956h17.519v120.002c0,16.012-8.1,24.111-24.111,24.111H462.551z M501.167,64.361h-38.616c-4.521,0-6.593,3.391-6.593,8.1v53.497
		c0,4.709,2.072,8.1,6.593,8.1h32.023c4.521,0,6.593-3.391,6.593-8.1V64.361z"/>
	<path fill="#231F20" d="M559.51,23.475h-17.519V5.956h17.519V23.475z M541.992,150.069V48.35h17.519v101.72H541.992z"/>
	<path fill="#231F20" d="M604.975,150.069c-16.2,0-24.3-8.1-24.3-24.111v-15.446c0-14.128,8.665-21.286,23.923-23.546l38.805-5.84
		v-8.665c0-4.709-2.072-8.1-6.594-8.1h-52.555V48.35h52.555c16.2,0,24.111,8.1,24.111,24.111v53.497
		c0,16.012-7.911,24.111-24.111,24.111H604.975z M643.403,97.138l-38.051,5.839c-3.956,0.565-7.158,3.391-7.158,7.535v15.446
		c0,4.709,2.072,8.1,6.781,8.1h31.834c4.521,0,6.594-3.391,6.594-8.1V97.138z"/>
</g>
<g>
	<path fill="#76B900" d="M136.425,0.019L108.008,0c-6.042,0-15.111,4.097-15.111,15.204l0.116,24.767L108.595,50.7h12.671
		c6.041,0,15.111-4.091,15.111-15.207L136.425,0.019z M75.022,46.512l0.05,43.366l5.154,3.692v56.499c0,0,8.164,5.694,13.315,9.002
		c8.765,5.62,8.205-2.418,8.205-2.418v-27.581c0,0-0.282-3.075,3.127-3.075c2.985,0,3.204,3.196,3.204,3.196v38.542l7.073,4.669
		c7.242,4.837,15.117-0.243,15.117-0.243l13.318-8.86l0.133-37.481l10.558-7.161V57.169c0-0.526-0.098-1.034-0.236-1.511
		c-0.866-4.714-5.003-8.308-9.982-8.308c-5.487,0-9.942,4.366-10.126,9.818h-27.2L88.903,45.335
		c-1.886-1.291-4.985-3.94-8.238-3.906C80.665,41.429,75.022,41.095,75.022,46.512z"/>
</g>
<path fill="#231F20" d="M133.564,106.58c-7.393,0-13.184-5.786-13.184-13.172c0-7.399,5.791-13.195,13.184-13.195h41.361
	c7.39,0,13.179,5.796,13.179,13.195c0,7.386-5.789,13.172-13.179,13.172H133.564z"/>
<g>
	<path fill="#FFFFFF" d="M133.564,99.21c-3.314,0-5.814-2.494-5.814-5.802c0-3.321,2.5-5.825,5.814-5.825h41.361
		c3.312,0,5.809,2.504,5.809,5.825c0,3.308-2.498,5.802-5.809,5.802H133.564z"/>
</g>
<g>
	<g>
		<path fill="#76B900" d="M222.104,206.952c-1.8,0-2.95-0.55-3.9-1.95l-2.3-3.399h-0.2l-2.3,3.399c-0.95,1.4-2.1,1.95-3.9,1.95h-4.2
			c-4,0-6-2-6-6V179.95h3.4v21.002c0,1.75,0.85,3,2.6,3h4.2c0.95,0,1.45-0.6,2-1.35l1.75-2.4c0.5-0.701,0.85-1.5,0.85-2.25V184.45
			h3.4v13.502c0,0.75,0.35,1.549,0.85,2.25l1.75,2.4c0.55,0.75,1.05,1.35,2,1.35h4.2c1.75,0,2.6-1.25,2.6-3V179.95h3.4v21.002
			c0,4-2,6-6,6H222.104z"/>
		<path fill="#76B900" d="M248.683,206.952c-4,0-6-2-6-6V185.95c0-4,2-6,6-6h8.951c4.05,0,6.05,2,6.05,6v3.001
			c0,3.5-2.15,4.25-6.05,4.851l-11.551,1.75v5.4c0,1.75,0.85,3,2.6,3h13.651v3H248.683z M260.284,185.95c0-1.75-0.85-3-2.65-3
			h-8.951c-1.75,0-2.6,1.25-2.6,3v6.701l11.551-1.75c1.8-0.25,2.65-0.801,2.65-1.95V185.95z"/>
		<path fill="#76B900" d="M279.863,206.952c-4,0-6-2-6-6V169.45h3.4v10.5h11.601c4,0,6,2,6,6v15.002c0,4-2,6-6,6H279.863z
			 M291.463,185.95c0-1.649-0.85-3-2.6-3h-11.601v18.002c0,1.75,0.85,3,2.6,3h9c1.75,0,2.6-1.25,2.6-3V185.95z"/>
		<path fill="#76B900" d="M326.262,206.952v11.5h-3.401V185.95c0-4,2-6,6-6h9c4.001,0,6.001,2,6.001,6v15.002c0,4-2,6-6.001,6
			H326.262z M340.462,185.95c0-1.75-0.851-3-2.601-3h-9c-1.75,0-2.6,1.25-2.6,3v18.002h11.6c1.75,0,2.601-1.25,2.601-3V185.95z"/>
		<path fill="#76B900" d="M354.186,206.952v-21.102c0-3.9,2-5.9,6-5.9h7.5v3h-7.5c-1.75,0-2.6,1.25-2.6,2.9v21.102H354.186z"/>
		<path fill="#76B900" d="M383.09,206.952c-4,0-6-2-6-6V185.95c0-4,2-6,6-6h9.001c4.001,0,6.001,2,6.001,6v15.002c0,4-2,6-6.001,6
			H383.09z M394.692,185.95c0-1.75-0.851-3-2.601-3h-9.001c-1.75,0-2.6,1.25-2.6,3v15.002c0,1.75,0.85,3,2.6,3h9.001
			c1.75,0,2.601-1.25,2.601-3V185.95z"/>
		<path fill="#76B900" d="M408.44,206.952V175.5c0-4,2-6.05,6-6.05h4.501v3h-4.501c-1.75,0-2.6,1.3-2.6,3.05v4.45h5.601v3h-5.601
			v24.002H408.44z"/>
		<path fill="#76B900" d="M433.29,206.952c-4,0-6-2-6-6V185.95c0-4,2-6,6-6h8.951c4.051,0,6.051,2,6.051,6v3.001
			c0,3.5-2.15,4.25-6.051,4.851l-11.551,1.75v5.4c0,1.75,0.85,3,2.6,3h13.651v3H433.29z M444.891,185.95c0-1.75-0.851-3-2.65-3
			h-8.951c-1.75,0-2.6,1.25-2.6,3v6.701l11.551-1.75c1.8-0.25,2.65-0.801,2.65-1.95V185.95z"/>
		<path fill="#76B900" d="M459.234,206.952v-3h12.101c2.051,0,3-1.25,3-3v-3.4c0-1.6-1.1-2.601-2.649-2.851l-8.001-1.2
			c-3.75-0.55-5.45-2.199-5.45-5.65v-2c0-3.9,1.95-5.9,6.001-5.9h12.5v3h-12.5c-1.801,0-2.601,1.25-2.601,2.9v2
			c0,1.65,1.05,2.5,2.601,2.75l8,1.201c3.75,0.549,5.5,2.3,5.5,5.75v3.4c0,4-2.1,6-6.4,6H459.234z"/>
		<path fill="#76B900" d="M487.893,206.952v-3h12.102c2.05,0,3-1.25,3-3v-3.4c0-1.6-1.1-2.601-2.65-2.851l-8-1.2
			c-3.75-0.55-5.451-2.199-5.451-5.65v-2c0-3.9,1.951-5.9,6.001-5.9h12.501v3h-12.501c-1.8,0-2.601,1.25-2.601,2.9v2
			c0,1.65,1.051,2.5,2.601,2.75l8.001,1.201c3.75,0.549,5.5,2.3,5.5,5.75v3.4c0,4-2.1,6-6.4,6H487.893z"/>
		<path fill="#76B900" d="M516.803,172.851v-3.4h3.4v3.4H516.803z M516.803,206.952V179.95h3.4v27.002H516.803z"/>
		<path fill="#76B900" d="M536.852,206.952c-4,0-6-2-6-6V185.95c0-4,2-6,6-6h9.001c4.001,0,6.001,2,6.001,6v15.002c0,4-2,6-6.001,6
			H536.852z M548.454,185.95c0-1.75-0.851-3-2.601-3h-9.001c-1.75,0-2.6,1.25-2.6,3v15.002c0,1.75,0.85,3,2.6,3h9.001
			c1.75,0,2.601-1.25,2.601-3V185.95z"/>
		<path fill="#76B900" d="M579.778,206.952V185.95c0-1.75-0.85-3-2.6-3h-9.001c-1.75,0-2.601,1.25-2.601,3v21.002h-3.4V185.95
			c0-4,2.001-6,6.001-6h9.001c4,0,6,2,6,6v21.002H579.778z"/>
		<path fill="#76B900" d="M599.407,206.952c-4.05,0-6.051-2-6.051-6v-4.351c0-3.45,2.201-5.15,6.051-5.751l11.551-1.799v-3.102
			c0-1.75-0.85-3-2.6-3h-14.002v-3h14.002c4,0,6,2,6,6v15.002c0,4-2,6-6,6H599.407z M610.958,191.951l-11.551,1.8
			c-1.55,0.25-2.65,1.25-2.65,2.851v4.351c0,1.75,0.851,3,2.65,3h8.951c1.75,0,2.6-1.25,2.6-3V191.951z"/>
		<path fill="#76B900" d="M630.581,206.952c-3.899,0-5.9-2-5.9-6V169.45h3.4v31.502c0,1.75,0.75,3,2.5,3h1.551v3H630.581z"/>
		<path fill="#76B900" d="M641.905,206.952v-3h12.102c2.05,0,3-1.25,3-3v-3.4c0-1.6-1.1-2.601-2.65-2.851l-8-1.2
			c-3.75-0.55-5.451-2.199-5.451-5.65v-2c0-3.9,1.951-5.9,6.001-5.9h12.501v3h-12.501c-1.8,0-2.601,1.25-2.601,2.9v2
			c0,1.65,1.051,2.5,2.601,2.75l8.001,1.201c3.75,0.549,5.5,2.3,5.5,5.75v3.4c0,4-2.101,6-6.4,6H641.905z"/>
	</g>
</g>
</svg>
