<?xml version="1.0" encoding="utf-8"?>
<!-- Generator: Adobe Illustrator 16.0.0, SVG Export Plug-In . SVG Version: 6.00 Build 0)  -->
<!DOCTYPE svg PUBLIC "-//W3C//DTD SVG 1.1//EN" "http://www.w3.org/Graphics/SVG/1.1/DTD/svg11.dtd">
<svg version="1.1"
	 id="svg2" xmlns:cc="http://creativecommons.org/ns#" xmlns:dc="http://purl.org/dc/elements/1.1/" xmlns:rdf="http://www.w3.org/1999/02/22-rdf-syntax-ns#" xmlns:svg="http://www.w3.org/2000/svg"
	 xmlns="http://www.w3.org/2000/svg" xmlns:xlink="http://www.w3.org/1999/xlink" x="0px" y="0px" width="141.738px"
	 height="48.113px" viewBox="0 0 141.738 48.113" enable-background="new 0 0 141.738 48.113" xml:space="preserve">
<g id="g10" transform="matrix(1.25,0,0,-1.25,0,48.1125)">
	<g id="g12" transform="scale(0.1,0.1)">
		<path id="path14" fill="#231F20" d="M545.828,156.138c0,10.789-1.395,20.523-4.188,29.211
			c-2.801,8.676-6.816,16.047-12.059,22.086c-5.238,6.039-11.66,10.684-19.242,13.926c-7.59,3.242-16.227,4.867-25.91,4.867h-24.895
			V85.904h24.895c9.684,0,18.32,1.625,25.91,4.867c7.582,3.242,14.004,7.883,19.242,13.93c5.242,6.031,9.258,13.406,12.059,22.086
			C544.434,135.474,545.828,145.263,545.828,156.138z M597.652,156.138c0-15.766-2.727-30.328-8.172-43.656
			c-5.438-13.328-13.102-24.852-22.984-34.594c-9.883-9.734-21.785-17.32-35.719-22.766c-13.926-5.438-29.375-8.156-46.348-8.156
			h-75.812v218.203h75.812c16.973,0,32.422-2.746,46.348-8.238c13.934-5.492,25.836-13.082,35.719-22.762
			c9.883-9.691,17.547-21.191,22.984-34.52C594.926,186.326,597.652,171.81,597.652,156.138"/>
		<path id="path16" fill="#231F20" d="M618.761,46.966v155.304h27.555c2.305,0,4.219-0.199,5.773-0.598
			c1.547-0.402,2.844-1.027,3.891-1.875c1.047-0.852,1.844-1.977,2.391-3.371c0.555-1.402,1.031-3.094,1.43-5.086l2.539-14.531
			c5.695,8.781,12.078,15.726,19.172,20.82c7.094,5.086,14.828,7.637,23.219,7.637c7.086,0,12.781-1.703,17.07-5.094l-5.992-34.144
			c-0.406-2.094-1.203-3.57-2.391-4.422c-1.203-0.844-2.805-1.266-4.797-1.266c-1.703,0-3.688,0.219-5.992,0.672
			c-2.305,0.445-5.195,0.672-8.688,0.672c-12.18,0-21.766-6.5-28.75-19.469v-95.25H618.761"/>
		<path id="path18" fill="#231F20" d="M792.402,202.271v-98.539c0-7.695,1.742-13.625,5.234-17.828
			c3.5-4.188,8.641-6.289,15.43-6.289c5.086,0,9.852,1.055,14.305,3.148c4.438,2.094,8.75,5.039,12.953,8.828v110.679h46.422V46.966
			h-28.75c-5.797,0-9.594,2.594-11.391,7.797l-2.844,8.984c-2.992-2.906-6.086-5.523-9.281-7.875
			c-3.203-2.344-6.617-4.344-10.258-5.984c-3.648-1.648-7.562-2.938-11.758-3.891c-4.188-0.953-8.781-1.422-13.781-1.422
			c-8.484,0-16,1.469-22.531,4.414c-6.547,2.945-12.062,7.062-16.555,12.352c-4.492,5.297-7.883,11.531-10.18,18.727
			c-2.297,7.188-3.445,15.07-3.445,23.664v98.539H792.402"/>
		<path id="path20" fill="#231F20" d="M915.465,46.966h46.422v155.304h-46.422V46.966z"/>
		<path id="path22" fill="#231F20" d="M1058.074,80.216c3.391,0,6.477,0.328,9.219,0.969c2.75,0.648,5.266,1.578,7.562,2.773
			s4.469,2.695,6.516,4.492c2.039,1.797,4.07,3.891,6.07,6.297v65.891c-3.602,3.891-7.422,6.609-11.461,8.156
			c-4.047,1.547-8.312,2.328-12.812,2.328c-4.289,0-8.234-0.852-11.828-2.547c-3.594-1.703-6.711-4.422-9.359-8.172
			c-2.656-3.734-4.719-8.609-6.211-14.594c-1.5-6-2.25-13.234-2.25-21.719c0-8.188,0.602-15.078,1.805-20.664
			c1.195-5.586,2.867-10.109,5-13.555c2.156-3.438,4.727-5.914,7.727-7.414C1051.043,80.966,1054.386,80.216,1058.074,80.216z
			 M1105.105,46.966c-2.891,0-5.312,0.648-7.266,1.953c-1.953,1.297-3.32,3.234-4.125,5.844l-3.586,11.828
			c-3.102-3.297-6.336-6.297-9.727-8.992c-3.406-2.695-7.078-5.016-11.016-6.961c-3.945-1.945-8.188-3.445-12.727-4.5
			c-4.555-1.039-9.461-1.562-14.758-1.562c-8.078,0-15.578,1.797-22.461,5.391s-12.836,8.781-17.82,15.57
			c-4.992,6.789-8.906,15.102-11.75,24.93c-2.852,9.844-4.273,21.047-4.273,33.625c0,11.586,1.594,22.344,4.789,32.281
			c3.203,9.93,7.719,18.516,13.555,25.75c5.836,7.238,12.859,12.902,21.039,17c8.188,4.094,17.234,6.145,27.109,6.145
			c7.984,0,14.75-1.176,20.289-3.523c5.539-2.344,10.562-5.414,15.062-9.207v78.625h46.414V46.966H1105.105"/>
		<path id="path24" fill="#EF3428" d="M239.309,178.888c-1.258-1.281-0.188-0.062-0.051,0.047c0,0,0.055,0,0.055-0.016
			L239.309,178.888c0.027,0,0,0,0.031,0.031C239.465,177.919,239.348,178.638,239.309,178.888z M212.949,300.947
			c-27.738,27.73-54.207,54.164-62.082,83.973c-7.879-29.809-34.348-56.242-62.086-83.973C47.176,259.361,0,212.228,0,141.552
			C0,76.708,41.105,21.302,98.621-0.002c14.25,45.281,34.699,114.766,35.867,144.344c0.277,7.438-3.875,3.984-4.512,2.516
			l-0.66-1.469c0,0-29.031-91.836-32.934-100.406c-1.953-5.234-4.945,1.391-4.945,1.391l-9.07,114.602
			c-0.125,0.492-0.527,0.992-0.973,1.461c-4.242,1.242-13.156,3.828-15.027,5.516c-2.512,2.281-5.992,2.969-6.84,4.312
			c-0.852,1.336,0.07,1.719,0.07,1.719s-1.875,1.5,0.051,2.414c-2.348,1.977,0.898,2.5,1.52,2.188
			c-1.418,2.18,2.359,1.602,2.359,1.602s4.684-0.797,9.074-1.602c-0.809,1.133,1.121,2.516,2.355,2.453
			c1.848-0.102,8.281-1.766,14.309-8.961l9.555,1.812c0,0,11.977,46.039,33.367,48.359c-4.332,21.258,6.391,36.18,8.645,38.277
			c2.258,2.098,9.52,5.539,12.848,8.398c4.117-3.992,20.188-15.016,30.895-32.734c0.66-2.059-1.27-2.984-2.996-1.219
			c-2.648,2.75-7.605,7.344-8.531,5.871c-2.383-3.492,11.895-16.914,8.359-23.57c27.23-14.074,30.543-54.609,37.02-58.898
			c2.418-1.648,4.617-3.992,6.418-6.32c2.316,1.789,5,4.984,7.348,6.844c1.293,1.414,5.148,2.383,5.48,1.602l0.027,0.047
			c0,0,0.023-0.047,0.023-0.062l0.027-0.008c1.422,1.43,3.078,3.133,3.984,4.258c1.258,0.812,1.375-0.484,1.375-0.484
			s1.625,0.266,1.57-0.75c1.195-0.359,0.895-1.414,0.211-2.938c0.746-0.336,0.383-2.125,0.383-2.125s-0.758-3.258-1.551-4.641
			c-0.789-1.438-2.809-4.125-5.18-5.891c-1.902-1.406-5.496-1.953-8.852-3.359L216.004,54.06c0,0-4.832-8.219-5.016,0.555
			c-0.68,31.008-18.574,83.711-18.574,83.711s-5.426,6.016-3.824-0.391c6.035-24.438,12.301-94.203,15.594-137.516
			c56.953,21.594,97.555,76.688,97.551,141.133C301.734,212.228,254.57,259.361,212.949,300.947"/>
		<path id="path26" fill="#231F20" d="M966.683,248.38c0-3.691-0.75-7.164-2.242-10.406c-1.5-3.246-3.539-6.09-6.141-8.535
			c-2.602-2.453-5.617-4.398-9.062-5.844c-3.445-1.449-7.109-2.172-11.008-2.172c-3.797,0-7.344,0.723-10.633,2.172
			c-3.289,1.445-6.211,3.391-8.758,5.844c-2.547,2.445-4.547,5.289-5.992,8.535c-1.445,3.242-2.172,6.715-2.172,10.406
			c0,3.797,0.727,7.34,2.172,10.633c1.445,3.297,3.445,6.191,5.992,8.688s5.469,4.441,8.758,5.84s6.836,2.098,10.633,2.098
			c3.898,0,7.562-0.699,11.008-2.098s6.461-3.344,9.062-5.84s4.641-5.391,6.141-8.688
			C965.933,255.72,966.683,252.177,966.683,248.38"/>
	</g>
</g>
</svg>
