<?xml version="1.0" encoding="utf-8"?>
<!-- Generator: Adobe Illustrator 16.0.0, SVG Export Plug-In . SVG Version: 6.00 Build 0)  -->
<!DOCTYPE svg PUBLIC "-//W3C//DTD SVG 1.1//EN" "http://www.w3.org/Graphics/SVG/1.1/DTD/svg11.dtd">
<svg version="1.1" id="Layer_1" xmlns="http://www.w3.org/2000/svg" xmlns:xlink="http://www.w3.org/1999/xlink" x="0px" y="0px"
	 width="111px" height="119.332px" viewBox="0 0 111 119.332" enable-background="new 0 0 111 119.332" xml:space="preserve">
<rect fill="#231F20" width="111" height="119.332"/>
<rect y="-0.427" fill="none" width="110.88" height="120.72"/>
<path fill="#FFFFFF" d="M37.191,55.984c-1.777,0.067-3.664,0.543-4.945,1.895c-1.258,1.332-2.055,3.805-2.469,5.41
	c-0.41,1.594-0.289,2.227,0.219,2.664c0.406,0.293,0.356-0.195,1.094-2.289c0.746-2.117,0.734-4.172,5.363-4.207
	c4.047-0.031,6.344,2.562,8.414,5.047c2.125,2.551,2.848,4.02,3.625,2.605c0.785-1.421,0.531-2.88-0.883-4.695
	c-1.39-1.793-3.742-4.102-5.793-5.273C39.812,56.004,39.008,55.918,37.191,55.984"/>
<path fill="#FFFFFF" d="M58.16,77.828c-2.855,2.758-7.195,5.055-15.324,4.105c-7.387-0.859-11.957-4.41-13.996-6.995
	c-0.899-1.185-1.414-0.962-1.512-0.341c-0.101,0.625-0.105,0.512,0.586,1.684c0.496,0.844,5.164,7.027,11.141,8.727
	c6.453,1.836,15.738,3.293,22.132-3.469c1.062-1.246,1.105-2.652,0.355-3.5c-0.746-0.844-1.031-0.801-1.91-0.875
	C58.875,77.125,58.598,77.484,58.16,77.828"/>
<path fill="#FFFFFF" d="M100.906,35.277c-0.246-18.98-16.465-31.027-33.27-25.269C50.539,15.914,40.789,38.723,34.52,39.844
	c-4.84,0.84-13.11-11.149-16.743-9.934c-3.597,1.207-4.562,8.235-4.562,12.235c0,3.996,0.683,11.14,2.371,15.578
	c1.746,4.585,2.867,6.332,5.027,6.046c2.918-0.441,9.254-17.391,13.707-18.402c6.133-1.305,21.899,18.957,37.372,18.957
	c1.531,0,2.91-0.043,4.18-0.117c0.434-1.637,5.887-22.195,5.789-28.945c-0.02-1.145-0.605-0.582-0.688-0.352l-0.086,0.231
	c0,0-3.551,14.347-4.059,15.695c-0.246,0.82-0.742-0.176-0.742-0.176L73.82,33.109c-0.023-0.074-0.086-0.148-0.156-0.218
	c-0.637-0.157-1.977-0.485-2.266-0.731c-0.391-0.332-0.91-0.41-1.047-0.609c-0.137-0.199-0.004-0.266-0.004-0.266
	s-0.289-0.215-0.012-0.371c-0.363-0.285,0.113-0.391,0.207-0.348c-0.227-0.324,0.336-0.265,0.336-0.265s0.699,0.086,1.355,0.176
	c-0.129-0.168,0.145-0.395,0.328-0.395c0.273,0,1.238,0.207,2.188,1.266l1.398-0.352c0,0,1.398-7.172,4.543-7.695
	c-0.812-3.235,0.652-5.613,0.969-5.953c0.316-0.34,1.363-0.926,1.832-1.391c0.641,0.582,3.105,2.152,4.832,4.793
	c0.113,0.312-0.164,0.469-0.434,0.211c-0.414-0.402-1.184-1.07-1.309-0.836c-0.324,0.555,1.895,2.508,1.426,3.559
	c4.141,1.953,4.957,8.16,5.949,8.769c0.371,0.235,0.715,0.578,1,0.922c0.328-0.293,0.699-0.805,1.031-1.109
	c0.18-0.227,0.742-0.407,0.797-0.289l0.004-0.008c0,0,0.004,0.008,0.004,0.011h0.004c0.199-0.23,0.43-0.507,0.555-0.687
	c0.18-0.133,0.207,0.066,0.207,0.066s0.238-0.054,0.238,0.102c0.18,0.047,0.145,0.211,0.055,0.449
	c0.113,0.047,0.074,0.324,0.074,0.324s-0.086,0.508-0.191,0.727c-0.105,0.227-0.383,0.656-0.719,0.945
	c-0.27,0.23-0.797,0.344-1.281,0.586l-1.293,14.02c0,0-0.648,1.3-0.746-0.047c-0.352-4.762-3.422-12.727-3.422-12.727
	s-0.852-0.883-0.562,0.09c1.469,5.004,2.879,18.188,3.219,21.52C98.305,52.148,101.121,44.773,100.906,35.277 M96.793,31.98
	c0-0.003-0.008-0.003-0.008-0.003c-0.02,0.019-0.168,0.214,0.008,0.007V31.98 M96.797,31.98c-0.004,0.004,0,0.004-0.004,0.004
	C96.801,32.023,96.824,32.133,96.797,31.98"/>
<path fill="#FFFFFF" d="M40.555,107.145c0,1.332-0.77,1.945-1.852,1.945c-1.285,0-1.973-0.809-1.973-2.559
	c0-1.727,0.7-2.552,1.973-2.552c1.32,0,1.852,1.231,1.852,1.231V107.145z M38.648,103.168c-1.808,0-2.812,1.066-2.812,3.363
	s1.062,3.371,2.867,3.371c1.598,0,2.746-0.906,2.746-2.758v-6.941c0-0.254-0.195-0.449-0.449-0.449c-0.25,0-0.445,0.195-0.445,0.449
	v3.875C40.23,103.629,39.547,103.168,38.648,103.168 M45.215,103.703c0-0.254-0.195-0.449-0.449-0.449
	c-0.25,0-0.446,0.195-0.446,0.449v5.68c0,0.254,0.196,0.449,0.446,0.449c0.254,0,0.449-0.195,0.449-0.449v-3.133
	c0-1.289,0.656-2.184,1.945-2.184c0.238,0,0.434-0.199,0.434-0.438c0-0.234-0.196-0.43-0.434-0.43c-0.965,0-1.668,0.473-1.945,1.117
	V103.703z M49.934,103.254c-0.25,0-0.45,0.195-0.45,0.449v3.651c0,1.334,0.45,2.548,2.606,2.548c2.168,0,2.601-1.214,2.601-2.548
	v-3.651c0-0.254-0.195-0.449-0.433-0.449c-0.25,0-0.461,0.195-0.461,0.449v3.651c0,0.911-0.293,1.696-1.707,1.696
	c-1.418,0-1.711-0.785-1.711-1.696v-3.651C50.379,103.449,50.172,103.254,49.934,103.254 M58.305,103.699
	c0-0.25-0.195-0.449-0.449-0.449c-0.25,0-0.445,0.199-0.445,0.449v5.684c0,0.254,0.195,0.449,0.445,0.449
	c0.254,0,0.449-0.195,0.449-0.449V103.699z M57.855,101.938c0.336,0,0.531-0.196,0.531-0.532c0-0.406-0.195-0.559-0.531-0.559
	c-0.332,0-0.531,0.152-0.531,0.559C57.324,101.742,57.523,101.938,57.855,101.938 M65.473,107.145c0,1.332-0.77,1.945-1.848,1.945
	c-1.289,0-1.977-0.809-1.977-2.559c0-1.727,0.703-2.552,1.977-2.552c1.316,0,1.848,1.231,1.848,1.231V107.145z M63.57,103.168
	c-1.809,0-2.816,1.066-2.816,3.363s1.062,3.371,2.871,3.371c1.598,0,2.742-0.906,2.742-2.758v-6.941
	c0-0.254-0.195-0.449-0.445-0.449c-0.254,0-0.449,0.195-0.449,0.449v3.875C65.152,103.629,64.465,103.168,63.57,103.168
	 M68.891,109.832c0.402,0,0.656-0.195,0.656-0.656c0-0.465-0.254-0.672-0.656-0.672c-0.406,0-0.66,0.207-0.66,0.672
	C68.23,109.637,68.484,109.832,68.891,109.832 M72.25,104.203v5.18c0,0.254,0.195,0.449,0.445,0.449
	c0.254,0,0.449-0.195,0.449-0.449v-5.18h1.273c0.238,0,0.418-0.18,0.418-0.418s-0.18-0.418-0.418-0.418h-1.273v-0.828
	c0-0.91,0.434-1.57,1.523-1.57c0.238,0,0.422-0.18,0.422-0.418c0-0.239-0.184-0.418-0.422-0.418c-1.707,0-2.418,1.145-2.418,2.406
	v0.828h-0.477c-0.238,0-0.418,0.18-0.418,0.418s0.18,0.418,0.418,0.418H72.25z M77.875,103.699c0-0.25-0.195-0.449-0.445-0.449
	c-0.254,0-0.449,0.199-0.449,0.449v5.684c0,0.254,0.195,0.449,0.449,0.449c0.25,0,0.445-0.195,0.445-0.449V103.699z M77.43,101.938
	c0.336,0,0.531-0.196,0.531-0.532c0-0.406-0.195-0.559-0.531-0.559s-0.531,0.152-0.531,0.559
	C76.898,101.742,77.094,101.938,77.43,101.938"/>
</svg>
