<?xml version="1.0" encoding="utf-8"?>
<!-- Generator: Adobe Illustrator 16.0.0, SVG Export Plug-In . SVG Version: 6.00 Build 0)  -->
<!DOCTYPE svg PUBLIC "-//W3C//DTD SVG 1.1//EN" "http://www.w3.org/Graphics/SVG/1.1/DTD/svg11.dtd">
<svg version="1.1" id="Layer_1" xmlns="http://www.w3.org/2000/svg" xmlns:xlink="http://www.w3.org/1999/xlink" x="0px" y="0px"
	 width="539.76px" height="92.743px" viewBox="0 0 539.76 92.743" enable-background="new 0 0 539.76 92.743" xml:space="preserve">
<rect fill-rule="evenodd" clip-rule="evenodd" fill="#B0955A" width="92.743" height="92.743"/>
<path fill-rule="evenodd" clip-rule="evenodd" fill="#FFFFFF" d="M53.401,38.567c-2.473-2.921-6.913-3.288-9.835-0.817
	c-2.575,2.182-3.207,5.962-1.689,8.8c-2.984,5.185-5.601,9.757-7.529,13.748c-13.449,27.308-4.988,29.29,8.21,14.574
	c1.943-2.232,3.883-4.468,5.879-7.336c-0.489,0.119-1.297,0.212-1.93,0.161c-1.451,2.113-3.051,4.056-4.794,5.829
	c-10.228,11.604-17.219,13.1-4.564-8.525c2.419-4.108,5.378-8.974,9.223-14.881c2.194,0.499,4.465,0.05,6.355-1.55
	C55.648,46.101,56.018,41.659,53.401,38.567"/>
<path fill-rule="evenodd" clip-rule="evenodd" fill="#FFFFFF" d="M65.117,8.797c-1.442,0.036-4.745,1.271-8.813,3.936
	c-3.727,2.394-8.022,5.785-12.595,10.499c-2.087,1.923-3.884,4.167-6.024,6.685c-3.396,4.057-6.87,9.004-10.254,14.704
	c-0.15,0.242-0.309,0.504-0.472,0.776c-0.81,1.353-1.793,3.046-2.858,4.978c-0.867,1.574-1.786,3.304-2.72,5.126l3.617,3.988
	c0.889-1.783,1.804-3.53,2.682-5.169c0.958-1.782,1.878-3.431,2.675-4.854c3.975-6.996,8.363-13.209,12.498-18.403
	c1.084-1.408,2.311-2.654,3.369-3.764c4.253-4.737,8.43-8.585,12.009-11.138c4.612-3.369,8.262-4.875,9.621-4.024
	c2.578,1.541,2.396,7.19-0.419,15.464c0.437,0.483,0.702,1.099,1.139,1.579C73.021,16.859,72.344,8.314,65.117,8.797"/>
<polygon fill="#231F20" points="158.076,78.919 121.329,78.919 121.329,13.957 158.076,13.957 158.076,22.932 131.949,22.932 
	131.949,40.617 156.432,40.617 156.432,49.503 131.949,49.503 131.949,69.899 158.076,69.899 "/>
<polygon fill="#231F20" points="172.117,78.919 172.117,13.957 182.736,13.957 182.736,69.811 210.24,69.811 210.24,78.919 "/>
<path fill="#231F20" d="M279.112,46.349c0,10.577-2.644,18.796-7.93,24.662c-5.289,5.864-12.775,8.797-22.462,8.797
	c-9.804,0-17.336-2.91-22.593-8.731c-5.259-5.819-7.887-14.092-7.887-24.815c0-10.724,2.643-18.958,7.931-24.706
	c5.288-5.747,12.834-8.621,22.639-8.621c9.656,0,17.121,2.919,22.394,8.754C276.477,27.524,279.112,35.745,279.112,46.349
	 M229.525,46.349c0,7.999,1.614,14.063,4.844,18.197c3.228,4.132,8.012,6.197,14.351,6.197c6.311,0,11.071-2.044,14.286-6.132
	c3.214-4.088,4.821-10.175,4.821-18.263c0-7.968-1.593-14.011-4.777-18.129c-3.185-4.116-7.931-6.176-14.24-6.176
	c-6.37,0-11.176,2.06-14.419,6.176C231.147,32.337,229.525,38.38,229.525,46.349"/>
<path fill="#231F20" d="M347.185,78.919h-13.019l-31.948-51.766h-0.354l0.222,2.889c0.414,5.509,0.622,10.545,0.622,15.107v33.77
	h-9.642V13.957h12.886l31.858,51.499h0.268c-0.061-0.682-0.179-3.162-0.356-7.442c-0.178-4.281-0.266-7.621-0.266-10.021V13.957
	h9.729V78.919z"/>
<rect x="364.337" y="13.957" fill="#231F20" width="10.619" height="64.962"/>
<path fill="#231F20" d="M429.564,61.278c0,5.777-2.088,10.31-6.266,13.599c-4.175,3.287-9.938,4.931-17.284,4.931
	s-13.359-1.139-18.04-3.422V66.345c2.962,1.393,6.11,2.489,9.443,3.288c3.332,0.8,6.434,1.2,9.308,1.2c4.206,0,7.311-0.801,9.31-2.4
	c2-1.599,2.999-3.747,2.999-6.443c0-2.428-0.918-4.486-2.754-6.176c-1.839-1.688-5.63-3.687-11.375-5.998
	c-5.927-2.4-10.104-5.14-12.531-8.221c-2.43-3.08-3.644-6.783-3.644-11.108c0-5.421,1.926-9.687,5.775-12.797
	c3.851-3.111,9.021-4.665,15.508-4.665c6.221,0,12.411,1.362,18.573,4.087l-3.376,8.665c-5.777-2.429-10.931-3.644-15.463-3.644
	c-3.438,0-6.043,0.748-7.821,2.244c-1.777,1.496-2.666,3.474-2.666,5.932c0,1.688,0.356,3.133,1.067,4.332
	c0.711,1.2,1.881,2.333,3.51,3.399c1.628,1.067,4.561,2.474,8.797,4.221c4.771,1.985,8.266,3.837,10.487,5.555
	s3.85,3.659,4.888,5.82C429.046,55.8,429.564,58.347,429.564,61.278"/>
<path fill="#231F20" d="M482.44,78.919l-6.486-18.04h-24.84l-6.354,18.04h-11.197l24.305-65.229h11.554l24.305,65.229H482.44z
	 M473.153,51.726l-6.087-17.685c-0.443-1.185-1.059-3.051-1.844-5.599c-0.785-2.547-1.326-4.413-1.622-5.598
	c-0.8,3.643-1.97,7.628-3.51,11.952l-5.865,16.93H473.153z"/>
<path fill="#231F20" d="M539.76,61.278c0,5.777-2.088,10.31-6.266,13.599c-4.175,3.287-9.938,4.931-17.284,4.931
	s-13.359-1.139-18.04-3.422V66.345c2.962,1.393,6.11,2.489,9.443,3.288c3.332,0.8,6.434,1.2,9.308,1.2c4.206,0,7.311-0.801,9.31-2.4
	c2-1.599,2.999-3.747,2.999-6.443c0-2.428-0.918-4.486-2.754-6.176c-1.839-1.688-5.63-3.687-11.375-5.998
	c-5.927-2.4-10.104-5.14-12.531-8.221c-2.43-3.08-3.644-6.783-3.644-11.108c0-5.421,1.925-9.687,5.775-12.797
	c3.851-3.111,9.021-4.665,15.508-4.665c6.221,0,12.411,1.362,18.573,4.087l-3.376,8.665c-5.777-2.429-10.931-3.644-15.463-3.644
	c-3.438,0-6.043,0.748-7.821,2.244c-1.777,1.496-2.666,3.474-2.666,5.932c0,1.688,0.356,3.133,1.067,4.332
	c0.711,1.2,1.881,2.333,3.51,3.399c1.628,1.067,4.561,2.474,8.797,4.221c4.771,1.985,8.266,3.837,10.487,5.555
	s3.85,3.659,4.888,5.82C539.241,55.8,539.76,58.347,539.76,61.278"/>
</svg>
