<?xml version="1.0" encoding="utf-8"?>
<!-- Generator: Adobe Illustrator 16.0.0, SVG Export Plug-In . SVG Version: 6.00 Build 0)  -->
<!DOCTYPE svg PUBLIC "-//W3C//DTD SVG 1.1//EN" "http://www.w3.org/Graphics/SVG/1.1/DTD/svg11.dtd">
<svg version="1.1" xmlns="http://www.w3.org/2000/svg" xmlns:xlink="http://www.w3.org/1999/xlink" x="0px" y="0px"
	 width="385.727px" height="70.039px" viewBox="0 0 385.727 70.039" enable-background="new 0 0 385.727 70.039"
	 xml:space="preserve">
<g id="Layer_1" display="none">
	<rect x="-218.085" y="-247.953" display="inline" fill="#005191" width="30.667" height="30.667"/>
	<rect x="-218.085" y="-207.287" display="inline" fill="#E32213" width="30.667" height="30.667"/>
	<rect x="-218.085" y="-166.62" display="inline" fill="#ABAAAA" width="30.667" height="30.667"/>
	<rect x="-175.193" y="-238.287" display="inline" fill="none" width="328.667" height="13.333"/>
	
		<text transform="matrix(1 0 0 1 -175.1934 -229.7666)" display="inline" fill="#1D1D1B" font-family="'MyriadPro-Regular'" font-size="12">PMS 294 C</text>
	<rect x="-175.193" y="-196.62" display="inline" fill="none" width="328.667" height="13.333"/>
	
		<text transform="matrix(1 0 0 1 -175.1934 -188.1001)" display="inline" fill="#1D1D1B" font-family="'MyriadPro-Regular'" font-size="12">PMS 485 C</text>
	<rect x="-175.193" y="-154.953" display="inline" fill="none" width="328.667" height="13.333"/>
	
		<text transform="matrix(1 0 0 1 -175.1934 -146.4331)" display="inline" fill="#1D1D1B" font-family="'MyriadPro-Regular'" font-size="12">PMS Cool Gray 8 C</text>
</g>
<g id="Layer_2">
	
		<ellipse transform="matrix(0.4314 -0.9022 0.9022 0.4314 5.2475 62.3829)" fill="#E03C31" cx="52.113" cy="27.029" rx="7.729" ry="11.538"/>
	<path fill="#BFCBDA" d="M58.579,6.794C48.28,1.8,37.666-0.375,28.344,0.053C41.418,1.158,54.463,7.28,60.12,10.244
		c0.811,0.417,1.606,0.847,2.382,1.294c0.35,0.2,0.543,0.314,0.543,0.314c-0.014-0.003-0.025-0.007-0.039-0.013
		c15.44,9.145,23.488,24.257,18.156,35.25c-5.788,11.92-25.098,14.486-43.128,5.738C19.997,44.075,10.069,27.32,15.848,15.402
		c0.088-0.182,0.188-0.353,0.282-0.53c-0.003,0-0.008,0-0.012,0c0.041-0.066,0.08-0.134,0.12-0.2
		c0.136-0.249,0.278-0.491,0.427-0.729c1.742-3.061,2.905-6.669-2.363-10.801C8.854,5.538,4.584,9.277,2.151,14.288
		c-7.559,15.587,5.434,37.506,29.032,48.955c23.59,11.447,48.852,8.094,56.422-7.498C95.163,40.163,82.169,18.243,58.579,6.794z"/>
	<path fill="#002F6C" d="M17.368,0.88c3.043,1.305,6.955,4.696,7.128,9.216c0.036,5.07-2.007,5.375-2.225,12.975
		C22.143,31.682,29.54,41.528,41.194,47.1c14.296,6.832,29.58,4.646,34.141-4.887c3.359-7.028-0.118-15.974-7.817-23.107
		C59.308,11.559,40.061,1.604,17.368,0.88z M68.074,35.984c-2.93,6.124-12.737,7.532-21.907,3.149
		c-9.171-4.384-14.23-12.902-11.306-19.024c2.927-6.121,12.734-7.529,21.908-3.146C65.938,21.346,70.999,29.863,68.074,35.984z"/>
	<g>
		<path fill="#888B8D" d="M121.761,48.709v9.84c0,3.488-2.229,5.826-5.34,5.826c-3.441,0-5.472-2.646-5.472-5.781
			c0-2.955,2.383-5.25,5.097-5.25c1.059,0,2.074,0.219,3.001,0.748v2.033c-0.706-0.486-1.787-0.93-2.67-0.93
			c-2.096,0-3.487,1.457-3.487,3.643c0,2.162,1.457,3.684,3.53,3.684c1.854,0,3.398-1.412,3.398-4.324v-9.488H121.761z"/>
		<path fill="#888B8D" d="M125.07,53.563h1.853v1.215h0.044c0.662-1.039,1.566-1.434,2.869-1.434h0.441v1.852h-0.287
			c-1.875,0-2.979,1.146-2.979,4.016v4.943h-1.941V53.563z"/>
		<path fill="#888B8D" d="M141.728,53.563v6.18c0,2.779-1.942,4.633-4.523,4.633c-2.581,0-4.522-1.854-4.522-4.633v-6.18h1.941v6.18
			c0,1.631,1.191,2.779,2.581,2.779c1.391,0,2.582-1.148,2.582-2.779v-6.18H141.728z"/>
		<path fill="#888B8D" d="M145.059,68.922v-9.754c0-3.486,2.229-5.824,5.34-5.824c3.441,0,5.472,2.646,5.472,5.779
			c0,2.957-2.384,5.252-5.097,5.252c-1.06,0-2.074-0.221-3.002-0.75v-2.031c0.707,0.486,1.787,0.928,2.671,0.928
			c2.097,0,3.486-1.455,3.486-3.641c0-2.162-1.456-3.686-3.53-3.686c-1.854,0-3.398,1.412-3.398,4.326v9.4H145.059z"/>
		<path fill="#888B8D" d="M167.344,64.155v-5.957c0-1.984-1.678-3.002-3.443-3.002c-2.141,0-3.486,1.699-3.486,3.709
			c0,1.963,1.435,3.617,3.464,3.617c1.104,0,2.009-0.619,2.671-1.455v2.295c-0.773,0.574-1.523,1.014-2.869,1.014
			c-3.045,0-5.207-2.514-5.207-5.627c0-3.023,2.074-5.404,5.473-5.404c3.266,0,5.34,1.984,5.34,5.031v5.779H167.344z"/>
		<path fill="#888B8D" d="M173.1,64.155V48.709h1.941v15.445H173.1z"/>
		<path fill="#888B8D" d="M200.416,53.563v7.195c0,1.984-1.634,3.617-3.796,3.617c-1.191,0-2.383-0.484-3.089-1.5
			c-0.707,1.016-1.898,1.5-3.09,1.5c-2.162,0-3.795-1.633-3.795-3.617v-7.195h1.941v6.754c0,1.346,0.75,2.205,1.898,2.205
			c1.258,0,2.074-0.705,2.074-2.514v-6.445h1.941v6.445c0,1.809,0.816,2.514,2.074,2.514c1.146,0,1.897-0.859,1.897-2.205v-6.754
			H200.416z"/>
		<path fill="#888B8D" d="M207.077,60.67l-0.796-1.547l5.229-2.91c-0.662-0.662-1.213-1.018-2.405-1.018
			c-2.006,0-3.463,1.5-3.463,3.664c0,2.162,1.457,3.662,3.463,3.662c2.296,0,3.156-1.367,3.554-3.311l1.965,0.244
			c-0.222,2.803-2.472,4.92-5.519,4.92c-2.934,0-5.492-2.25-5.492-5.516s2.559-5.516,5.492-5.516c2.473,0,4.127,1.299,5.12,3.352
			L207.077,60.67z"/>
		<path fill="#888B8D" d="M219.498,48.709v9.488c0,2.912,1.544,4.324,3.397,4.324c2.073,0,3.531-1.521,3.531-3.684
			c0-2.186-1.391-3.643-3.486-3.643c-0.884,0-1.965,0.443-2.671,0.93v-2.033c0.928-0.529,1.942-0.748,3.001-0.748
			c2.715,0,5.098,2.295,5.098,5.25c0,3.135-2.03,5.781-5.473,5.781c-3.11,0-5.339-2.338-5.339-5.826v-9.84H219.498z"/>
		<path fill="#888B8D" d="M249.371,48.709v9.84c0,3.488-2.228,5.826-5.34,5.826c-3.441,0-5.472-2.646-5.472-5.781
			c0-2.955,2.382-5.25,5.099-5.25c1.058,0,2.073,0.219,3,0.748v2.033c-0.706-0.486-1.787-0.93-2.669-0.93
			c-2.098,0-3.487,1.457-3.487,3.643c0,2.162,1.456,3.684,3.529,3.684c1.854,0,3.397-1.412,3.397-4.324v-9.488H249.371z"/>
		<path fill="#888B8D" d="M255.835,60.67l-0.795-1.547l5.23-2.91c-0.662-0.662-1.214-1.018-2.405-1.018
			c-2.009,0-3.465,1.5-3.465,3.664c0,2.162,1.456,3.662,3.465,3.662c2.295,0,3.155-1.367,3.553-3.311l1.964,0.244
			c-0.222,2.803-2.473,4.92-5.517,4.92c-2.936,0-5.494-2.25-5.494-5.516s2.559-5.516,5.494-5.516c2.47,0,4.126,1.299,5.118,3.352
			L255.835,60.67z"/>
		<path fill="#888B8D" d="M275.538,53.563l-3.708,9.732c-0.353,0.947-0.816,1.08-1.499,1.08c-0.685,0-1.148-0.133-1.501-1.08
			l-3.686-9.732h2.119l3.089,8.211l3.067-8.211H275.538z"/>
		<path fill="#888B8D" d="M280.81,60.67l-0.794-1.547l5.229-2.91c-0.662-0.662-1.213-1.018-2.405-1.018
			c-2.009,0-3.463,1.5-3.463,3.664c0,2.162,1.454,3.662,3.463,3.662c2.294,0,3.154-1.367,3.553-3.311l1.964,0.244
			c-0.221,2.803-2.472,4.92-5.517,4.92c-2.935,0-5.495-2.25-5.495-5.516s2.561-5.516,5.495-5.516c2.471,0,4.127,1.299,5.119,3.352
			L280.81,60.67z"/>
		<path fill="#888B8D" d="M291.884,64.155V48.709h1.942v15.445H291.884z"/>
		<path fill="#888B8D" d="M302.895,53.344c2.936,0,5.493,2.25,5.493,5.516s-2.558,5.516-5.493,5.516
			c-2.935,0-5.494-2.25-5.494-5.516S299.96,53.344,302.895,53.344z M302.895,62.522c2.008,0,3.465-1.5,3.465-3.662
			c0-2.164-1.457-3.664-3.465-3.664s-3.465,1.5-3.465,3.664C299.43,61.022,300.887,62.522,302.895,62.522z"/>
		<path fill="#888B8D" d="M311.366,68.922v-9.754c0-3.486,2.229-5.824,5.34-5.824c3.441,0,5.473,2.646,5.473,5.779
			c0,2.957-2.384,5.252-5.097,5.252c-1.061,0-2.075-0.221-3.002-0.75v-2.031c0.706,0.486,1.788,0.928,2.67,0.928
			c2.097,0,3.486-1.455,3.486-3.641c0-2.162-1.455-3.686-3.53-3.686c-1.854,0-3.398,1.412-3.398,4.326v9.4H311.366z"/>
		<path fill="#888B8D" d="M325.287,64.155v-7.193c0-1.984,1.632-3.617,3.795-3.617c1.191,0,2.384,0.484,3.09,1.5
			c0.706-1.016,1.897-1.5,3.088-1.5c2.164,0,3.797,1.633,3.797,3.617v7.193h-1.942v-6.752c0-1.346-0.751-2.207-1.898-2.207
			c-1.257,0-2.074,0.707-2.074,2.518v6.441h-1.94v-6.441c0-1.811-0.817-2.518-2.076-2.518c-1.146,0-1.896,0.861-1.896,2.207v6.752
			H325.287z"/>
		<path fill="#888B8D" d="M345.717,60.67l-0.795-1.547l5.23-2.91c-0.662-0.662-1.214-1.018-2.405-1.018
			c-2.007,0-3.465,1.5-3.465,3.664c0,2.162,1.458,3.662,3.465,3.662c2.295,0,3.156-1.367,3.554-3.311l1.963,0.244
			c-0.22,2.803-2.471,4.92-5.517,4.92c-2.934,0-5.494-2.25-5.494-5.516s2.561-5.516,5.494-5.516c2.472,0,4.127,1.299,5.118,3.352
			L345.717,60.67z"/>
		<path fill="#888B8D" d="M356.308,64.155v-6.178c0-2.781,1.942-4.633,4.523-4.633s4.524,1.852,4.524,4.633v6.178h-1.943v-6.178
			c0-1.635-1.192-2.781-2.581-2.781c-1.391,0-2.581,1.146-2.581,2.781v6.178H356.308z"/>
		<path fill="#888B8D" d="M374.841,55.417h-3.795v5.562c0,0.99,0.464,1.322,1.456,1.322h2.339v1.854h-2.603
			c-1.987,0-3.135-1.324-3.135-3.418v-9.82h1.942v2.646h3.795V55.417z"/>
	</g>
	<path fill="#E03C31" d="M110.949,37.288V5.834h17.553v4.34h-12.439v7.885h12.439v4.49h-12.439v10.162h12.439v4.577H110.949z"/>
	<path fill="#E03C31" d="M133.584,37.288l16.027-27.114H136.27v-4.34h21.205l-15.876,26.877h16.07v4.577H133.584z"/>
	<path fill="#002F6C" d="M187.843,13.482c-1.446-1.231-2.976-2.155-4.587-2.771c-1.611-0.615-3.305-0.924-5.081-0.924
		c-3.438,0-6.234,1.104-8.39,3.309c-2.156,2.206-3.233,5.063-3.233,8.572c0,3.395,1.049,6.195,3.147,8.4
		c2.098,2.206,4.744,3.309,7.938,3.309c1.862,0,3.634-0.329,5.317-0.988c1.683-0.658,3.298-1.654,4.845-2.986v5.779
		c-1.375,0.988-2.872,1.727-4.49,2.213s-3.373,0.73-5.264,0.73c-2.406,0-4.63-0.395-6.671-1.182
		c-2.041-0.788-3.835-1.948-5.382-3.481c-1.532-1.504-2.711-3.276-3.534-5.317c-0.824-2.041-1.235-4.214-1.235-6.521
		c0-2.306,0.411-4.472,1.235-6.499c0.823-2.026,2.016-3.806,3.577-5.339c1.562-1.547,3.352-2.718,5.371-3.513
		s4.204-1.192,6.553-1.192c1.848,0,3.609,0.269,5.285,0.806s3.302,1.351,4.877,2.438L187.843,13.482z"/>
	<path fill="#002F6C" d="M226.869,21.625c0,2.234-0.42,4.348-1.258,6.338c-0.838,1.991-2.059,3.768-3.662,5.328
		c-1.619,1.562-3.445,2.758-5.479,3.588c-2.035,0.83-4.168,1.246-6.402,1.246c-2.264,0-4.423-0.42-6.479-1.258
		c-2.055-0.837-3.871-2.03-5.445-3.577c-1.605-1.561-2.822-3.33-3.652-5.307c-0.832-1.977-1.246-4.096-1.246-6.359
		c0-2.248,0.414-4.368,1.246-6.359c0.83-1.99,2.047-3.773,3.652-5.35c1.604-1.561,3.422-2.75,5.457-3.566
		c2.033-0.816,4.189-1.225,6.467-1.225c2.262,0,4.407,0.408,6.434,1.225c2.027,0.816,3.842,2.006,5.447,3.566
		c1.604,1.59,2.824,3.384,3.662,5.382S226.869,19.405,226.869,21.625z M221.541,21.625c0-1.59-0.291-3.101-0.871-4.533
		c-0.58-1.432-1.414-2.707-2.502-3.824c-1.061-1.103-2.289-1.951-3.686-2.546c-1.396-0.594-2.867-0.892-4.414-0.892
		s-3.02,0.294-4.416,0.881c-1.396,0.588-2.639,1.439-3.727,2.557c-1.09,1.104-1.92,2.371-2.492,3.803
		c-0.574,1.433-0.859,2.951-0.859,4.555c0,1.59,0.285,3.094,0.859,4.512c0.572,1.418,1.402,2.686,2.492,3.803
		c1.088,1.117,2.326,1.97,3.717,2.557c1.389,0.588,2.863,0.881,4.426,0.881c1.531,0,2.989-0.293,4.371-0.881
		c1.383-0.587,2.625-1.439,3.729-2.557c1.088-1.117,1.922-2.388,2.502-3.813C221.25,24.701,221.541,23.201,221.541,21.625z"/>
	<path fill="#002F6C" d="M258.826,21.754c-0.058-0.243-0.15-0.916-0.279-2.02c-0.115-0.916-0.215-1.676-0.301-2.277
		c-0.129,0.717-0.312,1.433-0.548,2.148c-0.236,0.717-0.534,1.447-0.892,2.191l-8.229,16.758l-8.229-17.102
		c-0.344-0.701-0.641-1.382-0.892-2.041c-0.251-0.658-0.47-1.311-0.655-1.955c-0.015,0.659-0.068,1.351-0.161,2.073
		c-0.093,0.724-0.233,1.479-0.419,2.267l-3.373,15.491h-4.705l7.434-32.786l9.281,19.852c0.143,0.315,0.361,0.838,0.655,1.568
		s0.647,1.633,1.063,2.707c0.301-0.902,0.773-2.048,1.418-3.438c0.172-0.372,0.301-0.658,0.387-0.859l9.066-19.83l7.605,32.786
		h-4.748L258.826,21.754z"/>
	<path fill="#002F6C" d="M278.368,23.172v14.116h-4.791V5.834h7.734c2.292,0,3.978,0.126,5.06,0.376
		c1.081,0.251,2.023,0.663,2.825,1.235c0.988,0.73,1.762,1.716,2.32,2.954c0.559,1.239,0.838,2.604,0.838,4.093
		c0,1.49-0.279,2.865-0.838,4.125c-0.559,1.261-1.332,2.249-2.32,2.965c-0.802,0.573-1.744,0.981-2.825,1.225
		c-1.082,0.244-2.768,0.365-5.06,0.365h-1.01H278.368z M278.69,18.982h1.311c2.836,0,4.727-0.308,5.672-0.924
		c0.945-0.615,1.418-1.704,1.418-3.266c0-1.676-0.505-2.857-1.515-3.545s-2.868-1.031-5.575-1.031h-1.311V18.982z"/>
	<path fill="#002F6C" d="M315.805,37.288l-3.566-8.1h-12.461l-3.652,8.1h-5.371l15.232-32.7l15.211,32.7H315.805z M301.668,24.934
		h8.766l-3.223-7.176c-0.188-0.458-0.381-0.984-0.58-1.579c-0.201-0.594-0.402-1.257-0.602-1.987
		c-0.172,0.688-0.355,1.329-0.549,1.923c-0.193,0.595-0.391,1.143-0.59,1.644L301.668,24.934z"/>
	<path fill="#002F6C" d="M326.279,37.288v-32.7l19.98,19.229c0.544,0.545,1.096,1.125,1.654,1.74
		c0.559,0.616,1.146,1.311,1.762,2.084V5.834h4.727v32.678l-20.389-19.573c-0.545-0.529-1.071-1.088-1.579-1.676
		c-0.509-0.587-0.992-1.203-1.45-1.848v21.872H326.279z"/>
	<path fill="#002F6C" d="M369.828,37.288V22.893L359.236,5.834h5.371l6.596,10.678c0.157,0.272,0.354,0.631,0.591,1.074
		c0.236,0.444,0.476,0.924,0.72,1.439c0.2-0.501,0.411-0.974,0.634-1.418c0.222-0.443,0.454-0.852,0.698-1.225l6.768-10.549h5.113
		l-10.828,17.059v14.395H369.828z"/>
</g>
</svg>
