<?xml version="1.0" encoding="utf-8"?>
<!-- Generator: Adobe Illustrator 16.0.0, SVG Export Plug-In . SVG Version: 6.00 Build 0)  -->
<!DOCTYPE svg PUBLIC "-//W3C//DTD SVG 1.1//EN" "http://www.w3.org/Graphics/SVG/1.1/DTD/svg11.dtd">
<svg version="1.1" id="Laag_1" xmlns="http://www.w3.org/2000/svg" xmlns:xlink="http://www.w3.org/1999/xlink" x="0px" y="0px"
	 width="384.376px" height="78.65px" viewBox="0 0 384.376 78.65" enable-background="new 0 0 384.376 78.65" xml:space="preserve">
<g>
	<path fill="#717073" d="M282.959,35.931c-1.213,4.368,1.077,6.759,6.874,7.173l-2.788,8.619
		c-16.526-0.459-23.158-5.723-19.902-15.792H282.959z M319.237,39c-2.647,8.184-12.075,12.424-28.286,12.723l2.777-8.586
		c5.419-0.252,8.535-1.586,9.35-3.999c0.219-1.794-0.716-3.286-2.801-4.483c-6.552-4.298-12.755-8.045-18.608-11.241
		c-4.066-2.711-5.87-6.253-5.415-10.62C278.883,4.564,288.006,0.3,303.625,0l-2.71,8.379c-4.573,0.276-7.268,1.529-8.088,3.761
		c-1.035,1.884-0.687,3.298,1.052,4.24c7.143,3.999,12.159,6.826,15.051,8.481c1.452,0.806,2.562,1.432,3.324,1.879
		c0.76,0.449,1.182,0.697,1.268,0.742C318.774,30.701,320.679,34.539,319.237,39z"/>
	<path fill="#717073" d="M16.123,0.83h16.509L16.509,50.688H0L16.123,0.83z M26.078,28.896l2.698-8.346h20.216l-2.699,8.346H26.078z
		 M32.455,9.172l2.698-8.342h21.453l-2.698,8.342H32.455z"/>
	<path fill="#717073" d="M46.71,50.688L62.833,0.83h16.855L63.566,50.688H46.71z"/>
	<path fill="#717073" d="M88.784,0.83h15.324L87.985,50.688H72.661L88.784,0.83z M115.711,30.207l-5.53,17.103l-9.595-25.206
		l5.598-17.31L115.711,30.207z M128.57,0.83h15.521l-16.123,49.858h-15.472L128.57,0.83z"/>
	<path fill="#717073" d="M167.62,0.83h21.156l1.968,49.858h-17.152l-0.059-10.518h-14.137l5.076-8.206h9.441l0.882-20.309
		l-25.126,39.032h-16.312L167.62,0.83z"/>
	<path fill="#717073" d="M211.858,0.83h16.41l-16.123,49.858h-16.409L211.858,0.83z M237.04,42.345l-2.699,8.344h-19.03l2.699-8.344
		H237.04z"/>
	<path fill="#F99D31" d="M240.32,50.688L256.443,0.83h16.856l-16.123,49.858H240.32z"/>
	<path fill="#717073" d="M310.095,14.379c1.078-3.539-0.635-5.528-5.141-5.965L307.677,0c15.656,0.393,22.003,5.174,19.038,14.344
		L310.095,14.379z"/>
	<path fill="#F99D31" d="M333.564,0.83h50.812l-2.699,8.342h-50.812L333.564,0.83z M334.493,50.688l12.768-39.481h16.561
		l-12.768,39.481H334.493z"/>
</g>
<g>
	<path fill="#717073" d="M179.087,73.792c-3.274,0-4.549-1.3-4.288-3.558c0.47-4.06,4.084-6.778,8.107-6.778
		c3.399,0,4.576,1.5,4.331,3.618C186.766,71.153,182.886,73.792,179.087,73.792z M182.297,65.275c-2.55,0-4.445,2.34-4.709,4.618
		c-0.15,1.3,0.412,2.06,2.087,2.06c2.35,0,4.459-2.039,4.76-4.638C184.588,65.995,183.947,65.275,182.297,65.275z"/>
	<path fill="#717073" d="M192.067,73.753c-0.55,0-1.02-0.04-1.562-0.101l-1.683,4.819h-2.624l3.562-10.058
		c0.638-1.839,1.227-3.479,1.625-4.758h2.6c-0.295,0.819-0.724,1.72-1.691,3.599l0.047,0.02c1.503-2.179,3.568-3.839,5.943-3.839
		c1.849,0,2.737,0.961,2.492,3.079C200.349,70.214,197.516,73.753,192.067,73.753z M197.096,65.275c-2.1,0-4.97,3.639-5.703,5.878
		l-0.231,0.7c0.434,0.14,1.1,0.22,1.574,0.22c3.3,0,5.032-2.879,5.298-5.178C198.166,65.755,197.796,65.275,197.096,65.275z"/>
	<path fill="#717073" d="M204.751,69.354c-0.08,0.26-0.182,0.699-0.216,0.999c-0.157,1.36,0.426,1.72,2.301,1.72
		c1.175,0,2.475-0.22,3.616-0.58l-0.194,1.68c-1.318,0.38-2.871,0.619-4.496,0.619c-2.999,0-4.176-1.059-3.917-3.298
		c0.46-3.979,3.714-7.038,7.713-7.038c2.849,0,3.689,1.159,3.554,2.339C212.852,68.035,209.891,69.215,204.751,69.354z
		 M209.073,65.056c-1.8,0-3.15,1.299-3.826,2.819c3.411-0.1,5.075-0.66,5.207-1.8C210.531,65.416,209.998,65.056,209.073,65.056z"/>
	<path fill="#717073" d="M223.634,73.593h-2.624l2.253-6.298c0.514-1.419,0.258-2.02-0.717-2.02c-1.999,0-4.86,3.559-5.688,5.958
		l-0.823,2.359h-2.624l1.852-5.198c0.591-1.659,1.192-3.398,1.622-4.738h2.6c-0.222,0.619-0.669,1.679-1.684,3.539l0.047,0.02
		c1.402-1.959,3.462-3.779,5.961-3.779c2.35,0,2.944,1.34,2.235,3.359L223.634,73.593z"/>
	<path fill="#F99D31" d="M236.832,73.593h-2.674l4.76-13.495h2.674L236.832,73.593z"/>
	<path fill="#F99D31" d="M255.027,61.937h-4.549l-4.122,11.656h-2.675l4.122-11.656h-4.549l0.638-1.839h11.772L255.027,61.937z"/>
	<path fill="#717073" d="M262.882,73.792c-3.274,0-4.549-1.3-4.287-3.558c0.469-4.06,4.083-6.778,8.106-6.778
		c3.399,0,4.576,1.5,4.331,3.618C270.561,71.153,266.681,73.792,262.882,73.792z M266.092,65.275c-2.55,0-4.445,2.34-4.709,4.618
		c-0.15,1.3,0.412,2.06,2.087,2.06c2.35,0,4.46-2.039,4.76-4.638C268.383,65.995,267.742,65.275,266.092,65.275z"/>
	<path fill="#717073" d="M275.862,73.753c-0.55,0-1.02-0.04-1.562-0.101l-1.683,4.819h-2.624l3.562-10.058
		c0.638-1.839,1.227-3.479,1.625-4.758h2.6c-0.295,0.819-0.724,1.72-1.69,3.599l0.047,0.02c1.502-2.179,3.568-3.839,5.943-3.839
		c1.849,0,2.737,0.961,2.492,3.079C284.144,70.214,281.311,73.753,275.862,73.753z M280.891,65.275c-2.1,0-4.97,3.639-5.703,5.878
		l-0.231,0.7c0.434,0.14,1.1,0.22,1.574,0.22c3.3,0,5.032-2.879,5.298-5.178C281.96,65.755,281.591,65.275,280.891,65.275z"/>
	<path fill="#717073" d="M287.831,73.593h-2.624l5.163-14.596h2.624L287.831,73.593z"/>
	<path fill="#717073" d="M296.357,73.792c-3.274,0-4.549-1.3-4.287-3.558c0.469-4.06,4.083-6.778,8.106-6.778
		c3.399,0,4.576,1.5,4.331,3.618C304.036,71.153,300.156,73.792,296.357,73.792z M299.567,65.275c-2.55,0-4.445,2.34-4.709,4.618
		c-0.15,1.3,0.412,2.06,2.087,2.06c2.35,0,4.46-2.039,4.76-4.638C301.858,65.995,301.216,65.275,299.567,65.275z"/>
	<path fill="#717073" d="M313.764,65.295c-0.531-0.159-1.149-0.22-1.749-0.22c-1.475,0-2.285,0.52-2.373,1.279
		c-0.164,1.421,3.303,1.92,3.048,4.119c-0.191,1.66-2.209,3.318-5.883,3.318c-0.824,0-1.492-0.06-2.105-0.159l0.662-1.84
		c0.606,0.16,1.27,0.26,1.944,0.26c1.475,0,2.504-0.46,2.607-1.358c0.169-1.46-3.299-1.74-3.023-4.119
		c0.201-1.739,2.085-3.119,5.46-3.119c0.824,0,1.492,0.061,2.106,0.16L313.764,65.295z"/>
	<path fill="#717073" d="M323.239,65.295c-0.531-0.159-1.149-0.22-1.749-0.22c-1.475,0-2.285,0.52-2.373,1.279
		c-0.164,1.421,3.303,1.92,3.048,4.119c-0.191,1.66-2.209,3.318-5.883,3.318c-0.824,0-1.492-0.06-2.105-0.159l0.662-1.84
		c0.606,0.16,1.27,0.26,1.944,0.26c1.475,0,2.504-0.46,2.607-1.358c0.169-1.46-3.299-1.74-3.023-4.119
		c0.201-1.739,2.085-3.119,5.46-3.119c0.824,0,1.492,0.061,2.106,0.16L323.239,65.295z"/>
	<path fill="#717073" d="M326.754,73.593h-2.624l3.523-9.937h2.625L326.754,73.593z M329.7,62.177c-0.95,0-1.556-0.6-1.451-1.28
		c0.117-0.799,1.036-1.399,1.985-1.399c0.925,0,1.533,0.58,1.43,1.26C331.543,61.577,330.625,62.177,329.7,62.177z"/>
	<path fill="#717073" d="M340.803,73.593h-2.625l2.254-6.298c0.514-1.419,0.258-2.02-0.717-2.02c-1.999,0-4.861,3.559-5.688,5.958
		l-0.822,2.359h-2.624l1.851-5.198c0.592-1.659,1.193-3.398,1.623-4.738h2.6c-0.223,0.619-0.669,1.679-1.684,3.539l0.047,0.02
		c1.401-1.959,3.462-3.779,5.961-3.779c2.35,0,2.944,1.34,2.235,3.359L340.803,73.593z"/>
	<path fill="#717073" d="M353.988,74.373c-0.894,2.538-3.095,4.277-7.894,4.277c-1.399,0-2.506-0.16-3.428-0.399l0.858-2.02
		c0.931,0.38,2.157,0.58,3.282,0.58c2.475,0,4.012-0.76,4.747-2.799c0.482-1.36,0.87-2.12,1.862-3.999h-0.05
		c-1.063,1.42-3.139,3.799-5.938,3.799c-1.825,0-2.713-0.96-2.469-3.079c0.429-3.698,3.287-7.237,8.711-7.237
		c1.449,0,2.837,0.1,4.089,0.3L353.988,74.373z M353.029,65.155c-3.324,0-5.059,2.899-5.324,5.198
		c-0.133,1.14,0.237,1.62,0.937,1.62c2.1,0,4.897-3.659,5.709-5.919l0.258-0.72C354.169,65.235,353.654,65.155,353.029,65.155z"/>
	<path fill="#717073" d="M361.395,69.354c-0.081,0.26-0.182,0.699-0.216,0.999c-0.158,1.36,0.426,1.72,2.301,1.72
		c1.175,0,2.475-0.22,3.615-0.58l-0.193,1.68c-1.318,0.38-2.872,0.619-4.496,0.619c-2.999,0-4.176-1.059-3.917-3.298
		c0.46-3.979,3.713-7.038,7.712-7.038c2.849,0,3.689,1.159,3.553,2.339C369.495,68.035,366.534,69.215,361.395,69.354z
		 M365.716,65.056c-1.8,0-3.15,1.299-3.826,2.819c3.411-0.1,5.075-0.66,5.207-1.8C367.173,65.416,366.64,65.056,365.716,65.056z"/>
	<path fill="#717073" d="M380.278,73.593h-2.625l2.254-6.298c0.514-1.419,0.258-2.02-0.717-2.02c-1.999,0-4.861,3.559-5.688,5.958
		l-0.822,2.359h-2.624l1.851-5.198c0.592-1.659,1.193-3.398,1.623-4.738h2.6c-0.223,0.619-0.669,1.679-1.684,3.539l0.047,0.02
		c1.401-1.959,3.462-3.779,5.961-3.779c2.35,0,2.944,1.34,2.235,3.359L380.278,73.593z"/>
</g>
<g>
</g>
</svg>
