<?xml version="1.0" encoding="utf-8"?>
<!-- Generator: Adobe Illustrator 16.0.0, SVG Export Plug-In . SVG Version: 6.00 Build 0)  -->
<!DOCTYPE svg PUBLIC "-//W3C//DTD SVG 1.1//EN" "http://www.w3.org/Graphics/SVG/1.1/DTD/svg11.dtd">
<svg version="1.1" id="Layer_1" xmlns="http://www.w3.org/2000/svg" xmlns:xlink="http://www.w3.org/1999/xlink" x="0px" y="0px"
	 width="777.185px" height="140.875px" viewBox="9.584 24.518 777.185 140.875"
	 enable-background="new 9.584 24.518 777.185 140.875" xml:space="preserve">
<g>
	<g>
		<g>
			<path d="M51.847,134.006V85.617c0-6.7-3.628-10.189-10.88-10.189c-2.923,0-6.138,0.84-8.37,1.951v56.627H9.584V24.521h23.013
				v36.125c4.187-1.812,9.346-3.069,14.508-3.069c17.993,0,27.758,9.064,27.758,25.669v50.76H51.847z"/>
			<path d="M122.704,135.68c-22.457,0-35.288-16.868-35.288-39.333c0-22.453,12.831-39.189,35.288-39.189
				c22.458,0,35.285,16.736,35.285,39.189C157.989,118.812,145.162,135.68,122.704,135.68 M122.704,75.008
				c-8.088,0-12.271,7.255-12.271,21.062c0,13.813,4.183,21.204,12.271,21.204c8.089,0,12.275-7.391,12.275-21.204
				C134.979,82.264,130.793,75.008,122.704,75.008"/>
			<path d="M202.9,134.706c-3.347,0-7.249-0.556-9.342-1.254v30.547h-23.009v-101.4c5.995-3.068,17.153-5.439,29.289-5.439
				c24.96,0,38.493,13.948,38.493,39.054C238.331,119.502,226.194,134.706,202.9,134.706 M200.255,74.734
				c-2.648,0-5.305,0.559-6.696,1.118v40.445c1.253,0.557,4.19,1.111,6.839,1.111c9.762,0,14.917-8.645,14.917-21.197
				C215.314,82.128,209.878,74.734,200.255,74.734"/>
			<path d="M283.246,134.706c-3.35,0-7.255-0.556-9.345-1.254v30.547h-23.013v-101.4c5.995-3.068,17.152-5.439,29.293-5.439
				c24.959,0,38.492,13.948,38.492,39.054C318.673,119.502,306.536,134.706,283.246,134.706 M280.597,74.734
				c-2.656,0-5.301,0.559-6.697,1.118v40.445c1.257,0.557,4.183,1.111,6.832,1.111c9.766,0,14.924-8.645,14.924-21.197
				C295.656,82.128,290.217,74.734,280.597,74.734"/>
			<path d="M342.804,48.513c-6.975,0-12.691-5.305-12.691-11.855c0-6.558,5.718-11.998,12.691-11.998
				c6.972,0,12.831,5.439,12.831,11.998C355.634,43.208,349.774,48.513,342.804,48.513"/>
			<rect x="331.368" y="58.834" width="23.009" height="75.172"/>
			<path d="M411.846,134.006V85.197c0-6.28-3.771-10.047-10.599-10.047c-3.208,0-6.693,0.702-8.655,1.538v57.318h-23.009V62.597
				c8.37-3.204,18.274-5.439,31.386-5.439c23.568,0,33.891,9.071,33.891,25.384v51.466h-23.014V134.006z"/>
			<path d="M480.891,165.393c-13.258,0-23.157-2.514-30.414-6.002l6.276-17.852c5.163,2.648,12.974,4.465,21.628,4.465
				c9.755,0,14.084-4.742,14.084-13.664v-3.631c-3.484,1.529-8.644,2.371-12.973,2.371c-19.25,0-32.081-13.529-32.081-35.845
				c0-24.964,14.928-38.079,39.892-38.079c11.437,0,21.482,2.371,27.895,5.439v69.744
				C515.196,154.236,501.529,165.393,480.891,165.393 M492.465,75.571c-1.673-0.562-4.329-0.976-7.395-0.976
				c-8.922,0-14.646,6.415-14.646,19.802c0,13.251,5.44,19.666,14.369,19.666c2.656,0,5.999-0.833,7.672-1.673V75.571z"/>
			<path d="M597.073,99.417l-46.862,6.146c1.812,8.224,8.929,12.269,18.271,12.269c7.532,0,15.621-1.809,21.203-4.6l6.408,17.01
				c-6.828,3.213-18.125,5.44-29.424,5.44c-26.086,0-38.916-17.011-38.916-39.333c0-23.005,13.393-39.189,35.985-39.189
				c21.896,0,33.618,14.646,33.618,35.288C597.357,94.817,597.357,97.045,597.073,99.417 M563.184,73.342
				c-8.088,0-14.364,5.575-14.504,17.985l26.495-3.347C575.175,78.497,570.575,73.342,563.184,73.342"/>
			<path d="M649.247,76.688c-2.235-0.836-5.443-1.396-8.513-1.396c-2.931,0-5.722,0.42-7.808,1.253v57.461h-23.021v-71.41
				c8.37-3.204,19.389-5.439,32.64-5.439c4.465,0,8.231,0.416,10.876,0.84L649.247,76.688z"/>
			<polygon fill="#00E500" points="723.551,24.518 660.341,134.006 786.769,134.006 			"/>
		</g>
	</g>
</g>
</svg>
