<?xml version="1.0" encoding="utf-8"?>
<!-- Generator: Adobe Illustrator 16.0.0, SVG Export Plug-In . SVG Version: 6.00 Build 0)  -->
<!DOCTYPE svg PUBLIC "-//W3C//DTD SVG 1.1//EN" "http://www.w3.org/Graphics/SVG/1.1/DTD/svg11.dtd">
<svg version="1.1" id="Layer_1" xmlns="http://www.w3.org/2000/svg" xmlns:xlink="http://www.w3.org/1999/xlink" x="0px" y="0px"
	 width="764px" height="219px" viewBox="0 0 764 219" enable-background="new 0 0 764 219" xml:space="preserve">
<rect fill="#6EC829" width="764" height="219"/>
<path d="M88.239,123.173V99.759H72.442c0,0-3.617,0.227-5.136-1.293c-1.516-1.516-1.36-5.094-1.36-5.094V49.231H37.04v73.942H88.239
	"/>
<path d="M120.919,62.114V47.216H94.368v14.898H120.919 M120.919,123.173V67.157H94.368v56.016H120.919"/>
<path d="M220.255,123.173V92.028c0-12.099-3.363-19.941-9.86-22.965c-3.136-1.457-7.058-1.906-14.789-1.906h-66.882v56.016h26.55
	V92.364c0-2.688,0.895-3.809,3.024-3.809c2.129,0,2.914,1.008,2.914,3.809v30.809h26.551V92.251c0-2.688,0.785-3.695,3.027-3.695
	c2.129,0,2.91,1.121,2.91,3.922v30.695H220.255"/>
<path d="M285.649,94.942c0-16.47-13.109-29.802-29.464-29.802c-16.805,0-30.364,13.782-30.364,30.81
	c0,16.133,13.446,29.129,30.028,29.129C272.317,125.079,285.649,111.634,285.649,94.942 M261.45,95.165
	c0,3.25-2.465,5.828-5.492,5.828c-3.359,0-6.047-2.578-6.047-5.828c0-3.137,2.688-5.715,6.047-5.715
	C258.985,89.45,261.45,92.028,261.45,95.165"/>
<path d="M348.981,101.774h-24.199c-5.601,0-7.73-0.672-9.41-2.801c-0.894-1.008-1.344-2.465-1.344-4.031
	c0-3.363,2.465-5.828,5.938-5.828c3.136,0,5.265,1.906,5.265,4.594c0,1.121-0.226,1.684-1.007,3.027h18.261
	c3.137,0,3.36-0.113,4.032-0.898c0.785-0.895,1.234-2.574,1.234-5.152c0-14.34-11.766-25.43-27-25.43
	c-17.031,0-30.473,13.218-30.473,30.023c0,16.469,13.106,29.238,30.137,29.238C334.755,124.517,345.622,115.778,348.981,101.774"/>
<path d="M412.923,123.173V94.38c0-7.731-0.449-18.371-7.281-23.524c-3.812-2.914-8.402-3.699-21.961-3.699H353.88v56.016h26.555
	V91.806c0-2.02,1.117-3.137,3.023-3.137c2.016,0,2.914,1.008,2.914,3.359v31.145H412.923"/>
<path fill="#FFFFFF" d="M487.274,76.794c-0.672-10.196-2.242-14.453-7.285-19.832c-5.488-5.825-13.441-9.075-22.516-9.075
	c-21.062,0-38.316,17.477-38.316,38.653c0,14.34,8.289,27.672,20.504,33.047c6.273,2.691,11.312,3.586,20.5,3.586h26.328V82.618
	h-24.312V95.95c-1.008,0.113-1.793,0.113-2.465,0.113c-6.383,0-11.648-4.594-11.648-10.196c0-5.602,4.48-9.074,11.875-9.074H487.274
	"/>
<path fill="#FFFFFF" d="M530.321,88.778V67.13c0,0-29.168,0.027-35.961,0.027v56.016h26.773V96.399c0-6.387,0.898-7.621,6.051-7.621
	H530.321"/>
<path fill="#FFFFFF" d="M591.767,94.942c0-16.47-13.105-29.802-29.465-29.802c-16.805,0-30.359,13.782-30.359,30.81
	c0,16.133,13.445,29.129,30.023,29.129C578.435,125.079,591.767,111.634,591.767,94.942 M567.567,95.165
	c0,3.25-2.465,5.828-5.488,5.828c-3.359,0-6.051-2.578-6.051-5.828c0-3.137,2.691-5.715,6.051-5.715
	C565.103,89.45,567.567,92.028,567.567,95.165"/>
<g>
	<defs>
		<rect id="SVGID_1_" x="37.04" y="47.216" width="681.84" height="78"/>
	</defs>
	<clipPath id="SVGID_2_">
		<use xlink:href="#SVGID_1_"  overflow="visible"/>
	</clipPath>
	<path clip-path="url(#SVGID_2_)" fill="#FFFFFF" d="M655.103,101.774h-24.199c-5.602,0-7.73-0.672-9.414-2.801
		c-0.895-1.008-1.344-2.465-1.344-4.031c0-3.363,2.465-5.828,5.938-5.828c3.137,0,5.266,1.906,5.266,4.594
		c0,1.121-0.223,1.684-1.008,3.027h18.262c3.137,0,3.363-0.113,4.035-0.898c0.781-0.895,1.23-2.574,1.23-5.152
		c0-14.34-11.762-25.43-27-25.43c-17.027,0-30.473,13.218-30.473,30.023c0,16.469,13.109,29.238,30.137,29.238
		C640.872,124.517,651.739,115.778,655.103,101.774"/>
	<path clip-path="url(#SVGID_2_)" fill="#FFFFFF" d="M719.04,123.173V94.38c0-7.731-0.445-18.371-7.281-23.524
		c-3.809-2.914-8.402-3.699-21.957-3.699h-29.801v56.016h26.551V91.806c0-2.02,1.121-3.137,3.023-3.137
		c2.02,0,2.914,1.008,2.914,3.359v31.145H719.04"/>
</g>
<g>
	<path fill="#FFFFFF" d="M285.016,145.745h7.685v32.526h3.572v4.042h-7.943v-1.998c-0.784,0.8-1.692,1.422-2.726,1.869
		c-1.034,0.446-2.209,0.67-3.525,0.67c-1.645,0-3.177-0.286-4.595-0.858c-1.418-0.571-2.648-1.41-3.689-2.515
		c-1.042-1.104-1.857-2.46-2.444-4.065c-0.587-1.606-0.881-3.443-0.881-5.512c0-1.88,0.282-3.592,0.846-5.135
		s1.363-2.859,2.397-3.948s2.28-1.935,3.737-2.538s3.079-0.905,4.865-0.905c1.175,0,2.248,0.13,3.22,0.388
		c0.971,0.259,1.904,0.71,2.797,1.352v-9.33h-3.314V145.745z M282.643,179.047c1.3,0,2.389-0.191,3.267-0.576
		c0.877-0.384,1.684-0.959,2.421-1.728v-13.631c-0.784-0.657-1.685-1.136-2.703-1.434c-1.019-0.297-2.061-0.446-3.126-0.446
		c-1.034,0-2.005,0.192-2.914,0.576s-1.704,0.943-2.385,1.68c-0.682,0.737-1.219,1.638-1.61,2.703
		c-0.392,1.065-0.588,2.288-0.588,3.666c0,1.504,0.188,2.828,0.564,3.972c0.376,1.145,0.9,2.104,1.574,2.879
		c0.674,0.776,1.481,1.359,2.421,1.751S281.53,179.047,282.643,179.047z"/>
	<path fill="#FFFFFF" d="M315.122,157.966h7.85v20.306h2.703v4.042h-7.098v-2.256c-1.097,0.846-2.291,1.504-3.584,1.974
		c-1.292,0.471-2.675,0.705-4.148,0.705c-1.222,0-2.331-0.176-3.325-0.528c-0.995-0.353-1.841-0.901-2.539-1.646
		s-1.233-1.688-1.61-2.832c-0.376-1.144-0.564-2.507-0.564-4.089v-11.634h-3.29v-4.042h7.85v15.158c0,1.865,0.431,3.275,1.292,4.23
		c0.861,0.956,2.099,1.434,3.713,1.434c0.956,0,1.962-0.172,3.02-0.517s2.056-0.823,2.996-1.434v-14.83h-3.267V157.966z"/>
	<path fill="#FFFFFF" d="M346.849,157.966h7.85v20.306h2.703v4.042h-7.098v-2.256c-1.097,0.846-2.291,1.504-3.584,1.974
		c-1.292,0.471-2.675,0.705-4.148,0.705c-1.222,0-2.331-0.176-3.325-0.528c-0.995-0.353-1.841-0.901-2.539-1.646
		s-1.233-1.688-1.61-2.832c-0.376-1.144-0.564-2.507-0.564-4.089v-11.634h-3.29v-4.042h7.85v15.158c0,1.865,0.431,3.275,1.292,4.23
		c0.861,0.956,2.099,1.434,3.713,1.434c0.956,0,1.962-0.172,3.02-0.517s2.056-0.823,2.996-1.434v-14.83h-3.267V157.966z"/>
	<path fill="#FFFFFF" d="M381.42,163.112h-4.465v-1.504c-0.517,0-1.046,0.099-1.586,0.294c-0.541,0.196-1.046,0.493-1.516,0.893
		c-0.47,0.4-0.881,0.909-1.234,1.528s-0.607,1.352-0.764,2.197v11.751h4.136v4.042h-12.08v-4.042h3.361l0.023-16.264h-3.384v-4.042
		h7.779v3.36c0.282-0.501,0.599-0.967,0.952-1.398c0.353-0.431,0.744-0.807,1.175-1.128c0.431-0.32,0.908-0.571,1.434-0.752
		c0.524-0.18,1.093-0.271,1.704-0.271c0.814,0,1.583,0,2.303,0c0.72,0,1.441,0.017,2.162,0.048V163.112z"/>
	<path fill="#FFFFFF" d="M385.909,179.61l12.337-18.002h-7.777v3.432h-4.325v-7.074h17.415v2.773l-12.314,17.908h8.318v-4.137h4.537
		v7.803h-18.191V179.61z"/>
	<path fill="#FFFFFF" d="M422.501,180.058c-0.925,0.861-1.947,1.566-3.067,2.115c-1.12,0.548-2.394,0.822-3.819,0.822
		c-1.19,0-2.283-0.188-3.278-0.564s-1.853-0.889-2.573-1.539s-1.281-1.406-1.681-2.268s-0.599-1.778-0.599-2.75
		c0-1.034,0.152-1.95,0.458-2.75c0.306-0.799,0.713-1.492,1.222-2.079c0.509-0.588,1.104-1.082,1.786-1.481s1.395-0.72,2.139-0.963
		s1.504-0.415,2.28-0.518c0.775-0.102,1.516-0.152,2.221-0.152c1.128,0,2.076,0.035,2.844,0.105s1.465,0.169,2.092,0.294
		l0.023-1.998c0-0.861-0.126-1.609-0.376-2.244c-0.251-0.635-0.604-1.159-1.058-1.574c-0.455-0.415-0.999-0.725-1.634-0.929
		c-0.635-0.203-1.344-0.306-2.127-0.306c-0.736,0-1.441,0.051-2.115,0.153c-0.674,0.102-1.304,0.234-1.892,0.399
		c-0.588,0.164-1.128,0.353-1.622,0.563c-0.493,0.212-0.912,0.436-1.257,0.67l-1.434-3.031c0.579-0.376,1.214-0.725,1.903-1.046
		s1.414-0.596,2.174-0.822c0.76-0.228,1.535-0.407,2.327-0.541c0.791-0.133,1.57-0.2,2.338-0.2c1.41,0,2.68,0.169,3.808,0.506
		s2.084,0.857,2.867,1.562s1.387,1.603,1.81,2.691s0.635,2.394,0.635,3.913l-0.023,12.174h2.702v4.042h-7.073V180.058z
		 M416.578,179.329c0.579,0,1.159-0.071,1.739-0.212c0.579-0.141,1.128-0.333,1.645-0.576c0.518-0.242,0.995-0.524,1.434-0.846
		s0.808-0.654,1.105-0.999l0.023-5.499h-5.077c-0.846,0-1.617,0.094-2.314,0.282c-0.697,0.188-1.301,0.462-1.81,0.822
		c-0.51,0.36-0.905,0.808-1.187,1.34c-0.282,0.532-0.424,1.144-0.424,1.833c0,0.643,0.118,1.202,0.353,1.681
		c0.235,0.478,0.568,0.877,0.999,1.198s0.944,0.564,1.539,0.729C415.199,179.246,415.857,179.329,416.578,179.329z"/>
	<path fill="#FFFFFF" d="M434.511,157.966h7.755v2.844h0.047c0.533-0.454,1.093-0.882,1.681-1.281s1.202-0.748,1.845-1.046
		c0.643-0.297,1.312-0.532,2.01-0.705c0.697-0.172,1.422-0.258,2.174-0.258c1.755,0,3.267,0.325,4.536,0.975
		c1.269,0.65,2.248,1.665,2.938,3.044c0.595-0.532,1.222-1.046,1.88-1.539c0.658-0.494,1.344-0.921,2.057-1.281
		s1.461-0.65,2.244-0.869c0.783-0.22,1.599-0.329,2.444-0.329c1.316,0,2.499,0.18,3.549,0.54s1.942,0.909,2.679,1.646
		s1.297,1.681,1.681,2.832s0.576,2.511,0.576,4.077v11.657h3.384v4.042h-11.375v-4.042h3.432v-11.116c0-1.864-0.47-3.279-1.41-4.242
		c-0.94-0.964-2.296-1.445-4.065-1.445c-1.05,0-2.124,0.251-3.22,0.752c-1.098,0.501-2.037,1.136-2.82,1.903v14.148h3.36v4.042
		h-11.352v-4.042h3.432v-11.116c0-1.864-0.475-3.279-1.422-4.242c-0.948-0.964-2.308-1.445-4.077-1.445
		c-1.02,0-2.045,0.243-3.079,0.729s-2.014,1.089-2.938,1.81v14.266h3.431v4.042h-11.374v-4.042h3.384v-16.264h-3.384V157.966z"/>
	<path fill="#FFFFFF" d="M486.825,170.704c0,0.689,0.051,1.319,0.153,1.892c0.102,0.572,0.246,1.116,0.435,1.633
		c0.579,1.567,1.508,2.746,2.785,3.537c1.276,0.792,2.722,1.188,4.336,1.188c1.269,0,2.503-0.177,3.701-0.529
		s2.456-0.904,3.772-1.657l1.762,2.985c-1.598,1.097-3.204,1.911-4.817,2.444c-1.614,0.532-3.29,0.799-5.029,0.799
		c-1.646,0-3.169-0.274-4.571-0.822c-1.402-0.549-2.608-1.363-3.619-2.444s-1.802-2.429-2.374-4.043
		c-0.571-1.613-0.857-3.493-0.857-5.64c0-1.739,0.243-3.381,0.729-4.924s1.21-2.891,2.174-4.042
		c0.964-1.152,2.158-2.064,3.584-2.738s3.087-1.011,4.982-1.011c1.833,0,3.364,0.278,4.595,0.835
		c1.229,0.556,2.232,1.292,3.008,2.209c0.776,0.916,1.363,1.962,1.763,3.137c0.399,1.176,0.678,2.374,0.835,3.597
		c0.078,0.595,0.129,1.198,0.152,1.81c0.023,0.61,0.035,1.206,0.035,1.786H486.825z M493.664,160.997
		c-1.019,0-1.907,0.146-2.667,0.436c-0.761,0.29-1.406,0.705-1.939,1.245c-0.532,0.541-0.96,1.203-1.28,1.986
		c-0.321,0.783-0.561,1.66-0.717,2.632h12.62c-0.062-0.908-0.208-1.747-0.435-2.515c-0.228-0.768-0.576-1.434-1.046-1.998
		c-0.47-0.563-1.073-1.002-1.81-1.315S494.745,160.997,493.664,160.997z"/>
	<path fill="#FFFFFF" d="M518.951,157.966h7.709v4.042h-1.128l4.254,15.535l5.828-19.577h3.666l5.57,19.53l4.441-15.488h-1.41
		v-4.042h7.709v4.042h-2.092l-6.675,20.682h-4.042l-5.523-19.436l-5.499,19.436h-4.089l-6.628-20.682h-2.092V157.966z"/>
	<path fill="#FFFFFF" d="M563.511,170.704c0,0.689,0.051,1.319,0.153,1.892c0.102,0.572,0.246,1.116,0.435,1.633
		c0.579,1.567,1.508,2.746,2.785,3.537c1.276,0.792,2.722,1.188,4.336,1.188c1.269,0,2.503-0.177,3.701-0.529
		s2.456-0.904,3.772-1.657l1.762,2.985c-1.598,1.097-3.204,1.911-4.817,2.444c-1.614,0.532-3.29,0.799-5.029,0.799
		c-1.646,0-3.169-0.274-4.571-0.822c-1.402-0.549-2.608-1.363-3.619-2.444s-1.802-2.429-2.374-4.043
		c-0.571-1.613-0.857-3.493-0.857-5.64c0-1.739,0.243-3.381,0.729-4.924s1.21-2.891,2.174-4.042
		c0.964-1.152,2.158-2.064,3.584-2.738s3.087-1.011,4.982-1.011c1.833,0,3.364,0.278,4.595,0.835
		c1.229,0.556,2.232,1.292,3.008,2.209c0.776,0.916,1.363,1.962,1.763,3.137c0.399,1.176,0.678,2.374,0.835,3.597
		c0.078,0.595,0.129,1.198,0.152,1.81c0.023,0.61,0.035,1.206,0.035,1.786H563.511z M570.35,160.997
		c-1.019,0-1.907,0.146-2.667,0.436c-0.761,0.29-1.406,0.705-1.939,1.245c-0.532,0.541-0.96,1.203-1.28,1.986
		c-0.321,0.783-0.561,1.66-0.717,2.632h12.62c-0.062-0.908-0.208-1.747-0.435-2.515c-0.228-0.768-0.576-1.434-1.046-1.998
		c-0.47-0.563-1.073-1.002-1.81-1.315S571.431,160.997,570.35,160.997z"/>
	<path fill="#FFFFFF" d="M585.979,145.745h7.896v14.242c1.034-0.8,2.162-1.434,3.384-1.904c1.223-0.47,2.483-0.705,3.784-0.705
		c1.598,0,3.062,0.298,4.395,0.894s2.479,1.434,3.443,2.515c0.963,1.081,1.711,2.378,2.244,3.89
		c0.532,1.512,0.799,3.185,0.799,5.018c0,1.958-0.298,3.732-0.893,5.323c-0.596,1.59-1.422,2.957-2.479,4.101
		s-2.315,2.025-3.772,2.644c-1.457,0.619-3.055,0.929-4.794,0.929c-1.207,0-2.339-0.176-3.396-0.528s-1.962-0.812-2.714-1.375v1.527
		h-4.371v-32.526h-3.525V145.745z M599.892,161.232c-1.145,0-2.241,0.235-3.291,0.705s-1.958,1.104-2.726,1.903v13.091
		c0.501,0.517,1.237,0.976,2.209,1.375s2.193,0.599,3.666,0.599c1.003,0,1.966-0.188,2.891-0.563s1.739-0.943,2.444-1.704
		c0.705-0.76,1.27-1.704,1.692-2.832s0.635-2.444,0.635-3.948c0-1.378-0.2-2.601-0.6-3.666s-0.94-1.966-1.622-2.703
		c-0.681-0.736-1.477-1.296-2.385-1.68C601.896,161.425,600.926,161.232,599.892,161.232z"/>
	<path fill="#FFFFFF" d="M630.032,162.819c-0.306-0.463-0.702-0.839-1.188-1.129c-0.485-0.289-1.026-0.501-1.621-0.634
		c-0.596-0.134-1.176-0.2-1.739-0.2c-0.627,0-1.203,0.07-1.728,0.212c-0.525,0.141-0.976,0.345-1.352,0.61
		c-0.376,0.267-0.67,0.592-0.881,0.976c-0.212,0.384-0.317,0.811-0.317,1.281c0,0.814,0.247,1.461,0.74,1.938
		c0.493,0.479,1.319,0.921,2.479,1.328l4.677,1.645c2.005,0.674,3.47,1.591,4.395,2.75c0.925,1.16,1.387,2.546,1.387,4.16
		c0,1.081-0.216,2.072-0.646,2.973c-0.431,0.901-1.042,1.669-1.833,2.303c-0.791,0.635-1.743,1.129-2.855,1.481
		s-2.35,0.528-3.713,0.528c-1.896,0-3.439-0.306-4.63-0.917c-1.191-0.61-2.107-1.417-2.75-2.42h-2.444v-4.043h4.865
		c0,0.674,0.145,1.25,0.435,1.728c0.29,0.479,0.674,0.866,1.151,1.163c0.479,0.298,1.019,0.518,1.622,0.658
		c0.603,0.142,1.218,0.212,1.845,0.212c0.611,0,1.198-0.074,1.763-0.224c0.564-0.148,1.062-0.367,1.492-0.658
		c0.431-0.289,0.771-0.638,1.022-1.045s0.376-0.87,0.376-1.387c0-0.783-0.255-1.449-0.764-1.998c-0.51-0.548-1.375-1.042-2.597-1.48
		l-4.653-1.739c-1.896-0.674-3.303-1.531-4.219-2.573c-0.917-1.042-1.375-2.347-1.375-3.913c0-1.034,0.191-1.989,0.576-2.867
		c0.384-0.877,0.939-1.634,1.668-2.268c0.729-0.635,1.618-1.132,2.668-1.493c1.049-0.359,2.248-0.54,3.596-0.54
		c1.739,0,3.196,0.243,4.371,0.729s2.232,1.316,3.173,2.491h2.279v4.042h-4.817C630.49,163.841,630.337,163.281,630.032,162.819z"/>
	<path fill="#FFFFFF" d="M639.586,157.966h7.943v20.306h3.666v4.042h-11.562v-4.042h3.479v-16.264h-3.525V157.966z M642.289,149.341
		c0-0.407,0.082-0.795,0.246-1.163c0.165-0.368,0.384-0.689,0.658-0.964s0.6-0.493,0.976-0.658c0.376-0.164,0.775-0.247,1.198-0.247
		c0.407,0,0.795,0.083,1.163,0.247c0.368,0.165,0.689,0.384,0.964,0.658s0.494,0.596,0.658,0.964s0.247,0.756,0.247,1.163
		c0,0.423-0.083,0.822-0.247,1.198s-0.384,0.709-0.658,0.999s-0.596,0.517-0.964,0.682c-0.368,0.164-0.756,0.247-1.163,0.247
		c-0.423,0-0.822-0.083-1.198-0.247c-0.376-0.165-0.701-0.392-0.976-0.682s-0.493-0.623-0.658-0.999
		C642.371,150.163,642.289,149.764,642.289,149.341z"/>
	<path fill="#FFFFFF" d="M662.265,157.966h5.711v3.549h-5.758l-0.07,14.054c0,0.956,0.109,1.731,0.329,2.327
		c0.219,0.596,0.571,1.007,1.058,1.233c0.485,0.228,1.034,0.341,1.645,0.341c0.658,0,1.238-0.059,1.739-0.176
		c0.502-0.118,1.05-0.317,1.646-0.6l1.011,2.938c-0.752,0.392-1.544,0.701-2.374,0.929c-0.831,0.227-1.81,0.341-2.938,0.341
		c-1.065,0-1.994-0.13-2.785-0.388c-0.791-0.259-1.457-0.693-1.998-1.305c-0.54-0.611-0.943-1.43-1.21-2.456
		s-0.399-2.307-0.399-3.843l0.07-13.396h-3.878v-3.549h3.925v-5.828l4.277-2.021V157.966z"/>
	<path fill="#FFFFFF" d="M677.259,170.704c0,0.689,0.051,1.319,0.153,1.892c0.102,0.572,0.246,1.116,0.435,1.633
		c0.579,1.567,1.508,2.746,2.785,3.537c1.276,0.792,2.722,1.188,4.336,1.188c1.269,0,2.503-0.177,3.701-0.529
		s2.456-0.904,3.772-1.657l1.762,2.985c-1.598,1.097-3.204,1.911-4.817,2.444c-1.614,0.532-3.29,0.799-5.029,0.799
		c-1.646,0-3.169-0.274-4.571-0.822c-1.402-0.549-2.608-1.363-3.619-2.444s-1.802-2.429-2.374-4.043
		c-0.571-1.613-0.857-3.493-0.857-5.64c0-1.739,0.243-3.381,0.729-4.924s1.21-2.891,2.174-4.042
		c0.964-1.152,2.158-2.064,3.584-2.738s3.087-1.011,4.982-1.011c1.833,0,3.364,0.278,4.595,0.835
		c1.229,0.556,2.232,1.292,3.008,2.209c0.776,0.916,1.363,1.962,1.763,3.137c0.399,1.176,0.678,2.374,0.835,3.597
		c0.078,0.595,0.129,1.198,0.152,1.81c0.023,0.61,0.035,1.206,0.035,1.786H677.259z M684.098,160.997
		c-1.019,0-1.907,0.146-2.667,0.436c-0.761,0.29-1.406,0.705-1.939,1.245c-0.532,0.541-0.96,1.203-1.28,1.986
		c-0.321,0.783-0.561,1.66-0.717,2.632h12.62c-0.062-0.908-0.208-1.747-0.435-2.515c-0.228-0.768-0.576-1.434-1.046-1.998
		c-0.47-0.563-1.073-1.002-1.81-1.315S685.179,160.997,684.098,160.997z"/>
	<path fill="#FFFFFF" d="M714.333,162.819c-0.306-0.463-0.702-0.839-1.188-1.129c-0.485-0.289-1.026-0.501-1.621-0.634
		c-0.596-0.134-1.176-0.2-1.739-0.2c-0.627,0-1.203,0.07-1.728,0.212c-0.525,0.141-0.976,0.345-1.352,0.61
		c-0.376,0.267-0.67,0.592-0.881,0.976c-0.212,0.384-0.317,0.811-0.317,1.281c0,0.814,0.247,1.461,0.74,1.938
		c0.493,0.479,1.319,0.921,2.479,1.328l4.677,1.645c2.005,0.674,3.47,1.591,4.395,2.75c0.925,1.16,1.387,2.546,1.387,4.16
		c0,1.081-0.216,2.072-0.646,2.973c-0.431,0.901-1.042,1.669-1.833,2.303c-0.791,0.635-1.743,1.129-2.855,1.481
		s-2.35,0.528-3.713,0.528c-1.896,0-3.439-0.306-4.63-0.917c-1.191-0.61-2.107-1.417-2.75-2.42h-2.444v-4.043h4.865
		c0,0.674,0.145,1.25,0.435,1.728c0.29,0.479,0.674,0.866,1.151,1.163c0.479,0.298,1.019,0.518,1.622,0.658
		c0.603,0.142,1.218,0.212,1.845,0.212c0.611,0,1.198-0.074,1.763-0.224c0.564-0.148,1.062-0.367,1.492-0.658
		c0.431-0.289,0.771-0.638,1.022-1.045s0.376-0.87,0.376-1.387c0-0.783-0.255-1.449-0.764-1.998c-0.51-0.548-1.375-1.042-2.597-1.48
		l-4.653-1.739c-1.896-0.674-3.303-1.531-4.219-2.573c-0.917-1.042-1.375-2.347-1.375-3.913c0-1.034,0.191-1.989,0.576-2.867
		c0.384-0.877,0.939-1.634,1.668-2.268c0.729-0.635,1.618-1.132,2.668-1.493c1.049-0.359,2.248-0.54,3.596-0.54
		c1.739,0,3.196,0.243,4.371,0.729s2.232,1.316,3.173,2.491h2.279v4.042h-4.817C714.791,163.841,714.638,163.281,714.333,162.819z"
		/>
</g>
</svg>
