<?xml version="1.0" encoding="utf-8"?>
<!-- Generator: Adobe Illustrator 16.0.0, SVG Export Plug-In . SVG Version: 6.00 Build 0)  -->
<!DOCTYPE svg PUBLIC "-//W3C//DTD SVG 1.1//EN" "http://www.w3.org/Graphics/SVG/1.1/DTD/svg11.dtd">
<svg version="1.1" id="logo_netvlies_positief_rgb" xmlns="http://www.w3.org/2000/svg" xmlns:xlink="http://www.w3.org/1999/xlink"
	 x="0px" y="0px" width="258.65px" height="84.521px" viewBox="0 0 258.65 84.521" enable-background="new 0 0 258.65 84.521"
	 xml:space="preserve">
<rect x="101.9" y="17.383" fill="#F1207D" width="12.662" height="4.83"/>
<rect x="164.798" y="50.684" fill="#F1207D" width="11.584" height="4.834"/>
<g>
	<path d="M101.037,55.518c-6.549,0-9.82-4.607-9.82-10.293V22.213h-4.836V18.16c0,0,2.703-0.504,4.152-2.436
		c2.395-3.201,2.508-10.348,2.508-10.348h3.785v12.006h8.188v4.83h-8.188v22.848c0,3.512,1.641,5.623,5.227,5.623h2.961v4.834
		H101.037z"/>
	<path d="M35.4,55.518L5.924,10.994v44.523H0V0h5.613l29.475,44.363V0h5.926v55.518H35.4z"/>
	<path d="M55.072,37.814c0,8.422,3.969,13.258,11.301,13.258c4.449,0,7.02-1.33,10.062-4.373l3.822,3.355
		c-3.898,3.898-7.486,5.93-14.043,5.93c-10.127,0-16.752-6.086-16.752-19.65c0-12.402,5.992-19.648,15.75-19.648
		c9.895,0,15.74,7.166,15.74,18.559v2.57H55.072z M74.178,27.213c-1.48-3.512-4.92-5.771-8.965-5.771
		c-4.059,0-7.492,2.26-8.973,5.771c-0.861,2.102-1.012,3.27-1.168,6.393h20.275C75.193,30.482,75.031,29.314,74.178,27.213z"/>
	<path d="M161.88,55.518c-6.705,0-9.748-4.375-9.748-10.221V0h5.619v45.064c0,3.748,1.242,5.619,5.145,5.619h3.043v4.834H161.88z"/>
	<rect x="175.345" y="17.152" width="5.617" height="38.365"/>
	<path d="M195.575,37.814c0,8.422,3.969,13.258,11.305,13.258c4.441,0,7.012-1.33,10.055-4.373l3.824,3.355
		c-3.895,3.898-7.48,5.93-14.039,5.93c-10.133,0-16.762-6.086-16.762-19.65c0-12.402,6.006-19.648,15.754-19.648
		c9.895,0,15.746,7.166,15.746,18.559v2.57H195.575z M214.677,27.213c-1.48-3.512-4.914-5.771-8.965-5.771
		c-4.055,0-7.48,2.26-8.973,5.771c-0.855,2.102-1.012,3.27-1.164,6.393h20.27C215.696,30.482,215.536,29.314,214.677,27.213z"/>
	<path d="M243.058,55.984c-6.475,0-11.541-1.482-15.75-5.537l3.742-3.748c3.043,3.199,7.164,4.443,11.928,4.443
		c6.309,0,10.211-2.258,10.211-6.779c0-3.348-1.951-5.223-6.398-5.613l-6.309-0.547c-7.484-0.623-11.465-3.977-11.465-10.297
		c0-7.012,5.932-11.221,14.121-11.221c5.453,0,10.363,1.328,13.797,4.129l-3.662,3.668c-2.73-2.107-6.246-3.041-10.215-3.041
		c-5.619,0-8.576,2.41-8.576,6.316c0,3.277,1.871,5.227,6.699,5.613l6.164,0.545c6.703,0.621,11.305,3.199,11.305,10.375
		C258.649,51.691,252.329,55.984,243.058,55.984z"/>
	<circle cx="178.189" cy="6.904" r="3.343"/>
	<polygon points="138.771,17.383 128.322,47.955 117.945,17.383 111.877,17.383 125.83,55.518 130.813,55.518 144.849,17.383 	"/>
</g>
<g>
	<path fill="#F1207D" d="M221.91,76.592v-7.131h-1.48v-0.826c0,0,0.648-0.074,1.137-0.491c0.568-0.483,0.628-2.993,0.628-2.993h0.86
		v3.457h2.443v0.854h-2.443v7.151c0,1.145,0.512,1.796,1.658,1.796h0.785v1.01h-0.987C222.808,79.418,221.91,78.228,221.91,76.592z"
		/>
	<g>
		<rect x="62.077" y="68.603" fill="#F1207D" width="1.144" height="10.815"/>
		<circle fill="#F1207D" cx="62.648" cy="65.605" r="0.717"/>
	</g>
	<g>
		<rect x="132.013" y="68.603" fill="#F1207D" width="1.146" height="10.815"/>
		<circle fill="#F1207D" cx="132.585" cy="65.605" r="0.716"/>
	</g>
	<path fill="#F1207D" d="M7.104,79.418v-1.266c-0.8,0.933-1.851,1.396-3.153,1.396c-1.198,0-2.146-0.339-2.841-1.02
		C0.369,77.818,0,76.828,0,75.554v-6.837h1.131v6.638c0,1.035,0.248,1.828,0.744,2.376c0.495,0.547,1.232,0.821,2.209,0.821
		c0.978,0,1.724-0.278,2.243-0.832c0.516-0.556,0.776-1.344,0.776-2.365v-6.638h1.132v10.701H7.104z"/>
	<path fill="#F1207D" d="M22.181,79.418h-1.154l-3.02-8.925l-3.018,8.925h-1.155l-3.419-10.701h1.244l2.729,9.368l3.063-9.368h1.11
		l3.063,9.368l2.729-9.368H25.6L22.181,79.418z"/>
	<path fill="#F1207D" d="M41.346,74.067c0,0.77-0.08,1.54-0.243,2.309c-0.163,0.77-0.526,1.436-1.088,1.997
		c-0.783,0.785-1.775,1.176-2.973,1.176s-2.191-0.391-2.975-1.176c-0.562-0.562-0.925-1.228-1.088-1.997
		c-0.163-0.769-0.244-1.539-0.244-2.309s0.081-1.54,0.244-2.309s0.525-1.436,1.088-1.998c0.783-0.784,1.777-1.177,2.975-1.177
		s2.189,0.393,2.973,1.177c0.562,0.562,0.925,1.229,1.088,1.998S41.346,73.298,41.346,74.067z M40.214,74.067
		c0-0.311-0.008-0.63-0.023-0.956c-0.014-0.324-0.054-0.646-0.121-0.964c-0.066-0.318-0.163-0.619-0.288-0.9
		c-0.126-0.28-0.299-0.531-0.521-0.754c-0.607-0.605-1.345-0.911-2.219-0.911c-0.873,0-1.613,0.306-2.22,0.911
		c-0.222,0.223-0.396,0.474-0.521,0.754c-0.126,0.281-0.223,0.582-0.288,0.9c-0.067,0.317-0.108,0.64-0.123,0.964
		c-0.014,0.326-0.022,0.646-0.022,0.956c0,0.31,0.009,0.629,0.022,0.955c0.015,0.325,0.056,0.646,0.123,0.965
		c0.065,0.318,0.162,0.617,0.288,0.898s0.3,0.533,0.521,0.755c0.606,0.607,1.347,0.911,2.22,0.911c0.874,0,1.611-0.304,2.219-0.911
		c0.222-0.222,0.395-0.474,0.521-0.755c0.125-0.281,0.222-0.58,0.288-0.898c0.067-0.318,0.107-0.64,0.121-0.965
		C40.206,74.696,40.214,74.377,40.214,74.067z"/>
	<path fill="#F1207D" d="M51.291,79.418V72.78c0-1.036-0.25-1.828-0.745-2.377c-0.495-0.546-1.231-0.821-2.208-0.821
		s-1.724,0.278-2.242,0.833c-0.518,0.555-0.776,1.344-0.776,2.365v6.638h-1.132V68.717h1.132v1.267
		c0.799-0.933,1.85-1.399,3.152-1.399c1.198,0,2.146,0.341,2.841,1.022c0.739,0.709,1.109,1.7,1.109,2.973v6.839H51.291z"/>
	<path fill="#F1207D" d="M58.367,79.418c-0.889,0-1.54-0.252-1.953-0.756c-0.416-0.503-0.623-1.177-0.623-2.02v-13.03h1.133V76.62
		c0,0.621,0.114,1.077,0.343,1.365c0.23,0.288,0.663,0.433,1.299,0.433h0.776v1H58.367z"/>
	<path fill="#F1207D" d="M74.495,79.418V72.78c0-1.036-0.249-1.828-0.745-2.377c-0.495-0.546-1.23-0.821-2.208-0.821
		c-0.977,0-1.725,0.278-2.242,0.833s-0.776,1.344-0.776,2.365v6.638h-1.132V68.717h1.132v1.267c0.8-0.933,1.851-1.399,3.152-1.399
		c1.198,0,2.146,0.341,2.841,1.022c0.74,0.709,1.11,1.7,1.11,2.973v6.839H74.495z"/>
	<path fill="#F1207D" d="M79.72,74.312c0,1.376,0.292,2.424,0.876,3.141c0.585,0.718,1.454,1.077,2.608,1.077
		c0.638,0,1.174-0.1,1.61-0.301c0.436-0.198,0.884-0.528,1.344-0.987l0.843,0.667c-0.267,0.266-0.537,0.502-0.811,0.71
		c-0.273,0.207-0.562,0.381-0.866,0.521c-0.304,0.142-0.633,0.244-0.987,0.312c-0.356,0.067-0.756,0.099-1.2,0.099
		c-1.479,0-2.607-0.464-3.384-1.396c-0.777-0.933-1.165-2.295-1.165-4.085c0-1.746,0.377-3.098,1.132-4.052
		c0.755-0.955,1.806-1.432,3.152-1.432s2.397,0.455,3.151,1.365c0.755,0.91,1.132,2.194,1.132,3.851v0.512H79.72z M86.023,73.4
		c-0.016-0.251-0.028-0.469-0.044-0.654c-0.015-0.185-0.033-0.352-0.056-0.5c-0.022-0.147-0.055-0.288-0.099-0.422
		c-0.045-0.133-0.104-0.28-0.179-0.443c-0.236-0.562-0.604-1.002-1.1-1.321c-0.495-0.317-1.053-0.478-1.675-0.478
		c-0.621,0-1.177,0.16-1.665,0.478c-0.488,0.319-0.858,0.76-1.11,1.321c-0.074,0.163-0.133,0.311-0.176,0.443
		c-0.045,0.134-0.079,0.274-0.102,0.422c-0.022,0.148-0.041,0.315-0.055,0.5c-0.016,0.186-0.031,0.403-0.045,0.654H86.023z"/>
	<path fill="#F1207D" d="M105.316,74.067c0,0.844-0.093,1.676-0.279,2.496c-0.185,0.822-0.551,1.508-1.098,2.055
		c-0.283,0.281-0.646,0.508-1.099,0.678c-0.452,0.169-0.958,0.253-1.521,0.253c-0.621,0-1.188-0.095-1.699-0.288
		c-0.509-0.191-1.002-0.599-1.475-1.22v1.377h-1.133V63.612h1.133v6.481c0.473-0.622,0.966-1.029,1.475-1.221
		c0.511-0.192,1.078-0.289,1.699-0.289c0.562,0,1.068,0.085,1.521,0.255c0.452,0.171,0.815,0.396,1.099,0.678
		c0.547,0.549,0.913,1.231,1.098,2.054C105.224,72.391,105.316,73.224,105.316,74.067z M104.184,74.067
		c0-0.549-0.034-1.091-0.101-1.632c-0.064-0.541-0.208-1.021-0.422-1.442c-0.214-0.423-0.522-0.763-0.921-1.021
		c-0.399-0.26-0.925-0.39-1.576-0.39s-1.176,0.13-1.576,0.39c-0.399,0.259-0.706,0.599-0.92,1.021
		c-0.216,0.421-0.355,0.901-0.423,1.442c-0.066,0.541-0.099,1.083-0.099,1.632c0,0.562,0.032,1.108,0.099,1.643
		c0.067,0.533,0.207,1.01,0.423,1.432c0.214,0.422,0.521,0.764,0.92,1.021c0.4,0.261,0.925,0.39,1.576,0.39s1.177-0.129,1.576-0.39
		c0.398-0.257,0.707-0.599,0.921-1.021s0.357-0.898,0.422-1.432C104.149,75.176,104.184,74.63,104.184,74.067z"/>
	<path fill="#F1207D" d="M115.492,79.418v-1.266c-0.799,0.933-1.85,1.396-3.151,1.396c-1.199,0-2.146-0.339-2.842-1.02
		c-0.741-0.711-1.108-1.701-1.108-2.976v-6.837h1.131v6.638c0,1.035,0.246,1.828,0.742,2.376c0.496,0.547,1.232,0.821,2.209,0.821
		c0.978,0,1.724-0.278,2.242-0.832c0.518-0.556,0.777-1.344,0.777-2.365v-6.638h1.132v10.701H115.492z"/>
	<path fill="#F1207D" d="M128.416,76.376c0,0.977-0.383,1.749-1.145,2.318c-0.762,0.57-1.808,0.854-3.139,0.854
		c-0.933,0-1.752-0.125-2.455-0.376c-0.702-0.251-1.327-0.636-1.875-1.154l0.775-0.777c0.83,0.874,1.999,1.311,3.51,1.311
		c2.146,0,3.218-0.726,3.218-2.176c0-0.562-0.164-0.983-0.489-1.265c-0.324-0.281-0.843-0.46-1.553-0.534l-1.775-0.155
		c-2.146-0.178-3.22-1.11-3.22-2.797c0-0.933,0.349-1.672,1.044-2.22s1.628-0.821,2.797-0.821c0.755,0,1.449,0.101,2.087,0.3
		c0.636,0.2,1.19,0.478,1.664,0.833l-0.755,0.755c-0.828-0.607-1.827-0.91-2.996-0.91c-0.888,0-1.565,0.178-2.032,0.532
		c-0.466,0.354-0.698,0.865-0.698,1.531c0,0.562,0.174,0.984,0.522,1.267c0.346,0.28,0.899,0.458,1.653,0.532l1.731,0.155
		c0.442,0.044,0.858,0.119,1.241,0.221c0.387,0.104,0.716,0.261,0.988,0.467c0.274,0.208,0.492,0.481,0.655,0.822
		C128.334,75.429,128.416,75.857,128.416,76.376z"/>
	<path fill="#F1207D" d="M144.55,79.418V72.78c0-1.036-0.248-1.828-0.744-2.377c-0.495-0.546-1.231-0.821-2.209-0.821
		c-0.976,0-1.723,0.278-2.241,0.833s-0.777,1.344-0.777,2.365v6.638h-1.131V68.717h1.131v1.267c0.799-0.933,1.851-1.399,3.152-1.399
		c1.198,0,2.146,0.341,2.842,1.022c0.739,0.709,1.109,1.7,1.109,2.973v6.839H144.55z"/>
	<path fill="#F1207D" d="M149.889,74.312c0,1.376,0.292,2.424,0.877,3.141c0.584,0.718,1.453,1.077,2.607,1.077
		c0.637,0,1.172-0.1,1.609-0.301c0.438-0.198,0.884-0.528,1.342-0.987l0.845,0.667c-0.267,0.266-0.536,0.502-0.81,0.71
		c-0.275,0.207-0.562,0.381-0.866,0.521c-0.304,0.142-0.633,0.244-0.988,0.312c-0.354,0.067-0.754,0.099-1.198,0.099
		c-1.479,0-2.608-0.464-3.386-1.396c-0.776-0.933-1.166-2.295-1.166-4.085c0-1.746,0.378-3.098,1.134-4.052
		c0.755-0.955,1.805-1.432,3.152-1.432c1.346,0,2.396,0.455,3.151,1.365s1.133,2.194,1.133,3.851v0.512H149.889z M156.192,73.4
		c-0.015-0.251-0.03-0.469-0.045-0.654c-0.015-0.185-0.033-0.352-0.057-0.5c-0.021-0.147-0.054-0.288-0.098-0.422
		c-0.045-0.133-0.104-0.28-0.178-0.443c-0.238-0.562-0.604-1.002-1.1-1.321c-0.496-0.317-1.055-0.478-1.675-0.478
		c-0.622,0-1.177,0.16-1.666,0.478c-0.488,0.319-0.859,0.76-1.109,1.321c-0.075,0.163-0.134,0.311-0.178,0.443
		c-0.045,0.134-0.078,0.274-0.101,0.422c-0.021,0.148-0.04,0.315-0.057,0.5c-0.013,0.186-0.028,0.403-0.042,0.654H156.192z"/>
	<path fill="#F1207D" d="M168.556,76.376c0,0.977-0.381,1.749-1.142,2.318c-0.765,0.57-1.811,0.854-3.143,0.854
		c-0.933,0-1.75-0.125-2.451-0.376c-0.705-0.251-1.329-0.636-1.877-1.154l0.777-0.777c0.827,0.874,1.997,1.311,3.506,1.311
		c2.146,0,3.22-0.726,3.22-2.176c0-0.562-0.163-0.983-0.488-1.265c-0.326-0.281-0.844-0.46-1.555-0.534l-1.774-0.155
		c-2.146-0.178-3.219-1.11-3.219-2.797c0-0.933,0.347-1.672,1.042-2.22c0.696-0.548,1.629-0.821,2.798-0.821
		c0.754,0,1.45,0.101,2.086,0.3c0.636,0.2,1.191,0.478,1.666,0.833l-0.755,0.755c-0.83-0.607-1.828-0.91-2.997-0.91
		c-0.889,0-1.564,0.178-2.03,0.532c-0.468,0.354-0.701,0.865-0.701,1.531c0,0.562,0.174,0.984,0.521,1.267
		c0.35,0.28,0.899,0.458,1.653,0.532l1.732,0.155c0.444,0.044,0.857,0.119,1.244,0.221c0.384,0.104,0.713,0.261,0.987,0.467
		c0.274,0.208,0.491,0.481,0.654,0.822C168.475,75.429,168.556,75.857,168.556,76.376z"/>
	<path fill="#F1207D" d="M179.468,76.376c0,0.977-0.383,1.749-1.145,2.318c-0.763,0.57-1.809,0.854-3.14,0.854
		c-0.934,0-1.751-0.125-2.454-0.376c-0.702-0.251-1.327-0.636-1.876-1.154l0.776-0.777c0.83,0.874,1.999,1.311,3.51,1.311
		c2.145,0,3.218-0.726,3.218-2.176c0-0.562-0.164-0.983-0.489-1.265s-0.844-0.46-1.553-0.534l-1.776-0.155
		c-2.146-0.178-3.219-1.11-3.219-2.797c0-0.933,0.348-1.672,1.044-2.22c0.694-0.548,1.627-0.821,2.797-0.821
		c0.755,0,1.448,0.101,2.086,0.3c0.636,0.2,1.191,0.478,1.665,0.833l-0.755,0.755c-0.828-0.607-1.829-0.91-2.996-0.91
		c-0.888,0-1.565,0.178-2.032,0.532c-0.466,0.354-0.699,0.865-0.699,1.531c0,0.562,0.175,0.984,0.523,1.267
		c0.346,0.28,0.897,0.458,1.653,0.532l1.731,0.155c0.442,0.044,0.856,0.119,1.241,0.221c0.386,0.104,0.716,0.261,0.988,0.467
		c0.273,0.208,0.492,0.481,0.655,0.822C179.385,75.429,179.468,75.857,179.468,76.376z"/>
	<path fill="#F1207D" d="M197.198,74.067c0,0.844-0.093,1.676-0.277,2.496c-0.186,0.822-0.553,1.508-1.1,2.055
		c-0.281,0.281-0.646,0.508-1.098,0.678c-0.453,0.169-0.959,0.253-1.521,0.253c-0.621,0-1.188-0.095-1.699-0.288
		c-0.511-0.191-1.002-0.599-1.477-1.22v6.48h-1.131V68.717h1.131v1.377c0.475-0.622,0.966-1.029,1.477-1.221
		c0.511-0.192,1.078-0.289,1.699-0.289c0.562,0,1.067,0.085,1.521,0.255c0.451,0.171,0.816,0.396,1.098,0.678
		c0.547,0.549,0.914,1.231,1.1,2.054C197.105,72.391,197.198,73.224,197.198,74.067z M196.066,74.067
		c0-0.549-0.033-1.091-0.101-1.632c-0.066-0.541-0.208-1.021-0.421-1.442c-0.216-0.423-0.522-0.763-0.923-1.021
		c-0.399-0.26-0.925-0.39-1.576-0.39c-0.65,0-1.177,0.13-1.575,0.39c-0.399,0.259-0.707,0.599-0.921,1.021
		c-0.215,0.421-0.355,0.901-0.423,1.442c-0.066,0.541-0.1,1.083-0.1,1.632c0,0.562,0.033,1.108,0.1,1.643
		c0.067,0.533,0.208,1.01,0.423,1.432c0.214,0.422,0.521,0.764,0.921,1.021c0.398,0.261,0.925,0.39,1.575,0.39
		c0.651,0,1.177-0.129,1.576-0.39c0.4-0.257,0.707-0.599,0.923-1.021c0.213-0.422,0.354-0.898,0.421-1.432
		C196.033,75.176,196.066,74.63,196.066,74.067z"/>
	<path fill="#F1207D" d="M207.022,79.418v-1.067c-0.458,0.46-0.928,0.775-1.407,0.945c-0.481,0.169-1.1,0.253-1.854,0.253
		c-0.8,0-1.44-0.073-1.922-0.221c-0.48-0.147-0.891-0.399-1.23-0.755c-0.252-0.251-0.444-0.562-0.578-0.933
		c-0.133-0.368-0.198-0.755-0.198-1.154c0-0.976,0.328-1.733,0.987-2.275c0.657-0.539,1.571-0.811,2.74-0.811h3.462v-1.197
		c0-0.858-0.224-1.511-0.675-1.954c-0.452-0.444-1.233-0.667-2.343-0.667c-0.755,0-1.351,0.104-1.787,0.312
		c-0.437,0.207-0.824,0.554-1.164,1.043l-0.821-0.711c0.458-0.637,0.979-1.068,1.563-1.298s1.321-0.345,2.209-0.345
		c1.436,0,2.486,0.304,3.152,0.911c0.665,0.606,0.999,1.472,0.999,2.597v7.326H207.022z M207.022,74.312h-3.328
		c-1.821,0-2.73,0.718-2.73,2.153c0,0.71,0.222,1.235,0.666,1.576c0.444,0.34,1.154,0.511,2.132,0.511
		c0.487,0,0.956-0.045,1.409-0.134c0.451-0.09,0.867-0.318,1.254-0.688c0.399-0.371,0.598-1.053,0.598-2.043V74.312z"/>
	<path fill="#F1207D" d="M217.884,70.427c-0.326-0.325-0.634-0.548-0.922-0.666c-0.289-0.118-0.654-0.179-1.099-0.179
		c-0.459,0-0.866,0.09-1.221,0.268c-0.355,0.178-0.655,0.415-0.899,0.71c-0.244,0.296-0.429,0.641-0.556,1.032
		c-0.125,0.393-0.188,0.803-0.188,1.231v6.595h-1.133V68.717H213v1.422c0.31-0.504,0.75-0.889,1.32-1.155
		c0.569-0.267,1.172-0.399,1.809-0.399c0.518,0,0.98,0.073,1.388,0.223c0.406,0.147,0.802,0.413,1.188,0.8L217.884,70.427z"/>
	<path fill="#F1207D" d="M235.77,79.418V72.78c0-1.036-0.248-1.828-0.744-2.377c-0.494-0.546-1.23-0.821-2.208-0.821
		c-0.977,0-1.724,0.278-2.242,0.833c-0.518,0.555-0.776,1.344-0.776,2.365v6.638h-1.132V68.717h1.132v1.267
		c0.799-0.933,1.851-1.399,3.152-1.399c1.198,0,2.146,0.341,2.841,1.022c0.739,0.709,1.11,1.7,1.11,2.973v6.839H235.77z"/>
	<path fill="#F1207D" d="M241.022,74.312c0,1.376,0.292,2.424,0.878,3.141c0.584,0.718,1.454,1.077,2.607,1.077
		c0.637,0,1.173-0.1,1.61-0.301c0.436-0.198,0.884-0.528,1.343-0.987l0.844,0.667c-0.268,0.266-0.537,0.502-0.811,0.71
		c-0.274,0.207-0.563,0.381-0.866,0.521c-0.305,0.142-0.633,0.244-0.987,0.312c-0.356,0.067-0.756,0.099-1.199,0.099
		c-1.48,0-2.609-0.464-3.386-1.396s-1.164-2.295-1.164-4.085c0-1.746,0.377-3.098,1.131-4.052c0.756-0.955,1.808-1.432,3.152-1.432
		c1.347,0,2.398,0.455,3.153,1.365c0.754,0.91,1.131,2.194,1.131,3.851v0.512H241.022z M247.328,73.4
		c-0.017-0.251-0.03-0.469-0.045-0.654c-0.015-0.185-0.034-0.352-0.056-0.5c-0.022-0.147-0.056-0.288-0.1-0.422
		c-0.044-0.133-0.104-0.28-0.178-0.443c-0.236-0.562-0.604-1.002-1.1-1.321c-0.496-0.317-1.053-0.478-1.676-0.478
		c-0.62,0-1.176,0.16-1.665,0.478c-0.486,0.319-0.857,0.76-1.109,1.321c-0.073,0.163-0.133,0.311-0.177,0.443
		c-0.045,0.134-0.078,0.274-0.101,0.422c-0.022,0.148-0.041,0.315-0.056,0.5c-0.015,0.186-0.029,0.403-0.045,0.654H247.328z"/>
	<path fill="#F1207D" d="M257.828,70.427c-0.325-0.325-0.632-0.548-0.922-0.666c-0.288-0.118-0.653-0.179-1.098-0.179
		c-0.46,0-0.866,0.09-1.221,0.268s-0.656,0.415-0.899,0.71c-0.245,0.296-0.43,0.641-0.555,1.032
		c-0.126,0.393-0.188,0.803-0.188,1.231v6.595h-1.132V68.717h1.132v1.422c0.311-0.504,0.75-0.889,1.32-1.155
		c0.569-0.267,1.172-0.399,1.809-0.399c0.52,0,0.981,0.073,1.388,0.223c0.407,0.147,0.802,0.413,1.188,0.8L257.828,70.427z"/>
</g>
</svg>
