<?xml version="1.0" encoding="utf-8"?>
<!-- Generator: Adobe Illustrator 16.0.0, SVG Export Plug-In . SVG Version: 6.00 Build 0)  -->
<!DOCTYPE svg PUBLIC "-//W3C//DTD SVG 1.1//EN" "http://www.w3.org/Graphics/SVG/1.1/DTD/svg11.dtd">
<svg version="1.1" id="Layer_5" xmlns="http://www.w3.org/2000/svg" xmlns:xlink="http://www.w3.org/1999/xlink" x="0px" y="0px"
	 width="378.835px" height="103.105px" viewBox="0 0 378.835 103.105" enable-background="new 0 0 378.835 103.105"
	 xml:space="preserve">
<g id="Layer_2">
	<path fill="#020202" d="M65.69,71.116l-18.41,10.85c-0.205,0.122-0.396,0.229-0.581,0.328c-1.423,0.863-2.674,0.871-3.842,0.18
		c-0.276-0.14-0.564-0.306-0.877-0.508L18.587,68.178c-0.375-0.305-0.666-0.692-0.876-1.126l0,0l0,0
		c-0.257-0.53-0.394-1.128-0.405-1.738h-0.02V37.768h0.001c0.02-1.116,0.446-2.179,1.309-2.836l23.393-13.787
		c0.204-0.124,0.397-0.232,0.583-0.332c1.29-0.87,2.669-0.866,3.841-0.177c0.274,0.135,0.565,0.304,0.878,0.508l23.394,13.787
		c0.823,0.679,1.249,1.733,1.281,2.836h0.004v23.479l17.129,15.752c0.52-1.058,0.728-2.294,0.635-3.535V28.933h-0.003
		c-0.053-1.807-0.75-3.541-2.107-4.658L49.236,1.653c-0.517-0.338-0.99-0.61-1.44-0.835c-1.92-1.135-4.192-1.135-6.305,0.292
		c-0.304,0.164-0.62,0.339-0.954,0.543L2.15,24.275c-1.415,1.078-2.114,2.828-2.146,4.658H0v45.202h0.029
		c0.022,1.001,0.246,1.98,0.669,2.847l0,0v0.003c0.344,0.71,0.822,1.345,1.438,1.849l38.386,22.627
		c0.515,0.336,0.991,0.606,1.439,0.83c1.921,1.136,3.972,1.127,6.305-0.291c0.305-0.163,0.619-0.337,0.956-0.539l38.387-22.627
		c0.644-0.491,1.135-1.119,1.486-1.829L65.69,71.116z"/>
	<g id="Layer_3">
		<path d="M118.872,65.74c-11.676,0-17.773-7.883-17.773-18.518v-6.023c0-10.636,6.098-18.519,17.773-18.519
			c11.677,0,17.775,7.883,17.775,18.519v6.023C136.647,57.857,130.548,65.74,118.872,65.74z M126.83,41.199
			c0-6.099-2.752-10.04-7.958-10.04c-5.205,0-7.956,3.941-7.956,10.04v6.023c0,6.099,2.751,10.04,7.956,10.04
			c5.206,0,7.958-3.94,7.958-10.04V41.199z"/>
		<path d="M174.69,65.146h-6.843c-0.817,0-1.487-0.744-1.487-1.562V39.339c0-6.469-0.595-8.329-6.321-8.329
			c-2.528,0-5.28,1.042-8.404,2.677v29.897c0,0.817-0.669,1.562-1.486,1.562h-6.843c-0.817,0-1.486-0.744-1.486-1.562V24.689
			c0-0.819,0.669-1.488,1.486-1.488h6.47c0.819,0,1.488,0.669,1.488,1.488v1.561c4.313-2.751,7.139-3.57,12.047-3.57
			c10.709,0,12.867,7.214,12.867,16.659v24.245C176.177,64.401,175.507,65.146,174.69,65.146z"/>
		<path d="M215.41,47.595h-24.244v0.223c0,4.313,1.783,9.444,8.922,9.444c5.432,0,10.562-0.446,13.684-0.743c0.074,0,0.15,0,0.225,0
			c0.742,0,1.34,0.372,1.34,1.116v4.908c0,1.189-0.225,1.711-1.564,1.934c-4.83,0.893-7.732,1.264-14.426,1.264
			c-7.438,0-17.996-4.016-17.996-18.667V41.57c0-11.601,6.469-18.89,17.846-18.89c11.455,0,17.701,7.81,17.701,18.89v4.165
			C216.896,46.925,216.453,47.595,215.41,47.595z M207.005,40.306c0-5.8-3.199-9.146-7.811-9.146c-4.609,0-7.955,3.272-7.955,9.146
			v0.298h15.766V40.306z"/>
		<path d="M243.285,65.74c-2.9,0-9.148-0.371-13.312-1.486c-0.891-0.224-1.412-0.819-1.412-1.711V58.08
			c0-0.595,0.521-1.189,1.266-1.189c0.146,0,0.223,0,0.297,0c3.568,0.446,10.262,0.817,12.494,0.817
			c4.609,0,5.281-1.561,5.281-3.569c0-1.413-0.895-2.305-3.275-3.793l-10.188-6.247c-3.645-2.23-6.246-5.95-6.246-10.262
			c0-7.437,4.684-11.156,14.129-11.156c6.025,0,9.445,0.67,13.236,1.488c0.895,0.223,1.342,0.818,1.342,1.71v4.314
			c0,0.892-0.447,1.413-1.191,1.413c-0.15,0-0.223,0-0.297,0c-2.082-0.297-8.031-0.892-12.27-0.892
			c-3.572,0-5.135,0.817-5.135,3.124c0,1.19,1.117,1.933,2.977,3.049l9.742,5.95c6.248,3.793,7.141,7.511,7.141,11.304
			C257.863,60.609,253.029,65.74,243.285,65.74z"/>
		<path d="M295.906,65.146h-6.842c-0.818,0-1.488-0.744-1.488-1.562V39.116c0-6.469-1.113-8.106-6.098-8.106
			c-2.529,0-5.502,0.893-8.627,2.529v30.045c0,0.817-0.668,1.562-1.488,1.562h-6.84c-0.82,0-1.488-0.744-1.488-1.562V10.039
			c0-0.818,0.668-1.488,1.488-1.488h6.84c0.82,0,1.488,0.669,1.488,1.488v15.394c2.826-1.711,5.951-2.752,11.23-2.752
			c10.262,0,13.312,7.289,13.312,16.436v24.468C297.394,64.401,296.724,65.146,295.906,65.146z"/>
		<path d="M320.339,65.74c-11.676,0-17.773-7.883-17.773-18.518v-6.023c0-10.636,6.098-18.519,17.773-18.519
			s17.773,7.883,17.773,18.519v6.023C338.113,57.857,332.015,65.74,320.339,65.74z M328.296,41.199c0-6.099-2.752-10.04-7.957-10.04
			c-5.207,0-7.957,3.941-7.957,10.04v6.023c0,6.099,2.75,10.04,7.957,10.04c5.205,0,7.957-3.94,7.957-10.04V41.199z"/>
		<path d="M377.349,47.595h-24.244v0.223c0,4.313,1.783,9.444,8.924,9.444c5.43,0,10.561-0.446,13.682-0.743c0.076,0,0.15,0,0.225,0
			c0.742,0,1.338,0.372,1.338,1.116v4.908c0,1.189-0.221,1.711-1.562,1.934c-4.832,0.893-7.732,1.264-14.426,1.264
			c-7.438,0-17.998-4.016-17.998-18.667V41.57c0-11.601,6.471-18.89,17.85-18.89c11.453,0,17.699,7.81,17.699,18.89v4.165
			C378.835,46.925,378.39,47.595,377.349,47.595z M368.945,40.306c0-5.8-3.199-9.146-7.809-9.146c-4.611,0-7.957,3.272-7.957,9.146
			v0.298h15.766V40.306z"/>
	</g>
</g>
<g>
	<path d="M109.447,89.33l-0.991-2.789h-4.703l-0.974,2.789h-1.831l4.232-11.757h1.865l4.283,11.757H109.447z M106.978,82.261
		c-0.285-0.84-0.756-2.202-0.89-2.705c-0.135,0.503-0.555,1.847-0.857,2.722l-0.94,2.686h3.628L106.978,82.261z"/>
	<path d="M117.365,89.33h-3.208V77.573h3.208c3.157,0,5.726,1.731,5.726,5.88C123.091,87.6,120.438,89.33,117.365,89.33z
		 M117.365,79.288h-1.445v8.329h1.445c2.787,0,3.929-1.697,3.929-4.164C121.294,80.982,120.152,79.288,117.365,79.288z"/>
	<path d="M130.605,89.33h-1.865l-4.082-11.757h1.916l2.451,7.49c0.218,0.69,0.554,1.731,0.655,2.15
		c0.101-0.419,0.437-1.477,0.655-2.166l2.419-7.475h1.88L130.605,89.33z"/>
	<path d="M137.464,89.33V77.573h7.575v1.715h-5.812v2.904h3.376v1.712h-3.376v3.713h6.063v1.713H137.464z"/>
	<path d="M154.652,84.528l2.401,4.802h-2.033l-2.334-4.65h-2.653v4.65h-1.731V77.573h5.157c2.05,0,3.778,1.091,3.778,3.512
		C157.237,82.963,156.247,84.124,154.652,84.528z M153.459,79.235h-3.426v3.78h3.426c1.175,0,1.999-0.605,1.999-1.883
		C155.458,79.909,154.652,79.235,153.459,79.235z"/>
	<path d="M164.533,79.305V89.33h-1.764V79.305h-3.426v-1.731h8.616v1.731H164.533z"/>
	<path d="M170.872,89.33V77.573h1.763V89.33H170.872z"/>
	<path d="M179.808,89.515c-1.713,0-3.19-0.739-4.181-1.897l1.258-1.227c0.79,0.855,1.949,1.395,3.057,1.395
		c1.647,0,2.435-0.571,2.435-1.715c0-0.905-0.688-1.358-2.651-1.946c-2.487-0.739-3.679-1.36-3.679-3.46
		c0-2.033,1.714-3.273,3.881-3.273c1.594,0,2.805,0.588,3.845,1.594l-1.243,1.261c-0.738-0.758-1.578-1.128-2.735-1.128
		c-1.38,0-1.966,0.674-1.966,1.461c0,0.824,0.537,1.229,2.568,1.832c2.317,0.707,3.763,1.445,3.763,3.543
		C184.159,88.07,182.815,89.515,179.808,89.515z"/>
	<path d="M187.389,89.33V77.573h1.763V89.33H187.389z"/>
	<path d="M200.056,89.33l-4.686-7.373c-0.288-0.438-0.69-1.143-0.874-1.444c0,0.438,0.018,2.065,0.018,2.722v6.096H192.8V77.573
		h1.797l4.467,7.171c0.303,0.487,0.807,1.362,0.976,1.663c0-0.435-0.019-2.114-0.019-2.771v-6.063h1.716V89.33H200.056z"/>
	<path d="M209.718,89.515c-3.037,0-4.968-2.503-4.968-6.062c0-3.562,1.931-6.062,4.968-6.062c1.917,0,3.193,0.771,3.999,2.197
		l-1.543,0.958c-0.605-0.958-1.244-1.392-2.456-1.392c-2.047,0-3.171,1.66-3.171,4.299c0,2.637,1.124,4.3,3.171,4.3
		c1.917,0,2.674-1.261,2.674-2.64v-0.05h-1.915v-1.694h3.712v1.359C214.189,87.753,212.339,89.515,209.718,89.515z"/>
	<path d="M229.616,89.33l-0.927-1.09c-0.87,0.771-1.979,1.274-3.307,1.274c-2.501,0-3.694-1.295-3.694-3.189
		c0-1.597,0.839-2.555,2.467-3.479l-0.217-0.269c-0.79-0.941-1.109-1.611-1.109-2.486c0-1.696,1.26-2.701,3.258-2.701
		c1.096,0,2.134,0.385,3.157,1.106l-0.821,1.412c-0.906-0.657-1.579-0.893-2.486-0.893c-0.906,0-1.344,0.39-1.344,1.042
		c0,0.487,0.117,0.807,0.604,1.412l3.445,4.215c0.351-0.605,0.62-1.294,0.806-1.947l1.596,0.453
		c-0.254,0.958-0.675,1.963-1.277,2.836l1.864,2.303H229.616z M225.163,84.038c-1.106,0.624-1.712,1.245-1.712,2.202
		c0,0.94,0.638,1.662,1.998,1.662c0.875,0,1.612-0.352,2.201-0.907L225.163,84.038z"/>
	<path d="M242.421,89.33h-3.206V77.573h3.206c3.158,0,5.727,1.731,5.727,5.88C248.148,87.6,245.496,89.33,242.421,89.33z
		 M242.421,79.288h-1.443v8.329h1.443c2.791,0,3.93-1.697,3.93-4.164C246.351,80.982,245.212,79.288,242.421,79.288z"/>
	<path d="M251.211,89.33V77.573h1.763V89.33H251.211z"/>
	<path d="M261.04,89.515c-3.04,0-4.972-2.503-4.972-6.062c0-3.562,1.932-6.062,4.972-6.062c1.915,0,3.189,0.771,3.998,2.197
		l-1.546,0.958c-0.604-0.958-1.242-1.392-2.452-1.392c-2.049,0-3.175,1.66-3.175,4.299c0,2.637,1.126,4.3,3.175,4.3
		c1.915,0,2.67-1.261,2.67-2.64v-0.05h-1.913v-1.694h3.71v1.359C265.506,87.753,263.661,89.515,261.04,89.515z"/>
	<path d="M268.602,89.33V77.573h1.766V89.33H268.602z"/>
	<path d="M278.467,79.305V89.33h-1.765V79.305h-3.429v-1.731h8.618v1.731H278.467z"/>
	<path d="M290.966,89.33l-0.991-2.789h-4.701l-0.975,2.789h-1.831l4.231-11.757h1.865l4.282,11.757H290.966z M288.497,82.261
		c-0.284-0.84-0.756-2.202-0.889-2.705c-0.135,0.503-0.556,1.847-0.856,2.722l-0.94,2.686h3.626L288.497,82.261z"/>
	<path d="M295.676,89.33V77.573h1.764V87.6h5.862v1.73H295.676z"/>
	<path d="M318.979,89.33l-0.991-2.789h-4.703l-0.973,2.789h-1.832l4.234-11.757h1.864l4.28,11.757H318.979z M316.511,82.261
		c-0.288-0.84-0.757-2.202-0.892-2.705c-0.134,0.503-0.553,1.847-0.856,2.722l-0.94,2.686h3.629L316.511,82.261z"/>
	<path d="M327.736,89.515c-3.04,0-4.971-2.503-4.971-6.062c0-3.562,1.931-6.062,4.971-6.062c1.916,0,3.193,0.771,3.999,2.197
		l-1.546,0.958c-0.604-0.958-1.243-1.392-2.453-1.392c-2.048,0-3.174,1.66-3.174,4.299c0,2.637,1.126,4.3,3.174,4.3
		c1.916,0,2.673-1.261,2.673-2.64v-0.05h-1.917v-1.694h3.714v1.359C332.206,87.753,330.356,89.515,327.736,89.515z"/>
	<path d="M335.216,89.33V77.573h7.574v1.715h-5.811v2.904h3.376v1.712h-3.376v3.713h6.062v1.713H335.216z"/>
	<path d="M353.313,89.33l-4.688-7.373c-0.284-0.438-0.69-1.143-0.874-1.444c0,0.438,0.018,2.065,0.018,2.722v6.096h-1.714V77.573
		h1.797l4.467,7.171c0.306,0.487,0.808,1.362,0.976,1.663c0-0.435-0.018-2.114-0.018-2.771v-6.063h1.715V89.33H353.313z"/>
	<path d="M362.976,89.515c-3.043,0-4.973-2.503-4.973-6.062c0-3.562,1.93-6.062,4.973-6.062c1.914,0,3.19,0.771,3.995,2.197
		l-1.561,0.975c-0.604-0.957-1.225-1.408-2.435-1.408c-2.049,0-3.159,1.66-3.159,4.299c0,2.637,1.11,4.3,3.159,4.3
		c1.225,0,1.981-0.507,2.587-1.464l1.462,0.975C366.185,88.71,364.757,89.515,362.976,89.515z"/>
	<path d="M374.621,84.68v4.65h-1.764v-4.65l-4.217-7.106h2.067l1.83,3.241c0.404,0.722,1.009,1.897,1.21,2.336
		c0.201-0.438,0.787-1.562,1.208-2.317l1.848-3.26h2.032L374.621,84.68z"/>
</g>
</svg>
