<?xml version="1.0" encoding="utf-8"?>
<!-- Generator: Adobe Illustrator 16.0.0, SVG Export Plug-In . SVG Version: 6.00 Build 0)  -->
<!DOCTYPE svg PUBLIC "-//W3C//DTD SVG 1.1//EN" "http://www.w3.org/Graphics/SVG/1.1/DTD/svg11.dtd">
<svg version="1.1"
	 id="svg2" xmlns:dc="http://purl.org/dc/elements/1.1/" xmlns:rdf="http://www.w3.org/1999/02/22-rdf-syntax-ns#" xmlns:cc="http://creativecommons.org/ns#" xmlns:svg="http://www.w3.org/2000/svg"
	 xmlns="http://www.w3.org/2000/svg" xmlns:xlink="http://www.w3.org/1999/xlink" x="0px" y="0px" width="732.7px"
	 height="113.175px" viewBox="0 0 732.7 113.175" enable-background="new 0 0 732.7 113.175" xml:space="preserve">
<g id="g10" transform="matrix(1.25,0,0,-1.25,0,113.175)">
	<g id="g12" transform="scale(0.1,0.1)">
		<path id="path14" fill="#231F20" d="M1553.031,445.42v1.672c0,77.519-55.859,141.722-135.062,141.722
			c-80.867,0-132.559-63.355-132.559-140.059v-1.664c0-76.703,55.859-140.891,134.23-140.891
			C1501.34,306.201,1553.031,369.552,1553.031,445.42L1553.031,445.42z M1184.531,445.42v1.672
			c0,125.886,100.047,230.09,235.109,230.09c135.051,0,234.25-102.539,234.25-228.426v-1.664
			c0-125.062-100.031-229.281-235.922-229.281C1283.75,217.81,1184.531,320.373,1184.531,445.42"/>
		<path id="path16" fill="#231F20" d="M2109.012,447.092v1.664c0,85.035-57.523,140.891-125.883,140.891
			c-68.379,0-128.398-56.684-128.398-140.891v-1.664c0-84.203,60.02-140.891,128.398-140.891
			C2052.32,306.201,2109.012,360.388,2109.012,447.092z M1756.359,622.162c0,28.344,21.672,50.859,50.012,50.859
			s50.859-22.516,50.859-50.859V594.65c32.531,45.855,78.371,82.531,150.059,82.531c103.383,0,204.27-81.703,204.27-228.426v-1.664
			c0-145.906-100.059-228.43-204.27-228.43c-73.359,0-119.219,36.68-150.059,77.523V160.107c0-28.336-22.52-50.016-50.859-50.016
			c-27.512,0-50.012,21.68-50.012,50.016V622.162"/>
		<path id="path18" fill="#231F20" d="M2617.461,478.771c-6.68,65.02-45.031,115.879-111.734,115.879
			c-61.68,0-105.047-47.52-114.195-115.879H2617.461z M2517.406,217.81c-127.547,0-225.926,92.547-225.926,228.445v1.664
			c0,125.89,89.207,229.261,215.082,229.261c140.07,0,209.266-115.043,209.266-216.754c0-28.344-21.688-48.351-47.531-48.351
			h-275.938c10.844-71.703,61.68-111.719,126.711-111.719c42.523,0,75.867,15,104.219,38.359c7.508,5.828,14.172,9.164,25.844,9.164
			c22.516,0,40.016-17.508,40.016-40.852c0-12.508-5.828-23.344-13.336-30.844C2635.789,240.334,2585.773,217.81,2517.406,217.81"/>
		<path id="path20" fill="#231F20" d="M2819.133,622.162c0,28.344,21.664,50.859,50.008,50.859
			c28.336,0,50.859-22.516,50.859-50.859v-21.676c28.347,40.852,69.191,76.695,137.55,76.695
			c99.219,0,156.734-66.695,156.734-168.406v-235.09c0-28.344-21.656-50.031-50.031-50.031c-28.328,0-50.828,21.688-50.828,50.031
			v204.254c0,68.359-34.203,107.547-94.203,107.547c-58.375,0-99.222-40.852-99.222-109.223V273.685
			c0-28.344-22.523-50.031-50.859-50.031c-27.508,0-50.008,21.688-50.008,50.031V622.162"/>
		<path id="path22" fill="#231F20" d="M3599.035,272.013c-10.844,5.844-19.172,18.336-19.172,35.016
			c0,22.508,17.5,40.852,40.844,40.852c8.359,0,15.844-2.5,21.688-5.836c42.516-28.344,86.703-42.516,126.719-42.516
			c43.344,0,68.359,18.344,68.359,47.516v1.672c0,34.172-46.688,45.844-98.375,61.688
			c-65.031,18.344-137.562,45.019-137.562,129.226v1.664c0,83.375,69.203,134.223,156.734,134.223
			c46.688,0,95.875-13.34,138.406-35.844c14.172-7.504,24.156-20.844,24.156-38.352c0-23.348-18.328-40.852-41.688-40.852
			c-8.312,0-13.328,1.668-20,5.004c-35.844,18.336-72.531,30.004-103.375,30.004c-39.188,0-61.703-18.34-61.703-43.34v-1.676
			c0-32.508,47.531-45.844,99.219-62.523c64.203-20.008,136.719-49.183,136.719-128.386v-1.664
			c0-92.539-71.688-138.391-163.391-138.391C3710.753,219.498,3649.894,236.998,3599.035,272.013"/>
		<path id="path24" fill="#231F20" d="M4347.894,445.42v1.672c0,77.519-55.859,141.722-135.047,141.722
			c-80.875,0-132.562-63.355-132.562-140.059v-1.664c0-76.703,55.844-140.891,134.219-140.891
			C4296.207,306.201,4347.894,369.552,4347.894,445.42L4347.894,445.42z M3979.394,445.42v1.672
			c0,125.886,100.062,230.09,235.109,230.09c135.062,0,234.281-102.539,234.281-228.426v-1.664
			c0-125.062-100.062-229.281-235.938-229.281C4078.613,217.81,3979.394,320.373,3979.394,445.42"/>
		<path id="path26" fill="#231F20" d="M4527.05,445.42v1.672c0,125.054,96.703,230.09,229.266,230.09
			c69.188,0,116.719-22.504,154.234-55.02c6.656-5.84,15.844-18.348,15.844-35.012c0-25.848-20.859-45.855-46.703-45.855
			c-12.5,0-23.328,5.004-30,10c-25.859,21.684-54.188,37.52-94.219,37.52c-73.344,0-127.547-63.355-127.547-140.059v-1.664
			c0-78.375,54.203-140.891,131.719-140.891c40.016,0,70.875,15.828,98.391,39.18c5.828,4.992,15.828,10.836,27.5,10.836
			c24.188,0,43.359-20.016,43.359-44.188c0-13.344-5-24.172-14.172-31.672c-39.188-37.531-86.703-62.547-160.078-62.547
			C4623.753,217.81,4527.05,320.373,4527.05,445.42"/>
		<path id="path28" fill="#231F20" d="M5033.035,622.162c0,28.344,21.672,50.859,50.016,50.859s50.859-22.516,50.859-50.859V273.685
			c0-28.344-22.516-50.031-50.859-50.031c-27.516,0-50.016,21.688-50.016,50.031V622.162"/>
		<path id="path30" fill="#231F20" d="M5538.191,386.232v30c-25.844,10.016-60.016,17.516-100.047,17.516
			c-65.031,0-103.375-27.516-103.375-73.359v-1.672c0-42.516,37.516-66.688,85.859-66.688
			C5487.332,292.029,5538.191,330.373,5538.191,386.232z M5236.394,354.545v1.672c0,95.047,74.203,141.722,181.734,141.722
			c49.203,0,84.203-7.504,118.391-18.336v10.832c0,62.535-38.344,95.879-109.203,95.879c-38.359,0-70.031-6.668-97.531-17.508
			c-5.859-1.664-10.859-2.496-15.859-2.496c-23.328,0-42.516,18.34-42.516,41.676c0,18.348,12.5,34.184,27.516,40.023
			c41.672,15.836,84.203,25.844,141.719,25.844c65.859,0,115.047-17.512,145.906-49.184c32.5-31.684,47.516-78.371,47.516-135.898
			V272.013c0-27.516-21.672-48.359-49.188-48.359c-29.188,0-49.188,20.016-49.188,42.531v16.664
			c-30.016-35.844-75.875-64.188-143.406-64.188C5309.753,218.662,5236.394,266.185,5236.394,354.545"/>
		<path id="path32" fill="#231F20" d="M5760.691,738.81c0,27.504,21.672,50.023,50.031,50.023c28.344,0,50.859-22.52,50.859-50.023
			V273.685c0-28.344-22.516-50.031-50.859-50.031c-27.516,0-50.031,21.688-50.031,50.031V738.81"/>
		<path id="path34" fill="#231F20" d="M710.281,195.162c-5.562-5.57-14.578-8.5-26.066-8.5h-0.008
			c-25.48,0-68.105,15.383-111.309,58.586c-37.129,37.133-43.109,98.547-43.477,130.773c34.445-0.375,94.121-6.812,130.777-43.477
			c26.699-26.711,45.984-56.781,54.297-84.695C721.461,224.467,719.887,204.763,710.281,195.162z M527.004,426.717
			c-14.387,0-23.695-0.938-24.68-1.039l-20.441-2.117l-2.117-20.422c-0.516-5.047-12.035-124.266,57.367-193.664
			c45.895-45.898,101.062-73.297,147.57-73.297c24.957,0,46.172,8.023,61.359,23.211c44.531,44.539,22.527,136.312-50.094,208.938
			C645.156,419.138,568.305,426.717,527.004,426.717"/>
		<path id="path36" fill="#231F20" d="M195.156,710.287c5.566,5.566,14.59,8.508,26.078,8.508
			c25.484,0,68.105-15.395,111.309-58.598c37.129-37.133,43.109-98.547,43.477-130.77c-34.445,0.363-94.121,6.816-130.77,43.473
			c-26.699,26.703-45.984,56.781-54.297,84.688c-6.973,23.398-5.398,43.098,4.203,52.695V710.287z M209.473,537.134
			c50.812-50.812,127.691-58.406,168.992-58.406c13.93,0,23,0.871,24.664,1.043l20.43,2.113l2.117,20.43
			c0.531,5.039,12.07,124.227-57.355,193.656c-45.906,45.902-101.066,73.305-147.574,73.305c-24.957,0-46.172-8.027-61.355-23.211
			c-22.156-22.156-28.754-56.316-18.574-96.191C150.578,611.685,174.957,571.638,209.473,537.134"/>
		<path id="path38" fill="#231F20" d="M376.02,376.021c-0.367-32.227-6.348-93.641-43.477-130.773
			c-43.203-43.203-85.816-58.586-111.301-58.586h-0.008c-11.496,0-20.512,2.93-26.078,8.5
			c-17.832,17.836-10.258,77.023,50.094,137.383C281.898,369.209,341.574,375.646,376.02,376.021z M425.676,403.138l-2.125,20.422
			l-20.398,2.109c-1.012,0.109-10.34,1.047-24.715,1.047c-41.289,0-118.152-7.578-168.965-58.391
			c-72.621-72.625-94.617-164.398-50.082-208.938c15.184-15.188,36.398-23.211,61.355-23.211c46.508,0,101.68,27.398,147.574,73.297
			C437.723,278.896,426.199,398.107,425.676,403.138"/>
		<path id="path40" fill="#231F20" d="M529.422,529.427c0.367,32.223,6.348,93.637,43.477,130.773
			c43.203,43.199,85.828,58.594,111.309,58.594c11.496,0,20.512-2.941,26.074-8.508c9.605-9.602,11.18-29.301,4.215-52.699
			c-8.312-27.906-27.598-57.984-54.297-84.688C623.543,536.244,563.867,529.791,529.422,529.427L529.422,529.427z M479.766,502.326
			l2.117-20.441l20.434-2.109c1.668-0.176,10.719-1.047,24.66-1.047c41.301,0,118.18,7.594,168.992,58.406
			c34.516,34.504,58.902,74.551,68.656,112.738c10.188,39.875,3.594,74.035-18.562,96.191
			c-15.188,15.184-36.402,23.211-61.359,23.211c-46.508,0-101.676-27.402-147.57-73.305
			C467.711,626.552,479.242,507.353,479.766,502.326"/>
		<path id="path42" fill="#231F20" d="M784.156,558.947l-5.879,1.215l-3.43-4.918c-6.688-9.574-14.184-18.98-22.273-27.953
			l-11.594-12.863l17.168-2.262c61.43-8.094,98.133-36.574,98.133-59.441c0-22.867-36.703-51.351-98.121-59.437l-17.168-2.273
			l11.602-12.859c8.055-8.945,15.551-18.352,22.254-27.953l3.43-4.922l5.879,1.219c74.543,15.359,122.715,57.062,122.715,106.226
			C906.871,501.9,858.699,543.587,784.156,558.947"/>
		<path id="path44" fill="#231F20" d="M128.59,345.279l3.434,4.922c6.668,9.562,14.152,18.969,22.262,27.953l11.594,12.859
			l-17.168,2.273c-61.418,8.086-98.121,36.57-98.121,59.437c0,22.867,36.703,51.352,98.121,59.441l17.168,2.262l-11.594,12.863
			c-8.109,8.98-15.594,18.387-22.262,27.953l-3.434,4.918l-5.875-1.211C48.172,543.599,0,501.9,0,452.724
			c0-49.164,48.172-90.867,122.715-106.226L128.59,345.279"/>
		<path id="path46" fill="#231F20" d="M527.289,154.279l-12.863,11.609l-2.258-17.172c-8.094-61.422-36.578-98.125-59.445-98.125
			c-22.871,0-51.348,36.703-59.438,98.125l-2.258,17.156l-12.855-11.594c-9.016-8.109-18.426-15.609-27.965-22.266l-4.918-3.43
			l1.211-5.867C361.863,48.17,403.555-0.002,452.723-0.002c49.176,0,90.863,48.172,106.227,122.719l1.211,5.867l-4.918,3.43
			C545.668,138.701,536.262,146.185,527.289,154.279"/>
		<path id="path48" fill="#231F20" d="M378.172,751.166l12.855-11.574l2.258,17.145c8.09,61.414,36.566,98.117,59.438,98.117
			c22.867,0,51.352-36.703,59.445-98.117l2.258-17.164l12.863,11.605c8.938,8.051,18.344,15.551,27.953,22.254l4.918,3.43
			l-1.211,5.879c-15.355,74.543-57.051,122.699-106.227,122.699c-49.168,0-90.867-48.156-106.223-122.699l-1.211-5.879l4.918-3.43
			C359.738,766.775,369.145,759.283,378.172,751.166"/>
	</g>
</g>
</svg>
