<?xml version="1.0" encoding="utf-8"?>
<!-- Generator: Adobe Illustrator 16.0.0, SVG Export Plug-In . SVG Version: 6.00 Build 0)  -->
<!DOCTYPE svg PUBLIC "-//W3C//DTD SVG 1.1//EN" "http://www.w3.org/Graphics/SVG/1.1/DTD/svg11.dtd">
<svg version="1.1" id="Layer_1" xmlns="http://www.w3.org/2000/svg" xmlns:xlink="http://www.w3.org/1999/xlink" x="0px" y="0px"
	 width="643.059px" height="101.801px" viewBox="0 0 643.059 101.801" enable-background="new 0 0 643.059 101.801"
	 xml:space="preserve">
<g>
	<path d="M0,100.118V44.73c0-10.236,6.452-13.882,13.602-13.882h41.788v13.181H14.582v56.088H0z M76.981,44.029v42.907h40.804
		v13.181H76c-7.149,0-13.602-3.646-13.602-13.882V16.967h14.583v13.881h40.804v13.181H76.981z M139.379,86.937h40.804v13.181
		h-41.785c-7.152,0-13.601-3.646-13.601-13.882V30.848h14.582V86.937z"/>
	<path fill="#00A4D6" d="M266.422,80.907c0,4.207,0.841,6.029,4.907,6.029h0.701v13.181h-40.664V86.937h1.962
		c4.347,0,5.892-1.542,5.892-6.029V56.649c0-7.572-2.806-11.078-8.554-11.078c-6.312,0-10.099,4.908-10.099,15.004v20.332
		c0,4.487,0.984,6.029,5.892,6.029h1.962v13.181h-40.804V86.937h1.261c3.506,0,4.487-1.822,4.487-6.029V52.021
		c0-6.309-2.662-7.992-5.468-7.992h-0.28V30.848h32.25v16.266c3.506-10.376,10.519-17.948,24.12-17.948
		c14.022,0,22.436,8.132,22.436,25.521V80.907z"/>
	<path fill="#00A4D6" d="M307.226,80.907c0,4.207,0.984,6.029,4.487,6.029h1.965v13.181h-39.403V86.937h1.261
		c3.506,0,4.487-1.822,4.487-6.029V52.021c0-6.871-2.662-7.992-5.468-7.992h-0.28V30.848h32.951V80.907z M278.902,13.881
		C278.902,6.31,285.214,0,292.784,0c7.573,0,13.881,6.31,13.881,13.881c0,7.572-6.309,13.742-13.881,13.742
		C285.214,27.623,278.902,21.454,278.902,13.881z"/>
	<path fill="#00A4D6" d="M353.781,101.66c-23.977,0-38.419-12.62-38.419-36.177v-0.14c0-23.557,16.403-36.177,36.457-36.177
		c20.891,0,32.671,10.937,32.671,32.531v7.151h-41.505v0.702c0.841,12.339,7.29,15.564,20.751,15.564
		c7.152,0,13.602-2.104,19.633-5.188v11.498C378.602,95.911,369.348,101.66,353.781,101.66z M342.985,58.192h17.388v-1.543
		c0-10.937-2.104-16.125-7.854-16.125C346.491,40.524,343.686,45.151,342.985,58.192z"/>
	<path fill="#00A4D6" d="M437.634,51.601c0-6.45-2.665-7.572-6.872-7.572h-0.28V30.848h34.355v50.479
		c0,4.067,2.102,5.609,4.907,5.609h1.682v13.181h-32.391V86.096c-3.646,9.675-10.936,15.705-23.836,15.705
		c-14.723,0-22.856-8.134-22.856-25.521V51.601c0-6.03-1.824-7.572-4.627-7.572h-0.28V30.848h32.11v44.871
		c0,7.572,2.662,10.938,8.413,10.938c6.31,0,9.675-4.347,9.675-12.059V51.601z"/>
	<path fill="#00A4D6" d="M525.273,60.996l-10.378,39.122h-25.519l-12.34-50.479c-1.121-4.768-3.086-5.609-4.768-5.609h-0.7V30.848
		h36.877v13.181h-0.561c-6.031,0-6.592,1.542-5.471,7.712l5.331,27.343l11.916-48.236h19.634l12.76,46.694l5.749-25.801
		c1.4-6.029-0.28-7.712-5.188-7.712h-0.561V30.848h26.359v13.181h-0.841c-1.682,0-2.942,1.122-4.207,6.029l-12.337,50.059h-25.381
		L525.273,60.996z"/>
	<path fill="#00A4D6" d="M595.942,93.807l-2.241,6.311H580.94V78.664h14.161c1.825,7.011,8.414,10.236,15.847,10.236
		c5.048,0,8.975-1.823,8.975-5.609c0-4.067-2.525-4.907-6.452-5.469c-5.048-0.701-14.442-0.561-22.295-4.487
		c-7.71-3.786-10.796-11.078-10.796-20.192c0-18.79,16.123-23.978,26.782-23.978c9.254,0,14.862,2.944,17.668,7.291l2.102-5.609
		h12.2V50.76H625.53c-2.525-6.029-7.713-9.395-14.302-9.395c-4.627,0-8.834,1.682-8.834,6.029c0,3.225,2.242,5.048,5.608,5.609
		c5.888,0.981,16.687,1.402,23.696,4.907c8.834,4.347,11.359,11.218,11.359,19.631c0,16.125-10.939,24.118-27.763,24.118
		C604.496,101.66,599.028,98.014,595.942,93.807z"/>
</g>
</svg>
