<?xml version="1.0" encoding="UTF-8" standalone="no"?>
<svg
   xmlns:dc="http://purl.org/dc/elements/1.1/"
   xmlns:cc="http://creativecommons.org/ns#"
   xmlns:rdf="http://www.w3.org/1999/02/22-rdf-syntax-ns#"
   xmlns:svg="http://www.w3.org/2000/svg"
   xmlns="http://www.w3.org/2000/svg"
   viewBox="0 0 160.83749 56.737499"
   height="56.737499"
   width="160.83749"
   xml:space="preserve"
   version="1.1"
   id="svg2"><metadata
     id="metadata8"><rdf:RDF><cc:Work
         rdf:about=""><dc:format>image/svg+xml</dc:format><dc:type
           rdf:resource="http://purl.org/dc/dcmitype/StillImage" /></cc:Work></rdf:RDF></metadata><defs
     id="defs6" /><g
     transform="matrix(1.25,0,0,-1.25,0,56.7375)"
     id="g10"><g
       transform="scale(0.1,0.1)"
       id="g12"><path
         id="path14"
         style="fill:#231f20;fill-opacity:1;fill-rule:nonzero;stroke:none"
         d="m 1286.73,368.156 -1.59,-46.222 c 0,0 -31.66,3.226 -46.89,3.226 -38.49,0 -45.72,-13.277 -45.72,-51.453 0,-43.023 7.64,-55.887 46.12,-55.887 15.22,0 46.49,3.207 46.49,3.207 l 1.59,-46.218 c 0,0 -42.88,-8.461 -65.33,-8.461 -59.72,0 -83.35,31.773 -83.35,107.359 0,71.145 24.83,102.906 84.57,102.906 23.24,0 64.11,-8.457 64.11,-8.457" /><path
         id="path16"
         style="fill:#231f20;fill-opacity:1;fill-rule:nonzero;stroke:none"
         d="m 250.359,321.777 c 0,0 -52.816,6.485 -77.5,6.485 -24.703,0 -29.785,-4.852 -29.785,-15.77 0,-9.269 8.055,-11.715 40,-16.574 56.61,-8.477 74.508,-23.816 74.508,-64.625 0,-47.297 -32.766,-65.469 -86.004,-65.469 -31.492,0 -81.7303,9.684 -81.7303,9.684 l 1.7109,45.676 c 0,0 52.7854,-6.473 74.4884,-6.473 27.215,0 34.465,4.848 34.465,15.359 0,8.899 -4.649,12.133 -34.465,16.953 -55.359,8.907 -80.0314,21.012 -80.0314,64.254 0,46.903 37.8984,65.903 82.5824,65.903 30.664,0 82.57,-10.114 82.57,-10.114 l -0.809,-45.289" /><path
         id="path18"
         style="fill:#231f20;fill-opacity:1;fill-rule:nonzero;stroke:none"
         d="m 326.535,372.297 38.75,-148.692 9.778,0 38.761,148.692 56.176,0 -62.961,-252.813 -55.758,0 9.754,51.196 -38.328,0 -52.359,201.617 56.187,0" /><path
         id="path20"
         style="fill:#231f20;fill-opacity:1;fill-rule:nonzero;stroke:none"
         d="m 491.281,170.68 0,201.617 57.047,0 0,-11.32 c 0,0 28.516,16.203 52.777,16.203 59.59,0 74.938,-35.582 74.938,-101.032 l 0,-105.468 -57.047,0 0,107.461 c 0,30.722 -4.266,50.519 -31.945,50.519 -19.981,0 -38.723,-7.273 -38.723,-7.273 l 0,-150.707 -57.047,0" /><path
         id="path22"
         style="fill:#231f20;fill-opacity:1;fill-rule:nonzero;stroke:none"
         d="m 828.855,289.879 c 0,28.672 -9.812,39.176 -36.636,39.176 -27.254,0 -36.617,-12.504 -37.028,-39.176 l 73.664,0 z m 48.485,-70.723 0.875,-42.047 c 0,0 -48.953,-11.285 -88.555,-11.285 -64.262,0 -91.496,30.301 -91.496,103.031 0,71.942 31.914,108.325 94.055,108.325 62.57,0 92.797,-29.934 92.797,-90.953 l -4.231,-37.961 -125.183,0 c 0.449,-23.055 12.378,-32.746 43,-32.746 34.906,0 78.738,3.636 78.738,3.636" /><path
         id="path24"
         style="fill:#231f20;fill-opacity:1;fill-rule:nonzero;stroke:none"
         d="m 976.98,323.41 0,-76.387 c 0,-20.21 0,-29.468 17.868,-29.468 11.932,0 32.372,0.781 32.372,0.781 l 2.55,-46.441 c 0,0 -28.49,-6.071 -43.43,-6.071 -51.5,0 -66.375,18.563 -66.375,76.77 l 0,80.816 -25.145,0 0,48.887 25.145,0 0,56.57 57.015,0 0,-56.57 52.37,0 0,-48.887 -52.37,0" /><path
         id="path26"
         style="fill:#231f20;fill-opacity:1;fill-rule:nonzero;stroke:none"
         d="m 1055.3,372.297 57.05,0 0,-201.617 -57.05,0 0,201.617 z m 0,81.621 57.05,0 0,-55.34 -57.05,0 0,55.34" /><path
         id="path28"
         style="fill:#e32124;fill-opacity:1;fill-rule:nonzero;stroke:none"
         d="m 0,170.098 51.6016,0 0,51.6016 -51.6016,0 0,-51.6016 z" /><path
         id="path30"
         style="fill:#575b59;fill-opacity:1;fill-rule:nonzero;stroke:none"
         d="m 103.102,69.8945 0,-5.9765 15.687,0 0,-3.4453 -15.594,0 0,-39.5157 c 1.157,-0.0468 2.215,-0.082 3.176,-0.1132 0.961,-0.0313 1.68,-0.0547 2.149,-0.0665 0.476,-0.0156 0.781,-0.0234 0.921,-0.0351 1.286,-0.0586 1.926,-0.6328 1.926,-1.7109 l 0,-1.9336 -20.8045,0 0,1.9336 c 0,1.0781 0.6406,1.6523 1.9258,1.7109 0.1406,0.0117 0.4414,0.0195 0.9062,0.0351 0.461,0.0118 1.1641,0.0313 2.1016,0.0625 0.9375,0.0313 1.9687,0.0665 3.0859,0.1133 l 0,39.4219 -6.8007,0.4336 c -0.9375,0.0664 -1.4063,0.4727 -1.4063,1.2148 l 0,1.8946 8.207,0 0,6.1211 c 0,2.7539 0.3594,5.1718 1.0703,7.2617 0.7107,2.0859 1.7147,3.8281 3.0117,5.2187 1.293,1.3946 2.859,2.4414 4.688,3.1328 1.828,0.6954 3.843,1.043 6.046,1.043 1,0 2.012,-0.0859 3.036,-0.2656 1.019,-0.1758 1.918,-0.4297 2.695,-0.75 l -0.149,-2.2383 c -0.031,-0.4531 -0.335,-0.6797 -0.921,-0.6797 -0.387,0 -0.914,0.0508 -1.575,0.1446 -0.664,0.0976 -1.484,0.1523 -2.457,0.1523 -1.586,0 -3.05,-0.2383 -4.394,-0.707 -1.344,-0.4727 -2.5,-1.2227 -3.473,-2.2578 -0.969,-1.0352 -1.722,-2.3907 -2.262,-4.0586 -0.531,-1.668 -0.796,-3.7188 -0.796,-6.1407" /><path
         id="path32"
         style="fill:#575b59;fill-opacity:1;fill-rule:nonzero;stroke:none"
         d="m 179.621,19.0313 0,-1.9336 -9.558,0 c -0.895,0 -1.36,0.4218 -1.391,1.2617 l -0.442,7.1875 c -2.238,-2.7813 -4.82,-5.0156 -7.757,-6.6992 -2.93,-1.6875 -6.196,-2.5274 -9.797,-2.5274 -2.696,0 -5.047,0.4219 -7.055,1.2656 -2.008,0.8399 -3.68,2.0508 -5.012,3.6407 -1.328,1.5859 -2.332,3.4961 -3.015,5.7304 -0.68,2.2305 -1.02,4.7618 -1.02,7.5782 l 0,27.0429 c -0.879,0.0352 -1.668,0.0664 -2.367,0.0899 -0.699,0.0273 -1.191,0.0468 -1.477,0.0586 -0.277,0.0078 -0.523,0.0195 -0.73,0.0234 -0.207,0.0117 -0.379,0.0195 -0.516,0.0234 -1.285,0.0664 -1.929,0.6368 -1.929,1.7149 l 0,1.9336 7.019,0 4.614,0.0039 0,-30.8906 c 0,-4.5313 1.042,-8.086 3.121,-10.6641 2.082,-2.5742 5.246,-3.8594 9.504,-3.8594 3.148,0 6.089,0.8047 8.82,2.4063 2.73,1.6015 5.18,3.8281 7.355,6.6797 l 0,32.4804 c -0.871,0.0352 -1.656,0.0664 -2.359,0.0938 -0.699,0.0234 -1.188,0.0429 -1.469,0.0547 -0.277,0.0078 -0.523,0.0195 -0.73,0.0234 -0.207,0.0117 -0.375,0.0195 -0.516,0.0234 -1.285,0.0664 -1.93,0.6368 -1.93,1.7149 l 0,1.9336 7.004,0 4.617,0.0039 0,-44.4805 c 0.879,-0.039 1.668,-0.0664 2.368,-0.0937 0.703,-0.0274 1.191,-0.0469 1.476,-0.0547 0.281,-0.0117 0.52,-0.0196 0.731,-0.0274 0.207,-0.0078 0.379,-0.0156 0.515,-0.0234 1.285,-0.0625 1.926,-0.6328 1.926,-1.7148" /><path
         id="path34"
         style="fill:#575b59;fill-opacity:1;fill-rule:nonzero;stroke:none"
         d="m 209.559,19.0313 0,-1.9297 -18.649,0 0,1.9297 c 0,1.082 0.641,1.6523 1.926,1.7148 0.168,0.0078 0.379,0.0156 0.625,0.0273 0.254,0.0079 0.781,0.0274 1.586,0.0586 0.805,0.0313 1.766,0.0703 2.879,0.1133 l 0,62.9766 c -0.879,0.0351 -1.664,0.0664 -2.367,0.0937 -0.7,0.0274 -1.188,0.0469 -1.473,0.0547 -0.281,0.0078 -0.523,0.0195 -0.731,0.0274 -0.207,0.0078 -0.382,0.0156 -0.519,0.0234 -1.285,0.0625 -1.926,0.6367 -1.926,1.7109 l 0,1.9375 11.633,0 0,-66.8242 c 0.879,-0.0351 1.668,-0.0664 2.367,-0.0937 0.699,-0.0274 1.188,-0.043 1.473,-0.0547 0.281,-0.0117 0.523,-0.0196 0.73,-0.0274 0.207,-0.0078 0.383,-0.0156 0.52,-0.0234 1.285,-0.0625 1.926,-0.6328 1.926,-1.7148" /><path
         id="path36"
         style="fill:#575b59;fill-opacity:1;fill-rule:nonzero;stroke:none"
         d="m 239.121,19.0313 0,-1.9297 -18.648,0 0,1.9297 c 0,1.082 0.644,1.6523 1.925,1.7148 0.168,0.0078 0.379,0.0156 0.625,0.0273 0.254,0.0079 0.782,0.0274 1.586,0.0586 0.805,0.0313 1.766,0.0703 2.883,0.1133 l 0,62.9766 c -0.883,0.0351 -1.668,0.0664 -2.367,0.0937 -0.699,0.0274 -1.191,0.0469 -1.477,0.0547 -0.281,0.0078 -0.523,0.0195 -0.73,0.0274 -0.207,0.0078 -0.379,0.0156 -0.52,0.0234 -1.281,0.0625 -1.925,0.6367 -1.925,1.7109 l 0,1.9375 11.632,0 0,-66.8242 c 0.879,-0.0351 1.672,-0.0664 2.372,-0.0937 0.695,-0.0274 1.183,-0.043 1.468,-0.0547 0.285,-0.0117 0.528,-0.0196 0.735,-0.0274 0.203,-0.0078 0.379,-0.0156 0.515,-0.0234 1.285,-0.0625 1.926,-0.6328 1.926,-1.7148" /><path
         id="path38"
         style="fill:#575b59;fill-opacity:1;fill-rule:nonzero;stroke:none"
         d="m 308.746,31.2305 c 0,-2.1016 -0.383,-4.0586 -1.144,-5.875 -0.758,-1.8164 -1.86,-3.3867 -3.301,-4.711 -1.438,-1.3281 -3.211,-2.3789 -5.317,-3.1562 -2.101,-0.7774 -4.504,-1.168 -7.187,-1.168 -4.844,0 -9.606,0.8945 -14.289,2.6719 l 0,11.8008 2.359,0 c 1.317,0 2.016,-0.7891 2.094,-2.3555 0.008,-0.1367 0.043,-0.5195 0.105,-1.1328 0.067,-0.6211 0.145,-1.4766 0.239,-2.5586 0.093,-1.0859 0.172,-2.2383 0.242,-3.4531 2.613,-1.0508 5.766,-1.5742 9.441,-1.5742 2.043,0 3.84,0.2851 5.395,0.8515 1.551,0.5664 2.847,1.336 3.883,2.3086 1.035,0.9688 1.824,2.1133 2.355,3.4219 0.535,1.3125 0.805,2.6992 0.805,4.1523 0,1.6172 -0.391,2.9649 -1.168,4.0352 -0.774,1.0625 -1.793,1.9687 -3.063,2.7148 -1.257,0.7461 -2.695,1.3789 -4.297,1.8985 -1.601,0.5156 -3.253,1.0351 -4.953,1.5507 -1.703,0.5235 -3.355,1.086 -4.953,1.7032 -1.605,0.6133 -3.039,1.3906 -4.297,2.332 -1.265,0.9336 -2.285,2.0742 -3.062,3.4219 -0.778,1.3437 -1.168,3.0195 -1.168,5.0273 0,1.7188 0.375,3.3672 1.121,4.9531 0.742,1.5899 1.801,2.9805 3.18,4.1758 1.375,1.2032 3.05,2.1563 5.027,2.8672 1.977,0.7149 4.191,1.0664 6.648,1.0664 3.469,0 7.747,-0.8554 12.832,-2.5703 l 0,-11.5508 -2.367,0 c -1.316,0 -2.011,0.7813 -2.09,2.3516 -0.007,0.1406 -0.043,0.5117 -0.105,1.1133 -0.063,0.6054 -0.141,1.4336 -0.231,2.4883 -0.089,1.0585 -0.171,2.1835 -0.238,3.3632 -2.594,0.8399 -5.16,1.2618 -7.699,1.2618 -1.746,0 -3.344,-0.25 -4.785,-0.75 -1.442,-0.504 -2.668,-1.1758 -3.688,-2.0118 -1.023,-0.8398 -1.816,-1.8164 -2.382,-2.9297 -0.567,-1.1132 -0.848,-2.2851 -0.848,-3.5156 0,-1.5117 0.387,-2.7734 1.164,-3.7734 0.777,-1.0039 1.797,-1.8594 3.059,-2.5664 1.265,-0.7149 2.695,-1.3281 4.296,-1.8438 1.629,-0.5234 3.27,-1.039 4.934,-1.5508 1.687,-0.5195 3.332,-1.0937 4.93,-1.7226 1.601,-0.6328 3.035,-1.418 4.297,-2.3594 1.261,-0.9375 2.281,-2.0859 3.062,-3.4453 0.777,-1.3633 1.164,-3.0117 1.164,-4.957" /><path
         id="path40"
         style="fill:#575b59;fill-opacity:1;fill-rule:nonzero;stroke:none"
         d="m 333.93,61.5859 c -1.973,-0.7773 -3.684,-1.8906 -5.125,-3.3476 -1.442,-1.461 -2.606,-3.207 -3.496,-5.25 -0.887,-2.0352 -1.481,-4.3203 -1.774,-6.8477 l 31.863,0 c 0,2.5938 -0.355,4.9141 -1.066,6.9727 -0.715,2.0586 -1.719,3.793 -3.012,5.2187 -1.297,1.4258 -2.851,2.5196 -4.664,3.2813 -1.812,0.7617 -3.82,1.1406 -6.023,1.1406 -2.492,0 -4.727,-0.3906 -6.703,-1.168 z m 14.207,3.2071 c 2.316,-0.9375 4.324,-2.3047 6.023,-4.1016 1.699,-1.8008 3.028,-4.0078 3.985,-6.6289 0.953,-2.625 1.429,-5.6367 1.429,-9.0391 0,-0.7109 -0.101,-1.1992 -0.316,-1.457 -0.207,-0.2578 -0.539,-0.3867 -0.992,-0.3867 l -34.922,0 0,-0.9258 c 0,-3.6211 0.418,-6.8125 1.261,-9.5664 0.84,-2.7539 2.04,-5.0586 3.594,-6.918 1.555,-1.8672 3.43,-3.2656 5.633,-4.2031 2.203,-0.9375 4.664,-1.4101 7.387,-1.4101 2.426,0 4.531,0.2695 6.312,0.8007 1.782,0.5352 3.278,1.1368 4.492,1.8008 1.215,0.6641 2.176,1.2578 2.887,1.793 0.715,0.5351 1.235,0.8047 1.555,0.8047 0.426,0 0.746,-0.1641 0.976,-0.4883 l 1.258,-1.5547 c -0.773,-0.9687 -1.804,-1.875 -3.082,-2.7187 -1.277,-0.8438 -2.703,-1.5625 -4.273,-2.1602 -1.571,-0.6016 -3.254,-1.0781 -5.051,-1.4336 -1.801,-0.3594 -3.602,-0.5352 -5.418,-0.5352 -3.301,0 -6.312,0.5743 -9.031,1.7266 -2.723,1.1484 -5.055,2.8242 -6.996,5.0274 -1.946,2.1992 -3.442,4.8945 -4.493,8.0859 -1.054,3.1875 -1.578,6.8398 -1.578,10.9492 0,3.4688 0.493,6.6641 1.481,9.5938 0.988,2.9336 2.41,5.457 4.273,7.5781 1.864,2.1211 4.145,3.7812 6.852,4.9805 2.703,1.1953 5.769,1.7929 9.203,1.7929 2.719,0 5.234,-0.4687 7.551,-1.4062" /><path
         id="path42"
         style="fill:#575b59;fill-opacity:1;fill-rule:nonzero;stroke:none"
         d="m 405.473,64.4531 -0.629,-3.207 c -0.098,-0.5156 -0.422,-0.7734 -0.973,-0.7734 -0.191,0 -0.469,0.0625 -0.824,0.1914 -0.359,0.1289 -0.805,0.2734 -1.34,0.4375 -0.531,0.1601 -1.187,0.3086 -1.965,0.4375 -0.773,0.1289 -1.668,0.1914 -2.672,0.1914 -3.66,0 -6.66,-1.1289 -9.007,-3.3985 -2.348,-2.2656 -4.25,-5.5351 -5.708,-9.8125 l 0,-27.5742 c 3.993,-0.164 4.481,-0.168 5.09,-0.2031 1.2,-0.0547 1.926,-0.4727 1.926,-1.7109 l 0,-1.9336 -18.648,0 0,1.9336 c 0,1.2382 0.726,1.6562 1.925,1.7109 0.61,0.0351 1.098,0.0391 5.09,0.2031 l 0,40.6328 c -3.992,0.1563 -4.476,0.168 -5.09,0.1953 -1.199,0.0586 -1.925,0.4727 -1.925,1.7149 l 0,1.9336 7.015,0 0,0.0039 2.43,0 c 0.551,0 0.945,-0.1133 1.187,-0.3438 0.247,-0.2265 0.383,-0.6132 0.418,-1.164 l 0.387,-10.1992 c 1.555,3.9179 3.625,6.9843 6.219,9.2031 2.59,2.2187 5.777,3.3281 9.566,3.3281 1.457,0 2.801,-0.1562 4.032,-0.4609 1.23,-0.3086 2.394,-0.7539 3.496,-1.336" /><path
         id="path44"
         style="fill:#575b59;fill-opacity:1;fill-rule:nonzero;stroke:none"
         d="m 464.266,65.4219 0,-1.9375 c 0,-1.0742 -0.641,-1.6446 -1.93,-1.711 -0.148,-0.0078 -0.316,-0.0156 -0.496,-0.0234 -0.18,-0.0039 -0.543,-0.0195 -1.09,-0.0391 -0.547,-0.0195 -1.141,-0.0429 -1.781,-0.0703 l -18.805,-44.5429 -4.082,0 -18.805,44.5546 c -2.117,0.0782 -3.175,0.1211 -3.175,0.1211 -1.286,0.0664 -1.926,0.6368 -1.926,1.7149 l 0,1.9336 3.512,0 3.64,0.0039 9.774,-0.0039 0,-1.9336 c 0,-1.0781 -0.641,-1.6485 -1.926,-1.7149 -0.176,-0.0078 -0.375,-0.0156 -0.602,-0.0273 -0.222,-0.0078 -0.746,-0.0313 -1.566,-0.0586 -0.824,-0.0312 -1.778,-0.0703 -2.86,-0.1133 l 14.813,-35.4414 c 0.32,-0.7461 0.562,-1.457 0.727,-2.1406 0.05,-0.2227 0.132,-0.5664 0.242,-1.0156 0.105,-0.4571 0.187,-0.7969 0.242,-1.0235 0.156,0.6641 0.328,1.3516 0.512,2.0625 0.175,0.6953 0.41,1.3985 0.703,2.1133 l 14.898,35.4453 c -0.859,0.0352 -1.644,0.0664 -2.347,0.0938 -0.708,0.0234 -1.192,0.0468 -1.461,0.0547 -0.266,0.0078 -0.5,0.0195 -0.7,0.0273 -0.199,0.0078 -0.371,0.0195 -0.511,0.0234 -1.286,0.0664 -1.926,0.6368 -1.926,1.711 l 0,1.9375 16.926,0" /><path
         id="path46"
         style="fill:#575b59;fill-opacity:1;fill-rule:nonzero;stroke:none"
         d="m 479.438,80.457 c -0.227,0.5 -0.34,1.043 -0.34,1.6289 0,0.5821 0.113,1.1407 0.34,1.6719 0.226,0.5352 0.535,0.9961 0.925,1.3867 0.387,0.3868 0.836,0.6953 1.36,0.9219 0.515,0.2266 1.066,0.3399 1.648,0.3399 0.582,-0.004 1.137,-0.1133 1.656,-0.3399 0.516,-0.2266 0.969,-0.5351 1.356,-0.9219 0.39,-0.3867 0.703,-0.8476 0.949,-1.3867 0.242,-0.5351 0.363,-1.0898 0.363,-1.6758 0,-0.582 -0.121,-1.125 -0.363,-1.625 -0.242,-0.5039 -0.559,-0.9492 -0.949,-1.3359 -0.391,-0.3906 -0.84,-0.6953 -1.356,-0.9258 -0.519,-0.2265 -1.074,-0.3398 -1.656,-0.3359 -0.582,0 -1.133,0.1133 -1.648,0.3398 -0.52,0.2227 -0.969,0.5313 -1.36,0.9219 -0.39,0.3906 -0.699,0.8359 -0.925,1.3359 z m 13.234,-61.4257 0,-1.9336 -18.649,0 0,1.9336 c 0,1.082 0.641,1.6523 1.93,1.7109 0.164,0.0117 0.371,0.0195 0.625,0.0312 0.246,0.0079 0.777,0.0274 1.582,0.0586 0.805,0.0313 1.766,0.0664 2.879,0.1133 l 0,40.6328 c -0.875,0.0352 -1.668,0.0664 -2.367,0.0938 -0.699,0.0234 -1.188,0.0429 -1.473,0.0547 -0.281,0.0117 -0.523,0.0195 -0.73,0.0273 -0.207,0.0117 -0.379,0.0156 -0.516,0.0234 -1.289,0.0665 -1.93,0.6329 -1.93,1.7149 l 0,1.9336 11.633,0 0,-44.4805 c 0.883,-0.039 1.672,-0.0664 2.367,-0.0937 0.7,-0.0274 1.188,-0.0469 1.473,-0.0547 0.281,-0.0117 0.527,-0.0196 0.734,-0.0274 0.208,-0.0078 0.379,-0.0156 0.516,-0.0234 1.285,-0.0625 1.926,-0.6328 1.926,-1.7148" /><path
         id="path48"
         style="fill:#575b59;fill-opacity:1;fill-rule:nonzero;stroke:none"
         d="m 540.063,23.3125 c -0.747,-0.9687 -1.684,-1.8789 -2.817,-2.7187 -1.137,-0.8438 -2.41,-1.5704 -3.84,-2.1836 -1.422,-0.6172 -2.968,-1.0938 -4.636,-1.4375 -1.668,-0.336 -3.407,-0.5079 -5.223,-0.5079 -3.074,0 -5.887,0.5586 -8.426,1.6758 -2.543,1.1172 -4.726,2.7344 -6.555,4.8555 -1.832,2.125 -3.257,4.7187 -4.277,7.7969 -1.019,3.0742 -1.527,6.5742 -1.527,10.4922 0,3.6914 0.484,7.0586 1.457,10.1015 0.972,3.043 2.386,5.668 4.246,7.8711 1.863,2.1992 4.148,3.9063 6.851,5.1211 2.704,1.2149 5.801,1.8203 9.301,1.8203 1.121,0 2.817,-0.25 5.074,-0.7539 2.258,-0.5078 4.235,-1.0117 5.93,-1.5156 l 2.539,-0.7578 0,-12.1836 -2.359,0 c -1.321,0 -2.016,0.7812 -2.094,2.3555 -0.008,0.1328 -0.043,0.5312 -0.113,1.1835 -0.071,0.6602 -0.149,1.5625 -0.246,2.711 -0.094,1.1484 -0.176,2.3672 -0.25,3.664 -3.082,1.1055 -5.828,1.6563 -8.239,1.6563 -2.785,0 -5.254,-0.4961 -7.406,-1.4805 -2.152,-0.9922 -3.965,-2.4062 -5.441,-4.25 -1.473,-1.8437 -2.598,-4.0781 -3.375,-6.707 -0.778,-2.6172 -1.164,-5.5664 -1.164,-8.8359 0,-3.4024 0.394,-6.4141 1.187,-9.0313 0.797,-2.625 1.922,-4.8359 3.379,-6.6328 1.453,-1.7969 3.223,-3.1641 5.289,-4.1016 2.07,-0.9414 4.371,-1.4101 6.899,-1.4101 2.332,0 4.285,0.2734 5.851,0.8242 1.574,0.5508 2.867,1.1523 3.887,1.7969 1.019,0.6484 1.828,1.2461 2.43,1.7968 0.597,0.5508 1.078,0.8282 1.433,0.8282 0.418,0 0.742,-0.1641 0.973,-0.4883 l 1.262,-1.5547" /><path
         id="path50"
         style="fill:#575b59;fill-opacity:1;fill-rule:nonzero;stroke:none"
         d="m 564.906,61.5859 c -1.972,-0.7773 -3.683,-1.8906 -5.125,-3.3476 -1.441,-1.461 -2.605,-3.207 -3.496,-5.25 -0.887,-2.0352 -1.48,-4.3203 -1.773,-6.8477 l 31.863,0 c 0,2.5938 -0.355,4.9141 -1.066,6.9727 -0.711,2.0586 -1.719,3.793 -3.012,5.2187 -1.297,1.4258 -2.852,2.5196 -4.664,3.2813 -1.813,0.7617 -3.82,1.1406 -6.024,1.1406 -2.492,0 -4.726,-0.3906 -6.703,-1.168 z m 14.207,3.2071 c 2.317,-0.9375 4.325,-2.3047 6.024,-4.1016 1.699,-1.8008 3.031,-4.0078 3.984,-6.6289 0.953,-2.625 1.43,-5.6367 1.43,-9.0391 0,-0.7109 -0.102,-1.1992 -0.317,-1.457 -0.207,-0.2578 -0.539,-0.3867 -0.992,-0.3867 l -34.922,0 0,-0.9258 c 0,-3.6211 0.418,-6.8125 1.262,-9.5664 0.84,-2.7539 2.039,-5.0586 3.594,-6.918 1.554,-1.8672 3.429,-3.2656 5.633,-4.2031 2.203,-0.9375 4.664,-1.4101 7.386,-1.4101 2.426,0 4.532,0.2695 6.313,0.8007 1.781,0.5352 3.277,1.1368 4.492,1.8008 1.215,0.6641 2.176,1.2578 2.891,1.793 0.711,0.5351 1.23,0.8047 1.55,0.8047 0.426,0 0.747,-0.1641 0.977,-0.4883 l 1.262,-1.5547 c -0.778,-0.9687 -1.809,-1.875 -3.086,-2.7187 -1.278,-0.8438 -2.703,-1.5625 -4.274,-2.1602 -1.57,-0.6016 -3.254,-1.0781 -5.05,-1.4336 -1.801,-0.3594 -3.602,-0.5352 -5.418,-0.5352 -3.301,0 -6.313,0.5743 -9.032,1.7266 -2.722,1.1484 -5.054,2.8242 -6.996,5.0274 -1.941,2.1992 -3.437,4.8945 -4.492,8.0859 -1.051,3.1875 -1.578,6.8398 -1.578,10.9492 0,3.4688 0.492,6.6641 1.48,9.5938 0.989,2.9336 2.411,5.457 4.278,7.5781 1.859,2.1211 4.14,3.7812 6.847,4.9805 2.704,1.1953 5.77,1.7929 9.204,1.7929 2.718,0 5.238,-0.4687 7.55,-1.4062" /><path
         id="path52"
         style="fill:#575b59;fill-opacity:1;fill-rule:nonzero;stroke:none"
         d="m 662.059,55.0781 c -1.883,2.7539 -3.95,4.6992 -6.204,5.8321 -2.253,1.1328 -4.808,1.6992 -7.664,1.6992 -2.851,0 -5.347,-0.5196 -7.492,-1.5547 -2.14,-1.0391 -3.933,-2.5 -5.375,-4.3945 -1.437,-1.8946 -2.527,-4.1602 -3.258,-6.8008 -0.73,-2.6367 -1.093,-5.543 -1.093,-8.7149 0,-7.1914 1.328,-12.4765 3.988,-15.8593 2.656,-3.3868 6.469,-5.0782 11.434,-5.0782 3.21,0 6.113,0.8282 8.703,2.4766 2.597,1.6523 4.918,3.9531 6.961,6.8984 l 0,25.4961 z m 11.113,-36.5039 0,-1.4726 -9.043,0 c -0.801,0 -1.266,0.4179 -1.395,1.2578 l -0.488,7.6289 c -2.141,-2.918 -4.644,-5.2305 -7.512,-6.9453 -2.871,-1.7188 -6.086,-2.5742 -9.656,-2.5742 -5.93,0 -10.558,2.0546 -13.883,6.1679 -3.32,4.1094 -4.98,10.2813 -4.98,18.5078 0,3.5274 0.461,6.8203 1.383,9.8828 0.925,3.0547 2.285,5.711 4.086,7.9649 1.8,2.25 4.007,4.0234 6.617,5.3164 2.605,1.2969 5.617,1.9453 9.019,1.9453 3.274,0 6.11,-0.6094 8.512,-1.8242 2.398,-1.2149 4.473,-2.9844 6.227,-5.3203 l 0,24.8125 c -0.875,0.0351 -1.664,0.0664 -2.368,0.0937 -0.703,0.0235 -1.195,0.043 -1.472,0.0547 -0.278,0.0078 -0.524,0.0195 -0.731,0.0274 -0.207,0.0117 -0.379,0.0156 -0.519,0.0234 -1.281,0.0625 -1.922,0.6367 -1.922,1.7109 l 0,1.9375 11.625,0 0,-66.8398 c 0.769,-0.0313 1.473,-0.0586 2.094,-0.082 0.621,-0.0274 1.058,-0.043 1.32,-0.0508 0.258,-0.0117 0.48,-0.0196 0.672,-0.0274 0.195,-0.0078 0.359,-0.0117 0.492,-0.0195 1.281,-0.0625 1.922,-0.6367 1.922,-1.7148 l 0,-0.461" /><path
         id="path54"
         style="fill:#575b59;fill-opacity:1;fill-rule:nonzero;stroke:none"
         d="m 719.121,64.4531 -0.625,-3.207 c -0.098,-0.5156 -0.426,-0.7734 -0.973,-0.7734 -0.195,0 -0.472,0.0625 -0.828,0.1914 -0.351,0.1289 -0.797,0.2734 -1.336,0.4375 -0.535,0.1601 -1.191,0.3086 -1.964,0.4375 -0.782,0.1289 -1.672,0.1914 -2.672,0.1914 -3.66,0 -6.668,-1.1289 -9.008,-3.3985 -2.356,-2.2656 -4.25,-5.5351 -5.707,-9.8125 l 0,-27.5742 c 3.992,-0.164 4.476,-0.168 5.09,-0.2031 1.199,-0.0547 1.918,-0.4727 1.918,-1.7109 l 0,-1.9336 -18.641,0 0,1.9336 c 0,1.2382 0.719,1.6562 1.926,1.7109 0.605,0.0351 1.097,0.0391 5.09,0.2031 l 0,40.6328 c -3.993,0.1563 -4.485,0.168 -5.09,0.1953 -1.207,0.0586 -1.926,0.4727 -1.926,1.7149 l 0,1.9336 7.016,0 0,0.0039 2.429,0 c 0.547,0 0.95,-0.1133 1.188,-0.3438 0.246,-0.2265 0.379,-0.6132 0.414,-1.164 l 0.391,-10.1992 c 1.554,3.9179 3.625,6.9843 6.21,9.2031 2.594,2.2187 5.786,3.3281 9.571,3.3281 1.457,0 2.801,-0.1562 4.031,-0.4609 1.234,-0.3086 2.398,-0.7539 3.496,-1.336" /><path
         id="path56"
         style="fill:#575b59;fill-opacity:1;fill-rule:nonzero;stroke:none"
         d="m 778.855,19.0313 0,-1.9336 -9.558,0 c -0.899,0 -1.359,0.4218 -1.395,1.2617 l -0.437,7.1875 c -2.238,-2.7813 -4.824,-5.0156 -7.758,-6.6992 -2.934,-1.6875 -6.199,-2.5274 -9.797,-2.5274 -2.695,0 -5.043,0.4219 -7.055,1.2656 -2.011,0.8399 -3.675,2.0508 -5.011,3.6407 -1.328,1.5859 -2.336,3.4961 -3.012,5.7304 -0.684,2.2305 -1.027,4.7618 -1.027,7.5782 l 0,27.0429 c -0.875,0.0352 -1.668,0.0664 -2.367,0.0899 -0.696,0.0273 -1.192,0.0468 -1.469,0.0586 -0.285,0.0078 -0.528,0.0195 -0.735,0.0234 -0.207,0.0117 -0.382,0.0195 -0.515,0.0234 -1.285,0.0664 -1.93,0.6368 -1.93,1.7149 l 0,1.9336 7.016,0 4.621,0.0039 0,-30.8906 c 0,-4.5313 1.035,-8.086 3.113,-10.6641 2.082,-2.5742 5.25,-3.8594 9.508,-3.8594 3.152,0 6.094,0.8047 8.82,2.4063 2.731,1.6015 5.18,3.8281 7.36,6.6797 l 0,32.4804 c -0.879,0.0352 -1.664,0.0664 -2.36,0.0938 -0.703,0.0234 -1.195,0.0429 -1.472,0.0547 -0.282,0.0078 -0.524,0.0195 -0.727,0.0234 -0.207,0.0117 -0.383,0.0195 -0.523,0.0234 -1.286,0.0664 -1.922,0.6368 -1.922,1.7149 l 0,1.9336 7.004,0 4.609,0.0039 0,-44.4805 c 0.879,-0.039 1.672,-0.0664 2.367,-0.0937 0.703,-0.0274 1.195,-0.0469 1.477,-0.0547 0.281,-0.0117 0.523,-0.0196 0.73,-0.0274 0.207,-0.0078 0.383,-0.0156 0.524,-0.0234 1.281,-0.0625 1.921,-0.6328 1.921,-1.7148" /><path
         id="path58"
         style="fill:#575b59;fill-opacity:1;fill-rule:nonzero;stroke:none"
         d="m 830.094,41.5781 c 0,7.1875 -1.321,12.4727 -3.961,15.8555 -2.637,3.3867 -6.449,5.0742 -11.434,5.0742 -3.207,0 -6.113,-0.832 -8.719,-2.4961 -2.605,-1.6719 -4.914,-3.9922 -6.921,-6.9726 l 0,-25.3516 c 1.843,-2.7891 3.89,-4.7461 6.14,-5.8789 2.25,-1.1328 4.817,-1.6992 7.699,-1.6992 2.852,0 5.348,0.5195 7.485,1.5547 2.133,1.0351 3.926,2.5 5.363,4.3945 1.445,1.8945 2.527,4.1641 3.258,6.8008 0.726,2.6367 1.09,5.5429 1.09,8.7187 z m 4.758,0 c 0,-3.5312 -0.457,-6.8242 -1.383,-9.8828 -0.918,-3.0625 -2.274,-5.7148 -4.055,-7.9687 -1.777,-2.25 -3.976,-4.0235 -6.582,-5.3164 -2.605,-1.2969 -5.609,-1.9414 -9.012,-1.9414 -3.3,0 -6.148,0.5937 -8.543,1.7968 -2.398,1.1953 -4.468,2.9727 -6.218,5.3399 l 0,-19.75784 c 0.879,-0.03516 1.664,-0.06641 2.363,-0.09375 0.695,-0.02735 1.183,-0.04688 1.469,-0.05469 0.277,-0.01172 0.523,-0.01953 0.726,-0.02734 0.207,-0.00782 0.383,-0.01563 0.52,-0.02344 1.281,-0.0625 1.926,-0.63281 1.926,-1.71485 l 0,-1.93359 -18.637,0 0,1.93359 c 0,1.08204 0.644,1.65235 1.929,1.71485 0.165,0.00781 0.372,0.01953 0.625,0.02734 0.25,0.00781 0.782,0.02735 1.579,0.0586 0.804,0.03125 1.765,0.0664 2.882,0.11328 l 0,57.72654 c -0.875,0.0391 -1.664,0.0664 -2.367,0.0938 -0.695,0.0273 -1.183,0.0468 -1.469,0.0586 -0.285,0.0078 -0.531,0.0195 -0.734,0.0234 -0.207,0.0117 -0.383,0.0195 -0.516,0.0234 -1.285,0.0664 -1.929,0.6368 -1.929,1.7149 l 0,1.9336 7.015,0 2.528,0.0039 c 0.422,0 0.761,-0.0899 1.019,-0.2695 0.258,-0.1758 0.407,-0.4922 0.442,-0.9454 l 0.437,-7.4804 c 2.133,2.914 4.637,5.2304 7.5,6.9453 2.871,1.7148 6.082,2.5742 9.641,2.5742 5.961,0 10.59,-2.0586 13.89,-6.168 3.305,-4.1132 4.954,-10.2812 4.954,-18.5039" /><path
         id="path60"
         style="fill:#575b59;fill-opacity:1;fill-rule:nonzero;stroke:none"
         d="m 875.746,40.4102 c -4.598,-0.1289 -8.555,-0.4766 -11.879,-1.043 -3.32,-0.5703 -6.054,-1.3399 -8.203,-2.3086 -2.152,-0.9688 -3.738,-2.125 -4.758,-3.4727 -1.019,-1.3437 -1.535,-2.875 -1.535,-4.5898 0,-1.6172 0.27,-3.0234 0.805,-4.2031 0.535,-1.1797 1.238,-2.1524 2.109,-2.9102 0.879,-0.7617 1.899,-1.3203 3.063,-1.6797 1.164,-0.3515 2.375,-0.5312 3.644,-0.5312 1.879,0 3.598,0.1992 5.172,0.6054 1.566,0.4063 3.027,0.9727 4.367,1.7032 1.348,0.7265 2.598,1.5937 3.766,2.5976 1.168,1.0039 2.316,2.086 3.449,3.2539 l 0,12.5782 z m 10.926,-21.3789 0,-1.9336 -8.254,0 c -0.973,0 -1.574,0.4531 -1.801,1.3593 l -0.676,6.168 c -1.336,-1.2969 -2.648,-2.4609 -3.961,-3.4922 -1.308,-1.039 -2.675,-1.914 -4.101,-2.625 -1.426,-0.7148 -2.965,-1.2578 -4.617,-1.625 -1.653,-0.375 -3.461,-0.5625 -5.438,-0.5625 -1.656,0 -3.254,0.2461 -4.808,0.7266 -1.555,0.4883 -2.938,1.2344 -4.129,2.2344 -1.199,1.0039 -2.16,2.289 -2.891,3.8632 -0.726,1.5703 -1.09,3.4571 -1.09,5.6563 0,2.043 0.582,3.9336 1.75,5.6875 1.16,1.7461 2.985,3.2695 5.461,4.5664 2.477,1.293 5.668,2.3281 9.571,3.1055 3.898,0.7773 8.585,1.2304 14.058,1.3593 l 0,5.0508 c 0,4.4688 -0.965,7.9102 -2.887,10.3203 -1.929,2.4141 -4.785,3.6172 -8.578,3.6172 -2.328,0 -4.312,-0.3203 -5.945,-0.9687 -1.641,-0.6524 -3.027,-1.3633 -4.152,-2.1368 -1.129,-0.7734 -2.059,-1.4882 -2.77,-2.1367 -0.715,-0.6484 -1.316,-0.9726 -1.797,-0.9726 -0.644,0 -1.137,0.2929 -1.461,0.875 l -0.824,1.4062 c 2.527,2.5274 5.18,4.4375 7.965,5.7344 2.785,1.293 5.941,1.9414 9.473,1.9414 2.585,0 4.859,-0.4141 6.8,-1.2383 1.942,-0.8242 3.551,-2.0039 4.828,-3.5429 1.286,-1.5391 2.247,-3.4024 2.899,-5.5899 0.644,-2.1875 0.965,-4.6211 0.965,-7.3086 l 0,-27.6797 c 0.773,-0.0273 1.511,-0.0547 2.199,-0.0742 0.695,-0.0195 1.219,-0.0391 1.562,-0.0469 0.348,-0.0078 0.594,-0.0195 0.723,-0.0273 1.281,-0.0586 1.926,-0.6289 1.926,-1.7109" /><path
         id="path62"
         style="fill:#575b59;fill-opacity:1;fill-rule:nonzero;stroke:none"
         d="m 916.656,19.0313 0,-1.9297 -18.644,0 0,1.9297 c 0,1.082 0.644,1.6523 1.926,1.7148 0.167,0.0078 0.375,0.0156 0.628,0.0273 0.25,0.0079 0.774,0.0274 1.579,0.0586 0.804,0.0313 1.765,0.0703 2.882,0.1133 l 0,62.9766 c -0.875,0.0351 -1.672,0.0664 -2.367,0.0937 -0.703,0.0274 -1.191,0.0469 -1.476,0.0547 -0.278,0.0078 -0.524,0.0195 -0.731,0.0274 -0.203,0.0078 -0.379,0.0156 -0.515,0.0234 -1.282,0.0625 -1.926,0.6367 -1.926,1.7109 l 0,1.9375 11.629,0 0,-66.8242 c 0.882,-0.0351 1.675,-0.0664 2.371,-0.0937 0.699,-0.0274 1.187,-0.043 1.472,-0.0547 0.282,-0.0117 0.528,-0.0196 0.735,-0.0274 0.207,-0.0078 0.375,-0.0156 0.515,-0.0234 1.282,-0.0625 1.922,-0.6328 1.922,-1.7148" /><path
         id="path64"
         style="fill:#575b59;fill-opacity:1;fill-rule:nonzero;stroke:none"
         d="m 967.535,61.5859 c -1.98,-0.7773 -3.683,-1.8906 -5.129,-3.3476 -1.437,-1.461 -2.605,-3.207 -3.496,-5.25 -0.89,-2.0352 -1.48,-4.3203 -1.773,-6.8477 l 31.867,0 c 0,2.5938 -0.363,4.9141 -1.07,6.9727 -0.715,2.0586 -1.715,3.793 -3.012,5.2187 -1.297,1.4258 -2.852,2.5196 -4.664,3.2813 -1.813,0.7617 -3.824,1.1406 -6.024,1.1406 -2.496,0 -4.726,-0.3906 -6.699,-1.168 z m 14.207,3.2071 c 2.317,-0.9375 4.321,-2.3047 6.016,-4.1016 1.703,-1.8008 3.031,-4.0078 3.984,-6.6289 0.957,-2.625 1.434,-5.6367 1.434,-9.0391 0,-0.7109 -0.102,-1.1992 -0.317,-1.457 -0.207,-0.2578 -0.543,-0.3867 -0.992,-0.3867 l -34.922,0 0,-0.9258 c 0,-3.6211 0.418,-6.8125 1.262,-9.5664 0.84,-2.7539 2.039,-5.0586 3.594,-6.918 1.554,-1.8672 3.429,-3.2656 5.637,-4.2031 2.199,-0.9375 4.664,-1.4101 7.378,-1.4101 2.43,0 4.532,0.2695 6.313,0.8007 1.785,0.5352 3.281,1.1368 4.496,1.8008 1.211,0.6641 2.18,1.2578 2.887,1.793 0.718,0.5351 1.234,0.8047 1.554,0.8047 0.422,0 0.75,-0.1641 0.977,-0.4883 l 1.262,-1.5547 c -0.782,-0.9687 -1.805,-1.875 -3.09,-2.7187 -1.277,-0.8438 -2.699,-1.5625 -4.27,-2.1602 -1.57,-0.6016 -3.254,-1.0781 -5.054,-1.4336 -1.793,-0.3594 -3.598,-0.5352 -5.411,-0.5352 -3.308,0 -6.316,0.5743 -9.035,1.7266 -2.722,1.1484 -5.05,2.8242 -7,5.0274 -1.937,2.1992 -3.437,4.8945 -4.488,8.0859 -1.051,3.1875 -1.578,6.8398 -1.578,10.9492 0,3.4688 0.488,6.6641 1.48,9.5938 0.989,2.9336 2.414,5.457 4.274,7.5781 1.863,2.1211 4.144,3.7812 6.847,4.9805 2.708,1.1953 5.774,1.7929 9.204,1.7929 2.722,0 5.242,-0.4687 7.558,-1.4062" /><path
         id="path66"
         style="fill:#575b59;fill-opacity:1;fill-rule:nonzero;stroke:none"
         d="m 1046.27,19.0273 0,-1.9335 -14.36,0 0,1.9335 c 0,1.0782 0.65,1.6485 1.93,1.7149 0.12,0.0039 1,0.0391 2.64,0.1055 l -12.93,18.8359 c -0.16,-0.6484 -0.4,-1.1992 -0.73,-1.6523 l -12.2,-17.1758 c 1.81,-0.0703 2.77,-0.1094 2.88,-0.1133 1.29,-0.0625 1.93,-0.6367 1.93,-1.7149 l 0,-1.9335 -14.36,0 0,1.9335 c 0,1.0782 0.65,1.6524 1.93,1.7149 0.05,0 0.93,0.0351 2.65,0.1016 l 14.84,20.9765 -14.13,19.8399 c -1.92,0.0742 -2.9,0.1132 -2.95,0.1132 -1.28,0.0664 -1.93,0.6368 -1.93,1.7149 l 0,1.9336 2.21,0 4.42,0.0039 0.04,-0.0039 7.69,0 0,-1.9336 c 0,-1.0781 -0.64,-1.6485 -1.92,-1.7149 -0.16,-0.0039 -0.94,-0.039 -2.34,-0.0937 l 12.26,-17.7227 c 0.13,0.5508 0.41,1.1328 0.83,1.75 l 11.32,15.9649 c -1.58,0.0586 -2.43,0.0976 -2.56,0.1015 -1.29,0.0664 -1.93,0.6368 -1.93,1.711 l 0,1.9375 7.85,0 4.31,0.0039 2.2,-0.0039 0,-1.9375 c 0,-1.0742 -0.65,-1.6446 -1.93,-1.711 -0.01,-0.0039 -1.01,-0.0429 -3,-0.1171 l -14.17,-19.5938 14.94,-21.2187 c 1.71,-0.0665 2.59,-0.1016 2.65,-0.1016 1.28,-0.0664 1.92,-0.6367 1.92,-1.7149" /><path
         id="path68"
         style="fill:#575b59;fill-opacity:1;fill-rule:nonzero;stroke:none"
         d="m 1098.35,41.5781 c 0,7.1875 -1.32,12.4727 -3.96,15.8555 -2.64,3.3867 -6.45,5.0742 -11.43,5.0742 -3.21,0 -6.12,-0.832 -8.72,-2.4961 -2.61,-1.6719 -4.92,-3.9922 -6.92,-6.9726 l 0,-25.3516 c 1.84,-2.7891 3.89,-4.7461 6.14,-5.8789 2.25,-1.1328 4.81,-1.6992 7.7,-1.6992 2.85,0 5.34,0.5195 7.48,1.5547 2.13,1.0351 3.93,2.5 5.36,4.3945 1.45,1.8945 2.53,4.1641 3.26,6.8008 0.73,2.6367 1.09,5.5429 1.09,8.7187 z m 4.76,0 c 0,-3.5312 -0.46,-6.8242 -1.39,-9.8828 -0.91,-3.0625 -2.27,-5.7148 -4.05,-7.9687 -1.78,-2.25 -3.98,-4.0235 -6.58,-5.3164 -2.61,-1.2969 -5.61,-1.9414 -9.01,-1.9414 -3.3,0 -6.15,0.5937 -8.55,1.7968 -2.4,1.1953 -4.47,2.9727 -6.21,5.3399 l 0,-19.75784 c 0.87,-0.03516 1.66,-0.06641 2.36,-0.09375 0.69,-0.02735 1.18,-0.04688 1.47,-0.05469 0.28,-0.01172 0.52,-0.01953 0.73,-0.02734 0.2,-0.00782 0.38,-0.01563 0.51,-0.02344 1.29,-0.0625 1.93,-0.63281 1.93,-1.71485 l 0,-1.93359 -18.64,0 0,1.93359 c 0,1.08204 0.65,1.65235 1.93,1.71485 0.17,0.00781 0.38,0.01953 0.63,0.02734 0.25,0.00781 0.78,0.02735 1.58,0.0586 0.8,0.03125 1.76,0.0664 2.88,0.11328 l 0,57.72654 c -0.88,0.0391 -1.66,0.0664 -2.37,0.0938 -0.69,0.0273 -1.19,0.0468 -1.47,0.0586 -0.28,0.0078 -0.53,0.0195 -0.73,0.0234 -0.21,0.0117 -0.38,0.0195 -0.52,0.0234 -1.28,0.0664 -1.93,0.6368 -1.93,1.7149 l 0,1.9336 7.02,0 2.53,0.0039 c 0.42,0 0.76,-0.0899 1.02,-0.2695 0.25,-0.1758 0.4,-0.4922 0.43,-0.9454 l 0.44,-7.4804 c 2.14,2.914 4.64,5.2304 7.5,6.9453 2.87,1.7148 6.09,2.5742 9.65,2.5742 5.95,0 10.58,-2.0586 13.89,-6.168 3.3,-4.1132 4.95,-10.2812 4.95,-18.5039" /><path
         id="path70"
         style="fill:#575b59;fill-opacity:1;fill-rule:nonzero;stroke:none"
         d="m 1128.17,61.5859 c -1.98,-0.7773 -3.68,-1.8906 -5.13,-3.3476 -1.43,-1.461 -2.6,-3.207 -3.49,-5.25 -0.89,-2.0352 -1.48,-4.3203 -1.77,-6.8477 l 31.86,0 c 0,2.5938 -0.36,4.9141 -1.07,6.9727 -0.72,2.0586 -1.71,3.793 -3.01,5.2187 -1.3,1.4258 -2.85,2.5196 -4.66,3.2813 -1.82,0.7617 -3.83,1.1406 -6.03,1.1406 -2.49,0 -4.72,-0.3906 -6.7,-1.168 z m 14.21,3.2071 c 2.31,-0.9375 4.32,-2.3047 6.02,-4.1016 1.7,-1.8008 3.03,-4.0078 3.98,-6.6289 0.96,-2.625 1.43,-5.6367 1.43,-9.0391 0,-0.7109 -0.1,-1.1992 -0.31,-1.457 -0.21,-0.2578 -0.54,-0.3867 -1,-0.3867 l -34.92,0 0,-0.9258 c 0,-3.6211 0.42,-6.8125 1.27,-9.5664 0.83,-2.7539 2.03,-5.0586 3.59,-6.918 1.55,-1.8672 3.43,-3.2656 5.63,-4.2031 2.2,-0.9375 4.67,-1.4101 7.38,-1.4101 2.43,0 4.54,0.2695 6.32,0.8007 1.78,0.5352 3.28,1.1368 4.49,1.8008 1.21,0.6641 2.18,1.2578 2.89,1.793 0.72,0.5351 1.23,0.8047 1.56,0.8047 0.41,0 0.74,-0.1641 0.97,-0.4883 l 1.26,-1.5547 c -0.78,-0.9687 -1.8,-1.875 -3.09,-2.7187 -1.27,-0.8438 -2.7,-1.5625 -4.27,-2.1602 -1.57,-0.6016 -3.25,-1.0781 -5.05,-1.4336 -1.79,-0.3594 -3.6,-0.5352 -5.41,-0.5352 -3.31,0 -6.32,0.5743 -9.04,1.7266 -2.72,1.1484 -5.05,2.8242 -6.99,5.0274 -1.95,2.1992 -3.44,4.8945 -4.49,8.0859 -1.06,3.1875 -1.58,6.8398 -1.58,10.9492 0,3.4688 0.49,6.6641 1.48,9.5938 0.99,2.9336 2.41,5.457 4.27,7.5781 1.86,2.1211 4.15,3.7812 6.85,4.9805 2.71,1.1953 5.77,1.7929 9.2,1.7929 2.72,0 5.25,-0.4687 7.56,-1.4062" /><path
         id="path72"
         style="fill:#575b59;fill-opacity:1;fill-rule:nonzero;stroke:none"
         d="m 1199.71,64.4531 -0.63,-3.207 c -0.1,-0.5156 -0.42,-0.7734 -0.97,-0.7734 -0.2,0 -0.47,0.0625 -0.83,0.1914 -0.35,0.1289 -0.8,0.2734 -1.33,0.4375 -0.54,0.1601 -1.2,0.3086 -1.97,0.4375 -0.78,0.1289 -1.67,0.1914 -2.67,0.1914 -3.66,0 -6.67,-1.1289 -9.01,-3.3985 -2.35,-2.2656 -4.25,-5.5351 -5.71,-9.8125 l 0,-27.5742 c 3.99,-0.164 4.48,-0.168 5.09,-0.2031 1.2,-0.0547 1.92,-0.4727 1.92,-1.7109 l 0,-1.9336 -18.64,0 0,1.9336 c 0,1.2382 0.72,1.6562 1.93,1.7109 0.6,0.0351 1.09,0.0391 5.08,0.2031 l 0,40.6328 c -3.99,0.1563 -4.48,0.168 -5.08,0.1953 -1.21,0.0586 -1.93,0.4727 -1.93,1.7149 l 0,1.9336 7.01,0 0,0.0039 2.44,0 c 0.54,0 0.94,-0.1133 1.18,-0.3438 0.25,-0.2265 0.38,-0.6132 0.42,-1.164 l 0.39,-10.1992 c 1.55,3.9179 3.62,6.9843 6.21,9.2031 2.59,2.2187 5.79,3.3281 9.57,3.3281 1.46,0 2.8,-0.1562 4.03,-0.4609 1.23,-0.3086 2.4,-0.7539 3.5,-1.336" /><path
         id="path74"
         style="fill:#575b59;fill-opacity:1;fill-rule:nonzero;stroke:none"
         d="m 1219.21,19.043 c -1.83,1.8086 -2.75,4.6093 -2.75,8.3984 l 0,33.0313 -6.94,0 c -0.36,0 -0.65,0.0937 -0.87,0.289 -0.23,0.1914 -0.35,0.4688 -0.35,0.8242 l 0,1.8008 8.26,0.5821 1.17,17.2929 c 0.03,0.2891 0.15,0.5469 0.36,0.7774 0.21,0.2226 0.49,0.3359 0.85,0.3359 l 2.18,0 0,-18.457 15.21,0 0,-3.4453 -15.21,0 0,-32.7852 c 0,-1.3281 0.18,-2.4727 0.51,-3.4258 0.35,-0.957 0.82,-1.7422 1.42,-2.3554 0.6,-0.6172 1.3,-1.0704 2.11,-1.3633 0.81,-0.2891 1.68,-0.4336 2.62,-0.4336 1.17,0 2.17,0.1679 3.01,0.5078 0.85,0.3398 1.58,0.7148 2.19,1.1172 0.61,0.4062 1.12,0.7773 1.5,1.1172 0.39,0.3398 0.7,0.5117 0.93,0.5117 0.26,0 0.52,-0.1641 0.77,-0.4883 l 1.27,-2.0391 c -1.23,-1.3593 -2.79,-2.4531 -4.69,-3.2773 -1.9,-0.8281 -3.86,-1.2383 -5.9,-1.2383 -3.27,0 -5.82,0.9063 -7.65,2.7227" /><path
         id="path76"
         style="fill:#575b59;fill-opacity:1;fill-rule:nonzero;stroke:none"
         d="m 1281.24,31.2305 c 0,-2.1016 -0.38,-4.0586 -1.14,-5.875 -0.76,-1.8164 -1.87,-3.3867 -3.31,-4.711 -1.44,-1.3281 -3.21,-2.3789 -5.32,-3.1562 -2.1,-0.7774 -4.5,-1.168 -7.19,-1.168 -4.83,0 -9.6,0.8945 -14.28,2.6719 l 0,11.8008 2.36,0 c 1.32,0 2.01,-0.7891 2.09,-2.3555 0.01,-0.1367 0.04,-0.5195 0.11,-1.1328 0.06,-0.6211 0.14,-1.4766 0.23,-2.5586 0.1,-1.0859 0.17,-2.2383 0.25,-3.4531 2.61,-1.0508 5.76,-1.5742 9.44,-1.5742 2.04,0 3.83,0.2851 5.39,0.8515 1.55,0.5664 2.85,1.336 3.89,2.3086 1.03,0.9688 1.82,2.1133 2.35,3.4219 0.54,1.3125 0.8,2.6992 0.8,4.1523 0,1.6172 -0.39,2.9649 -1.16,4.0352 -0.78,1.0625 -1.8,1.9687 -3.06,2.7148 -1.27,0.7461 -2.7,1.3789 -4.3,1.8985 -1.6,0.5156 -3.26,1.0351 -4.95,1.5507 -1.71,0.5235 -3.36,1.086 -4.96,1.7032 -1.6,0.6133 -3.04,1.3906 -4.3,2.332 -1.26,0.9336 -2.28,2.0742 -3.06,3.4219 -0.77,1.3437 -1.16,3.0195 -1.16,5.0273 0,1.7188 0.37,3.3672 1.12,4.9531 0.74,1.5899 1.8,2.9805 3.17,4.1758 1.38,1.2032 3.06,2.1563 5.04,2.8672 1.97,0.7149 4.19,1.0664 6.64,1.0664 3.47,0 7.75,-0.8554 12.83,-2.5703 l 0,-11.5508 -2.36,0 c -1.32,0 -2.02,0.7813 -2.09,2.3516 -0.01,0.1406 -0.04,0.5117 -0.11,1.1133 -0.06,0.6054 -0.14,1.4336 -0.23,2.4883 -0.09,1.0585 -0.17,2.1835 -0.24,3.3632 -2.59,0.8399 -5.16,1.2618 -7.7,1.2618 -1.75,0 -3.34,-0.25 -4.78,-0.75 -1.44,-0.504 -2.67,-1.1758 -3.69,-2.0118 -1.02,-0.8398 -1.82,-1.8164 -2.38,-2.9297 -0.57,-1.1132 -0.85,-2.2851 -0.85,-3.5156 0,-1.5117 0.39,-2.7734 1.16,-3.7734 0.78,-1.0039 1.8,-1.8594 3.07,-2.5664 1.25,-0.7149 2.69,-1.3281 4.29,-1.8438 1.63,-0.5234 3.27,-1.039 4.94,-1.5508 1.68,-0.5195 3.32,-1.0937 4.92,-1.7226 1.6,-0.6328 3.04,-1.418 4.3,-2.3594 1.26,-0.9375 2.28,-2.0859 3.06,-3.4453 0.78,-1.3633 1.17,-3.0117 1.17,-4.957" /></g></g></svg>