<?xml version="1.0" encoding="utf-8"?>
<!-- Generator: Adobe Illustrator 16.0.0, SVG Export Plug-In . SVG Version: 6.00 Build 0)  -->
<!DOCTYPE svg PUBLIC "-//W3C//DTD SVG 1.1//EN" "http://www.w3.org/Graphics/SVG/1.1/DTD/svg11.dtd">
<svg version="1.1" id="Layer_1" xmlns="http://www.w3.org/2000/svg" xmlns:xlink="http://www.w3.org/1999/xlink" x="0px" y="0px"
	 width="133.183px" height="28.704px" viewBox="0 0 133.183 28.704" enable-background="new 0 0 133.183 28.704"
	 xml:space="preserve">
<g>
	<path fill="#808285" d="M75.104,0.056c-4.389,0-7.958,3.571-7.958,7.959v7.894h2.958V8.015c0-2.757,2.244-5.001,5.001-5.001
		c2.758,0,5.001,2.244,5.001,5.001v7.894h2.957V8.015C83.062,3.627,79.492,0.056,75.104,0.056z"/>
	<path fill="#808285" d="M36.637,7.796c0.166,4.402,3.798,7.932,8.241,7.932V12.77c-2.894,0-5.25-2.332-5.292-5.214h5.292V4.597
		h-5.301C39.57,2.471,39.56,0.038,39.56,0l-2.958,0.012c0.001,0.039,0.01,2.567,0.018,4.72"/>
	<path fill="#808285" d="M48.458,8.282c0,1.332-0.024,7.56-0.024,7.622l2.957,0.011c0-0.062,0.025-6.296,0.025-7.633
		c0-2.918,2.375-5.292,5.292-5.292V0.031C52.158,0.031,48.458,3.733,48.458,8.282z"/>
	<rect x="60.314" y="0.021" fill="#808285" width="3.093" height="3.094"/>
	<rect x="60.382" y="4.66" fill="#808285" width="2.958" height="11.277"/>
	<path fill="#808285" d="M93.331,0.089c-4.344,0-7.876,3.532-7.876,7.875c0,4.343,3.532,7.876,7.876,7.876
		c4.341,0,7.873-3.533,7.873-7.876C101.204,3.622,97.672,0.089,93.331,0.089z M93.331,12.882c-2.712,0-4.918-2.206-4.918-4.918
		c0-2.71,2.206-4.917,4.918-4.917c2.71,0,4.916,2.207,4.916,4.917C98.247,10.676,96.041,12.882,93.331,12.882z"/>
	<path fill="#808285" d="M125.308,0.089c-4.344,0-7.876,3.532-7.876,7.875c0,4.343,3.532,7.876,7.876,7.876
		c4.342,0,7.875-3.533,7.875-7.876C133.183,3.622,129.649,0.089,125.308,0.089z M125.308,12.882c-2.712,0-4.918-2.206-4.918-4.918
		c0-2.71,2.206-4.917,4.918-4.917c2.711,0,4.918,2.207,4.918,4.917C130.226,10.676,128.019,12.882,125.308,12.882z"/>
	<path fill="#808285" d="M111.055,3.046c1.114,0,2.167,0.364,3.041,1.054l1.831-2.322c-1.4-1.104-3.086-1.688-4.872-1.688
		c-4.344,0-7.876,3.532-7.876,7.875c0,4.343,3.532,7.876,7.876,7.876c1.752,0,3.411-0.564,4.798-1.63l-1.804-2.346
		c-0.865,0.666-1.899,1.018-2.994,1.018c-2.712,0-4.918-2.206-4.918-4.918C106.137,5.253,108.343,3.046,111.055,3.046z"/>
</g>
<circle fill="#9CCB3B" cx="14.352" cy="14.353" r="14.352"/>
<path fill="#8AB434" d="M24.9,4.623c0.057,0.514-3.342,1.845-5.47,4.05c-3.131,3.246-5.279,7.41-11.718,9.857
	c-3.112,1.183-5.058,0.449-7.038,0.173c1.844,5.8,7.268,10,13.679,10c7.925,0,14.351-6.426,14.351-14.351
	C28.704,10.598,27.26,7.18,24.9,4.623z"/>
<path fill="#FFFFFF" d="M23.948,17.978c0,0-2.182-4.069-6.012-5.905c-3.124-1.498-4.435-0.755-5.165-2.342
	c-0.729-1.587-1.576-4.477-3.783-4.588C8.151,5.103,7.612,5.512,7.262,6.024c0.001,0,0.003,0,0.004,0
	c0.363,0,0.659,0.294,0.659,0.658c0,0.364-0.296,0.659-0.659,0.659c-0.195,0-0.367-0.086-0.488-0.219
	C6.666,7.537,6.641,7.856,6.641,7.856s-3.08,1.385-3.548,2.093c-0.467,0.706-0.341,0.657,0.108,0.301
	c0.45-0.357,1.202-1.33,3.499-1.55c0,0,0.005-0.173,1.029,0.626C8.75,10.125,7.102,15.64,8.885,18
	c0.915,1.209,2.762,1.785,4.614,1.975c-0.042,0.211-0.05,0.372,0.01,0.415c0.215,0.15,0.869,0.385,0.869,0.385
	s-0.23,0.432-0.378,0.609c-0.15,0.177-0.578,0.254-0.931,0.366c0,0-0.353,0.298-0.791,0.13c-0.304-0.115-0.437,0.053-0.47,0.208
	c-0.133,0.021-0.289,0.101-0.241,0.365c0,0,0.149-0.077,0.295-0.132c0.09,0.127,0.253,0.303,0.326,0.214
	c0.085-0.105,0.499-0.178,0.499-0.178s-0.47,0.376-0.718,0.373c-0.247-0.004-0.363,0.171-0.4,0.386
	c-0.007,0.042,0.009,0.086,0.039,0.13c-0.041,0.055-0.062,0.137-0.041,0.256c0,0,0.103-0.053,0.223-0.103
	c0.159,0.091,0.36,0.136,0.452,0.06c0.169-0.142,0.906-0.687,0.906-0.687s-0.213,0.27-0.264,0.342
	c-0.018,0.024-0.008,0.099,0.026,0.175c-0.023,0.054-0.031,0.122-0.014,0.212c0,0,0.049-0.025,0.121-0.059
	c0.073,0.068,0.17,0.104,0.29,0.051c0.304-0.136,0.443-0.494,0.715-0.732c0.275-0.239,0.637-0.284,0.776-0.23
	c0.14,0.053,0.292-0.022,0.343-0.096c0,0,0.208-0.08,0.243,0.04c0,0-0.099-0.237-0.171-0.287c0,0-0.133-0.189-0.253-0.234
	s-0.172,0.068-0.379,0.011c-0.208-0.056-0.245-0.168-0.117-0.405c0.127-0.236,0.434-0.437,0.434-0.437s0.175-0.072,0.226-0.177
	c0.051-0.103,0.131-0.333,0.131-0.333s-0.444-0.174-0.515-0.414c-0.012-0.042-0.009-0.093,0.002-0.151
	c0.389,0.006,0.769-0.003,1.13-0.025c0.221,0.394,0.478,0.814,0.61,0.908c0.262,0.183,1.064,0.472,1.064,0.472
	s-0.314,0.682-0.471,0.917c-0.158,0.236-0.67,0.387-1.084,0.572c0,0-0.389,0.414-0.947,0.267c-0.462-0.12-0.573,0.226-0.54,0.425
	c-0.103,0.051-0.182,0.153-0.124,0.357c0,0,0.124-0.081,0.254-0.147c0.128,0.134,0.317,0.28,0.388,0.173
	c0.089-0.139,0.584-0.283,0.584-0.283s-0.522,0.523-0.824,0.552c-0.303,0.03-0.421,0.257-0.437,0.523
	c-0.001,0.015,0.002,0.028,0.004,0.041c-0.104,0.08-0.189,0.216-0.042,0.421c0,0,0.09-0.12,0.192-0.229
	c0.211,0.15,0.582,0.229,0.71,0.096c0.187-0.195,1.011-0.958,1.011-0.958S16,24.488,15.947,24.583
	c-0.02,0.038,0.011,0.146,0.08,0.245c-0.076,0.119-0.141,0.315,0.122,0.45c0,0,0.024-0.137,0.063-0.277
	c0.088,0.044,0.19,0.052,0.303-0.013c0.352-0.206,0.471-0.664,0.773-0.992c0.303-0.327,0.737-0.431,0.915-0.384
	c0.177,0.046,0.374-0.034,0.426-0.128c0,0,0.109-0.108,0.152,0.04c0,0-0.002-0.299-0.098-0.351c0,0-0.188-0.053-0.34-0.095
	c-0.153-0.04-0.221-0.084-0.482-0.125c-0.261-0.041-0.261-0.606-0.104-0.895c0.158-0.288,0.315-0.498,0.315-0.498
	s0.209-0.104,0.262-0.237c0.052-0.13,0.131-0.419,0.131-0.419s-0.332-0.205-0.42-0.498c-0.09-0.301-0.14-0.389-0.319-0.646
	c0.104-0.025,0.201-0.052,0.291-0.081c1.994-0.63,3.256-1.65,4.619-1.125C24,19.08,24.743,19.396,23.948,17.978z M9.168,7.999
	c-0.48,0-0.869-0.389-0.869-0.868s0.389-0.869,0.869-0.869c0.479,0,0.867,0.39,0.867,0.869S9.647,7.999,9.168,7.999z"/>
<g>
	<path fill="#808285" d="M39.005,27.013c0.037,0.126,0.076,0.254,0.118,0.382c0.041,0.129,0.08,0.255,0.117,0.382
		c0.064-0.201,0.127-0.402,0.188-0.6c0.064-0.197,0.13-0.397,0.199-0.596c0.101-0.295,0.202-0.59,0.302-0.882
		c0.102-0.292,0.204-0.585,0.311-0.879c0.176-0.508,0.353-1.015,0.529-1.516c0.176-0.503,0.353-1.007,0.529-1.516l0.688,0.001
		l1.814,5.143l0.282,0.847c0.051-0.194,0.105-0.385,0.161-0.573c0.056-0.189,0.113-0.378,0.17-0.565l1.538-4.851l0.631,0.001
		l-2.115,6.647l-0.772,0l-1.851-5.341c-0.026-0.069-0.05-0.135-0.072-0.198c-0.022-0.063-0.042-0.129-0.061-0.198
		c-0.013-0.044-0.023-0.088-0.033-0.132c-0.009-0.044-0.02-0.087-0.033-0.131c-0.038,0.112-0.075,0.228-0.113,0.344
		c-0.038,0.116-0.076,0.23-0.113,0.344l-1.832,5.31l-0.753-0.001l-2.197-6.65l0.667,0L39.005,27.013z"/>
	<path fill="#808285" d="M55.697,21.808l-0.001,0.547l-5.717-0.005l-0.001,2.336l5.284,0.003v0.556l-5.285-0.004l-0.002,2.646
		l5.991,0.004v0.556l-6.64-0.005l0.004-6.64L55.697,21.808z"/>
	<path fill="#808285" d="M64.704,21.806c0.301,0.019,0.571,0.08,0.812,0.184c0.242,0.105,0.454,0.278,0.636,0.524
		c0.049,0.074,0.113,0.193,0.193,0.357c0.077,0.164,0.117,0.365,0.117,0.603c0,0.051-0.003,0.115-0.01,0.193
		c-0.005,0.079-0.024,0.171-0.056,0.277c-0.069,0.221-0.161,0.392-0.273,0.514s-0.207,0.208-0.283,0.259
		c-0.112,0.076-0.218,0.127-0.314,0.155c-0.098,0.028-0.172,0.048-0.221,0.061c0.082,0.012,0.161,0.025,0.24,0.038
		c0.077,0.013,0.157,0.034,0.239,0.066c0.17,0.063,0.317,0.149,0.443,0.26c0.125,0.11,0.229,0.235,0.314,0.376
		s0.148,0.295,0.193,0.462c0.043,0.166,0.065,0.337,0.065,0.513c0,0.057-0.004,0.143-0.013,0.259
		c-0.011,0.116-0.038,0.243-0.081,0.377c-0.045,0.135-0.112,0.275-0.203,0.419c-0.091,0.145-0.215,0.272-0.373,0.387
		c-0.218,0.163-0.451,0.263-0.696,0.3c-0.245,0.037-0.499,0.059-0.762,0.065l-5.174-0.004l0.006-6.649L64.704,21.806z
		 M60.147,27.896l4.53,0.003c0.049,0,0.097-0.001,0.141-0.004c0.044-0.004,0.09-0.004,0.142-0.004
		c0.044-0.006,0.106-0.016,0.188-0.029c0.082-0.012,0.172-0.039,0.274-0.08c0.1-0.041,0.199-0.098,0.296-0.173
		c0.097-0.076,0.183-0.179,0.259-0.311c0.075-0.138,0.123-0.267,0.142-0.386c0.019-0.12,0.029-0.208,0.029-0.264
		c0-0.057-0.013-0.168-0.038-0.335c-0.025-0.167-0.097-0.328-0.217-0.484c-0.1-0.138-0.219-0.245-0.357-0.321
		c-0.14-0.075-0.286-0.13-0.443-0.165c-0.157-0.035-0.317-0.057-0.48-0.067c-0.163-0.009-0.317-0.014-0.461-0.014l-4.003-0.002
		L60.147,27.896z M60.149,24.703l4.06,0.002c0.119,0,0.24-0.004,0.362-0.014c0.121-0.009,0.24-0.029,0.353-0.06
		c0.113-0.032,0.22-0.075,0.32-0.132c0.101-0.055,0.194-0.136,0.282-0.243c0.051-0.056,0.105-0.143,0.166-0.262
		c0.06-0.119,0.089-0.275,0.089-0.469c0-0.057-0.008-0.145-0.023-0.268c-0.017-0.122-0.067-0.252-0.155-0.389
		c-0.076-0.119-0.161-0.212-0.259-0.277c-0.097-0.065-0.203-0.116-0.315-0.15c-0.112-0.035-0.231-0.056-0.352-0.066
		c-0.123-0.009-0.248-0.014-0.374-0.014l-4.154-0.003L60.149,24.703z"/>
	<path fill="#808285" d="M81.348,24.944c-0.011,0.062-0.031,0.165-0.055,0.306c-0.026,0.14-0.063,0.304-0.114,0.489
		c-0.05,0.185-0.116,0.381-0.198,0.588c-0.082,0.208-0.186,0.404-0.311,0.593c-0.063,0.1-0.136,0.2-0.218,0.301
		c0.176,0.132,0.326,0.239,0.452,0.32c0.127,0.082,0.24,0.146,0.344,0.194c0.104,0.047,0.205,0.081,0.302,0.103
		c0.097,0.022,0.208,0.043,0.335,0.062l-0.003,0.565c-0.018,0-0.073-0.003-0.162-0.009c-0.093-0.007-0.18-0.017-0.261-0.029
		c-0.281-0.056-0.537-0.158-0.768-0.306c-0.229-0.148-0.452-0.304-0.672-0.467c-0.088,0.081-0.164,0.15-0.227,0.207
		s-0.145,0.12-0.245,0.188c-0.276,0.188-0.59,0.33-0.938,0.423c-0.347,0.095-0.689,0.141-1.021,0.141
		c-0.075,0-0.199-0.007-0.372-0.019c-0.173-0.014-0.36-0.05-0.565-0.109c-0.204-0.059-0.413-0.152-0.627-0.278
		c-0.212-0.126-0.401-0.301-0.563-0.528c-0.05-0.069-0.118-0.187-0.202-0.354c-0.086-0.167-0.127-0.371-0.126-0.616
		c0-0.076,0.01-0.188,0.031-0.335c0.022-0.147,0.088-0.303,0.194-0.466c0.101-0.157,0.223-0.295,0.368-0.415
		c0.146-0.119,0.297-0.222,0.461-0.31c0.163-0.088,0.333-0.166,0.509-0.236c0.176-0.069,0.345-0.131,0.509-0.188
		c-0.031-0.044-0.065-0.086-0.104-0.127c-0.037-0.042-0.072-0.083-0.102-0.127c-0.134-0.17-0.249-0.352-0.35-0.547
		c-0.101-0.194-0.151-0.405-0.149-0.63c0-0.214,0.037-0.391,0.112-0.533c0.075-0.141,0.139-0.243,0.188-0.306
		c0.177-0.22,0.384-0.368,0.623-0.447c0.238-0.078,0.493-0.117,0.763-0.117c0.057,0,0.132,0.003,0.227,0.01
		c0.095,0.007,0.204,0.032,0.329,0.076c0.302,0.095,0.539,0.264,0.716,0.509c0.175,0.245,0.264,0.524,0.264,0.838
		c0,0.195-0.028,0.355-0.081,0.48c-0.054,0.126-0.103,0.221-0.146,0.283c-0.163,0.238-0.361,0.418-0.594,0.542
		c-0.232,0.122-0.475,0.237-0.726,0.342c0.183,0.207,0.368,0.412,0.554,0.613c0.19,0.201,0.382,0.398,0.576,0.594
		c0.231,0.22,0.47,0.439,0.716,0.659c0.037-0.05,0.074-0.103,0.112-0.16c0.038-0.056,0.072-0.11,0.104-0.159
		c0.095-0.171,0.172-0.337,0.236-0.5c0.062-0.164,0.111-0.317,0.146-0.462c0.036-0.145,0.061-0.273,0.075-0.386
		c0.016-0.114,0.03-0.203,0.043-0.273L81.348,24.944z M77.441,25.271c-0.076,0.025-0.165,0.056-0.271,0.093
		c-0.102,0.038-0.211,0.081-0.324,0.127c-0.113,0.048-0.216,0.092-0.312,0.136c-0.045,0.02-0.106,0.054-0.188,0.104
		c-0.082,0.049-0.165,0.117-0.25,0.201c-0.085,0.085-0.158,0.189-0.222,0.312c-0.063,0.122-0.094,0.268-0.094,0.437
		c0,0.214,0.059,0.422,0.179,0.623c0.049,0.082,0.119,0.167,0.206,0.255c0.088,0.087,0.198,0.169,0.329,0.244
		c0.132,0.076,0.289,0.138,0.472,0.185c0.182,0.047,0.389,0.071,0.622,0.071c0.199,0,0.39-0.017,0.568-0.051
		c0.181-0.035,0.339-0.078,0.48-0.132c0.142-0.053,0.266-0.107,0.372-0.165c0.106-0.056,0.189-0.103,0.247-0.141
		c0.056-0.037,0.112-0.078,0.168-0.122c0.057-0.043,0.11-0.09,0.161-0.141c-0.083-0.075-0.163-0.151-0.246-0.226
		c-0.08-0.076-0.163-0.151-0.244-0.227c-0.182-0.176-0.362-0.354-0.542-0.533c-0.179-0.179-0.349-0.363-0.512-0.551
		c-0.082-0.087-0.162-0.177-0.24-0.268c-0.078-0.091-0.154-0.184-0.23-0.277C77.559,25.23,77.515,25.247,77.441,25.271z
		 M77.992,24.485c0.056-0.022,0.115-0.044,0.178-0.07c0.282-0.126,0.486-0.248,0.615-0.368c0.128-0.118,0.22-0.25,0.277-0.395
		c0.012-0.032,0.027-0.076,0.046-0.132c0.02-0.057,0.028-0.128,0.029-0.216c0-0.044-0.006-0.102-0.019-0.174
		c-0.014-0.073-0.045-0.153-0.094-0.241c-0.089-0.151-0.21-0.262-0.365-0.334c-0.157-0.072-0.322-0.109-0.497-0.109
		c-0.038,0-0.098,0.005-0.179,0.015c-0.082,0.009-0.169,0.03-0.263,0.061c-0.182,0.069-0.322,0.174-0.423,0.315
		c-0.099,0.141-0.148,0.306-0.148,0.494c-0.001,0.182,0.053,0.364,0.158,0.542c0.107,0.179,0.274,0.406,0.506,0.683
		C77.876,24.531,77.937,24.507,77.992,24.485z"/>
	<path fill="#808285" d="M93.591,27.214c0.024,0.049,0.05,0.1,0.069,0.15c0.023,0.05,0.047,0.101,0.072,0.151
		c0.03,0.069,0.057,0.136,0.079,0.203c0.022,0.065,0.048,0.133,0.08,0.202l2.802-6.091l0.828,0l-0.004,6.649h-0.595l0.004-5.916
		c-0.03,0.076-0.063,0.151-0.098,0.227c-0.035,0.075-0.068,0.147-0.1,0.216l-2.519,5.471l-0.659-0.001l-2.538-5.427
		c-0.014-0.037-0.028-0.074-0.047-0.108c-0.02-0.034-0.036-0.07-0.047-0.108c-0.019-0.049-0.038-0.098-0.051-0.142
		c-0.017-0.043-0.031-0.091-0.043-0.14l-0.006,5.923l-0.603-0.001l0.005-6.648h0.847L93.591,27.214z"/>
	<path fill="#808285" d="M107.768,21.846v0.547l-5.717-0.005l-0.001,2.336l5.284,0.004l-0.002,0.556l-5.283-0.003l-0.001,2.646
		l5.989,0.004l-0.001,0.556l-6.64-0.004l0.006-6.64L107.768,21.846z"/>
	<path fill="#808285" d="M114.907,21.841c0.1,0,0.197,0,0.292,0c0.101,0,0.2,0.007,0.302,0.019c0.331,0.025,0.641,0.088,0.927,0.189
		c0.285,0.1,0.561,0.261,0.823,0.48c0.271,0.22,0.481,0.463,0.633,0.729c0.148,0.269,0.261,0.527,0.337,0.778
		c0.074,0.251,0.12,0.481,0.135,0.688c0.016,0.207,0.024,0.361,0.024,0.461c0,0.082-0.007,0.218-0.02,0.41
		c-0.012,0.192-0.051,0.4-0.112,0.626c-0.114,0.42-0.303,0.802-0.567,1.144s-0.597,0.604-0.999,0.786
		c-0.337,0.157-0.683,0.251-1.03,0.282c-0.35,0.031-0.702,0.05-1.061,0.055l-3.014-0.002l0.006-6.649L114.907,21.841z
		 M112.227,27.933l2.121,0.001c0.225,0,0.454-0.004,0.687-0.014c0.232-0.009,0.462-0.036,0.688-0.08
		c0.225-0.043,0.441-0.111,0.648-0.202c0.208-0.091,0.399-0.218,0.576-0.381c0.087-0.081,0.177-0.184,0.269-0.306
		c0.092-0.122,0.172-0.266,0.246-0.429c0.07-0.163,0.13-0.351,0.174-0.565c0.044-0.212,0.064-0.457,0.064-0.733
		c0-0.283-0.028-0.559-0.088-0.83c-0.06-0.269-0.153-0.522-0.282-0.758c-0.126-0.235-0.291-0.444-0.493-0.626
		c-0.201-0.183-0.442-0.327-0.726-0.434c-0.219-0.082-0.421-0.132-0.603-0.151c-0.182-0.02-0.387-0.032-0.612-0.039l-2.665-0.002
		L112.227,27.933z"/>
	<path fill="#808285" d="M122.405,21.847l-0.007,6.649l-0.65-0.001l0.006-6.649L122.405,21.847z"/>
	<path fill="#808285" d="M132.382,28.503l-0.688-0.001l-0.855-1.725l-4.287-0.002l-0.848,1.723h-0.669l3.282-6.647h0.716
		L132.382,28.503z M126.809,26.248l3.766,0.003l-1.899-3.806L126.809,26.248z"/>
</g>
</svg>
