<?xml version="1.0" encoding="utf-8"?>
<!-- Generator: Adobe Illustrator 16.0.0, SVG Export Plug-In . SVG Version: 6.00 Build 0)  -->
<!DOCTYPE svg PUBLIC "-//W3C//DTD SVG 1.1//EN" "http://www.w3.org/Graphics/SVG/1.1/DTD/svg11.dtd">
<svg version="1.1"
	 id="svg2" xmlns:inkscape="http://www.inkscape.org/namespaces/inkscape" xmlns:sodipodi="http://sodipodi.sourceforge.net/DTD/sodipodi-0.dtd" xmlns:dc="http://purl.org/dc/elements/1.1/" xmlns:rdf="http://www.w3.org/1999/02/22-rdf-syntax-ns#" xmlns:cc="http://creativecommons.org/ns#" xmlns:svg="http://www.w3.org/2000/svg" inkscape:version="0.91 r13725" sodipodi:docname="Banner_op_wit_verzadigd.ai.svg"
	 xmlns="http://www.w3.org/2000/svg" xmlns:xlink="http://www.w3.org/1999/xlink" x="0px" y="0px" width="336.251px"
	 height="52.621px" viewBox="46.698 57.5 336.251 52.621" enable-background="new 46.698 57.5 336.251 52.621" xml:space="preserve"
	>
<sodipodi:namedview  bordercolor="#666666" inkscape:cx="146.35893" pagecolor="#ffffff" inkscape:zoom="1.2828937" inkscape:cy="107.41617" gridtolerance="10" objecttolerance="10" borderopacity="1" showgrid="false" guidetolerance="10" id="namedview4" inkscape:current-layer="g18" inkscape:window-maximized="0" inkscape:window-y="20" inkscape:window-x="2880" inkscape:pageshadow="2" inkscape:pageopacity="0" inkscape:window-height="1398" inkscape:window-width="1276">
	</sodipodi:namedview>
<g id="g12" transform="translate(89.5,69)">
	<path id="path14" inkscape:connector-curvature="0" fill="#030407" d="M22.375-5.25v26.494H15.69V-5.25H6.776v-5.694h24.512v5.694
		H22.375z"/>
</g>
<g id="g24" transform="translate(109.9009,69.5938)">
	<path id="path26" inkscape:connector-curvature="0" fill="#030407" d="M27.475-6.586c-1.115,0-1.98,0-2.847,0.125v9.282
		c0.929,0.062,2.041,0.126,3.096,0.126c3.526,0,5.817-2.044,5.817-5.076C33.541-5.037,31.25-6.586,27.475-6.586 M34.162,20.65
		L24.938,7.402h-0.31V20.65h-6.685v-32.188c2.353-0.125,6.561-0.187,10.522-0.187c7.676,0,12.134,2.973,12.134,8.914
		c0,5.26-3.653,8.42-8.79,9.222c0.742,0.867,1.609,2.105,2.6,3.469l7.985,10.77H34.162z"/>
</g>
<path id="path28" inkscape:connector-curvature="0" fill="#030407" d="M160.276,58.056h6.685v32.188h-6.685V58.056z"/>
<g id="g30" transform="translate(152.0894,40.0303)">
	<path id="path32" inkscape:connector-curvature="0" fill="#030407" d="M38.022,59.932v-5.817
		c10.027-1.053,13.308,3.28,23.025,1.918v5.82C50.711,63.397,46.751,58.88,38.022,59.932 M39.632,23.288
		c-4.891,0-9.163,3.712-9.163,10.646c0,6.127,2.6,10.955,8.914,10.955c5.139,0,9.347-3.465,9.347-10.646
		C48.731,27.062,45.141,23.288,39.632,23.288 M39.012,50.771c-10.461,0-15.661-6.686-15.661-16.34
		c0-10.586,7.8-16.961,16.714-16.961c9.348,0,15.846,5.448,15.846,16.341C55.911,44.458,48.236,50.771,39.012,50.771"/>
</g>
<g id="g34" transform="translate(184.1758,47.3594)">
	<path id="path36" inkscape:connector-curvature="0" fill="#030407" d="M46.044,43.441c-9.347,0-13.989-4.394-13.989-11.76V10.698
		h6.687v19.621c0,5.262,2.723,7.552,7.735,7.552c5.51,0,7.615-3.095,7.615-8.045V10.698h6.622v19.867
		C60.714,37.561,56.381,43.441,46.044,43.441"/>
</g>
<g id="g38" transform="translate(214.3223,63.8984)">
	<path id="path40" inkscape:connector-curvature="0" fill="#030407" d="M53.58,6.229c-0.619-1.672-1.236-3.591-1.672-5.078h-0.064
		c-0.371,1.55-0.99,3.344-1.608,5.015l-3.464,9.1h10.151L53.58,6.229z M60.883,26.346l-2.289-6.251H45.16l-2.351,6.251h-6.688
		L48.316-5.841h7.864L68.31,26.346H60.883z"/>
</g>
<g id="g42" transform="translate(248.2891,47.8047)">
	<path id="path44" inkscape:connector-curvature="0" fill="#030407" d="M62.072,42.439L50.993,24.983
		c-1.238-1.919-2.415-4.209-3.28-6.128H47.65c0.123,1.794,0.186,3.775,0.186,6.747l0.062,16.837h-6.499V10.252h8.914l10.832,17.147
		c1.24,1.981,2.478,4.083,3.527,6.312h0.064c-0.125-2.041-0.189-5.138-0.189-9.285l-0.06-14.175h6.501v32.188H62.072z"/>
</g>
<g id="g46" transform="translate(273.3867,69)">
	<path id="path48" inkscape:connector-curvature="0" fill="#030407" d="M68.347-5.25v26.494h-6.685V-5.25h-8.914v-5.694h24.515
		v5.694H68.347z"/>
</g>
<g id="g50" transform="translate(294.5723,63.8984)">
	<path id="path52" inkscape:connector-curvature="0" fill="#030407" d="M73.643,6.229c-0.619-1.672-1.237-3.591-1.672-5.078h-0.062
		c-0.371,1.55-0.991,3.344-1.608,5.015l-3.467,9.1h10.151L73.643,6.229z M80.945,26.346l-2.287-6.251H65.223l-2.351,6.251h-6.686
		L68.382-5.841h7.861l12.134,32.187H80.945z"/>
</g>
<g id="g54" transform="translate(42.1943,47.8047)">
	<path id="path56" inkscape:connector-curvature="0" fill="#00C2FF" d="M10.548,42.439H4.503L16.88,10.061h5.996L10.548,42.439z"/>
</g>
<g id="g58" transform="translate(51.979,47.8047)">
	<path id="path60" inkscape:connector-curvature="0" fill="#00C2FF" d="M12.995,42.439H6.951l12.376-32.379h5.997L12.995,42.439z"/>
</g>
<g id="g62" transform="translate(62.5327,47.8047)">
	<path id="path64" inkscape:connector-curvature="0" fill="#00C2FF" d="M15.633,42.439H9.588l12.376-32.379h5.998L15.633,42.439z"/>
</g>
<g id="g68" transform="translate(191.4043,39.9199)">
	<path id="path70" inkscape:connector-curvature="0" d="M47.852,60.18v9.285h1.305c0.83,0,1.554-0.133,2.175-0.396
		c0.618-0.266,1.134-0.613,1.545-1.043c0.41-0.43,0.718-0.923,0.923-1.478c0.205-0.556,0.307-1.128,0.307-1.718
		c0-0.71-0.123-1.353-0.367-1.928c-0.244-0.574-0.58-1.064-1.006-1.47s-0.919-0.715-1.484-0.93
		c-0.564-0.216-1.168-0.323-1.809-0.323H47.852z M47.236,59.58h2.203c0.722,0,1.401,0.123,2.041,0.366
		c0.641,0.247,1.199,0.597,1.681,1.052c0.479,0.455,0.86,1.008,1.14,1.656c0.28,0.65,0.42,1.376,0.42,2.176
		c0,0.59-0.102,1.195-0.307,1.814c-0.205,0.621-0.539,1.186-0.998,1.695c-0.46,0.51-1.059,0.93-1.793,1.253
		c-0.734,0.325-1.632,0.487-2.693,0.487h-1.693V59.58z"/>
</g>
<g id="g72" transform="translate(199.2041,36.4404)">
	<path id="path74" inkscape:connector-curvature="0" d="M49.801,68.009h1.56c0.521,0,0.953-0.07,1.299-0.21
		c0.346-0.139,0.619-0.319,0.824-0.54c0.205-0.219,0.348-0.457,0.428-0.713c0.081-0.254,0.12-0.5,0.12-0.742
		c0-0.278-0.067-0.549-0.202-0.809c-0.136-0.26-0.323-0.491-0.562-0.691c-0.24-0.198-0.523-0.355-0.848-0.473
		c-0.325-0.114-0.673-0.171-1.043-0.171h-1.575V68.009z M49.187,73.56v-10.5h2.251c0.309,0,0.648,0.049,1.019,0.149
		s0.717,0.261,1.043,0.479c0.324,0.222,0.598,0.506,0.816,0.857c0.221,0.35,0.33,0.77,0.33,1.258c0,0.721-0.191,1.319-0.577,1.794
		c-0.385,0.476-0.942,0.788-1.673,0.938c0.4,0.851,0.798,1.688,1.193,2.521c0.395,0.83,0.787,1.664,1.178,2.504h-0.676
		c-0.39-0.84-0.778-1.67-1.17-2.49c-0.389-0.818-0.779-1.645-1.168-2.475c-0.092,0.011-0.18,0.017-0.264,0.021
		c-0.086,0.006-0.174,0.008-0.264,0.008h-1.425v4.936H49.187z"/>
</g>
<g id="g76" transform="translate(207.8076,31.9043)">
	<path id="path78" inkscape:connector-curvature="0" d="M51.952,78.215c-0.51,0-0.98-0.074-1.41-0.225s-0.803-0.373-1.116-0.668
		c-0.315-0.293-0.562-0.66-0.735-1.102c-0.176-0.439-0.264-0.945-0.264-1.516v-7.109h0.615v7.064c0,0.48,0.072,0.902,0.217,1.268
		c0.146,0.366,0.346,0.673,0.601,0.923s0.562,0.44,0.923,0.569c0.361,0.132,0.75,0.197,1.17,0.197s0.807-0.065,1.162-0.197
		c0.355-0.129,0.665-0.319,0.93-0.569c0.266-0.25,0.471-0.557,0.615-0.923c0.145-0.365,0.218-0.787,0.218-1.268v-7.064h0.63v7.109
		c0,0.57-0.09,1.076-0.27,1.516c-0.181,0.441-0.431,0.809-0.75,1.102c-0.32,0.295-0.697,0.518-1.133,0.668
		S52.452,78.215,51.952,78.215"/>
</g>
<g id="g80" transform="translate(213.0879,36.4404)">
	<path id="path82" inkscape:connector-curvature="0" d="M53.272,68.009h1.561c0.52,0,0.953-0.07,1.297-0.21
		c0.347-0.139,0.621-0.319,0.826-0.54c0.205-0.219,0.347-0.457,0.427-0.713c0.081-0.254,0.12-0.5,0.12-0.742
		c0-0.278-0.067-0.549-0.203-0.809c-0.135-0.26-0.322-0.491-0.562-0.691c-0.239-0.198-0.521-0.355-0.847-0.473
		c-0.325-0.114-0.673-0.171-1.042-0.171h-1.576V68.009z M52.657,73.56v-10.5h2.251c0.309,0,0.648,0.049,1.019,0.149
		s0.718,0.261,1.043,0.479c0.325,0.222,0.599,0.506,0.817,0.857c0.22,0.35,0.33,0.77,0.33,1.258c0,0.861-0.272,1.547-0.818,2.057
		c-0.545,0.509-1.332,0.764-2.361,0.764h-1.666v4.936H52.657z"/>
</g>
<g id="g84" transform="translate(221.8232,39.332)">
	<path id="path86" inkscape:connector-curvature="0" d="M55.456,61.503c-0.021-0.069-0.043-0.14-0.068-0.21
		c-0.024-0.07-0.047-0.141-0.066-0.21c-0.261,0.76-0.553,1.51-0.878,2.25c-0.325,0.741-0.647,1.485-0.968,2.235h3.705
		c-0.29-0.69-0.578-1.37-0.862-2.041C56.033,62.857,55.745,62.184,55.456,61.503 M59.971,70.668h-0.63
		c-0.32-0.75-0.637-1.5-0.953-2.25c-0.314-0.75-0.632-1.5-0.952-2.25h-4.215c-0.319,0.75-0.638,1.5-0.952,2.25
		c-0.315,0.75-0.633,1.5-0.953,2.25h-0.645c0.779-1.84,1.555-3.67,2.324-5.49c0.771-1.82,1.547-3.648,2.326-5.49
		c0.781,1.842,1.555,3.67,2.324,5.49S59.191,68.828,59.971,70.668"/>
</g>
<g id="g88" transform="translate(227.1748,32)">
	<path id="path90" inkscape:connector-curvature="0" d="M56.794,78V67.5h0.615v9.9h5.819V78H56.794z"/>
</g>
<g id="g92" transform="translate(242.0547,39.6924)">
	<path id="path94" inkscape:connector-curvature="0" d="M60.514,60.692c-0.07,0.08-0.131,0.161-0.187,0.24
		c-0.055,0.08-0.112,0.16-0.172,0.24c-0.091-0.08-0.2-0.167-0.332-0.262c-0.128-0.096-0.281-0.187-0.457-0.271
		c-0.175-0.084-0.37-0.155-0.585-0.21c-0.215-0.056-0.447-0.081-0.696-0.081c-0.352,0-0.656,0.057-0.916,0.171
		c-0.261,0.115-0.478,0.271-0.651,0.465c-0.177,0.196-0.305,0.421-0.392,0.675C56.041,61.916,56,62.177,56,62.447
		c0,0.291,0.048,0.538,0.142,0.742c0.095,0.205,0.226,0.379,0.39,0.518c0.165,0.14,0.362,0.263,0.593,0.368
		c0.23,0.104,0.48,0.202,0.751,0.292c0.32,0.11,0.678,0.232,1.071,0.367c0.395,0.137,0.768,0.32,1.118,0.557
		c0.35,0.233,0.642,0.53,0.878,0.885c0.233,0.354,0.352,0.802,0.352,1.341c0,0.441-0.081,0.842-0.246,1.201
		c-0.167,0.359-0.392,0.667-0.676,0.922c-0.286,0.255-0.62,0.451-1.006,0.585c-0.385,0.135-0.793,0.202-1.223,0.202
		c-0.39,0-0.752-0.05-1.087-0.149c-0.336-0.099-0.632-0.226-0.892-0.375c-0.262-0.15-0.487-0.31-0.683-0.48
		c-0.196-0.169-0.349-0.318-0.459-0.45l0.42-0.42c0.142,0.141,0.302,0.287,0.48,0.437c0.181,0.149,0.377,0.286,0.594,0.413
		c0.215,0.123,0.451,0.226,0.711,0.306s0.541,0.121,0.84,0.121c0.34,0,0.665-0.052,0.976-0.157c0.31-0.105,0.585-0.255,0.825-0.451
		c0.241-0.195,0.432-0.432,0.577-0.713c0.146-0.279,0.218-0.6,0.218-0.96c0-0.45-0.101-0.819-0.299-1.108
		c-0.2-0.291-0.449-0.53-0.744-0.721c-0.294-0.19-0.617-0.346-0.966-0.466c-0.352-0.118-0.676-0.229-0.977-0.329
		c-0.19-0.061-0.412-0.141-0.668-0.24c-0.255-0.101-0.5-0.24-0.734-0.42c-0.235-0.181-0.44-0.408-0.615-0.682
		c-0.174-0.275-0.268-0.619-0.277-1.029c-0.021-0.328,0.018-0.661,0.112-0.997c0.095-0.334,0.253-0.634,0.473-0.899
		c0.22-0.265,0.506-0.482,0.856-0.653c0.349-0.17,0.773-0.255,1.273-0.255c0.38,0,0.769,0.066,1.162,0.195
		C59.656,60.073,60.073,60.322,60.514,60.692"/>
</g>
<g id="g96" transform="translate(244.875,36.4404)">
	<path id="path98" inkscape:connector-curvature="0" d="M61.219,68.009h1.56c0.521,0,0.953-0.07,1.298-0.21
		c0.347-0.139,0.62-0.319,0.825-0.54c0.205-0.219,0.348-0.457,0.428-0.713c0.081-0.254,0.12-0.5,0.12-0.742
		c0-0.278-0.068-0.549-0.203-0.809s-0.322-0.491-0.562-0.691c-0.24-0.198-0.522-0.355-0.848-0.473
		c-0.324-0.114-0.672-0.171-1.042-0.171h-1.575V68.009z M60.604,73.56v-10.5h2.252c0.309,0,0.648,0.049,1.019,0.149
		s0.717,0.261,1.042,0.479c0.325,0.222,0.599,0.506,0.817,0.857c0.221,0.35,0.33,0.77,0.33,1.258c0,0.861-0.272,1.547-0.817,2.057
		c-0.545,0.509-1.332,0.764-2.362,0.764h-1.665v4.936H60.604z"/>
</g>
<g id="g100" transform="translate(250.082,32)">
	<path id="path102" inkscape:connector-curvature="0" d="M62.521,78V67.5h6.225v0.6h-5.609v4.306h5.026v0.6h-5.026V77.4h5.819V78
		H62.521z"/>
</g>
<g id="g104" transform="translate(263.21,32.9121)">
	<path id="path106" inkscape:connector-curvature="0" d="M65.803,75.947l0.345,0.511c-0.4,0.229-0.827,0.412-1.282,0.548
		c-0.454,0.135-0.938,0.202-1.446,0.202c-0.741,0-1.437-0.14-2.085-0.421c-0.651-0.279-1.219-0.66-1.704-1.146
		c-0.483-0.485-0.867-1.053-1.146-1.701c-0.281-0.652-0.42-1.347-0.42-2.087c0-0.739,0.139-1.438,0.42-2.093
		c0.279-0.654,0.663-1.225,1.146-1.709c0.485-0.485,1.053-0.871,1.704-1.155c0.648-0.285,1.344-0.428,2.085-0.428
		c0.509,0,0.992,0.065,1.446,0.194c0.455,0.131,0.888,0.315,1.297,0.556c-0.06,0.08-0.117,0.165-0.172,0.255
		c-0.056,0.09-0.111,0.176-0.172,0.255c-0.351-0.21-0.728-0.372-1.134-0.487c-0.404-0.115-0.827-0.172-1.266-0.172
		c-0.651,0-1.264,0.127-1.839,0.382s-1.076,0.601-1.508,1.035c-0.43,0.435-0.766,0.942-1.013,1.522
		c-0.244,0.58-0.367,1.2-0.367,1.859c0,0.65,0.123,1.264,0.367,1.838c0.247,0.575,0.583,1.078,1.013,1.508
		c0.432,0.43,0.928,0.77,1.493,1.021c0.564,0.248,1.172,0.373,1.822,0.373c0.451,0,0.876-0.057,1.276-0.172
		C65.063,76.32,65.443,76.158,65.803,75.947"/>
</g>
<path id="path108" inkscape:connector-curvature="0" d="M331.954,99.5h0.614V110h-0.614V99.5z"/>
<g id="g110" transform="translate(271.8389,39.332)">
	<path id="path112" inkscape:connector-curvature="0" d="M67.96,61.503c-0.021-0.069-0.043-0.14-0.067-0.21
		c-0.025-0.07-0.048-0.141-0.066-0.21c-0.262,0.76-0.554,1.51-0.879,2.25c-0.325,0.741-0.647,1.485-0.968,2.235h3.705
		c-0.29-0.69-0.577-1.37-0.862-2.041C68.537,62.857,68.25,62.184,67.96,61.503 M72.475,70.668h-0.63
		c-0.32-0.75-0.637-1.5-0.952-2.25s-0.633-1.5-0.953-2.25h-4.215c-0.32,0.75-0.638,1.5-0.952,2.25c-0.315,0.75-0.633,1.5-0.953,2.25
		h-0.645c0.78-1.84,1.555-3.67,2.325-5.49c0.77-1.82,1.546-3.648,2.326-5.49c0.78,1.842,1.554,3.67,2.323,5.49
		C70.92,66.998,71.694,68.828,72.475,70.668"/>
</g>
<g id="g114" transform="translate(277.1904,32)">
	<path id="path116" inkscape:connector-curvature="0" d="M69.298,78V67.5h0.615v9.9h5.819V78H69.298z"/>
</g>
<path id="path118" inkscape:connector-curvature="0" d="M355.668,99.5h0.614V110h-0.614V99.5z"/>
<g id="g120" transform="translate(291.4453,39.6924)">
	<path id="path122" inkscape:connector-curvature="0" d="M72.861,60.692c-0.07,0.08-0.131,0.161-0.187,0.24
		c-0.055,0.08-0.112,0.16-0.172,0.24c-0.091-0.08-0.2-0.167-0.332-0.262c-0.128-0.096-0.281-0.187-0.457-0.271
		c-0.175-0.084-0.37-0.155-0.585-0.21c-0.215-0.056-0.447-0.081-0.696-0.081c-0.352,0-0.656,0.057-0.916,0.171
		c-0.261,0.115-0.478,0.271-0.651,0.465c-0.177,0.196-0.305,0.421-0.392,0.675c-0.085,0.257-0.126,0.518-0.126,0.788
		c0,0.291,0.048,0.538,0.142,0.742c0.095,0.205,0.226,0.379,0.39,0.518c0.165,0.14,0.362,0.263,0.593,0.368
		c0.23,0.104,0.48,0.202,0.751,0.292c0.32,0.11,0.678,0.232,1.071,0.367c0.395,0.137,0.768,0.32,1.118,0.557
		c0.35,0.233,0.642,0.53,0.878,0.885c0.233,0.354,0.352,0.802,0.352,1.341c0,0.441-0.081,0.842-0.246,1.201
		c-0.167,0.359-0.392,0.667-0.676,0.922c-0.286,0.255-0.62,0.451-1.006,0.585c-0.385,0.135-0.793,0.202-1.223,0.202
		c-0.39,0-0.752-0.05-1.087-0.149c-0.336-0.099-0.632-0.226-0.892-0.375c-0.262-0.15-0.487-0.31-0.683-0.48
		c-0.196-0.169-0.349-0.318-0.459-0.45l0.42-0.42c0.142,0.141,0.302,0.287,0.48,0.437c0.181,0.149,0.377,0.286,0.594,0.413
		c0.215,0.123,0.451,0.226,0.711,0.306s0.541,0.121,0.84,0.121c0.34,0,0.665-0.052,0.976-0.157c0.31-0.105,0.585-0.255,0.825-0.451
		c0.241-0.195,0.432-0.432,0.577-0.713c0.146-0.279,0.218-0.6,0.218-0.96c0-0.45-0.101-0.819-0.299-1.108
		c-0.2-0.291-0.449-0.53-0.744-0.721c-0.294-0.19-0.617-0.346-0.966-0.466c-0.352-0.118-0.676-0.229-0.977-0.329
		c-0.19-0.061-0.412-0.141-0.668-0.24c-0.255-0.101-0.5-0.24-0.734-0.42c-0.235-0.181-0.44-0.408-0.615-0.682
		c-0.174-0.275-0.268-0.619-0.277-1.029c-0.021-0.328,0.018-0.661,0.112-0.997c0.095-0.334,0.253-0.634,0.473-0.899
		c0.22-0.265,0.506-0.482,0.856-0.653c0.349-0.17,0.773-0.255,1.273-0.255c0.38,0,0.769,0.066,1.162,0.195
		C72.004,60.073,72.421,60.322,72.861,60.692"/>
</g>
<g id="g124" transform="translate(299.5215,40.4004)">
	<path id="path126" inkscape:connector-curvature="0" d="M74.881,59.1v0.6h-3.839v9.9h-0.615v-9.9h-3.842v-0.6H74.881z"/>
</g>
<g id="g128" transform="translate(304.7051,39.6924)">
	<path id="path130" inkscape:connector-curvature="0" d="M76.176,60.692c-0.069,0.08-0.131,0.161-0.186,0.24
		c-0.056,0.08-0.112,0.16-0.173,0.24c-0.09-0.08-0.2-0.167-0.331-0.262c-0.129-0.096-0.281-0.187-0.458-0.271
		c-0.175-0.084-0.369-0.155-0.585-0.21c-0.215-0.056-0.447-0.081-0.696-0.081c-0.351,0-0.656,0.057-0.916,0.171
		c-0.26,0.115-0.478,0.271-0.651,0.465c-0.176,0.196-0.305,0.421-0.391,0.675c-0.085,0.257-0.127,0.518-0.127,0.788
		c0,0.291,0.048,0.538,0.142,0.742c0.095,0.205,0.227,0.379,0.39,0.518c0.165,0.14,0.363,0.263,0.593,0.368
		c0.231,0.104,0.481,0.202,0.751,0.292c0.32,0.11,0.678,0.232,1.071,0.367c0.396,0.137,0.768,0.32,1.119,0.557
		c0.349,0.233,0.642,0.53,0.878,0.885c0.233,0.354,0.351,0.802,0.351,1.341c0,0.441-0.081,0.842-0.246,1.201
		c-0.166,0.359-0.392,0.667-0.675,0.922c-0.286,0.255-0.62,0.451-1.007,0.585c-0.385,0.135-0.792,0.202-1.222,0.202
		c-0.391,0-0.753-0.05-1.088-0.149c-0.335-0.099-0.631-0.226-0.892-0.375c-0.261-0.15-0.487-0.31-0.683-0.48
		c-0.195-0.169-0.349-0.318-0.458-0.45l0.42-0.42c0.141,0.141,0.301,0.287,0.479,0.437c0.182,0.149,0.378,0.286,0.594,0.413
		c0.215,0.123,0.451,0.226,0.712,0.306c0.26,0.08,0.541,0.121,0.84,0.121c0.34,0,0.665-0.052,0.975-0.157
		c0.311-0.105,0.585-0.255,0.825-0.451c0.241-0.195,0.433-0.432,0.577-0.713c0.146-0.279,0.218-0.6,0.218-0.96
		c0-0.45-0.1-0.819-0.299-1.108c-0.2-0.291-0.448-0.53-0.743-0.721c-0.294-0.19-0.618-0.346-0.967-0.466
		c-0.352-0.118-0.675-0.229-0.977-0.329c-0.189-0.061-0.412-0.141-0.667-0.24c-0.255-0.101-0.5-0.24-0.735-0.42
		c-0.234-0.181-0.439-0.408-0.614-0.682c-0.174-0.275-0.268-0.619-0.278-1.029c-0.02-0.328,0.018-0.661,0.113-0.997
		c0.095-0.334,0.252-0.634,0.472-0.899c0.221-0.265,0.507-0.482,0.856-0.653c0.349-0.17,0.774-0.255,1.274-0.255
		c0.38,0,0.769,0.066,1.162,0.195C75.318,60.073,75.736,60.322,76.176,60.692"/>
</g>
</svg>
