<?xml version="1.0" encoding="utf-8"?>
<!-- Generator: Adobe Illustrator 16.0.0, SVG Export Plug-In . SVG Version: 6.00 Build 0)  -->
<!DOCTYPE svg PUBLIC "-//W3C//DTD SVG 1.1//EN" "http://www.w3.org/Graphics/SVG/1.1/DTD/svg11.dtd">
<svg version="1.1" id="Layer_1" xmlns="http://www.w3.org/2000/svg" xmlns:xlink="http://www.w3.org/1999/xlink" x="0px" y="0px"
	 width="305.483px" height="56.561px" viewBox="0 0 305.483 56.561" enable-background="new 0 0 305.483 56.561"
	 xml:space="preserve">
<g>
	<g>
		<path fill="#1A171B" d="M78.687,14.004l4.102,0.81l9.502,21.7l9.891-22.51h0.723l9.958,22.51l6.008-13.995l6.035-4.395
			l-11.676,26.879h-0.741l-9.912-22.194l-9.907,22.194h-0.742L78.687,14.004z"/>
		<path fill="#1A171B" d="M146.307,28.597l3.797-0.062c0.072,2.43-0.205,4.574-0.834,6.433c-0.631,1.858-1.569,3.526-2.821,5.004
			c-1.251,1.474-2.878,2.76-4.879,3.856c-4.435,2.427-8.7,2.873-12.793,1.334c-4.092-1.536-7.142-4.139-9.148-7.804
			c-1.888-3.449-2.514-7.104-1.873-10.96c0.807-4.905,3.46-8.589,7.963-11.052c4.636-2.537,9.3-2.808,13.993-0.807
			c3.327,1.404,6.022,3.955,8.09,7.654l-24.466,13.394c1.796,3.123,4.222,5.157,7.28,6.11c3.057,0.949,6.021,0.642,8.89-0.932
			c1.385-0.759,2.6-1.733,3.646-2.932c1.046-1.199,1.811-2.449,2.291-3.747C145.923,32.791,146.212,30.958,146.307,28.597z
			 M142.299,21.277c-1.488-1.613-2.985-2.731-4.489-3.357c-1.503-0.627-3.175-0.88-5.017-0.762c-1.842,0.121-3.573,0.626-5.19,1.51
			c-2.669,1.462-4.493,3.578-5.473,6.341c-0.716,2.016-0.75,4.472-0.099,7.364L142.299,21.277z"/>
		<path fill="#1A171B" d="M146.332,44.194V2.041l3.99,0.81v16.484c1.669-2.053,3.539-3.589,5.606-4.602
			c2.068-1.016,4.336-1.523,6.801-1.523c4.384,0,8.127,1.591,11.229,4.772c3.103,3.178,4.653,7.042,4.653,11.58
			c0,4.482-1.565,8.31-4.695,11.484c-3.132,3.17-6.896,4.754-11.299,4.754c-2.525,0-4.812-0.539-6.86-1.62
			c-2.049-1.085-3.86-2.709-5.436-4.875v5.699L146.332,44.194z M162.288,41.954c2.216,0,4.263-0.546,6.14-1.638
			c1.875-1.093,3.368-2.625,4.476-4.601c1.108-1.976,1.664-4.065,1.664-6.268c0-2.203-0.559-4.303-1.677-6.297
			c-1.12-1.994-2.619-3.544-4.507-4.655c-1.886-1.114-3.898-1.667-6.039-1.667c-2.179,0-4.25,0.553-6.211,1.667
			c-1.961,1.111-3.467,2.606-4.519,4.487c-1.053,1.88-1.578,3.996-1.578,6.352c0,3.589,1.179,6.591,3.54,9.003
			C155.935,40.749,158.839,41.954,162.288,41.954z"/>
		<path fill="#1A171B" d="M188.113,44.194V2.041l3.988,0.81v16.484c1.67-2.053,3.539-3.589,5.606-4.602
			c2.069-1.016,4.336-1.523,6.803-1.523c4.385,0,8.127,1.591,11.228,4.772c3.104,3.178,4.653,7.042,4.653,11.58
			c0,4.482-1.564,8.31-4.695,11.484c-3.13,3.17-6.896,4.754-11.299,4.754c-2.523,0-4.811-0.539-6.86-1.62
			c-2.049-1.085-3.861-2.709-5.436-4.875v5.699L188.113,44.194z M204.067,41.954c2.218,0,4.264-0.546,6.14-1.638
			c1.877-1.093,3.369-2.625,4.478-4.601c1.107-1.976,1.662-4.065,1.662-6.268c0-2.203-0.559-4.303-1.677-6.297
			s-2.621-3.544-4.505-4.655c-1.888-1.114-3.898-1.667-6.041-1.667c-2.179,0-4.25,0.553-6.211,1.667
			c-1.961,1.111-3.468,2.606-4.52,4.487s-1.576,3.996-1.576,6.352c0,3.589,1.179,6.591,3.539,9.003
			C197.714,40.749,200.62,41.954,204.067,41.954z"/>
		<path fill="#1A171B" d="M282.614,16.94c-1.294,0-2.692,0.429-3.618,1.283c-0.922,0.854-1.384,1.851-1.384,2.991
			c0,1.004,0.38,1.964,1.143,2.877c0.76,0.931,2.36,2.023,4.796,3.277c2.969,1.536,4.987,3.02,6.054,4.442
			c1.047,1.445,1.568,3.068,1.568,4.872c0,2.548-0.895,4.703-2.683,6.47c-1.787,1.767-4.023,2.646-6.704,2.646
			c-1.789,0-3.495-0.389-5.123-1.166c-1.627-0.78-2.973-1.851-4.036-3.218l2.506-2.852c2.038,2.298,4.199,3.449,6.482,3.449
			c1.6,0,2.96-0.514,4.085-1.54c1.122-1.026,1.685-2.232,1.685-3.617c0-1.141-0.372-2.156-1.114-3.05
			c-0.742-0.873-2.417-1.976-5.025-3.307c-2.797-1.44-4.701-2.867-5.709-4.271c-1.008-1.408-1.514-3.013-1.514-4.816
			c0-2.354,0.803-4.311,2.412-5.869c1.604-1.558,3.638-2.335,6.092-2.335"/>
		<path fill="#1A171B" d="M294.36,1.703l3.988,0.81v10.7h7.135l-0.811,3.445h-6.324v29.134l-3.988-0.811V16.94l-11.935-0.003
			l0.076-3.724h11.858V1.703z"/>
		<path fill="#1A171B" d="M245.177,28.597l3.797-0.062c0.073,2.43-0.207,4.574-0.834,6.433c-0.628,1.858-1.568,3.526-2.82,5.004
			c-1.252,1.474-2.877,2.76-4.879,3.856c-4.436,2.427-8.7,2.873-12.793,1.334c-4.094-1.536-7.144-4.139-9.15-7.804
			c-1.886-3.449-2.513-7.104-1.871-10.96c0.806-4.905,3.46-8.589,7.965-11.052c4.635-2.537,9.298-2.808,13.991-0.807
			c3.326,1.404,6.022,3.955,8.09,7.654l-24.466,13.394c1.797,3.123,4.222,5.157,7.278,6.11c3.059,0.949,6.021,0.642,8.891-0.932
			c1.386-0.759,2.601-1.733,3.646-2.932c1.047-1.199,1.809-2.449,2.291-3.747C244.792,32.791,245.081,30.958,245.177,28.597z
			 M241.168,21.277c-1.49-1.613-2.983-2.731-4.488-3.357c-1.503-0.627-3.176-0.88-5.018-0.762c-1.841,0.121-3.572,0.626-5.189,1.51
			c-2.67,1.462-4.493,3.578-5.472,6.341c-0.719,2.016-0.752,4.472-0.1,7.364L241.168,21.277z"/>
		<path fill="#1A171B" d="M275.133,38.564c-0.324,0.487-0.661,0.956-1.043,1.407c-1.252,1.474-2.879,2.76-4.881,3.856
			c-4.435,2.427-8.7,2.873-12.792,1.334c-4.093-1.536-7.143-4.139-9.149-7.804c-1.888-3.449-2.511-7.104-1.871-10.96
			c0.805-4.905,3.46-8.589,7.962-11.052c4.637-2.537,9.301-2.808,13.992-0.807c3.327,1.404,6.024,3.955,8.092,7.654l-24.466,13.394
			c1.795,3.123,4.22,5.157,7.278,6.11c3.059,0.949,6.022,0.642,8.889-0.932c1.386-0.759,2.601-1.733,3.646-2.932
			c0.748-0.858,1.353-1.741,1.814-2.646C273.789,36.888,274.191,37.281,275.133,38.564z M269.938,21.277
			c-1.486-1.613-2.984-2.731-4.489-3.357c-1.504-0.627-3.174-0.88-5.016-0.762c-1.844,0.121-3.574,0.626-5.19,1.51
			c-2.671,1.462-4.494,3.578-5.471,6.341c-0.719,2.016-0.752,4.472-0.102,7.364L269.938,21.277z"/>
		<g>
			<path fill="#1A171B" d="M94.491,49.813l-0.499,0.515c-0.415-0.402-0.82-0.603-1.217-0.603c-0.251,0-0.467,0.082-0.647,0.249
				c-0.18,0.165-0.269,0.359-0.269,0.581c0,0.196,0.074,0.383,0.223,0.56c0.147,0.181,0.458,0.394,0.932,0.638
				c0.578,0.299,0.971,0.586,1.178,0.863c0.203,0.282,0.305,0.597,0.305,0.947c0,0.495-0.174,0.914-0.521,1.259
				c-0.348,0.343-0.783,0.516-1.304,0.516c-0.349,0-0.68-0.077-0.997-0.228c-0.316-0.152-0.578-0.361-0.785-0.627l0.487-0.554
				c0.397,0.447,0.817,0.671,1.261,0.671c0.311,0,0.575-0.101,0.793-0.301c0.219-0.197,0.328-0.433,0.328-0.701
				c0-0.223-0.072-0.42-0.216-0.595c-0.145-0.17-0.47-0.383-0.978-0.643c-0.543-0.28-0.914-0.558-1.109-0.83
				c-0.196-0.273-0.294-0.585-0.294-0.937c0-0.459,0.156-0.838,0.469-1.141C91.942,49.15,92.337,49,92.814,49
				C93.37,49,93.928,49.271,94.491,49.813z"/>
			<path fill="#1A171B" d="M119.139,49c0.929,0,1.699,0.335,2.31,1.008c0.554,0.612,0.832,1.338,0.832,2.178
				c0,0.841-0.293,1.577-0.88,2.206c-0.586,0.631-1.34,0.946-2.262,0.946c-0.924,0-1.68-0.315-2.266-0.946
				c-0.586-0.629-0.88-1.365-0.88-2.206c0-0.836,0.277-1.56,0.833-2.172C117.436,49.336,118.208,49,119.139,49z M119.137,49.758
				c-0.645,0-1.199,0.238-1.663,0.715c-0.462,0.477-0.695,1.052-0.695,1.728c0,0.437,0.106,0.842,0.317,1.219
				c0.211,0.376,0.497,0.668,0.856,0.873c0.36,0.205,0.754,0.308,1.184,0.308c0.431,0,0.825-0.103,1.185-0.308
				c0.359-0.205,0.645-0.497,0.856-0.873c0.211-0.377,0.317-0.782,0.317-1.219c0-0.676-0.233-1.251-0.699-1.728
				C120.332,49.997,119.778,49.758,119.137,49.758z"/>
			<path fill="#1A171B" d="M144.022,46.828h0.775v8.354h-0.775V46.828z"/>
			<path fill="#1A171B" d="M166.732,49.153h0.775v2.815c0,0.688,0.037,1.16,0.111,1.419c0.11,0.368,0.323,0.659,0.635,0.874
				c0.313,0.214,0.686,0.322,1.118,0.322c0.434,0,0.801-0.104,1.101-0.313c0.303-0.209,0.51-0.483,0.625-0.822
				c0.077-0.233,0.117-0.726,0.117-1.479v-2.815h0.792v2.959c0,0.831-0.097,1.456-0.291,1.878s-0.486,0.752-0.876,0.99
				c-0.389,0.238-0.878,0.357-1.465,0.357c-0.586,0-1.077-0.119-1.472-0.357c-0.392-0.238-0.686-0.572-0.88-0.997
				c-0.194-0.428-0.291-1.068-0.291-1.927V49.153z"/>
			<path fill="#1A171B" d="M194.827,46.916h0.775v2.237h1.231v0.671h-1.231v5.357h-0.775v-5.357h-1.058v-0.671h1.058V46.916z"/>
			<path fill="#1A171B" d="M218.686,46.671c0.176,0,0.328,0.062,0.453,0.189c0.124,0.124,0.187,0.276,0.187,0.454
				c0,0.173-0.062,0.322-0.187,0.449c-0.125,0.125-0.277,0.187-0.453,0.187c-0.172,0-0.32-0.062-0.447-0.187
				c-0.124-0.127-0.187-0.276-0.187-0.449c0-0.178,0.062-0.33,0.187-0.454C218.365,46.734,218.514,46.671,218.686,46.671z
				 M218.301,49.153h0.775v6.028h-0.775V49.153z"/>
			<path fill="#1A171B" d="M243.965,49c0.93,0,1.699,0.335,2.31,1.008c0.556,0.612,0.832,1.338,0.832,2.178
				c0,0.841-0.293,1.577-0.88,2.206c-0.586,0.631-1.34,0.946-2.262,0.946c-0.924,0-1.681-0.315-2.267-0.946
				c-0.587-0.629-0.88-1.365-0.88-2.206c0-0.836,0.278-1.56,0.834-2.172C242.263,49.336,243.034,49,243.965,49z M243.963,49.758
				c-0.645,0-1.2,0.238-1.662,0.715c-0.464,0.477-0.694,1.052-0.694,1.728c0,0.437,0.104,0.842,0.315,1.219
				c0.212,0.376,0.496,0.668,0.857,0.873c0.359,0.205,0.753,0.308,1.184,0.308c0.429,0,0.825-0.103,1.185-0.308
				c0.358-0.205,0.645-0.497,0.855-0.873c0.211-0.377,0.317-0.782,0.317-1.219c0-0.676-0.233-1.251-0.698-1.728
				C245.156,49.997,244.604,49.758,243.963,49.758z"/>
			<path fill="#1A171B" d="M268.964,49.153h0.775v1.082c0.31-0.414,0.652-0.725,1.03-0.93c0.375-0.203,0.786-0.306,1.229-0.306
				c0.451,0,0.851,0.113,1.198,0.343c0.351,0.229,0.606,0.537,0.773,0.925s0.25,0.992,0.25,1.812v3.103h-0.775v-2.876
				c0-0.694-0.029-1.158-0.087-1.389c-0.09-0.399-0.262-0.7-0.517-0.901c-0.255-0.2-0.588-0.301-0.997-0.301
				c-0.469,0-0.891,0.153-1.261,0.464c-0.372,0.312-0.616,0.694-0.735,1.152c-0.073,0.299-0.109,0.847-0.109,1.641v2.21h-0.775
				V49.153z"/>
			<path fill="#1A171B" d="M299.334,49.813l-0.498,0.515c-0.414-0.402-0.821-0.603-1.217-0.603c-0.251,0-0.468,0.082-0.647,0.249
				c-0.18,0.165-0.269,0.359-0.269,0.581c0,0.196,0.074,0.383,0.221,0.56c0.149,0.181,0.461,0.394,0.934,0.638
				c0.577,0.299,0.97,0.586,1.177,0.863c0.203,0.282,0.306,0.597,0.306,0.947c0,0.495-0.174,0.914-0.522,1.259
				c-0.346,0.343-0.78,0.516-1.303,0.516c-0.349,0-0.68-0.077-0.995-0.228c-0.317-0.152-0.579-0.361-0.786-0.627l0.487-0.554
				c0.396,0.447,0.817,0.671,1.261,0.671c0.312,0,0.575-0.101,0.794-0.301c0.218-0.197,0.328-0.433,0.328-0.701
				c0-0.223-0.072-0.42-0.217-0.595c-0.145-0.17-0.471-0.383-0.977-0.643c-0.544-0.28-0.915-0.558-1.11-0.83
				c-0.196-0.273-0.296-0.585-0.296-0.937c0-0.459,0.158-0.838,0.47-1.141c0.313-0.304,0.707-0.454,1.186-0.454
				C298.213,49,298.771,49.271,299.334,49.813z"/>
		</g>
		<g>
			<path fill="#1A171B" d="M181.524,26.101h5.134l-0.811,3.475h-5.135L181.524,26.101z"/>
		</g>
	</g>
	<g>
		<polygon fill="#1A171B" stroke="#FFFFFF" stroke-width="1.1835" points="54.141,12.165 64.704,1.601 63,17.784 65.896,38.908 
			72.199,38.908 66.917,42.658 71.688,43.849 67.429,45.553 68.792,46.914 37.119,55.946 5.263,46.914 6.625,45.553 2.367,43.849 
			7.137,42.658 1.855,38.908 8.159,38.908 11.055,17.784 9.352,1.601 19.914,12.165 39.163,6.882 37.119,9.438 45.126,8.415 
			44.104,10.035 		"/>
		<polygon fill="#FFFFFF" points="11.873,6.974 17.11,13.077 13.406,15.126 		"/>
		<polygon fill="#FFFFFF" points="62.289,6.74 56.668,13.381 60.757,15.599 		"/>
		<path fill="#FFFFFF" d="M37.447,38.42l6.812-3.951c0,0-2.793-1.499-6.815-1.499h0.071c-4.02,0-6.813,1.499-6.813,1.499
			L37.447,38.42z"/>
		<path fill="#FFFFFF" d="M33.858,28.223c-0.206,0.858-1.774,1.213-3.498,0.799c-1.728-0.414-2.959-1.444-2.753-2.302
			C27.813,25.87,34.062,27.369,33.858,28.223z"/>
		<path fill="#FFFFFF" d="M40.388,28.223c0.206,0.858,1.773,1.213,3.498,0.799c1.727-0.414,2.958-1.444,2.753-2.302
			C46.433,25.87,40.182,27.369,40.388,28.223z"/>
	</g>
</g>
</svg>
