<?xml version="1.0" encoding="utf-8"?>
<!-- Generator: Adobe Illustrator 16.0.0, SVG Export Plug-In . SVG Version: 6.00 Build 0)  -->
<!DOCTYPE svg PUBLIC "-//W3C//DTD SVG 1.1//EN" "http://www.w3.org/Graphics/SVG/1.1/DTD/svg11.dtd">
<svg version="1.1" xmlns="http://www.w3.org/2000/svg" xmlns:xlink="http://www.w3.org/1999/xlink" x="0px" y="0px"
	 width="193.945px" height="41px" viewBox="0 0 193.945 41" enable-background="new 0 0 193.945 41" xml:space="preserve">
<g id="Layer_1">
	<g>
		<polygon fill="#01426A" points="52.116,5.024 55.387,5.024 58.128,21.487 58.714,21.487 62.347,5.08 65.981,5.08 69.617,21.487 
			70.231,21.487 72.971,5.024 76.24,5.024 72.467,24.171 67.465,24.171 64.164,8.826 60.893,24.171 55.863,24.171 		"/>
		<polygon fill="#01426A" points="80.517,24.171 80.517,5.024 92.593,5.024 92.593,7.733 83.62,7.733 83.62,13.157 90.916,13.157 
			90.916,15.841 83.62,15.841 83.62,21.431 92.593,21.431 92.593,24.171 		"/>
		<path fill="#01426A" d="M97.37,5.024h7.269c1.959,0,3.421,0.395,4.388,1.187c0.972,0.791,1.454,2.056,1.454,3.788
			c0,1.138-0.181,2.029-0.545,2.684c-0.364,0.652-0.938,1.192-1.718,1.619c1.826,0.711,2.738,2.193,2.738,4.445
			c0,3.616-2.031,5.424-6.095,5.424H97.37V5.024z M104.471,7.706h-3.997v5.479h4.108c1.827,0,2.74-0.942,2.74-2.823
			C107.322,8.592,106.371,7.706,104.471,7.706 M104.639,15.813h-4.165v5.674h4.221c1.023,0,1.793-0.215,2.307-0.644
			c0.512-0.429,0.769-1.164,0.769-2.209c0-1.043-0.3-1.773-0.895-2.192C106.279,16.021,105.531,15.813,104.639,15.813"/>
		<path fill="#01426A" d="M121.493,7.428c-2.366,0-3.549,0.828-3.549,2.487c0,0.855,0.28,1.467,0.839,1.832
			c0.557,0.362,1.794,0.808,3.704,1.34c1.909,0.531,3.257,1.165,4.038,1.901c0.781,0.735,1.174,1.896,1.174,3.479
			c0,2.014-0.57,3.52-1.717,4.516c-1.146,0.995-2.709,1.496-4.685,1.496c-1.583,0-3.334-0.188-5.254-0.562l-1.007-0.194l0.305-2.486
			c2.519,0.335,4.438,0.503,5.761,0.503c2.311,0,3.468-1.026,3.468-3.075c0-0.803-0.263-1.395-0.783-1.776
			c-0.523-0.381-1.697-0.8-3.522-1.258c-1.825-0.456-3.187-1.085-4.082-1.886c-0.894-0.803-1.343-2.069-1.343-3.802
			c0-1.733,0.566-3.043,1.692-3.929c1.127-0.883,2.687-1.326,4.683-1.326c1.434,0,3.131,0.167,5.087,0.502l0.978,0.169l-0.25,2.515
			C124.42,7.576,122.576,7.428,121.493,7.428"/>
		<path fill="#01426A" d="M138.881,24.479c-2.795,0-4.692-0.775-5.688-2.32c-0.999-1.546-1.495-4.091-1.495-7.631
			c0-3.542,0.503-6.06,1.508-7.562c1.007-1.5,2.898-2.251,5.676-2.251c1.659,0,3.483,0.233,5.479,0.701l-0.111,2.515
			c-1.678-0.299-3.354-0.449-5.031-0.449c-1.68,0-2.815,0.5-3.412,1.497s-0.893,2.87-0.893,5.618s0.288,4.62,0.865,5.618
			c0.577,0.997,1.705,1.495,3.381,1.495c1.679,0,3.373-0.139,5.09-0.419l0.084,2.571C142.411,24.271,140.593,24.479,138.881,24.479"
			/>
		<path fill="#01426A" d="M147.405,24.171l4.724-19.146h6.179l4.751,19.146h-3.13l-1.034-4.108h-7.351l-1.037,4.108H147.405z
			 M154.534,7.622l-2.376,9.701h6.12l-2.347-9.701H154.534z"/>
		<polygon fill="#01426A" points="177.929,24.171 167.196,24.171 167.196,5.024 170.299,5.024 170.299,21.404 177.929,21.404 		"/>
		<polygon fill="#01426A" points="181.871,24.171 181.871,5.024 193.945,5.024 193.945,7.733 184.975,7.733 184.975,13.157 
			192.268,13.157 192.268,15.841 184.975,15.841 184.975,21.431 193.945,21.431 193.945,24.171 		"/>
	</g>
	<path fill="#C8102E" d="M25.888,21.577l8.235,6.645l7.366-6.344l-4.573-7.089l-5.104,3.521L21.47,0L9.539,21.312l7.897,6.909
		L25.888,21.577z M42.661,23.693l-8.538,7.353l-8.235-6.645l-8.396,6.645l-9.014-7.84L0,38.354h52.116L42.661,23.693z"/>
	<path fill="#A50E2B" d="M36.916,14.789l-2.793,13.433l7.366-6.344L36.916,14.789z M42.661,23.693l-6.882,5.925l16.337,8.735
		L42.661,23.693z"/>
	<path fill="#DD2246" d="M25.883,24.405l-8.391,6.641l-0.969,7.308h9.332l8.268-7.308L25.883,24.405z M21.47,0l-4.033,28.222
		l8.451-6.645L21.47,0z"/>
	<g>
		<path fill="#828B9B" d="M61.496,38.351h-0.658v-8.069h0.658v2.805c0.627-0.291,1.23-0.436,1.812-0.436
			c0.746,0,1.241,0.197,1.493,0.592c0.248,0.394,0.372,1.118,0.372,2.168v2.939h-0.67v-2.905c0-0.857-0.08-1.437-0.239-1.739
			c-0.162-0.302-0.511-0.453-1.045-0.453c-0.263,0-0.535,0.032-0.822,0.096c-0.29,0.063-0.509,0.128-0.665,0.195l-0.235,0.09V38.351
			z"/>
		<path fill="#828B9B" d="M67.007,35.546c0-1.052,0.179-1.795,0.53-2.236c0.354-0.439,0.957-0.659,1.81-0.659
			c0.854,0,1.459,0.219,1.812,0.659c0.354,0.44,0.531,1.184,0.531,2.236c0,1.05-0.161,1.799-0.486,2.246
			c-0.324,0.448-0.941,0.671-1.85,0.671c-0.91,0-1.527-0.224-1.855-0.671C67.171,37.345,67.007,36.596,67.007,35.546z
			 M67.699,35.529c0,0.883,0.1,1.493,0.308,1.833c0.205,0.34,0.652,0.509,1.34,0.509c0.69,0,1.141-0.172,1.349-0.515
			s0.312-0.951,0.312-1.828c0-0.875-0.117-1.475-0.353-1.799c-0.233-0.324-0.67-0.486-1.302-0.486s-1.067,0.16-1.302,0.48
			C67.816,34.044,67.699,34.647,67.699,35.529z"/>
		<path fill="#828B9B" d="M75.265,33.265c-0.878,0-1.316,0.317-1.316,0.95c0,0.292,0.097,0.496,0.29,0.615
			c0.192,0.12,0.632,0.236,1.312,0.353c0.684,0.115,1.163,0.273,1.442,0.474c0.28,0.203,0.42,0.588,0.42,1.158
			c0,0.569-0.184,0.987-0.549,1.25c-0.363,0.266-0.899,0.397-1.608,0.397c-0.409,0-0.938-0.052-1.587-0.157l-0.324-0.045
			l0.046-0.591c0.833,0.126,1.474,0.189,1.921,0.189s0.795-0.078,1.045-0.234c0.25-0.157,0.375-0.421,0.375-0.794
			c0-0.372-0.103-0.62-0.308-0.743c-0.205-0.124-0.644-0.237-1.319-0.342c-0.674-0.104-1.146-0.252-1.426-0.446
			c-0.273-0.194-0.412-0.558-0.412-1.095c0-0.536,0.189-0.928,0.572-1.173c0.378-0.246,0.848-0.37,1.406-0.37
			c0.445,0,1.005,0.049,1.676,0.146l0.303,0.044L77.2,33.445C76.401,33.327,75.758,33.265,75.265,33.265z"/>
		<path fill="#828B9B" d="M82.039,33.355h-1.867v2.761c0,0.723,0.054,1.196,0.158,1.42c0.102,0.223,0.35,0.335,0.736,0.335
			l1.027-0.08l0.046,0.571c-0.49,0.075-0.868,0.112-1.128,0.112c-0.567,0-0.96-0.14-1.178-0.419
			c-0.222-0.279-0.332-0.815-0.332-1.605v-3.095h-0.826v-0.592h0.826v-1.754h0.67v1.754h1.867V33.355z"/>
		<path fill="#828B9B" d="M83.538,31.366v-0.838h0.657v0.838H83.538z M83.538,38.351v-5.588h0.657v5.588H83.538z"/>
		<path fill="#828B9B" d="M86.978,38.351h-0.656v-5.588h0.656v0.413c0.628-0.351,1.235-0.525,1.824-0.525
			c0.744,0,1.241,0.197,1.491,0.592c0.249,0.394,0.376,1.118,0.376,2.168v2.939h-0.672v-2.905c0-0.857-0.082-1.437-0.246-1.739
			s-0.516-0.453-1.051-0.453c-0.261,0-0.536,0.041-0.82,0.117c-0.288,0.08-0.51,0.158-0.667,0.241l-0.235,0.112V38.351z"/>
		<path fill="#828B9B" d="M97.252,39.201c0,0.634-0.205,1.09-0.611,1.375C96.235,40.858,95.604,41,94.747,41
			s-1.451-0.124-1.777-0.37c-0.327-0.245-0.492-0.696-0.492-1.352c0-0.314,0.065-0.565,0.201-0.754
			c0.134-0.189,0.369-0.409,0.705-0.653c-0.187-0.12-0.279-0.373-0.279-0.76c0-0.121,0.09-0.355,0.269-0.705l0.088-0.167
			c-0.611-0.252-0.918-0.816-0.918-1.687c0-1.268,0.677-1.9,2.023-1.9c0.382,0,0.716,0.037,1.008,0.112l0.167,0.033l1.621-0.033
			v0.592l-1.119-0.023c0.27,0.268,0.404,0.711,0.404,1.325s-0.169,1.061-0.511,1.341c-0.338,0.28-0.872,0.419-1.602,0.419
			c-0.217,0-0.408-0.015-0.572-0.044c-0.146,0.365-0.221,0.596-0.221,0.693c0,0.245,0.07,0.396,0.217,0.451
			c0.145,0.057,0.58,0.087,1.301,0.09c0.723,0.004,1.236,0.112,1.536,0.324C97.099,38.144,97.252,38.567,97.252,39.201z
			 M93.149,39.233c0,0.448,0.111,0.757,0.333,0.927c0.225,0.173,0.657,0.259,1.299,0.259c0.641,0,1.098-0.092,1.373-0.274
			c0.277-0.183,0.414-0.488,0.414-0.917c0-0.429-0.099-0.706-0.301-0.832c-0.201-0.127-0.585-0.191-1.152-0.191l-1.263-0.044
			c-0.277,0.195-0.461,0.364-0.559,0.509C93.197,38.815,93.149,39.003,93.149,39.233z M93.227,34.546c0,0.48,0.104,0.82,0.312,1.016
			c0.21,0.198,0.562,0.298,1.058,0.298s0.849-0.098,1.057-0.292c0.208-0.192,0.312-0.533,0.312-1.021
			c0-0.489-0.104-0.833-0.312-1.035c-0.208-0.201-0.562-0.301-1.057-0.301s-0.848,0.103-1.058,0.306
			C93.33,33.722,93.227,34.064,93.227,34.546z"/>
		<path fill="#828B9B" d="M101.229,32.763h0.737l1.397,5.006h0.449l1.451-5.006h0.691l-1.63,5.588h-1.466L101.229,32.763z"/>
		<path fill="#828B9B" d="M107.309,35.546c0-1.052,0.177-1.795,0.531-2.236c0.354-0.439,0.957-0.659,1.812-0.659
			c0.853,0,1.456,0.219,1.81,0.659c0.354,0.44,0.532,1.184,0.532,2.236c0,1.05-0.164,1.799-0.487,2.246
			c-0.325,0.448-0.94,0.671-1.848,0.671c-0.911,0-1.528-0.224-1.857-0.671C107.474,37.345,107.309,36.596,107.309,35.546z
			 M108.003,35.529c0,0.883,0.101,1.493,0.307,1.833s0.65,0.509,1.342,0.509c0.689,0,1.138-0.172,1.347-0.515
			c0.208-0.343,0.313-0.951,0.313-1.828c0-0.875-0.12-1.475-0.352-1.799c-0.237-0.324-0.671-0.486-1.302-0.486
			c-0.636,0-1.068,0.16-1.305,0.48C108.121,34.044,108.003,34.647,108.003,35.529z"/>
		<path fill="#828B9B" d="M113.647,35.546c0-1.052,0.177-1.795,0.528-2.236c0.355-0.439,0.958-0.659,1.812-0.659
			c0.854,0,1.457,0.219,1.809,0.659c0.355,0.44,0.53,1.184,0.53,2.236c0,1.05-0.16,1.799-0.483,2.246
			c-0.324,0.448-0.943,0.671-1.852,0.671c-0.909,0-1.524-0.224-1.855-0.671C113.811,37.345,113.647,36.596,113.647,35.546z
			 M114.338,35.529c0,0.883,0.103,1.493,0.309,1.833c0.204,0.34,0.65,0.509,1.342,0.509c0.688,0,1.138-0.172,1.347-0.515
			c0.206-0.343,0.311-0.951,0.311-1.828c0-0.875-0.115-1.475-0.351-1.799c-0.234-0.324-0.668-0.486-1.303-0.486
			c-0.63,0-1.064,0.16-1.3,0.48C114.455,34.044,114.338,34.647,114.338,35.529z"/>
		<path fill="#828B9B" d="M120.218,38.351v-5.588h0.661v0.804c0.272-0.193,0.611-0.38,1.011-0.558c0.398-0.18,0.765-0.299,1.1-0.358
			v0.67c-0.321,0.067-0.655,0.17-1.004,0.307c-0.353,0.138-0.622,0.259-0.819,0.363l-0.287,0.167v4.192H120.218z"/>
		<path fill="#828B9B" d="M127.36,40.865v-8.102h0.659v0.424c0.58-0.357,1.194-0.536,1.837-0.536c0.646,0,1.126,0.227,1.443,0.681
			c0.315,0.456,0.475,1.195,0.475,2.219s-0.187,1.766-0.559,2.225c-0.374,0.458-0.991,0.687-1.855,0.687
			c-0.462,0-0.909-0.048-1.341-0.145v2.547H127.36z M129.718,33.254c-0.246,0-0.51,0.042-0.793,0.124
			c-0.284,0.082-0.503,0.167-0.662,0.258l-0.243,0.123v3.978c0.505,0.09,0.946,0.135,1.318,0.135c0.64,0,1.091-0.182,1.352-0.543
			c0.261-0.361,0.393-0.957,0.393-1.788c0-0.83-0.114-1.42-0.342-1.766C130.513,33.429,130.173,33.254,129.718,33.254z"/>
		<path fill="#828B9B" d="M133.653,38.351v-5.588h0.657v0.804c0.275-0.193,0.612-0.38,1.012-0.558
			c0.398-0.18,0.765-0.299,1.102-0.358v0.67c-0.32,0.067-0.656,0.17-1.006,0.307c-0.351,0.138-0.621,0.259-0.816,0.363l-0.291,0.167
			v4.192H133.653z"/>
		<path fill="#828B9B" d="M137.651,35.546c0-1.052,0.177-1.795,0.533-2.236c0.354-0.439,0.956-0.659,1.81-0.659
			c0.853,0,1.457,0.219,1.81,0.659c0.356,0.44,0.532,1.184,0.532,2.236c0,1.05-0.163,1.799-0.487,2.246
			c-0.324,0.448-0.942,0.671-1.848,0.671c-0.911,0-1.528-0.224-1.856-0.671C137.816,37.345,137.651,36.596,137.651,35.546z
			 M138.344,35.529c0,0.883,0.104,1.493,0.311,1.833c0.203,0.34,0.648,0.509,1.34,0.509c0.688,0,1.138-0.172,1.348-0.515
			c0.207-0.343,0.312-0.951,0.312-1.828c0-0.875-0.115-1.475-0.354-1.799c-0.234-0.324-0.668-0.486-1.3-0.486
			c-0.635,0-1.067,0.16-1.302,0.48C138.462,34.044,138.344,34.647,138.344,35.529z"/>
		<path fill="#828B9B" d="M145.117,33.355v4.996h-0.669v-4.996h-0.728v-0.592h0.728v-0.57c0-0.79,0.107-1.324,0.323-1.604
			s0.6-0.419,1.151-0.419l1.085,0.056v0.57c-0.44-0.015-0.767-0.021-0.983-0.021c-0.35,0-0.59,0.096-0.715,0.29
			c-0.128,0.194-0.192,0.575-0.192,1.139v0.56h1.689v0.592H145.117z"/>
		<path fill="#828B9B" d="M151.991,37.792l0.337-0.033l0.021,0.547c-0.842,0.105-1.554,0.157-2.133,0.157
			c-0.806-0.008-1.368-0.246-1.688-0.716c-0.321-0.47-0.481-1.192-0.481-2.168c0-1.952,0.769-2.928,2.302-2.928
			c0.738,0,1.289,0.21,1.656,0.63c0.364,0.422,0.547,1.095,0.547,2.019l-0.023,0.537h-3.799c0,0.685,0.117,1.193,0.353,1.525
			c0.233,0.333,0.637,0.497,1.206,0.497C150.857,37.859,151.426,37.836,151.991,37.792z M148.729,35.277h3.15
			c0-0.737-0.121-1.263-0.363-1.576c-0.241-0.312-0.63-0.469-1.16-0.469c-0.533,0-0.938,0.163-1.215,0.486
			C148.866,34.043,148.729,34.562,148.729,35.277z"/>
		<path fill="#828B9B" d="M156.06,33.265c-0.879,0-1.318,0.317-1.318,0.95c0,0.292,0.099,0.496,0.29,0.615
			c0.193,0.12,0.634,0.236,1.315,0.353c0.682,0.115,1.161,0.273,1.441,0.474c0.28,0.203,0.419,0.588,0.419,1.158
			c0,0.569-0.185,0.987-0.549,1.25c-0.365,0.266-0.901,0.397-1.608,0.397c-0.41,0-0.938-0.052-1.588-0.157l-0.324-0.045l0.045-0.591
			c0.835,0.126,1.475,0.189,1.922,0.189c0.446,0,0.795-0.078,1.046-0.234c0.251-0.157,0.375-0.421,0.375-0.794
			c0-0.372-0.103-0.62-0.309-0.743c-0.205-0.124-0.645-0.237-1.319-0.342c-0.675-0.104-1.147-0.252-1.424-0.446
			s-0.413-0.558-0.413-1.095c0-0.536,0.188-0.928,0.57-1.173c0.379-0.246,0.848-0.37,1.406-0.37c0.447,0,1.007,0.049,1.678,0.146
			l0.3,0.044l-0.02,0.593C157.195,33.327,156.551,33.265,156.06,33.265z"/>
		<path fill="#828B9B" d="M161.692,33.265c-0.88,0-1.316,0.317-1.316,0.95c0,0.292,0.095,0.496,0.289,0.615
			c0.191,0.12,0.631,0.236,1.313,0.353c0.682,0.115,1.16,0.273,1.44,0.474c0.281,0.203,0.421,0.588,0.421,1.158
			c0,0.569-0.182,0.987-0.55,1.25c-0.362,0.266-0.9,0.397-1.608,0.397c-0.41,0-0.938-0.052-1.587-0.157l-0.324-0.045l0.045-0.591
			c0.834,0.126,1.474,0.189,1.923,0.189c0.447,0,0.795-0.078,1.042-0.234c0.252-0.157,0.376-0.421,0.376-0.794
			c0-0.372-0.1-0.62-0.306-0.743c-0.207-0.124-0.645-0.237-1.319-0.342c-0.675-0.104-1.15-0.252-1.426-0.446
			s-0.413-0.558-0.413-1.095c0-0.536,0.189-0.928,0.569-1.173c0.38-0.246,0.852-0.37,1.41-0.37c0.445,0,1.004,0.049,1.675,0.146
			l0.303,0.044l-0.022,0.593C162.83,33.327,162.186,33.265,161.692,33.265z"/>
		<path fill="#828B9B" d="M165.638,31.366v-0.838h0.658v0.838H165.638z M165.638,38.351v-5.588h0.658v5.588H165.638z"/>
		<path fill="#828B9B" d="M168.186,35.546c0-1.052,0.177-1.795,0.533-2.236c0.352-0.439,0.955-0.659,1.809-0.659
			s1.459,0.219,1.811,0.659c0.354,0.44,0.531,1.184,0.531,2.236c0,1.05-0.16,1.799-0.486,2.246c-0.324,0.448-0.941,0.671-1.85,0.671
			c-0.91,0-1.526-0.224-1.855-0.671C168.35,37.345,168.186,36.596,168.186,35.546z M168.881,35.529c0,0.883,0.1,1.493,0.306,1.833
			c0.204,0.34,0.651,0.509,1.341,0.509c0.688,0,1.138-0.172,1.348-0.515c0.209-0.343,0.312-0.951,0.312-1.828
			c0-0.875-0.116-1.475-0.352-1.799c-0.234-0.324-0.669-0.486-1.302-0.486s-1.068,0.16-1.303,0.48
			C168.995,34.044,168.881,34.647,168.881,35.529z"/>
		<path fill="#828B9B" d="M175.418,38.351h-0.661v-5.588h0.661v0.413c0.624-0.351,1.232-0.525,1.821-0.525
			c0.745,0,1.242,0.197,1.492,0.592c0.249,0.394,0.374,1.118,0.374,2.168v2.939h-0.671v-2.905c0-0.857-0.084-1.437-0.245-1.739
			c-0.164-0.302-0.516-0.453-1.051-0.453c-0.261,0-0.535,0.041-0.821,0.117c-0.287,0.08-0.51,0.158-0.666,0.241l-0.233,0.112V38.351
			z"/>
		<path fill="#828B9B" d="M185.007,34.428v2.995c0.03,0.276,0.272,0.439,0.727,0.493l-0.033,0.536c-0.575,0-0.993-0.149-1.264-0.447
			c-0.7,0.306-1.399,0.458-2.101,0.458c-0.5,0-0.88-0.144-1.14-0.431c-0.262-0.286-0.392-0.696-0.392-1.229
			c0-0.533,0.133-0.928,0.397-1.184c0.263-0.258,0.679-0.417,1.245-0.477l1.901-0.189v-0.526c0-0.417-0.093-0.717-0.275-0.899
			c-0.182-0.183-0.426-0.275-0.731-0.275c-0.476,0-1.096,0.045-1.854,0.135l-0.347,0.033l-0.035-0.535
			c0.822-0.157,1.538-0.235,2.153-0.235c0.613,0,1.059,0.145,1.334,0.436C184.869,33.377,185.007,33.825,185.007,34.428z
			 M181.498,36.765c0,0.753,0.309,1.127,0.928,1.127c0.268,0,0.563-0.031,0.883-0.095c0.32-0.063,0.572-0.127,0.76-0.196l0.28-0.1
			v-2.022l-1.823,0.19c-0.365,0.03-0.629,0.135-0.788,0.312C181.577,36.16,181.498,36.421,181.498,36.765z"/>
		<path fill="#828B9B" d="M187.254,38.351v-8.069h0.659v8.069H187.254z"/>
		<path fill="#828B9B" d="M191.79,33.265c-0.877,0-1.319,0.317-1.319,0.95c0,0.292,0.099,0.496,0.29,0.615
			c0.195,0.12,0.634,0.236,1.316,0.353c0.679,0.115,1.161,0.273,1.44,0.474c0.28,0.203,0.42,0.588,0.42,1.158
			c0,0.569-0.184,0.987-0.55,1.25c-0.364,0.266-0.899,0.397-1.608,0.397c-0.41,0-0.938-0.052-1.585-0.157l-0.327-0.045l0.046-0.591
			c0.835,0.126,1.476,0.189,1.922,0.189c0.448,0,0.796-0.078,1.046-0.234c0.25-0.157,0.375-0.421,0.375-0.794
			c0-0.372-0.104-0.62-0.308-0.743c-0.204-0.124-0.644-0.237-1.318-0.342c-0.675-0.104-1.151-0.252-1.426-0.446
			c-0.275-0.194-0.414-0.558-0.414-1.095c0-0.536,0.191-0.928,0.57-1.173c0.38-0.246,0.849-0.37,1.407-0.37
			c0.449,0,1.008,0.049,1.677,0.146l0.303,0.044l-0.021,0.593C192.927,33.327,192.283,33.265,191.79,33.265z"/>
	</g>
</g>
<g id="Layer_4">
</g>
<g id="Layer_2">
</g>
<g id="Layer_3">
</g>
</svg>
