<?xml version="1.0" encoding="utf-8"?>
<!-- Generator: Adobe Illustrator 16.0.0, SVG Export Plug-In . SVG Version: 6.00 Build 0)  -->
<!DOCTYPE svg PUBLIC "-//W3C//DTD SVG 1.1//EN" "http://www.w3.org/Graphics/SVG/1.1/DTD/svg11.dtd">
<svg version="1.1"
	 id="svg2" xmlns:dc="http://purl.org/dc/elements/1.1/" xmlns:rdf="http://www.w3.org/1999/02/22-rdf-syntax-ns#" xmlns:svg="http://www.w3.org/2000/svg" xmlns:cc="http://creativecommons.org/ns#"
	 xmlns="http://www.w3.org/2000/svg" xmlns:xlink="http://www.w3.org/1999/xlink" x="0px" y="0px" width="625px" height="277.113px"
	 viewBox="0 0 625 277.113" enable-background="new 0 0 625 277.113" xml:space="preserve">
<g id="g10" transform="matrix(1.25,0,0,-1.25,0,277.1125)">
	<g id="g12" transform="scale(0.1,0.1)">
		<g id="g14">
			<g>
				<defs>
					<path id="SVGID_1_" d="M1419.039,1122.392c9.391,386.336,306.121,385.949,405.289,247.508
						c90.352-126.121,108.891-557.347-171.199-554.168C1524.129,817.154,1422.84,904.342,1419.039,1122.392z M1653.129,1686.751
						c-386.34,0-540.918-259.293-540.918-548.082c0-300.156,152.27-559.453,540.918-559.453
						c387.492,0,539.942,271.555,539.231,541.812C2191.488,1450.228,2024.91,1686.751,1653.129,1686.751z"/>
				</defs>
				<clipPath id="SVGID_2_">
					<use xlink:href="#SVGID_1_"  overflow="visible"/>
				</clipPath>
				<g id="g16" clip-path="url(#SVGID_2_)">
					
						<linearGradient id="path28_1_" gradientUnits="userSpaceOnUse" x1="-1608.285" y1="-2992.4395" x2="-1607.285" y2="-2992.4395" gradientTransform="matrix(0 138.4413 138.4413 0 415929.7812 223232.9375)">
						<stop  offset="0" style="stop-color:#4C0C2B"/>
						<stop  offset="1" style="stop-color:#9D1A6B"/>
					</linearGradient>
					<path id="path28" fill="url(#path28_1_)" d="M1419.039,1122.392c9.391,386.336,306.121,385.949,405.289,247.508
						c90.352-126.121,108.891-557.347-171.199-554.168C1524.129,817.154,1422.84,904.342,1419.039,1122.392z M1653.129,1686.751
						c-386.34,0-540.918-259.293-540.918-548.082c0-300.156,152.27-559.453,540.918-559.453
						c387.492,0,539.942,271.555,539.231,541.812C2191.488,1450.228,2024.91,1686.751,1653.129,1686.751"/>
				</g>
			</g>
		</g>
		<g id="g30">
			<g>
				<defs>
					<path id="SVGID_3_" d="M4786.82,847.17v559.722h200.07v242.988h-200.07v293.441h-309.047V1649.88H4321v-242.988h156.773
						V878.967c0-300.086,209.203-478.422,429.984-515.328L5000,612.123C4871.281,628.435,4788,724.623,4786.82,847.17
						L4786.82,847.17z"/>
				</defs>
				<clipPath id="SVGID_4_">
					<use xlink:href="#SVGID_3_"  overflow="visible"/>
				</clipPath>
				<g id="g32" clip-path="url(#SVGID_4_)">
					
						<linearGradient id="path44_1_" gradientUnits="userSpaceOnUse" x1="-1603.4218" y1="-2992.1895" x2="-1602.4218" y2="-2992.1895" gradientTransform="matrix(1.250000e-08 197.46 197.46 -1.250000e-08 595496.25 316975.75)">
						<stop  offset="0" style="stop-color:#4C0C2B"/>
						<stop  offset="1" style="stop-color:#9D1A6B"/>
					</linearGradient>
					<path id="path44" fill="url(#path44_1_)" d="M4786.82,847.17v559.722h200.07v242.988h-200.07v293.441h-309.047V1649.88H4321
						v-242.988h156.773V878.967c0-300.086,209.203-478.422,429.984-515.328L5000,612.123
						C4871.281,628.435,4788,724.623,4786.82,847.17"/>
				</g>
			</g>
		</g>
		<g id="g46">
			<g>
				<defs>
					<path id="SVGID_5_" d="M2916.218,938.138c-244.789-273.906-468.968-16.078-239.375,96.406
						c67.578,23.047,159.297,24.031,239.375,24.031V938.138z M3227.539,935.826v420.734c0,15.352-1.008,29.801-2.469,43.852
						c-26.789,339.887-509.523,339.199-883.39,208.699l108.062-217.5c243.46,115.59,389.187,85.82,440.125,28.828
						c1.312-1.48,2.633-2.938,3.805-4.488c0.148-0.191,0.281-0.391,0.43-0.582c25.977-35.07,19.742-90.398,19.742-133.879
						c-318.188,0-656.773-42.27-656.773-391.164c0-265.25,332.367-435.914,679.656-183.094l51.523-124.32h297.672
						C3259.32,728.873,3227.539,853.935,3227.539,935.826z"/>
				</defs>
				<clipPath id="SVGID_6_">
					<use xlink:href="#SVGID_5_"  overflow="visible"/>
				</clipPath>
				<g id="g48" clip-path="url(#SVGID_6_)">
					
						<linearGradient id="path60_1_" gradientUnits="userSpaceOnUse" x1="-1608.2968" y1="-2992.4395" x2="-1607.2963" y2="-2992.4395" gradientTransform="matrix(0 138.3975 138.3975 0 416917.9062 223167.2812)">
						<stop  offset="0" style="stop-color:#4C0C2B"/>
						<stop  offset="1" style="stop-color:#9D1A6B"/>
					</linearGradient>
					<path id="path60" fill="url(#path60_1_)" d="M2916.218,938.138c-244.789-273.906-468.968-16.078-239.375,96.406
						c67.578,23.047,159.297,24.031,239.375,24.031V938.138z M3227.539,935.826v420.734c0,15.352-1.008,29.801-2.469,43.852
						c-26.789,339.887-509.523,339.199-883.39,208.699l108.062-217.5c243.46,115.59,389.187,85.82,440.125,28.828
						c1.312-1.48,2.633-2.938,3.805-4.488c0.148-0.191,0.281-0.391,0.43-0.582c25.977-35.07,19.742-90.398,19.742-133.879
						c-318.188,0-656.773-42.27-656.773-391.164c0-265.25,332.367-435.914,679.656-183.094l51.523-124.32h297.672
						C3259.32,728.873,3227.539,853.935,3227.539,935.826"/>
				</g>
			</g>
		</g>
		<g id="g62">
			<g>
				<defs>
					<path id="SVGID_7_" d="M3702.539,1379.201c0,103.609,165.922,152.121,427.617,32.598l90.523,219.793
						c-352.227,106.449-833.219,116.051-836.328-252.391c-1.492-176.531,111.781-271.57,274.797-332.172
						c112.953-41.984,276.008-63.727,275.539-153.672c-0.609-117.516-253.391-135.523-483.5,22.547l-92.969-238.344
						c313.828-156.188,897.438-160.609,894.344,230.891C4249.5,1295.47,3702.539,1229.13,3702.539,1379.201z"/>
				</defs>
				<clipPath id="SVGID_8_">
					<use xlink:href="#SVGID_7_"  overflow="visible"/>
				</clipPath>
				<g id="g64" clip-path="url(#SVGID_8_)">
					
						<linearGradient id="path76_1_" gradientUnits="userSpaceOnUse" x1="-1608.1561" y1="-2992.4316" x2="-1607.1561" y2="-2992.4316" gradientTransform="matrix(1.250000e-08 139.6537 139.6537 -1.250000e-08 421710 225163.2188)">
						<stop  offset="0" style="stop-color:#4C0C2B"/>
						<stop  offset="1" style="stop-color:#9D1A6B"/>
					</linearGradient>
					<path id="path76" fill="url(#path76_1_)" d="M3702.539,1379.201c0,103.609,165.922,152.121,427.617,32.598l90.523,219.793
						c-352.227,106.449-833.219,116.051-836.328-252.391c-1.492-176.531,111.781-271.57,274.797-332.172
						c112.953-41.984,276.008-63.727,275.539-153.672c-0.609-117.516-253.391-135.523-483.5,22.547l-92.969-238.344
						c313.828-156.188,897.438-160.609,894.344,230.891C4249.5,1295.47,3702.539,1229.13,3702.539,1379.201"/>
				</g>
			</g>
		</g>
		<g id="g78">
			<g>
				<defs>
					<path id="SVGID_9_" d="M981.617,2216.88L533.637,972.552L319.094,1644.49H0l357.25-917.656
						c30.418-78.148,30.43-164.867-0.031-242.977C317.289,381.467,250.84,293.834,88.871,272.06V-0.002
						c315.355,0,485.824,193.859,637.937,618.75L1322.98,2216.88H981.617z"/>
				</defs>
				<clipPath id="SVGID_10_">
					<use xlink:href="#SVGID_9_"  overflow="visible"/>
				</clipPath>
				<g id="g80" clip-path="url(#SVGID_10_)">
					
						<linearGradient id="path92_1_" gradientUnits="userSpaceOnUse" x1="-1581.6991" y1="-2990.9863" x2="-1580.6995" y2="-2990.9863" gradientTransform="matrix(1.250000e-08 -218.9913 -218.9913 -1.250000e-08 -654338 -344101.625)">
						<stop  offset="0" style="stop-color:#67BD2E"/>
						<stop  offset="1" style="stop-color:#286729"/>
					</linearGradient>
					<path id="path92" fill="url(#path92_1_)" d="M981.617,2216.88L533.637,972.552L319.094,1644.49H0l357.25-917.656
						c30.418-78.148,30.43-164.867-0.031-242.977C317.289,381.467,250.84,293.834,88.871,272.06V-0.002
						c315.355,0,485.824,193.859,637.937,618.75L1322.98,2216.88H981.617"/>
				</g>
			</g>
		</g>
	</g>
</g>
</svg>
