<?xml version="1.0" encoding="utf-8"?>
<!-- Generator: Adobe Illustrator 16.0.0, SVG Export Plug-In . SVG Version: 6.00 Build 0)  -->
<!DOCTYPE svg PUBLIC "-//W3C//DTD SVG 1.1//EN" "http://www.w3.org/Graphics/SVG/1.1/DTD/svg11.dtd">
<svg version="1.1" id="Layer_1" xmlns="http://www.w3.org/2000/svg" xmlns:xlink="http://www.w3.org/1999/xlink" x="0px" y="0px"
	 width="589.738px" height="202.499px" viewBox="0 0 589.738 202.499" enable-background="new 0 0 589.738 202.499"
	 xml:space="preserve">
<g id="XMLID_1464_">
	<path id="XMLID_1531_" fill="#FFFFFF" d="M267.198,103.657l0.043-12.396c0.034-9.365-1.77-16.87-5.517-22.944
		c-3.848-6.226-8.794-9.381-14.702-9.381c-0.011,0-0.023,0-0.034,0h-0.001c-5.235,0.017-10.47,0.035-15.704,0.055l-5.972,0.021
		l-0.001,12.097l0.771,0.246c1.364,0.438,2.727,0.868,4.089,1.294l-0.038,58.073c-1.433,0.84-2.864,1.691-4.295,2.556l-0.536,0.323
		l-0.001,12.207l1.405-0.389c6.649-1.846,13.503-3.609,20.373-5.242c5.805-1.387,10.68-5.588,14.489-12.487
		C265.322,120.875,267.165,113.013,267.198,103.657z M255.8,104.79c-0.017,5.876-0.91,10.662-2.728,14.634
		c-1.712,3.742-4.039,5.937-6.916,6.521c-1.567,0.316-3.133,0.639-4.698,0.968l0.084-53.325c1.664-0.068,3.327-0.135,4.991-0.2
		c2.821-0.109,5.003,1.438,6.673,4.73c1.763,3.484,2.647,8.146,2.63,13.855L255.8,104.79z"/>
	<path id="XMLID_1528_" fill="#FFFFFF" d="M270.592,71.25l-0.197,51.446c-1.416,0.683-2.831,1.374-4.246,2.073l-0.615,0.305
		l-0.039,11.032l1.333-0.269c6.198-1.254,12.544-2.436,18.86-3.513l0.918-0.156l0.046-10.461l-4.887-0.733l0.072-17.077
		c2.167-0.23,4.331-0.453,6.456-0.667c1.744-0.093,3.048,0.58,4.002,2.061c1.05,1.631,1.576,4.053,1.562,7.196l-0.019,3.978
		c-0.02,4.072,0.621,7.369,1.905,9.798c0.984,1.861,3.07,3.953,7.434,3.322c1.579-0.227,3.159-0.446,4.737-0.661l0.956-0.129
		l0.048-10.199l-2.192-0.188c-0.522-0.024-0.823-0.207-1.035-0.629c-0.215-0.426-0.47-1.28-0.462-2.926l0.016-3.479
		c0.021-4.231-0.591-7.803-1.819-10.614c-1.033-2.364-2.623-4.154-4.741-5.339c1.857-1.666,3.33-3.633,4.391-5.866
		c1.312-2.765,1.985-5.984,2.003-9.57c0.03-6.476-1.522-11.656-4.614-15.397c-3.165-3.825-7.543-5.764-13.013-5.764
		c-0.012,0-0.024,0-0.036,0l-21.646,0.058l-0.038,10.973l0.802,0.232C267.886,70.478,269.239,70.866,270.592,71.25z M281.973,72.169
		c1.809-0.053,3.618-0.104,5.427-0.155c2.087-0.059,3.602,0.658,4.648,2.184c1.122,1.638,1.685,3.931,1.672,6.812
		c-0.013,2.871-0.597,5.115-1.734,6.669c-1.098,1.496-2.715,2.306-4.947,2.476c-1.715,0.129-3.43,0.262-5.144,0.396L281.973,72.169z
		"/>
	<path id="XMLID_1527_" fill="#FFFFFF" d="M387.999,165.565c-0.233-0.2-0.5-0.284-0.801-0.249c-0.3,0.032-0.55,0.166-0.751,0.399
		c-0.199,0.233-0.282,0.5-0.25,0.8c0.067,0.969,0.083,1.834,0.051,2.602l-13.559-0.1c3.401-2.367,6.204-4.786,8.405-7.256
		c4.837-5.403,5.955-10.09,3.353-14.061c-0.668-0.998-1.568-1.758-2.703-2.275c-1.133-0.517-2.301-0.776-3.501-0.776
		c-1.202,0-2.42,0.118-3.653,0.352c-1.935,0.467-3.637,1.31-5.103,2.526c-1.468,1.219-2.303,2.676-2.502,4.378
		c-0.101,0.835-0.026,1.678,0.226,2.526c0.25,0.851,0.658,1.578,1.225,2.177c1.267,1.234,2.636,1.702,4.104,1.401
		c1.2-0.267,2.183-0.935,2.951-2c0.867-1.203,1.033-2.269,0.501-3.203c-0.634-1.101-1.885-1.317-3.753-0.651
		c-0.268,0.102-0.467,0.292-0.601,0.576c-0.134,0.282-0.15,0.567-0.051,0.852c0.102,0.282,0.292,0.491,0.577,0.625
		c0.282,0.132,0.575,0.148,0.875,0.049c0.433-0.167,0.751-0.25,0.95-0.25c-0.032,0.201-0.134,0.435-0.3,0.701
		c-0.433,0.601-0.967,0.968-1.601,1.101c-0.7,0.166-1.385-0.1-2.051-0.801c-0.701-0.7-0.985-1.635-0.851-2.802
		c0.132-1.134,0.749-2.159,1.85-3.077c1.103-0.918,2.453-1.56,4.053-1.927c1.603-0.4,3.095-0.451,4.48-0.15
		c1.383,0.301,2.376,0.918,2.977,1.853c2.001,3.035,0.967,6.82-3.103,11.357c-2.869,3.202-6.472,6.12-10.808,8.756h-0.451v0.25
		l-0.051,0.051c-0.266,0.134-0.442,0.35-0.524,0.65c-0.085,0.3-0.051,0.584,0.1,0.851c0.15,0.266,0.375,0.44,0.676,0.525
		c0.298,0.081,0.583,0.041,0.849-0.126l18.815,0.1v-0.301c0.2-0.198,0.316-0.448,0.349-0.749c0.134-1.167,0.134-2.485,0-3.953
		C388.366,166.017,388.232,165.765,387.999,165.565z"/>
	<path id="XMLID_1524_" fill="#FFFFFF" d="M415.041,153.105c-0.016-0.132-0.032-0.307-0.049-0.523
		c-0.018-0.218-0.026-0.408-0.026-0.577c-0.032-0.365-0.066-0.649-0.099-0.849v-0.301l-0.1-0.4
		c-0.233-0.534-0.618-1.033-1.151-1.502l-0.551-0.5c-0.166-0.132-0.301-0.25-0.4-0.352c-1.135-1.232-2.235-2.134-3.302-2.701
		c-1.068-0.566-2.402-0.934-4.002-1.1c-0.135-0.033-0.252-0.051-0.352-0.051h-0.1h-0.1h-0.102c-1.801,0.066-3.635,0.55-5.503,1.451
		c-1.868,0.9-3.219,2.103-4.054,3.603c-1.267,2.236-1.852,5.471-1.75,9.707c0.132,4.47,1.001,7.672,2.602,9.607
		c0.666,0.834,1.567,1.551,2.703,2.15c1.1,0.634,2.183,0.984,3.251,1.052c1.5,0.1,2.469,0.15,2.901,0.15
		c1.401-0.035,2.485-0.233,3.253-0.602c2.868-1.366,4.902-4.069,6.104-8.106c0.935-3.168,1.217-6.47,0.851-9.905
		C415.067,153.322,415.058,153.239,415.041,153.105z M412.115,162.664c-1.001,3.401-2.636,5.637-4.904,6.703
		c-0.5,0.233-1.283,0.352-2.352,0.352c-0.5,0-1.434-0.033-2.803-0.1c-0.7-0.067-1.474-0.333-2.324-0.803
		c-0.852-0.467-1.527-0.998-2.027-1.6c-1.302-1.603-2.002-4.354-2.102-8.257c-0.1-3.802,0.384-6.654,1.45-8.556
		c0.634-1.101,1.71-2.019,3.229-2.751c1.517-0.733,3.025-1.136,4.528-1.202c1.434,0.168,2.583,0.469,3.452,0.901
		c0.867,0.435,1.802,1.184,2.803,2.252c0.132,0.167,0.314,0.35,0.55,0.55c0.333,0.301,0.516,0.449,0.551,0.449
		c0.064,0.069,0.132,0.16,0.199,0.276c0.066,0.118,0.126,0.209,0.174,0.276c0.051,0.066,0.092,0.115,0.126,0.148v0.102
		c0,0.166,0.017,0.432,0.051,0.8c0.033,0.166,0.058,0.359,0.075,0.574c0.017,0.218,0.033,0.395,0.049,0.526
		c0.017,0.134,0.026,0.217,0.026,0.25C413.199,156.759,412.947,159.795,412.115,162.664z"/>
	<path id="XMLID_1523_" fill="#FFFFFF" d="M428.877,169.568c-0.701,0.032-1.552,0.051-2.551,0.051l-0.15-23.418
		c0.166-0.233,0.215-0.491,0.15-0.775c-0.067-0.283-0.218-0.508-0.451-0.675c-0.268-0.201-0.55-0.268-0.851-0.201
		c-0.301,0.067-0.534,0.218-0.701,0.451c-1.5,2.201-2.77,3.72-3.803,4.553c-0.233,0.201-0.366,0.451-0.4,0.751
		c-0.032,0.299,0.051,0.566,0.252,0.801c0.199,0.233,0.448,0.367,0.749,0.399c0.301,0.035,0.566-0.051,0.8-0.249
		c0.701-0.567,1.386-1.235,2.054-2.003l0.15,20.415c-1.337,0.034-2.47,0.1-3.403,0.201c-0.301,0.032-0.543,0.166-0.726,0.399
		c-0.183,0.234-0.258,0.508-0.226,0.825c0.033,0.316,0.167,0.568,0.4,0.751s0.516,0.258,0.851,0.226
		c1.034-0.1,2.334-0.167,3.903-0.201c2.035,0,3.385-0.032,4.054-0.1c0.332,0,0.599-0.118,0.8-0.35
		c0.199-0.235,0.29-0.51,0.274-0.826c-0.017-0.316-0.143-0.574-0.374-0.775C429.443,169.619,429.177,169.535,428.877,169.568z"/>
	<path id="XMLID_1520_" fill="#FFFFFF" d="M459.698,151.156c-0.433-1.302-1.108-2.47-2.026-3.503
		c-0.918-1.034-2.009-1.802-3.275-2.304c-0.534-0.198-1.144-0.357-1.828-0.475c-0.685-0.115-1.259-0.175-1.726-0.175h-1.901h-1.5
		c-0.102,0-0.218,0.017-0.352,0.051h-0.199c-2.67,0.199-4.922,1.334-6.756,3.401c1.068-3.234,2.818-5.812,5.253-7.73
		c2.436-1.917,5.422-2.978,8.958-3.176c0.301,0,0.559-0.118,0.775-0.352c0.215-0.233,0.316-0.5,0.301-0.801
		c-0.019-0.3-0.143-0.558-0.376-0.775c-0.233-0.217-0.501-0.309-0.8-0.273c-4.805,0.266-8.699,1.9-11.685,4.901
		c-2.985,3.004-4.827,6.904-5.527,11.709c-0.335,2.336-0.502,4.153-0.502,5.454c-0.032,0.5-0.049,1-0.049,1.501
		c0,3.57,0.933,6.539,2.801,8.907c2.168,2.735,5.138,4.019,8.906,3.852c1.702-0.066,3.285-0.435,4.754-1.101
		c1.434-0.7,2.644-1.602,3.627-2.702c0.984-1.102,1.785-2.317,2.402-3.651c0.617-1.335,1.058-2.754,1.326-4.255
		c0.3-1.4,0.384-2.843,0.249-4.327C460.415,153.849,460.133,152.455,459.698,151.156z M458.098,159.261
		c-0.467,2.77-1.567,5.078-3.302,6.931c-1.736,1.85-3.97,2.843-6.705,2.977c-3.036,0.1-5.388-0.918-7.055-3.052
		c-1.101-1.369-1.819-3.068-2.152-5.104c0.233-0.268,0.316-0.585,0.25-0.952c-0.233-0.932-0.35-1.9-0.35-2.902
		c0.233-2.732,1.101-5.078,2.602-7.029c1.501-1.952,3.403-3.01,5.704-3.177c0.066,0,0.15-0.016,0.25-0.051h0.102
		c0.8,0.035,1.533,0.043,2.201,0.024c0.666-0.016,1.351,0.011,2.051,0.075c0.7,0.069,1.334,0.218,1.9,0.451
		c1.836,0.7,3.17,2.177,4.005,4.429C458.432,154.133,458.598,156.592,458.098,159.261z"/>
	<path id="XMLID_1482_" fill="#FFFFFF" d="M337.856,139.748c0,0-55.405,2.793-79.616,9.777c0,0,5.587,7.449,21.883,6.519
		C296.418,155.112,311.783,150.456,337.856,139.748z"/>
	<path id="XMLID_1476_" fill="#FFFFFF" d="M277.448,166.568c0,0,5.454,5.127,18.229,2.137c12.775-2.989,24.299-8.8,43.465-20.883
		C339.143,147.822,295.655,157.691,277.448,166.568z"/>
	<path id="XMLID_1475_" fill="#FFFFFF" d="M344.99,152.812c0,0-30.953,15.362-43.046,25.367c0,0,5.042,2.867,14.119-1.714
		S332.758,165.408,344.99,152.812z"/>
	<path id="XMLID_1474_" fill="#FFFFFF" d="M536.808,168.705c12.775,2.99,18.229-2.137,18.229-2.137
		c-18.207-8.877-61.695-18.746-61.695-18.746C512.509,159.905,524.031,165.716,536.808,168.705z"/>
	<path id="XMLID_1473_" fill="#FFFFFF" d="M516.423,176.466c9.076,4.581,14.119,1.714,14.119,1.714
		c-12.095-10.005-43.047-25.367-43.047-25.367C499.727,165.408,507.346,171.885,516.423,176.466z"/>
	<path id="XMLID_1472_" fill="#FFFFFF" d="M356.738,181.699c-0.363-0.252-0.568-0.337-0.568-0.337l-0.25,0.333
		c-0.049-0.003,0.657,0.65,0.563,1.84c-0.081,1.153-1.036,2.811-2.756,3.904c-0.822,0.578-1.846,0.913-2.851,1.018
		c-1.018,0.068-2.042-0.154-3.059-0.698c-0.272-0.13-0.504-0.271-0.716-0.412c-0.172-0.093-0.679-0.501-0.819-0.588
		c-0.514-0.423-1.011-0.855-1.464-1.334c-0.904-0.947-1.566-2.113-1.888-3.449c-0.689-2.688,0.07-5.841,1.141-8.564
		c1.113-2.748,2.535-5.224,3.847-7.282c1.318-2.062,2.562-3.697,3.425-4.85c0.884-1.14,1.39-1.791,1.39-1.791l-0.306-0.281
		c0,0-0.6,0.573-1.649,1.575c-1.04,1.015-2.478,2.516-4.095,4.437c-1.618,1.918-3.4,4.283-4.88,7.154
		c-1.437,2.844-2.775,6.309-2.301,10.199c0.237,1.914,0.974,3.842,2.105,5.426l0.914,1.114l1.018,0.969
		c0.492,0.393,0.594,0.495,1.09,0.813c0.444,0.294,0.885,0.543,1.313,0.742c1.752,0.839,3.83,1.045,5.603,0.62
		c1.79-0.399,3.213-1.38,4.248-2.422c2.051-2.144,2.642-4.811,2.081-6.518C357.586,182.472,357.107,181.941,356.738,181.699z"/>
	<path id="XMLID_1471_" fill="#FFFFFF" d="M479.121,165.219c-1.617-1.921-3.056-3.422-4.096-4.437
		c-1.049-1.002-1.648-1.575-1.648-1.575l-0.307,0.281c0,0,0.506,0.651,1.391,1.791c0.862,1.152,2.106,2.788,3.424,4.85
		c1.312,2.059,2.733,4.534,3.848,7.282c1.07,2.724,1.831,5.876,1.141,8.564c-0.322,1.336-0.984,2.502-1.889,3.449
		c-0.453,0.479-0.949,0.911-1.464,1.334c-0.14,0.087-0.647,0.495-0.819,0.588c-0.211,0.141-0.443,0.282-0.716,0.412
		c-1.017,0.544-2.041,0.767-3.06,0.698c-1.006-0.104-2.029-0.439-2.852-1.018c-1.72-1.094-2.674-2.751-2.755-3.904
		c-0.093-1.189,0.611-1.843,0.563-1.84l-0.249-0.333c0,0-0.205,0.085-0.568,0.337c-0.369,0.242-0.848,0.772-1.135,1.618
		c-0.562,1.707,0.028,4.374,2.081,6.518c1.035,1.042,2.457,2.022,4.247,2.422c1.772,0.425,3.85,0.219,5.603-0.62
		c0.43-0.199,0.87-0.448,1.313-0.742c0.497-0.318,0.599-0.421,1.091-0.813l1.018-0.969l0.913-1.114
		c1.132-1.584,1.869-3.512,2.105-5.426c0.475-3.891-0.864-7.355-2.301-10.199C482.521,169.502,480.739,167.137,479.121,165.219z"/>
	<path id="XMLID_1470_" fill="#FFFFFF" d="M556.38,156.044c16.295,0.931,21.883-6.519,21.883-6.519
		c-24.211-6.984-79.615-9.777-79.615-9.777C524.72,150.456,540.084,155.112,556.38,156.044z"/>
	<path id="XMLID_1465_" fill="#FFFFFF" d="M589.737,133.6l-0.538-0.323c-1.44-0.866-2.882-1.72-4.324-2.562l-0.038-58.064
		c1.373-0.426,2.747-0.856,4.12-1.293l0.772-0.246l-0.002-12.097l-1.104-0.004c-5.633-0.021-11.265-0.042-16.898-0.061l-0.913-0.004
		l-0.178,0.896c-3.472,17.551-7.022,35.023-10.57,52.016c-3.497-17.363-7.141-34.868-10.847-52.106l-0.188-0.872l-18.846-0.049
		l0.047,10.575l0.761,0.248c1.37,0.447,2.741,0.898,4.112,1.355l0.208,50.282l-3.264,0.492c-0.649-0.245-1.298-0.491-1.947-0.734
		c-4.45-20.217-9.149-40.872-13.968-61.398l-0.219-0.854l-11.133-0.021l-0.198,0.859c-4.325,18.676-8.854,37.733-13.466,56.655
		l-3.164,0.35c1.218-3.003,1.827-6.614,1.808-10.806l-0.161-35.827c1.354-0.353,2.71-0.707,4.065-1.064l0.83-0.218l-0.047-9.968
		l-21.157-0.03l0.04,9.727l0.804,0.227c1.367,0.386,2.735,0.773,4.103,1.164l0.151,35.342c0.014,2.996-0.511,5.309-1.559,6.872
		c-1.257,1.876-2.49,2.016-3.313,1.948c-1.623-0.122-2.884-0.836-3.854-2.182c-1.017-1.414-1.539-3.702-1.551-6.801l-0.003-1.044
		l-1.043-0.059c-2.983-0.167-5.968-0.32-8.952-0.461l-0.912-0.043l-0.168,0.689c-1.595-0.075-3.19-0.151-4.785-0.22l-1.097-0.046
		l-0.416,7.854c-3.563-0.17-7.187-0.322-10.799-0.45l-0.093-41.8l4.9-1.251l-0.023-9.495l-20.048-0.01l-1.109,0.009l0.012,9.403
		l0.825,0.217c1.35,0.355,2.698,0.713,4.048,1.069l0.067,42.585c-1.143,0.271-2.286,0.544-3.429,0.817
		c-0.626-0.134-1.253-0.268-1.879-0.399l-14.04-53.854h-11c0,0-3.451,13.285-7.058,27.169c0.426-1.931,0.647-4.006,0.65-6.229
		c0.007-6.099-1.601-11.126-4.781-14.939c-3.234-3.875-7.686-5.84-13.229-5.84c-0.002,0-0.005,0-0.006,0l-19.497,0.016v-0.001
		l-21.158,0.026l-0.042,9.809l0.831,0.219c1.344,0.352,2.689,0.702,4.033,1.051l-0.135,32.793c-0.016,4.01-0.783,7.071-2.278,9.098
		c-1.465,1.982-3.423,3.059-5.989,3.289c-2.47,0.225-4.338-0.5-5.708-2.208c-1.445-1.8-2.167-4.792-2.148-8.895l0.156-33.812
		c1.371-0.404,2.742-0.807,4.113-1.205l0.794-0.231l0.045-9.897l-21.158,0.036l-0.048,10.189l0.824,0.222
		c1.346,0.363,2.691,0.725,4.038,1.083l-0.162,34.366c-0.038,7.854,1.729,13.802,5.252,17.679c3.052,3.366,7.024,5.064,11.833,5.064
		c0.759,0,1.54-0.043,2.34-0.128c5.771-0.61,10.516-3.146,14.103-7.537c3.555-4.354,5.371-10.282,5.399-17.623l0.122-32.415
		c1.078-0.301,2.156-0.599,3.233-0.896c1.055,0.272,2.11,0.545,3.165,0.816l-0.146,43.616c-1.376,0.446-2.754,0.898-4.13,1.355
		l-0.756,0.279l-0.035,9.59l1.194-0.087c6.267-0.459,12.654-0.846,18.983-1.148l1.053-0.051l0.023-9.435l-0.873-0.191
		c-1.347-0.295-2.694-0.589-4.041-0.88l0.034-11.908c2.224-0.076,4.449-0.146,6.673-0.209c5.56-0.158,10.018-2.199,13.253-6.067
		c1.787-2.139,3.064-4.674,3.86-7.554c-2.598,10-5.227,20.119-6.664,25.645c-0.874,0.192-1.747,0.386-2.62,0.581l-0.866,0.193
		l-0.017,9.47l1.147-0.038c5.184-0.173,10.441-0.296,15.625-0.363l1.094-0.015l0.007-9.369l-0.864-0.196
		c-0.696-0.158-1.394-0.316-2.09-0.473l1.562-6.543c4.397-0.044,8.804-0.059,13.124-0.048l1.559,6.518
		c-0.701,0.163-1.401,0.328-2.103,0.493l-0.854,0.201l0.002,9.366l1.104,0.004c5.064,0.016,10.172,0.084,15.193,0.199
		c11.382,0.26,22.843,0.775,34.073,1.536l1.187,0.081l-0.018-5.356c0.27,0.396,0.544,0.788,0.846,1.153
		c2.986,3.628,7.075,5.695,12.15,6.146c0.496,0.044,0.983,0.066,1.462,0.065c4.152,0,7.646-1.657,10.404-4.939
		c0.952-1.132,1.737-2.438,2.39-3.877l0.042,9.213l0.984,0.107c5.18,0.562,10.42,1.191,15.577,1.87l1.259,0.165l-0.048-10.152
		l-0.712-0.27c-0.761-0.288-1.522-0.574-2.283-0.857c0.519-2.372,1.037-4.751,1.555-7.136c4.354,0.42,8.73,0.873,13.036,1.351
		c0.548,2.61,1.097,5.231,1.646,7.862l-2.952,0.405l0.047,10.251l0.939,0.142c5.062,0.762,10.139,1.588,15.103,2.455
		c6.173,1.078,12.378,2.256,18.451,3.504l1.336,0.276l-0.039-11.087l-0.611-0.305c-1.426-0.71-2.853-1.41-4.279-2.102l-0.042-11.01
		c-0.223-7.313-0.446-14.616-0.67-21.908c3.425,15.492,6.783,31.146,10.012,46.666l0.146,0.704l0.703,0.153
		c2.037,0.442,4.076,0.896,6.113,1.361l1.091,0.249l0.238-1.092c3.278-14.952,6.573-30.371,9.821-45.972l-0.564,24.453l0.018,11.702
		c-1.288,0.164-2.575,0.328-3.864,0.49l-0.972,0.123l0.022,11.399l0.848,0.204c6.31,1.52,12.618,3.152,18.752,4.854l1.404,0.389
		L589.737,133.6z M378.575,86.248c-1.111,1.611-2.722,2.417-4.925,2.465c-2.202,0.047-4.404,0.1-6.606,0.156l0.052-18.295
		c2.211-0.02,4.422-0.037,6.635-0.053c0.022,0,0.044,0,0.065,0c2.144,0,3.715,0.781,4.802,2.386
		c1.173,1.737,1.766,4.003,1.762,6.735C380.355,82.313,379.754,84.536,378.575,86.248z M399.822,94.488
		c1.288-5.395,2.574-10.783,3.859-16.17c1.281,5.382,2.564,10.763,3.85,16.147C404.962,94.466,402.392,94.473,399.822,94.488z
		 M506.603,98.299c1.271-5.913,2.542-11.88,3.796-17.808c1.342,6.21,2.666,12.392,3.953,18.449
		C511.771,98.718,509.174,98.502,506.603,98.299z"/>
</g>
<path id="XMLID_533_" fill="#FFFFFF" d="M413.469,191.471c-0.145-0.51-0.347-0.996-0.6-1.449l1.165-2.452
	c-0.403-0.495-0.854-0.948-1.351-1.351l-2.451,1.166c-0.454-0.254-0.94-0.456-1.451-0.601l-0.911-2.563
	c-0.312-0.032-0.631-0.05-0.952-0.05s-0.64,0.018-0.953,0.05l-0.911,2.563c-0.51,0.145-0.996,0.347-1.45,0.601l-2.452-1.166
	c-0.495,0.402-0.947,0.855-1.35,1.351l1.166,2.452c-0.254,0.453-0.456,0.939-0.601,1.449l-2.563,0.912
	c-0.033,0.312-0.05,0.631-0.05,0.952c0,0.322,0.017,0.64,0.05,0.953l2.563,0.911c0.145,0.511,0.347,0.996,0.601,1.45l-1.166,2.451
	c0.402,0.496,0.854,0.948,1.35,1.351c0,0,3.393-0.71,3.902-0.564l0.911,2.562c0.313,0.033,0.632,0.05,0.953,0.05
	s0.64-0.017,0.952-0.05l0.911-2.562c0.511-0.146,0.997-0.348,1.451-0.601l2.451,1.165c0.496-0.402,0.947-0.854,1.351-1.351
	l-1.165-2.451c0.252-0.454,0.455-0.939,0.6-1.45l2.563-0.911c0.032-0.313,0.05-0.631,0.05-0.953c0-0.321-0.018-0.64-0.05-0.952
	L413.469,191.471z M406.918,196.266c-1.618,0-2.93-1.312-2.93-2.931s1.312-2.93,2.93-2.93s2.93,1.312,2.93,2.93
	S408.536,196.266,406.918,196.266z"/>
<g id="XMLID_518_">
	<path id="XMLID_529_" fill="#FFFFFF" d="M415.918,32.993c-0.172-0.607-0.414-1.186-0.715-1.726l1.388-2.919
		c-0.479-0.589-1.018-1.128-1.608-1.607l-2.917,1.388c-0.541-0.302-1.119-0.542-1.728-0.715l-1.085-3.052
		c-0.372-0.038-0.751-0.059-1.134-0.059s-0.762,0.021-1.135,0.059l-1.085,3.052c-0.606,0.173-4.645-0.673-4.645-0.673
		c-0.589,0.479-1.128,1.019-1.606,1.607l1.387,2.919c-0.302,0.54-0.542,1.118-0.715,1.726l-3.052,1.085
		c-0.038,0.373-0.059,0.752-0.059,1.135s0.021,0.761,0.059,1.134l3.052,1.085c0.173,0.607,0.413,1.187,0.715,1.727l-1.387,2.918
		c0.479,0.59,1.018,1.129,1.606,1.607l2.919-1.387c0.541,0.302,1.119,0.542,1.726,0.715l1.085,3.051
		c0.373,0.039,0.752,0.06,1.135,0.06s0.762-0.021,1.134-0.06l1.085-3.051c0.608-0.173,1.187-0.413,1.728-0.715l2.917,1.387
		c0.591-0.479,1.129-1.018,1.608-1.607l-1.388-2.918c0.302-0.54,0.543-1.119,0.715-1.727l3.051-1.085
		c0.039-0.373,0.06-0.751,0.06-1.134s-0.021-0.762-0.06-1.135L415.918,32.993z M408.119,38.701c-1.926,0-3.487-1.562-3.487-3.488
		c0-1.927,1.562-3.488,3.487-3.488c1.927,0,3.488,1.562,3.488,3.488C411.607,37.139,410.046,38.701,408.119,38.701z"/>
	<path id="XMLID_528_" fill="#FFFFFF" d="M388.801,39.91c-0.499-0.469-1.024-0.777-1.509-1.003c-0.97-0.455-1.788-0.589-2.331-0.688
		c-0.548-0.088-0.842-0.1-0.842-0.1s0.287,0.067,0.801,0.255c0.511,0.188,1.26,0.502,2.082,1.048
		c0.805,0.534,1.703,1.436,1.771,2.631c0.023,0.294-0.009,0.604-0.086,0.919c-0.021,0.071-0.034,0.175-0.06,0.22l-0.097,0.275
		c-0.068,0.185-0.133,0.297-0.209,0.452c-0.312,0.608-0.767,1.145-1.371,1.497c-1.188,0.715-2.907,0.775-4.436,0.084
		c-0.765-0.327-1.494-0.805-2.092-1.435c-0.547-0.581-1.19-1.532-1.792-2.382c-1.243-1.752-2.462-3.667-3.841-5.585
		c-1.372-1.919-2.963-3.842-5.019-5.415c-2.029-1.574-4.723-2.626-7.341-2.532c-0.649,0.013-1.288,0.071-1.912,0.169
		c-0.332,0.064-0.568,0.096-0.975,0.19l-0.82,0.221c-1.283,0.402-2.407,0.961-3.401,1.723c-1.992,1.513-3.289,3.692-3.76,5.882
		c-0.479,2.199-0.117,4.409,0.794,6.123c0.904,1.735,2.39,2.879,3.776,3.466c1.401,0.608,2.715,0.725,3.756,0.747
		c0.525,0.006,0.99-0.021,1.391-0.078c0.402-0.039,0.739-0.085,1.01-0.146c0.541-0.105,0.83-0.162,0.83-0.162
		s-0.293,0.007-0.843,0.021c-0.273,0.016-0.611,0.003-1.005-0.024c-0.395-0.007-0.843-0.07-1.34-0.139
		c-0.987-0.152-2.176-0.463-3.333-1.138c-1.161-0.654-2.238-1.762-2.827-3.222c-0.608-1.444-0.723-3.238-0.196-4.945
		c0.491-1.711,1.617-3.322,3.204-4.367c0.784-0.522,1.7-0.939,2.581-1.18l0.829-0.188L360.896,31
		c0.508-0.058,1.015-0.082,1.518-0.071c2.013,0.055,3.919,0.784,5.572,2.088c1.66,1.297,3.063,3.042,4.409,4.833
		c1.337,1.805,2.583,3.701,3.903,5.512c0.706,0.908,1.277,1.76,2.237,2.664c0.919,0.842,1.993,1.461,3.111,1.837
		c2.224,0.708,4.746,0.469,6.405-0.944c0.829-0.676,1.372-1.575,1.653-2.447c0.064-0.218,0.133-0.479,0.164-0.671l0.043-0.289
		c0.027-0.14,0.028-0.228,0.042-0.343c0.046-0.432,0.032-0.867-0.055-1.277C389.739,41.061,389.294,40.377,388.801,39.91z"/>
	<path id="XMLID_523_" fill="#FFFFFF" d="M460.353,30.454c-0.994-0.762-2.118-1.32-3.401-1.723l-0.82-0.221
		c-0.406-0.095-0.643-0.126-0.975-0.19c-0.623-0.098-1.262-0.156-1.911-0.169c-2.618-0.094-5.312,0.958-7.341,2.532
		c-2.056,1.573-3.647,3.496-5.019,5.415c-1.38,1.918-2.599,3.833-3.842,5.585c-0.601,0.85-1.244,1.801-1.791,2.382
		c-0.599,0.63-1.328,1.107-2.093,1.435c-1.528,0.691-3.247,0.631-4.436-0.084c-0.604-0.353-1.06-0.889-1.37-1.497
		c-0.077-0.155-0.142-0.268-0.21-0.452l-0.097-0.275c-0.025-0.045-0.039-0.148-0.06-0.22c-0.077-0.315-0.108-0.625-0.085-0.919
		c0.066-1.195,0.966-2.097,1.771-2.631c0.821-0.546,1.57-0.859,2.081-1.048c0.515-0.188,0.802-0.255,0.802-0.255
		s-0.294,0.012-0.843,0.1c-0.543,0.1-1.361,0.233-2.331,0.688c-0.484,0.226-1.009,0.534-1.509,1.003
		c-0.493,0.467-0.938,1.15-1.097,1.98c-0.088,0.41-0.102,0.846-0.056,1.277c0.014,0.115,0.015,0.203,0.042,0.343l0.044,0.289
		c0.03,0.191,0.099,0.453,0.163,0.671c0.281,0.872,0.824,1.771,1.653,2.447c1.659,1.413,4.183,1.652,6.405,0.944
		c1.118-0.376,2.191-0.995,3.111-1.837c0.96-0.904,1.531-1.756,2.236-2.664c1.32-1.811,2.566-3.707,3.903-5.512
		c1.346-1.791,2.749-3.536,4.409-4.833c1.652-1.304,3.559-2.033,5.571-2.088c0.503-0.011,1.011,0.014,1.518,0.071l0.709,0.103
		l0.828,0.188c0.882,0.24,1.797,0.657,2.581,1.18c1.588,1.045,2.713,2.656,3.204,4.367c0.526,1.707,0.412,3.501-0.196,4.945
		c-0.589,1.46-1.666,2.567-2.826,3.222c-1.158,0.675-2.347,0.985-3.334,1.138c-0.497,0.068-0.945,0.132-1.34,0.139
		c-0.395,0.027-0.732,0.04-1.006,0.024c-0.55-0.014-0.843-0.021-0.843-0.021s0.288,0.057,0.83,0.162
		c0.271,0.062,0.608,0.107,1.01,0.146c0.401,0.058,0.865,0.084,1.391,0.078c1.042-0.022,2.355-0.139,3.757-0.747
		c1.386-0.587,2.871-1.73,3.775-3.466c0.911-1.714,1.273-3.924,0.794-6.123C463.641,34.146,462.345,31.967,460.353,30.454z"/>
	<path id="XMLID_522_" fill="#FFFFFF" d="M475.509,40.64c-1.539,0.361-2.781,1.601-3.145,3.14c-0.292,1.239-0.03,2.403,0.568,3.329
		l5.899-5.899C477.907,40.612,476.747,40.349,475.509,40.64z"/>
	<path id="XMLID_521_" fill="#FFFFFF" d="M480.104,42.482l-5.899,5.898c0.925,0.598,2.086,0.86,3.322,0.57
		c1.538-0.361,2.779-1.599,3.145-3.137C480.967,44.574,480.703,43.408,480.104,42.482z"/>
	<path id="XMLID_520_" fill="#FFFFFF" d="M337.509,40.64c-1.54,0.361-2.781,1.601-3.145,3.14c-0.292,1.239-0.03,2.403,0.568,3.329
		l5.899-5.899C339.907,40.612,338.747,40.349,337.509,40.64z"/>
	<path id="XMLID_519_" fill="#FFFFFF" d="M336.205,48.381c0.924,0.598,2.086,0.86,3.322,0.57c1.539-0.361,2.779-1.599,3.145-3.137
		c0.295-1.24,0.031-2.406-0.567-3.332L336.205,48.381z"/>
</g>
<path id="XMLID_1571_" fill="#383738" d="M81.832,137.077"/>
<circle id="XMLID_160_" fill="#1C0C00" cx="101.341" cy="100.489" r="87.4"/>
<g id="XMLID_136_">
	<path id="XMLID_157_" fill="#3E2D23" d="M165.517,75.297c-13.349,0-24.172-10.822-24.172-24.173c0-5.744,2.009-11.019,5.357-15.168
		c-1.836-1.272-3.771-2.508-5.822-3.688c0,0-12.819,15.136-3.177,33.392c-6.815,1.004-12.051,6.857-12.051,13.951
		c0,7.798,6.321,14.118,14.119,14.118c7.317,0,13.332-5.564,14.047-12.692c8.875,3.529,18.01,1.598,23.934-0.891
		c0,0-0.535-2.75-2.129-7.064C172.547,74.5,169.126,75.297,165.517,75.297z M139.586,91.459c-6.542,0-11.847-5.305-11.847-11.848
		c0-6.321,4.953-11.471,11.188-11.814c0.006,0.01,0.012,0.018,0.017,0.026c0.263-0.017,0.524-0.04,0.79-0.04
		c0.402,0,0.799,0.022,1.189,0.061c5.913,0.666,10.51,5.678,10.51,11.768C151.434,86.154,146.129,91.459,139.586,91.459z"/>
	<path id="XMLID_156_" fill="#3E2D23" d="M157.393,49.111c2.476-0.138,3.439-1.192,3.439-1.192l-6.512-6.329
		c0,0-1.615,2.541-1.064,4.238C153.806,47.524,154.916,49.248,157.393,49.111z"/>
	<circle id="XMLID_154_" fill="#3E2D23" cx="158.677" cy="58.874" r="4.242"/>
	<circle id="XMLID_153_" fill="#3E2D23" cx="35.841" cy="72.923" r="3.783"/>
	<circle id="XMLID_151_" fill="#3E2D23" cx="44.853" cy="76.981" r="3.784"/>
	<circle id="XMLID_150_" fill="#3E2D23" cx="31.576" cy="82.278" r="3.783"/>
	<circle id="XMLID_149_" fill="#3E2D23" cx="40.587" cy="86.337" r="3.783"/>
	<circle id="XMLID_148_" fill="#3E2D23" cx="136.639" cy="75.308" r="2.453"/>
	<circle id="XMLID_147_" fill="#3E2D23" cx="144.894" cy="76.913" r="2.453"/>
	<circle id="XMLID_146_" fill="#3E2D23" cx="134.713" cy="83.607" r="2.453"/>
	<circle id="XMLID_145_" fill="#3E2D23" cx="142.968" cy="85.213" r="2.453"/>
	<path id="XMLID_137_" fill="#3E2D23" d="M101.395,8.027c-51.79,0-93.774,41.983-93.774,93.772c0,51.79,41.984,93.774,93.774,93.774
		c51.79,0,93.773-41.984,93.773-93.774C195.168,50.011,153.185,8.027,101.395,8.027z M64.73,31.126
		c3.064,3.3,14.499,16.918,12.779,34.681C71.577,69.905,64.61,76.87,64.61,76.87l-3.704,17.484c0,0-3.641,4.242-5.545,10.665
		l-0.053-0.247c-15.506,7.569-29.593,6.146-32.57,5.73c-0.311-2.856-0.476-5.759-0.476-8.703c0-1.158,0.03-2.311,0.079-3.457
		c0.988,0.808,2.024,1.56,3.132,2.208l1.686-0.64l0.382,1.719c1.157,0.535,2.362,0.98,3.607,1.332l1.345-1.495l0.821,1.998
		c1.208,0.225,2.447,0.358,3.711,0.397l1.098-1.433l1.292,1.392c1.295-0.084,2.562-0.271,3.794-0.55l0.619-1.656l1.705,1.007
		c1.15-0.383,2.262-0.849,3.329-1.392l0.078-1.765l1.755,0.731c6.933-4.316,11.551-12.002,11.551-20.771
		c0-1.235-0.094-2.449-0.271-3.635l-1.996-0.478l1.533-1.84c-0.309-1.235-0.709-2.435-1.198-3.587l-1.966-0.573l0.824-1.756
		c-0.478-0.859-1.007-1.685-1.581-2.477l-2.354,0.231l0.615-2.373c-0.806-0.882-1.677-1.704-2.604-2.462l-2.085,0.686l0.03-2.189
		c-0.933-0.613-1.909-1.166-2.926-1.648l-2.291,1.098l-0.438-2.191c-1.105-0.369-2.245-0.661-3.413-0.87l-1.631,1.431L38.944,55
		c-0.383-0.019-0.766-0.03-1.153-0.03c-0.137,0-0.271,0.013-0.406,0.015C44.534,45.092,53.889,36.898,64.73,31.126z M40.312,122.794
		l-10.243,13.344c-2.972-6.16-5.165-12.768-6.458-19.704l1.842,7.599C29.306,124.858,40.312,122.794,40.312,122.794z M22.714,93.28
		c1.297-12.25,5.359-23.673,11.548-33.639c1.187-0.216,2.409-0.333,3.659-0.333c11.264,0,20.394,9.133,20.394,20.396
		s-9.13,20.395-20.394,20.395C31.874,100.099,26.449,97.46,22.714,93.28z M33.371,142.264c2.083,3.182,4.454,6.542,5.892,8.55
		C37.118,148.103,35.15,145.246,33.371,142.264z M40.657,152.527c0.925-1.709,1.913-3.312,2.938-4.811l2.309,3.389l4.372-0.223
		l2.593-5.038l4.297,4.52l3.705-0.667l2.074-5.482l4.446,3.778l2.967-0.685c1.433,1.818,2.805,3.328,4.034,4.39
		c3.931,3.391,11.428,5.537,17.719,6.818l0.896,1.791l-3.852,2.018l0.183,4.035l3.485,1.651l-3.302,2.567l0.836,3.241l3.75,2.263
		l-3.731,4.249C70.472,177.375,52.946,167.204,40.657,152.527z M108.835,180.938c-1.212-4.115-3.436-13.473-1.315-21.108
		c11.222-1.146,22.05-5.285,30.383-12.15l3.498,0.388l4.075-3.777l2.296,5.111l3.705,0.667l4.075-4.074l2.806,5.428l2.677-0.686
		l0.889,1.925c0,0,8.189-10.655,11.88-18.918l-8.297-10.535c0,0,6.559,1.469,11.755,0.848c1.991-6.741,3.38-13.718,3.479-17.031
		l-1.111-4.224l-3.038-1.111l-3.778,2.89l-1.111-4.297l-3.482-0.667l-3.26,3.334l-1.704-4l-3.261-0.371l-2.889,3.704l-2.445-3.778
		l-1.431,0.09c-1.13-5.839-2.792-9.184-2.792-9.184c-4.056,4.391-9.842,5.163-13.41,4.538c-3.278-0.574-7.778-2.778-10.335-8.076
		c-0.529-1.096-0.527-2.078-0.871-3.519c-2.26-9.465,7.205-15.707,7.205-15.707l-10.988-6.104l0.542-4.335l-4.815-3.027l4.815-3.301
		l-0.963-4.678l-4.953-1.927l4.127-3.853l-1.101-4.677l-5.503-1.651l3.302-4.127l-1.101-4.678l-4.953-0.551l0.364-1.407
		c39.578,4.583,69.531,37.465,69.531,78.433C181.334,142.707,148.3,177.502,108.835,180.938z"/>
</g>
<path id="XMLID_135_" fill="#383738" d="M82.564,135.645"/>
<path id="XMLID_134_" fill="#FFFFFF" d="M109.211,141.413c0.016-0.011,0.194-0.06,0.712-0.492c0.279-0.234,0.551-0.468,0.817-0.698
	c2.036-1.757,3.959-3.417,7.738-3.417c2.632,0.002,5.118,0.003,6.684,3.956c0.112,0.283,0.168,0.333,0.175,0.338
	c0,0,0.02,0.009,0.077,0.016c0.167-0.115,0.474-0.406,0.559-0.525c0.131-0.212,0.249-0.563,0.037-0.997l-0.328-0.676
	c-1.367-2.845-1.829-3.804-6.852-3.93c-3.204-0.11-6.301,1.43-9.468,4.618c-0.411,0.415-0.544,0.716-0.561,1.277
	C108.82,140.964,108.953,141.19,109.211,141.413z"/>
<path id="XMLID_133_" fill="#FFFFFF" d="M128.105,147.396c-9.332,6.345-24.5,3.675-27.788,0.607
	c-0.188-0.175-0.425-0.268-0.651-0.268c-0.133,0-0.262,0.032-0.375,0.098c-0.461,0.267-0.717,0.422-1.027,0.764
	c-0.125,0.14-0.187,0.327-0.171,0.531c0.017,0.262,0.159,0.516,0.399,0.715c5.479,4.574,21.469,5.716,30.086-1.555
	c0.008-0.009,0.158-0.21,0.061-1.009C128.499,147.212,128.315,147.255,128.105,147.396z"/>
<path id="XMLID_130_" fill="#FFFFFF" d="M29.554,86.357c0.581,0.266,1.198,0.397,1.817,0.397c0.517,0,1.035-0.092,1.532-0.277
	c1.096-0.408,1.967-1.22,2.454-2.284s0.528-2.254,0.12-3.35c-0.409-1.097-1.22-1.967-2.284-2.453
	c-1.064-0.486-2.254-0.527-3.349-0.12c-1.097,0.409-1.967,1.22-2.453,2.285c-0.486,1.063-0.529,2.253-0.121,3.349
	C27.679,85,28.49,85.871,29.554,86.357z M28.622,81.118c0.336-0.734,0.937-1.295,1.694-1.578c0.344-0.128,0.702-0.191,1.059-0.191
	c0.428,0,0.854,0.092,1.255,0.274c0.734,0.336,1.295,0.938,1.578,1.694c0.282,0.757,0.252,1.579-0.083,2.313
	c-0.336,0.734-0.937,1.295-1.694,1.577c-0.755,0.282-1.578,0.255-2.313-0.083c-0.734-0.336-1.295-0.938-1.578-1.694
	C28.258,82.674,28.287,81.853,28.622,81.118z"/>
<path id="XMLID_127_" fill="#FFFFFF" d="M33.883,76.879c0.58,0.266,1.197,0.398,1.817,0.398c0.516,0,1.034-0.093,1.532-0.278
	c1.097-0.408,1.968-1.219,2.453-2.284c0.486-1.063,0.528-2.254,0.12-3.349c-0.409-1.097-1.22-1.967-2.285-2.454
	c-1.064-0.485-2.252-0.527-3.349-0.12c-1.096,0.41-1.968,1.221-2.454,2.285c-0.486,1.063-0.528,2.253-0.12,3.349
	C32.008,75.521,32.818,76.394,33.883,76.879z M32.951,71.64c0.336-0.734,0.938-1.296,1.695-1.577
	c0.344-0.129,0.701-0.192,1.058-0.192c0.428,0,0.854,0.093,1.255,0.274c0.734,0.336,1.295,0.938,1.577,1.694
	c0.282,0.758,0.253,1.579-0.082,2.313c-0.337,0.734-0.938,1.295-1.695,1.578c-0.756,0.281-1.578,0.252-2.313-0.083
	c-0.734-0.337-1.294-0.938-1.577-1.694C32.586,73.196,32.616,72.375,32.951,71.64z"/>
<path id="XMLID_123_" fill="#FFFFFF" d="M42.172,82.492c-1.063-0.487-2.253-0.528-3.35-0.12c-1.096,0.408-1.966,1.22-2.452,2.284
	c-0.486,1.063-0.528,2.253-0.12,3.35c0.408,1.096,1.22,1.967,2.284,2.454c0.588,0.268,1.204,0.395,1.811,0.395
	c1.664,0,3.256-0.951,3.991-2.56c0.486-1.064,0.529-2.254,0.121-3.35C44.047,83.85,43.236,82.979,42.172,82.492z M43.104,87.732
	c-0.693,1.517-2.489,2.186-4.008,1.494c-0.734-0.336-1.294-0.938-1.577-1.694s-0.253-1.579,0.083-2.313h0
	c0.335-0.733,0.937-1.295,1.694-1.577c0.344-0.129,0.701-0.191,1.058-0.191c0.428,0,0.854,0.091,1.255,0.274
	c0.734,0.335,1.295,0.938,1.577,1.694C43.469,86.176,43.439,86.997,43.104,87.732z"/>
<path id="XMLID_119_" fill="#FFFFFF" d="M42.862,80.981c0.588,0.268,1.205,0.395,1.812,0.395c1.662,0,3.256-0.951,3.989-2.56
	c0.487-1.064,0.529-2.254,0.122-3.35c-0.409-1.096-1.22-1.967-2.284-2.453c-1.063-0.486-2.253-0.528-3.35-0.121
	c-1.097,0.41-1.968,1.222-2.453,2.285c-0.487,1.063-0.529,2.253-0.121,3.35C40.987,79.623,41.798,80.495,42.862,80.981z
	 M41.931,75.74c0.335-0.734,0.937-1.295,1.694-1.577c0.344-0.128,0.702-0.192,1.058-0.192c0.428,0,0.855,0.093,1.256,0.275
	c0.734,0.336,1.294,0.937,1.578,1.694c0.281,0.757,0.252,1.578-0.083,2.313c-0.693,1.515-2.491,2.186-4.008,1.496
	c-0.734-0.337-1.294-0.939-1.577-1.695C41.565,77.298,41.595,76.476,41.931,75.74z"/>
<path id="XMLID_116_" fill="#FFFFFF" d="M135.271,80.674c-1.583-0.33-3.138,0.688-3.47,2.269c-0.332,1.582,0.686,3.14,2.268,3.471
	c0.203,0.042,0.406,0.063,0.607,0.063c0.563,0,1.116-0.164,1.599-0.479c0.655-0.428,1.104-1.086,1.265-1.852
	C137.871,82.562,136.853,81.005,135.271,80.674z M136.876,84.006c-0.123,0.59-0.469,1.095-0.973,1.425
	c-0.505,0.329-1.106,0.44-1.695,0.319c-1.217-0.256-2-1.452-1.745-2.669c0.223-1.062,1.163-1.792,2.208-1.792
	c0.152,0,0.307,0.015,0.462,0.048C136.349,81.592,137.131,82.79,136.876,84.006z"/>
<path id="XMLID_113_" fill="#FFFFFF" d="M142.248,88.126c0.201,0.043,0.405,0.063,0.607,0.063c0.562,0,1.114-0.163,1.597-0.479
	c0.656-0.428,1.105-1.086,1.266-1.853c0.161-0.767,0.014-1.549-0.416-2.205c-0.428-0.655-1.086-1.104-1.853-1.265
	c-0.765-0.16-1.549-0.014-2.205,0.414c-0.656,0.43-1.105,1.087-1.266,1.854c-0.16,0.767-0.013,1.55,0.416,2.206
	C140.822,87.516,141.48,87.966,142.248,88.126z M140.642,84.795c0.124-0.59,0.468-1.096,0.973-1.426
	c0.371-0.242,0.795-0.367,1.229-0.367c0.155,0,0.312,0.016,0.467,0.048c0.589,0.123,1.095,0.469,1.424,0.974
	c0.33,0.504,0.443,1.106,0.32,1.695c-0.124,0.59-0.47,1.097-0.974,1.425c-0.503,0.331-1.105,0.441-1.696,0.32
	c-0.589-0.124-1.096-0.47-1.424-0.974C140.632,85.986,140.518,85.385,140.642,84.795z"/>
<path id="XMLID_110_" fill="#FFFFFF" d="M137.03,72.275c-0.763-0.16-1.548-0.012-2.205,0.415c-0.655,0.429-1.105,1.086-1.266,1.854
	c-0.161,0.767-0.013,1.55,0.415,2.205c0.429,0.655,1.087,1.104,1.854,1.265c0.203,0.043,0.405,0.064,0.607,0.064
	c0.563,0,1.116-0.163,1.598-0.479c0.655-0.427,1.104-1.086,1.266-1.854c0.161-0.766,0.013-1.549-0.416-2.204
	C138.455,72.885,137.797,72.436,137.03,72.275z M138.636,75.607c-0.124,0.589-0.469,1.095-0.973,1.425
	c-0.503,0.329-1.107,0.441-1.695,0.318c-1.217-0.255-2-1.452-1.745-2.668c0.123-0.589,0.469-1.095,0.973-1.425
	c0.371-0.244,0.795-0.368,1.229-0.368c0.155,0,0.312,0.016,0.466,0.048c0.591,0.124,1.096,0.47,1.426,0.974
	C138.646,74.415,138.759,75.018,138.636,75.607z"/>
<path id="XMLID_107_" fill="#FFFFFF" d="M144.007,79.728c0.203,0.042,0.405,0.063,0.607,0.063c0.563,0,1.115-0.163,1.597-0.479
	c0.656-0.428,1.105-1.086,1.266-1.854c0.332-1.582-0.686-3.14-2.267-3.471c-0.767-0.159-1.55-0.013-2.206,0.416
	c-0.656,0.428-1.105,1.086-1.266,1.853c-0.161,0.767-0.013,1.55,0.415,2.205C142.582,79.117,143.24,79.566,144.007,79.728z
	 M142.401,76.396c0.124-0.589,0.469-1.095,0.974-1.425c0.371-0.242,0.795-0.367,1.228-0.367c0.156,0,0.312,0.015,0.468,0.048
	c1.216,0.256,1.998,1.452,1.743,2.669c-0.123,0.589-0.469,1.095-0.973,1.425c-0.504,0.331-1.108,0.441-1.695,0.319
	c-0.59-0.124-1.096-0.469-1.426-0.974C142.392,77.588,142.278,76.985,142.401,76.396z"/>
<path id="XMLID_104_" fill="#FFFFFF" d="M127.5,79.661c0,6.692,5.445,12.138,12.138,12.138c6.693,0,12.139-5.445,12.139-12.138
	c0-6.693-5.445-12.14-12.139-12.14C132.946,67.521,127.5,72.968,127.5,79.661z M151.1,79.661c0,6.318-5.142,11.461-11.461,11.461
	s-11.46-5.143-11.46-11.461c0-6.319,5.141-11.461,11.46-11.461S151.1,73.342,151.1,79.661z"/>
<path id="XMLID_101_" fill="#FFFFFF" d="M155.712,62.53c0.854,0.714,1.909,1.097,3.009,1.097c0.141,0,0.284-0.008,0.427-0.02
	c1.252-0.112,2.384-0.704,3.191-1.668s1.188-2.184,1.076-3.436c-0.111-1.253-0.703-2.386-1.667-3.191
	c-0.964-0.806-2.188-1.191-3.436-1.077c-1.252,0.111-2.386,0.704-3.191,1.668c-0.807,0.964-1.189,2.185-1.078,3.437
	C154.156,60.592,154.748,61.725,155.712,62.53z M155.64,56.338c0.69-0.826,1.661-1.333,2.732-1.428
	c0.122-0.012,0.244-0.017,0.365-0.017c0.942,0,1.845,0.327,2.576,0.938c0.826,0.69,1.333,1.66,1.428,2.731v0.001
	c0.096,1.07-0.231,2.115-0.922,2.939c-0.689,0.826-1.66,1.333-2.731,1.429c-1.072,0.098-2.116-0.231-2.941-0.922
	c-0.825-0.69-1.332-1.66-1.428-2.731C154.623,58.207,154.95,57.162,155.64,56.338z"/>
<path id="XMLID_98_" fill="#FFFFFF" d="M5.707,104.586c0.061,1.787,0.166,3.562,0.325,5.321l-5.555,1.06
	c0.19,1.994,0.433,3.975,0.738,5.936l5.646-0.356c0.285,1.764,0.625,3.508,1.005,5.238l-5.366,1.742
	c0.44,1.953,0.938,3.886,1.49,5.795l5.542-1.058c0.504,1.71,1.047,3.403,1.644,5.073l-5.119,2.407
	c0.683,1.88,1.427,3.73,2.216,5.557l5.377-1.748c0.715,1.631,1.48,3.234,2.281,4.815l-4.765,3.022
	c0.915,1.778,1.873,3.529,2.887,5.245l5.102-2.401c0.913,1.526,1.856,3.031,2.85,4.501l-4.34,3.589
	c1.128,1.65,2.316,3.255,3.537,4.832l4.767-3.025c1.094,1.396,2.225,2.763,3.393,4.097l-3.866,4.115
	c1.324,1.495,2.678,2.963,4.087,4.378l4.35-3.602c1.259,1.25,2.561,2.457,3.887,3.637l-3.315,4.561
	c1.499,1.317,3.038,2.591,4.613,3.82l3.86-4.112c1.404,1.084,2.833,2.137,4.297,3.142l-2.726,4.956
	c1.649,1.12,3.339,2.182,5.056,3.205l3.321-4.572c1.528,0.899,3.084,1.753,4.665,2.569l-2.08,5.249
	c1.776,0.904,3.575,1.765,5.409,2.565l2.714-4.94c1.63,0.701,3.28,1.365,4.956,1.978l-1.403,5.458
	c1.871,0.673,3.772,1.278,5.692,1.841l2.078-5.253c1.703,0.489,3.424,0.933,5.164,1.328l-0.641,5.618
	c1.917,0.424,3.851,0.806,5.807,1.118l1.399-5.46c1.751,0.27,3.518,0.484,5.296,0.658l-0.001,5.636
	c1.975,0.183,3.968,0.297,5.974,0.362l0.706-5.604c0.888,0.024,1.771,0.067,2.666,0.067c0.893,0,1.775-0.043,2.664-0.067
	l0.707,5.604c2.005-0.065,3.998-0.18,5.974-0.362l-0.002-5.636c1.779-0.174,3.546-0.389,5.296-0.658l1.399,5.46
	c1.98-0.316,3.936-0.702,5.875-1.132l-0.287-2.271c0.014,0.009,0.03,0.02,0.045,0.029l-0.68-3.498l1.375-0.152
	c1.344-0.321,2.681-0.66,4.002-1.039l2.078,5.253c1.92-0.563,3.821-1.169,5.694-1.841l-1.404-5.459
	c1.676-0.612,3.325-1.276,4.956-1.978l2.715,4.94c1.833-0.801,3.633-1.66,5.409-2.564l-2.081-5.249
	c1.582-0.815,3.138-1.67,4.666-2.57l3.321,4.573c1.716-1.023,3.407-2.085,5.057-3.205l-2.727-4.956
	c1.465-1.006,2.894-2.058,4.298-3.143l3.86,4.113c1.576-1.23,3.114-2.502,4.614-3.82l-3.315-4.562
	c1.326-1.179,2.627-2.386,3.886-3.636l4.352,3.602c1.409-1.415,2.762-2.883,4.088-4.378l-3.868-4.115
	c1.168-1.334,2.299-2.701,3.394-4.098l4.766,3.026c1.222-1.577,2.409-3.183,3.538-4.832l-4.341-3.589
	c0.995-1.47,1.937-2.975,2.851-4.502l5.101,2.402c1.014-1.716,1.973-3.467,2.887-5.245l-4.767-3.021
	c0.803-1.583,1.566-3.187,2.282-4.817l5.378,1.749c0.789-1.826,1.533-3.677,2.216-5.557l-5.12-2.408
	c0.597-1.669,1.14-3.362,1.645-5.073l5.542,1.059c0.553-1.91,1.049-3.842,1.491-5.796l-5.367-1.742
	c0.379-1.73,0.72-3.475,1.004-5.238l5.647,0.356c0.305-1.961,0.547-3.941,0.738-5.936l-5.556-1.059
	c0.158-1.761,0.264-3.535,0.326-5.322l5.631-0.353c0.03-0.996,0.076-1.988,0.076-2.992s-0.046-1.996-0.076-2.994l-5.631-0.352
	c-0.062-1.786-0.167-3.562-0.327-5.321l5.557-1.059c-0.191-1.995-0.433-3.976-0.739-5.937l-5.646,0.357
	c-0.285-1.765-0.625-3.509-1.004-5.239l5.365-1.742c-0.44-1.954-0.937-3.886-1.489-5.795l-5.542,1.058
	c-0.505-1.71-1.048-3.403-1.645-5.073l5.119-2.407c-0.684-1.88-1.427-3.73-2.216-5.557l-5.377,1.748
	c-0.715-1.63-1.479-3.233-2.282-4.815l4.767-3.022c-0.916-1.779-1.873-3.529-2.887-5.246l-5.102,2.403
	c-0.913-1.527-1.856-3.032-2.851-4.502l4.341-3.59c-1.128-1.649-2.316-3.255-3.538-4.832l-4.768,3.026
	c-1.094-1.396-2.224-2.763-3.394-4.097l3.868-4.115c-1.325-1.495-2.679-2.964-4.088-4.378l-4.351,3.601
	c-1.259-1.249-2.56-2.456-3.887-3.635l3.316-4.561c-1.5-1.319-3.039-2.592-4.614-3.82l-3.859,4.112
	c-1.404-1.085-2.833-2.138-4.298-3.143l2.727-4.956c-1.649-1.119-3.34-2.181-5.057-3.205l-3.32,4.573
	c-1.527-0.899-3.084-1.754-4.665-2.569l2.081-5.25c-1.775-0.903-3.576-1.764-5.41-2.564l-2.714,4.94
	c-1.63-0.702-3.279-1.366-4.955-1.978l1.403-5.458c-1.872-0.674-3.773-1.278-5.693-1.841l-2.078,5.253
	c-1.703-0.49-3.424-0.933-5.164-1.327l0.709-5.605c-1.939-0.429-3.896-0.815-5.875-1.132l-1.399,5.46
	c-1.75-0.27-3.517-0.484-5.296-0.657l0.002-5.636c-1.976-0.183-3.969-0.297-5.975-0.363l-0.707,5.604
	c-0.887-0.024-1.77-0.068-2.663-0.068c-0.894,0-1.777,0.044-2.666,0.068L97.955,0c-2.006,0.066-3.999,0.181-5.974,0.363l0.001,5.636
	c-1.779,0.173-3.545,0.389-5.295,0.657l-1.4-5.46c-1.979,0.317-3.936,0.703-5.875,1.132l0.708,5.605
	c-1.739,0.396-3.46,0.838-5.164,1.327l-2.077-5.253c-1.92,0.562-3.822,1.169-5.693,1.841l1.403,5.459
	c-1.675,0.612-3.325,1.276-4.955,1.978l-2.713-4.94c-1.834,0.801-3.634,1.661-5.409,2.565l2.08,5.248
	c-1.581,0.815-3.137,1.67-4.665,2.569l-3.322-4.571c-1.716,1.023-3.407,2.084-5.056,3.204l2.726,4.956
	c-1.465,1.005-2.893,2.058-4.297,3.142l-3.859-4.111c-1.576,1.229-3.115,2.502-4.614,3.82l3.316,4.56
	c-1.327,1.18-2.628,2.387-3.887,3.637l-4.351-3.602c-1.409,1.414-2.763,2.883-4.087,4.378l3.867,4.115
	c-1.168,1.334-2.299,2.699-3.394,4.097l-4.766-3.025c-1.222,1.577-2.41,3.182-3.538,4.832l4.341,3.588
	c-0.994,1.47-1.938,2.976-2.851,4.502l-5.101-2.401c-1.015,1.715-1.973,3.466-2.887,5.245l4.765,3.021
	c-0.802,1.582-1.566,3.186-2.281,4.816l-5.378-1.749c-0.789,1.827-1.532,3.677-2.216,5.558l5.12,2.407
	c-0.597,1.67-1.14,3.362-1.644,5.073L3.989,73.16c-0.553,1.91-1.049,3.841-1.49,5.796l5.366,1.742
	c-0.38,1.729-0.72,3.474-1.005,5.238L1.214,85.58c-0.305,1.96-0.546,3.94-0.738,5.936l5.556,1.059
	c-0.159,1.761-0.264,3.535-0.325,5.321l-5.632,0.352C0.046,99.245,0,100.237,0,101.241s0.046,1.996,0.075,2.992L5.707,104.586z
	 M101.327,8.444c51.25,0,92.796,41.547,92.796,92.797c0,51.251-41.546,92.798-92.796,92.798c-51.25,0-92.797-41.547-92.797-92.798
	C8.529,49.991,50.076,8.444,101.327,8.444z"/>
<circle id="XMLID_97_" fill="#FFFFFF" cx="26.481" cy="57.833" r="1.355"/>
<circle id="XMLID_96_" fill="#FFFFFF" cx="58.389" cy="26.054" r="1.355"/>
<circle id="XMLID_95_" fill="#FFFFFF" cx="101.658" cy="14.595" r="1.354"/>
<circle id="XMLID_94_" fill="#FFFFFF" cx="144.98" cy="26.337" r="1.355"/>
<circle id="XMLID_93_" fill="#FFFFFF" cx="176.459" cy="57.942" r="1.355"/>
<circle id="XMLID_92_" fill="#FFFFFF" cx="76.29" cy="155.672" r="1.577"/>
<circle id="XMLID_91_" fill="#FFFFFF" cx="72.039" cy="160.875" r="1.576"/>
<circle id="XMLID_90_" fill="#FFFFFF" cx="66.705" cy="164.431" r="1.577"/>
<circle id="XMLID_89_" fill="#FFFFFF" cx="61.201" cy="164.601" r="1.577"/>
<circle id="XMLID_88_" fill="#FFFFFF" cx="55.94" cy="163.041" r="1.577"/>
<path id="XMLID_75_" fill="#FFFFFF" d="M101.363,191.445c49.881,0,90.461-40.581,90.461-90.463c0-1.122-0.035-2.237-0.077-3.35
	c0.011,0.812,0.024,1.626,0.005,2.405c-0.017,2.076-0.149,4.01-0.269,5.663c-0.265,3.307-0.628,5.486-0.628,5.486
	s0.267-2.195,0.387-5.5c0.046-1.654,0.093-3.583,0.02-5.646c-0.041-2.064-0.209-4.258-0.427-6.443
	c-0.226-1.9-0.526-3.772-0.891-5.551c0.276,1.772,0.491,3.617,0.63,5.483c0.124,2.216,0.195,4.433,0.146,6.508
	c-0.017,2.076-0.149,4.01-0.268,5.662c-0.266,3.308-0.628,5.487-0.628,5.487s0.267-2.195,0.386-5.5
	c0.046-1.654,0.093-3.583,0.02-5.646c-0.041-2.064-0.208-4.259-0.427-6.443c-0.258-2.181-0.596-4.348-1.042-6.348
	c-0.013-0.049-0.022-0.094-0.034-0.143c0.014,0.066,0.024,0.13,0.038,0.196c0.366,2.06,0.612,4.272,0.776,6.485
	c0.124,2.218,0.196,4.434,0.146,6.51c-0.002,0.207-0.009,0.404-0.013,0.608c-0.095-0.285-0.259-0.527-0.482-0.717
	c-0.044-2.033-0.208-4.187-0.422-6.332c-0.225-1.901-0.525-3.773-0.891-5.552c0.277,1.772,0.491,3.618,0.63,5.482
	c0.116,2.076,0.177,4.141,0.145,6.1c-0.16-0.053-0.322-0.101-0.499-0.101c-0.004,0-0.009,0.003-0.009,0.003
	c-0.06-1.916-0.207-3.924-0.408-5.934c-0.088-0.746-0.2-1.483-0.309-2.221c0.062,0.631,0.132,1.258,0.179,1.894
	c0.121,2.157,0.188,4.311,0.146,6.339c-0.179,0.047-0.339,0.12-0.488,0.221c0-0.016,0-0.032,0-0.049
	c-0.042-2.064-0.21-4.258-0.429-6.443c-0.224-1.9-0.525-3.772-0.891-5.551c0.278,1.772,0.492,3.617,0.63,5.483
	c0.124,2.216,0.196,4.433,0.146,6.508c-0.002,0.229-0.01,0.448-0.015,0.673c-0.104,0.214-0.173,0.444-0.173,0.698
	c0,0.228,0.049,0.443,0.134,0.64c-0.053,1.312-0.135,2.548-0.214,3.651c-0.266,3.308-0.628,5.487-0.628,5.487s0.267-2.195,0.387-5.5
	c0.046-1.654,0.093-3.583,0.02-5.646c-0.041-2.064-0.209-4.259-0.427-6.443c-0.241-2.035-0.561-4.047-0.963-5.934l-0.022,0.01
	c0.332,1.956,0.568,4.03,0.722,6.115c0.124,2.218,0.195,4.434,0.146,6.51c-0.017,2.075-0.149,4.009-0.268,5.662
	c-0.265,3.307-0.628,5.487-0.628,5.487s0.266-2.195,0.387-5.501c0.045-1.653,0.093-3.582,0.02-5.646
	c-0.041-2.064-0.208-4.259-0.427-6.443c-0.225-1.901-0.525-3.773-0.89-5.552c0.276,1.772,0.491,3.618,0.629,5.482
	c0.124,2.218,0.195,4.434,0.146,6.51c-0.019,2.075-0.15,4.009-0.268,5.662c-0.266,3.307-0.629,5.486-0.629,5.486
	s0.267-2.194,0.387-5.5c0.046-1.653,0.093-3.583,0.021-5.646c-0.028-1.401-0.126-2.865-0.248-4.342
	c0.101,1.662,0.166,3.335,0.166,5.022c0,45.611-37.107,82.72-82.719,82.72c-45.612,0-82.719-37.108-82.719-82.72
	c0-1.991,0.078-3.965,0.218-5.924c-0.161,1.782-0.291,3.559-0.324,5.243c-0.073,2.062-0.027,3.992,0.02,5.646
	c0.121,3.306,0.387,5.5,0.387,5.5s-0.363-2.18-0.628-5.486c-0.119-1.653-0.251-3.587-0.268-5.662
	c-0.05-2.076,0.021-4.292,0.146-6.51c0.138-1.864,0.352-3.71,0.629-5.482c-0.365,1.778-0.666,3.65-0.891,5.552
	c-0.219,2.185-0.386,4.379-0.428,6.443c-0.072,2.063-0.026,3.992,0.02,5.646c0.121,3.306,0.387,5.501,0.387,5.501
	s-0.363-2.181-0.628-5.487c-0.119-1.653-0.25-3.587-0.269-5.662c-0.049-2.076,0.022-4.292,0.146-6.51
	c0.154-2.089,0.391-4.167,0.723-6.126l-0.021-0.011c-0.404,1.891-0.724,3.906-0.966,5.945c-0.218,2.185-0.386,4.379-0.427,6.443
	c-0.073,2.063-0.025,3.992,0.021,5.646c0.12,3.305,0.386,5.5,0.386,5.5s-0.362-2.18-0.628-5.487
	c-0.074-1.038-0.15-2.195-0.204-3.419c0.168-0.255,0.29-0.543,0.29-0.872c0-0.363-0.142-0.682-0.345-0.952
	c-0.002-0.141-0.007-0.277-0.009-0.419c-0.049-2.075,0.022-4.292,0.146-6.508c0.139-1.866,0.353-3.711,0.63-5.483
	c-0.365,1.778-0.665,3.65-0.891,5.551c-0.216,2.164-0.381,4.337-0.424,6.384c-0.152-0.078-0.317-0.119-0.492-0.146
	c-0.041-2.019,0.025-4.159,0.145-6.306c0.046-0.636,0.118-1.263,0.179-1.894c-0.107,0.737-0.221,1.475-0.309,2.221
	c-0.202,2.02-0.349,4.036-0.405,5.962c-0.18,0.018-0.354,0.048-0.512,0.119c-0.034-1.974,0.028-4.057,0.145-6.149
	c0.138-1.864,0.353-3.71,0.63-5.482c-0.365,1.778-0.666,3.65-0.891,5.552c-0.218,2.185-0.386,4.379-0.427,6.443
	c-0.001,0.02-0.001,0.036-0.001,0.056c-0.248,0.285-0.412,0.645-0.412,1.052c0,0.386,0.153,0.725,0.378,1.004
	c-0.002,1.265,0.025,2.462,0.054,3.534c0.121,3.306,0.388,5.501,0.388,5.501s-0.363-2.181-0.628-5.487
	c-0.119-1.653-0.251-3.587-0.269-5.662c-0.049-2.076,0.022-4.292,0.146-6.51c0.164-2.213,0.41-4.426,0.775-6.485
	c0.014-0.066,0.024-0.13,0.038-0.196c-0.012,0.049-0.021,0.094-0.034,0.143c-0.447,2-0.785,4.167-1.043,6.348
	c-0.219,2.185-0.386,4.379-0.427,6.443c-0.073,2.063-0.026,3.992,0.02,5.646c0.12,3.305,0.387,5.5,0.387,5.5
	s-0.363-2.18-0.628-5.487c-0.118-1.652-0.25-3.586-0.268-5.662c-0.05-2.075,0.022-4.292,0.146-6.508
	c0.139-1.866,0.353-3.711,0.63-5.483c-0.365,1.778-0.667,3.65-0.891,5.551c-0.218,2.186-0.386,4.379-0.428,6.443
	c-0.073,2.063-0.026,3.992,0.021,5.646c0.12,3.305,0.386,5.5,0.386,5.5s-0.362-2.18-0.628-5.486
	c-0.119-1.653-0.25-3.587-0.268-5.663c-0.01-0.379,0.004-0.782,0.002-1.17c-0.016,0.705-0.049,1.406-0.049,2.114
	C10.901,150.864,51.482,191.445,101.363,191.445z M189.177,105.947c0.028-1.019,0.053-2.15,0.054-3.346
	c0.174-0.156,0.321-0.339,0.414-0.557c-0.053,1.413-0.142,2.738-0.226,3.916c-0.267,3.307-0.629,5.487-0.629,5.487
	S189.056,109.253,189.177,105.947z M188.144,105.947c0.025-0.9,0.048-1.887,0.054-2.926c0.132-0.004,0.252-0.042,0.375-0.075
	c-0.053,1.073-0.122,2.091-0.188,3.015c-0.266,3.307-0.628,5.486-0.628,5.486S188.024,109.253,188.144,105.947z M187.243,105.688
	c0.025-0.903,0.048-1.893,0.054-2.937c0.116,0.073,0.231,0.137,0.364,0.18c-0.05,0.985-0.115,1.916-0.176,2.771
	c-0.266,3.307-0.628,5.486-0.628,5.486S187.122,108.992,187.243,105.688z M175.364,143.47c0.374-0.648,1.203-0.871,1.85-0.497
	c0.649,0.373,0.871,1.202,0.498,1.85c-0.374,0.649-1.202,0.872-1.85,0.498C175.212,144.946,174.99,144.117,175.364,143.47z
	 M144.38,174.578c0.647-0.374,1.478-0.152,1.852,0.495c0.375,0.647,0.153,1.477-0.495,1.852c-0.648,0.375-1.477,0.153-1.851-0.495
	C143.51,175.782,143.732,174.953,144.38,174.578z M101.737,186.14c0.749,0,1.355,0.606,1.355,1.355c0,0.748-0.606,1.354-1.355,1.354
	c-0.748,0-1.355-0.606-1.355-1.354C100.382,186.746,100.989,186.14,101.737,186.14z M57.293,175.359
	c0.374-0.649,1.202-0.872,1.851-0.498c0.648,0.373,0.871,1.202,0.497,1.85c-0.374,0.649-1.202,0.872-1.85,0.498
	C57.142,176.836,56.919,176.007,57.293,175.359z M14.315,105.961c-0.066-0.934-0.136-1.963-0.188-3.049
	c0.117,0.045,0.247,0.059,0.376,0.075c0.005,1.053,0.028,2.05,0.054,2.96c0.12,3.306,0.386,5.5,0.386,5.5
	S14.582,109.268,14.315,105.961z M15.217,105.701c-0.061-0.846-0.125-1.765-0.175-2.737c0.125-0.027,0.249-0.048,0.362-0.101
	c0.007,1.002,0.03,1.953,0.055,2.824c0.12,3.305,0.387,5.5,0.387,5.5S15.482,109.008,15.217,105.701z M27.239,145.43
	c-0.648,0.374-1.477,0.153-1.852-0.495c-0.375-0.647-0.153-1.477,0.495-1.852c0.647-0.374,1.477-0.153,1.851,0.495
	C28.108,144.226,27.886,145.055,27.239,145.43z"/>
<path id="XMLID_74_" fill="#FFFFFF" d="M83.15,135.662c-0.152-0.205-0.307-0.402-0.453-0.615c-0.532-0.996-0.93-1.921-1.326-3.438
	c-0.165-0.634-0.269-1.33-0.334-1.985c-0.027-0.252-0.046-0.506-0.061-0.761c-0.065-1.057-0.04-1.863-0.04-1.863l0.039-0.221
	c0.05-0.966,0.152-1.824,0.285-2.571c-0.073,0.243-0.145,0.487-0.206,0.726c-0.32,1.226-0.468,2.408-0.488,3.423
	c-0.028,1.017,0.076,1.862,0.171,2.448c0.101,0.586,0.187,0.915,0.187,0.915s-0.097-0.326-0.215-0.91
	c-0.113-0.584-0.243-1.429-0.246-2.454c-0.01-1.022,0.103-2.221,0.389-3.471c0.142-0.629,0.312-1.264,0.538-1.902
	c0.166-0.469,0.366-0.935,0.584-1.391c0.224-0.551,0.439-0.922,0.598-1.117c0.577-0.97,1.251-1.871,1.972-2.648
	c0.579-0.63,1.175-1.182,1.752-1.667c-0.766,0.578-1.59,1.282-2.377,2.131c-0.89,0.957-1.729,2.088-2.371,3.331
	c-0.643,1.237-1.067,2.589-1.361,3.869c-0.279,1.287-0.382,2.521-0.346,3.574c0.034,1.056,0.191,1.927,0.331,2.527
	c0.144,0.601,0.256,0.936,0.256,0.936s-0.121-0.331-0.282-0.929c-0.157-0.598-0.339-1.468-0.402-2.529
	c-0.065-1.061,0.004-2.31,0.251-3.618c0.261-1.304,0.652-2.68,1.286-3.967c0.626-1.283,1.459-2.459,2.348-3.458
	c0.086-0.098,0.175-0.185,0.261-0.278c-0.382,0.373-0.76,0.776-1.13,1.214c-0.226,0.258-0.423,0.543-0.642,0.819
	c-0.205,0.286-0.397,0.586-0.598,0.883c-0.176,0.312-0.367,0.62-0.535,0.942c-0.152,0.329-0.329,0.649-0.462,0.989
	c-0.274,0.672-0.518,1.37-0.699,2.068c-0.198,0.69-0.321,1.393-0.425,2.071c-0.081,0.683-0.139,1.347-0.125,1.977
	c0,0.631,0.053,1.228,0.131,1.771c0.16,1.091,0.43,1.977,0.651,2.582c0.224,0.604,0.379,0.939,0.379,0.939s-0.162-0.331-0.401-0.932
	c-0.236-0.6-0.527-1.481-0.714-2.576c-0.092-0.546-0.16-1.146-0.174-1.782c-0.029-0.637,0.014-1.309,0.08-2
	c0.088-0.689,0.196-1.4,0.382-2.109c0.167-0.712,0.393-1.414,0.66-2.114c0.127-0.35,0.3-0.681,0.448-1.021
	c0.164-0.332,0.351-0.652,0.524-0.976c0.198-0.31,0.387-0.62,0.591-0.917c0.216-0.288,0.412-0.585,0.637-0.854
	c0.438-0.544,0.888-1.051,1.347-1.499c0.421-0.427,0.849-0.801,1.256-1.139c-1.513,1.097-2.937,2.529-4.012,4.205
	c-0.562,0.874-1.043,1.801-1.389,2.766c-0.354,0.96-0.604,1.943-0.75,2.909c-0.298,1.935-0.184,3.789,0.156,5.318
	c0.337,1.533,0.865,2.745,1.294,3.554c0.211,0.406,0.396,0.716,0.528,0.924c0.13,0.208,0.201,0.318,0.201,0.318
	s-0.072-0.109-0.206-0.316c-0.135-0.205-0.325-0.512-0.544-0.915c-0.442-0.802-0.993-2.009-1.357-3.546
	c-0.368-1.532-0.515-3.399-0.246-5.362c0.131-0.979,0.367-1.979,0.71-2.961c0.333-0.979,0.699-2.138,1.25-3.033
	c-1.549,2.187-2.431,4.771-2.466,7.74c-0.063,5.242,2.468,9.553,7.322,12.464c1.916,1.15,4.425,1.663,6.54,1.889
	C88.341,141.177,85.147,138.832,83.15,135.662z"/>
<path id="XMLID_71_" fill="#FFFFFF" d="M107.622,134.546c1.031-1.942,1.617-4.155,1.617-6.504c0-7.681-6.248-13.928-13.928-13.928
	c-7.679,0-13.927,6.247-13.927,13.928c0,7.68,6.248,13.928,13.927,13.928c3.553,0,6.797-1.339,9.26-3.536
	C105.75,137.327,106.825,136,107.622,134.546z M82.035,128.086c0-7.339,5.95-13.29,13.29-13.29c7.34,0,13.29,5.951,13.29,13.29
	c0,7.34-5.95,13.29-13.29,13.29C87.985,141.376,82.035,135.426,82.035,128.086z"/>
<path id="XMLID_64_" fill="#FFFFFF" d="M95.448,116.422c-5.016,0-9.467,3.188-11.077,7.935c-0.408,1.207-0.616,2.472-0.616,3.758
	c0,0.794,0.081,1.586,0.238,2.356c0.328,1.602,0.977,3.091,1.93,4.427c2.193,3.075,5.755,4.911,9.526,4.911
	c6.447,0,11.693-5.247,11.693-11.694C107.141,121.666,101.895,116.422,95.448,116.422z M84.432,128.114
	c0-1.212,0.195-2.402,0.581-3.541c1.516-4.471,5.71-7.475,10.435-7.475c2.111,0,4.079,0.608,5.756,1.642L84.61,130.034
	C84.5,129.402,84.432,128.759,84.432,128.114z M84.764,130.75l17.053-11.606c1.033,0.736,1.934,1.641,2.661,2.681l-18.194,12.384
	C85.576,133.146,85.066,131.986,84.764,130.75z M95.448,139.13c-3.442,0-6.688-1.634-8.767-4.371l18.164-12.362
	c1.02,1.669,1.619,3.622,1.619,5.718C106.463,134.188,101.522,139.13,95.448,139.13z"/>
<path id="XMLID_1_" fill="#FFFFFF" d="M21.533,110.298l0.11,0.904c0.002,0.001,0.005,0.002,0.008,0.002
	c0.552,4.468,1.454,8.813,2.694,13.006l-0.018,0.465c0.049,0.001,0.099,0.001,0.147,0.003c10.06,33.264,40.843,56.855,76.836,56.855
	c36.124,0,66.743-23.981,76.796-56.858h0.008l0-0.028c2.261-7.41,3.489-15.266,3.489-23.405c0-7.421-1.012-14.771-3.008-21.845
	c-4.184-14.829-12.534-28.091-24.15-38.351c-2.068-1.828-4.229-3.527-6.457-5.12l0.023-0.237l-0.421-0.04
	c-11.238-7.937-24.321-12.846-38.022-14.259l0.001-0.02c-0.174-0.019-0.351-0.023-0.525-0.04c-0.798-0.077-1.6-0.131-2.402-0.184
	c-0.476-0.031-0.949-0.074-1.425-0.098c-1.298-0.062-2.601-0.1-3.907-0.1c-15.219,0-29.462,4.256-41.602,11.641
	c-9.176,5.581-17.132,12.963-23.417,21.632l-1.803,2.566c-7.008,10.5-11.61,22.733-13.011,35.911l-0.041,0.032
	c0.01,0.013,0.022,0.023,0.032,0.036c-0.293,2.786-0.451,5.611-0.451,8.474l0,0c0,2.907,0.157,5.832,0.466,8.696
	C21.498,110.059,21.519,110.177,21.533,110.298z M23.044,111.407c2.122,0.28,4.271,0.428,6.417,0.428
	c4.16,0,8.292-0.528,12.282-1.568c3.565-0.929,7.013-2.288,10.277-4.005c-0.036,0.834-0.067,1.67-0.067,2.513
	c0,0.942,0.032,1.887,0.088,2.831c-4.173,3.004-8.285,6.64-12.098,10.64c-0.788,0.14-2.129,0.349-2.897,0.455
	c-3.788,0.536-7.688,0.736-11.536,0.641C24.396,119.484,23.569,115.5,23.044,111.407z M25.911,124.714
	c0.433,0.011,0.862,0.032,1.297,0.032c3.363,0,6.737-0.236,10.028-0.704c0.33-0.046,0.772-0.112,1.227-0.183
	c-3.171,3.482-6.096,7.195-8.629,11.002C28.305,131.6,26.991,128.213,25.911,124.714z M40.358,151.482
	c-3.831-4.646-7.14-9.748-9.84-15.223c5.7-8.742,13.544-17.078,21.66-23.059c0.584,6.404,2.406,12.804,5.384,18.751
	C51.512,136.668,46.273,142.32,42,148.787c-0.378,0.572-0.892,1.436-1.336,2.183L40.358,151.482z M64.91,142.979
	c1.206,1.389,2.47,2.698,3.789,3.931c-0.469,0.063-0.919,0.125-1.269,0.191l-4.688-4.148l-2.333,5.821
	c-1.131,0.22-2.285,0.417-3.439,0.592l-4.14-4.713l-3.034,5.465c-1.18,0.076-2.357,0.127-3.508,0.153l-1.815-2.68
	c3.884-5.47,8.492-10.307,13.732-14.422c0.922,1.73,1.923,3.426,3.02,5.03C62.364,139.866,63.604,141.475,64.91,142.979z
	 M63.217,96.667c0.258,0.765,0.541,1.542,0.858,2.332c-0.05,0.02-0.099,0.035-0.151,0.058
	C63.666,98.247,63.424,97.444,63.217,96.667z M82.975,104.417c-0.825-0.546-1.952-1.398-3.276-2.45
	c-1.314-1.064-2.792-2.374-4.298-3.854c-0.718-0.774-1.506-1.53-2.214-2.384c-0.742-0.824-1.435-1.711-2.129-2.594
	c-1.349-1.797-2.579-3.684-3.543-5.546c-0.485-0.933-0.912-1.84-1.231-2.748c-0.125-0.372-0.231-0.736-0.335-1.099
	c0.076,0.176,0.152,0.347,0.227,0.524c0.395,0.874,0.859,1.764,1.388,2.655c0.52,0.897,1.099,1.797,1.729,2.682
	c0.613,0.896,1.293,1.766,1.989,2.617c2.779,3.427,6.09,6.355,8.712,8.34c1.315,0.992,2.434,1.78,3.247,2.289
	c0.528,0.35,0.889,0.588,1.086,0.718c-0.001-0.003-0.001-0.006-0.002-0.008c-0.194-0.136-0.546-0.382-1.062-0.742
	c-0.799-0.53-1.898-1.349-3.181-2.372c-2.562-2.046-5.779-5.049-8.439-8.513c-0.666-0.861-1.316-1.737-1.897-2.638
	c-0.598-0.889-1.145-1.791-1.632-2.684c-0.495-0.89-0.928-1.774-1.285-2.626c-0.263-0.614-0.437-1.204-0.596-1.779
	c0.198,0.453,0.405,0.919,0.651,1.393c0.41,0.82,0.89,1.656,1.411,2.505c1.048,1.691,2.301,3.407,3.675,5.017
	c0.662,0.826,1.409,1.578,2.106,2.35c0.748,0.722,1.438,1.48,2.188,2.128c0.736,0.663,1.434,1.317,2.149,1.877
	c0.706,0.568,1.353,1.131,2.002,1.585c0.636,0.47,1.22,0.899,1.737,1.28c0.536,0.354,1.002,0.662,1.386,0.916
	c0.142,0.093,0.258,0.171,0.376,0.249c-0.002-0.013-0.005-0.024-0.007-0.037c-0.11-0.077-0.218-0.152-0.348-0.243
	c-0.377-0.264-0.836-0.585-1.361-0.953c-0.506-0.393-1.077-0.838-1.699-1.322c-0.634-0.469-1.266-1.047-1.953-1.632
	c-0.697-0.575-1.375-1.245-2.089-1.923c-0.729-0.664-1.394-1.437-2.118-2.173c-0.672-0.782-1.393-1.548-2.026-2.383
	c-1.318-1.629-2.512-3.356-3.498-5.049c-0.976-1.7-1.808-3.321-2.219-4.832c-0.119-0.424-0.222-0.827-0.315-1.212
	c0.619,1.459,1.424,3.127,2.441,4.824c0.993,1.711,2.2,3.447,3.536,5.071c1.318,1.64,2.776,3.158,4.229,4.478
	c0.716,0.675,1.442,1.285,2.142,1.849c0.681,0.588,1.388,1.062,2.008,1.541c0.624,0.474,1.238,0.851,1.759,1.214
	c0.425,0.299,0.808,0.53,1.151,0.739c-0.006-0.037-0.012-0.071-0.019-0.108c-0.318-0.214-0.667-0.451-1.052-0.749
	c-0.503-0.387-1.094-0.788-1.692-1.288c-0.595-0.505-1.273-1.009-1.921-1.623c-0.667-0.591-1.359-1.229-2.035-1.926
	c-1.375-1.371-2.74-2.934-3.958-4.602c-2.487-3.302-4.329-7.022-5.377-9.909c-0.395-1.054-0.693-1.99-0.919-2.759
	c0.269,0.655,0.592,1.399,0.981,2.231c1.286,2.772,3.356,6.303,5.912,9.45c2.532,3.167,5.49,5.95,7.878,7.798
	c0.688,0.547,1.317,1.009,1.875,1.404c-0.009-0.062-0.018-0.124-0.027-0.186c-0.51-0.401-1.079-0.866-1.694-1.405
	c-2.285-1.951-5.08-4.85-7.417-8.082c-2.363-3.216-4.214-6.758-5.332-9.508c-0.482-1.176-0.852-2.182-1.106-2.972
	c0.242,0.629,0.532,1.34,0.885,2.13c1.205,2.726,3.179,6.204,5.657,9.286c2.438,3.115,5.337,5.811,7.614,7.671
	c0.4,0.32,0.77,0.61,1.123,0.887c-0.011-0.086-0.022-0.169-0.032-0.255c-0.297-0.257-0.604-0.524-0.933-0.815
	c-2.174-1.963-4.911-4.776-7.153-7.953c-2.283-3.147-4.033-6.628-5.071-9.326c-0.352-0.906-0.629-1.71-0.85-2.393
	c0.224,0.533,0.486,1.131,0.787,1.783c1.146,2.518,2.941,5.75,5.115,8.709c2.158,2.97,4.667,5.656,6.711,7.477
	c0.437,0.4,0.847,0.754,1.228,1.074c-0.008-0.08-0.018-0.158-0.026-0.238c-0.326-0.309-0.668-0.639-1.034-1.011
	c-1.936-1.916-4.275-4.709-6.241-7.741c-1.983-3.025-3.568-6.277-4.552-8.785c-0.5-1.252-0.874-2.311-1.106-3.06
	c-0.022-0.069-0.039-0.122-0.058-0.185c0.264,0.709,0.637,1.618,1.112,2.679c1.091,2.459,2.797,5.624,4.886,8.521
	c2.069,2.91,4.49,5.542,6.471,7.32c0.115,0.105,0.224,0.201,0.335,0.301c-0.009-0.113-0.021-0.224-0.03-0.338
	c-0.047-0.047-0.09-0.088-0.137-0.138c-1.871-1.873-4.121-4.608-5.997-7.578c-1.896-2.96-3.392-6.144-4.322-8.591
	c-0.253-0.663-0.471-1.263-0.654-1.797c0.114,0.27,0.236,0.55,0.365,0.843c1.039,2.37,2.64,5.44,4.607,8.265
	c1.903,2.771,4.132,5.28,6.002,7.006c-0.008-0.13-0.012-0.263-0.019-0.393c-1.715-1.807-3.684-4.312-5.334-7.036
	c-1.775-2.883-3.167-5.971-4.047-8.336c-0.227-0.605-0.424-1.158-0.592-1.651c0.186,0.447,0.396,0.941,0.634,1.479
	c1.004,2.268,2.513,5.22,4.359,7.955c1.543,2.325,3.309,4.449,4.911,6.074c-0.005-0.159-0.006-0.323-0.011-0.484
	c-1.421-1.664-2.939-3.758-4.245-6.001c-1.195-2.019-2.2-4.125-2.989-6c0.837,1.584,1.819,3.277,2.942,4.907
	c1.34,1.974,2.852,3.821,4.261,5.304c-0.001-0.191,0.002-0.383,0.002-0.575c-1.223-1.491-2.495-3.264-3.611-5.146
	c-1.065-1.768-1.97-3.594-2.718-5.271c0.812,1.463,1.753,3.02,2.82,4.519c1.119,1.596,2.347,3.077,3.53,4.356
	c0.005-0.212,0.013-0.424,0.021-0.635c-0.993-1.254-1.998-2.659-2.904-4.147c-1.208-1.953-2.232-3.996-3.024-5.778
	c0.88,1.591,1.958,3.358,3.179,5.038c0.896,1.245,1.86,2.428,2.812,3.489c0.014-0.241,0.03-0.481,0.047-0.724
	c-0.76-0.998-1.518-2.076-2.216-3.199c-1.228-1.947-2.262-3.981-3.057-5.735c0.785,1.585,1.788,3.356,2.956,5.022
	c0.75,1.08,1.564,2.101,2.378,3.03c0.021-0.252,0.051-0.504,0.075-0.757c-0.625-0.852-1.241-1.749-1.803-2.694
	c-1.16-1.931-2.088-3.952-2.765-5.683c0.803,1.534,1.828,3.286,2.972,4.966c0.553,0.816,1.128,1.599,1.701,2.354
	c0.033-0.285,0.076-0.568,0.114-0.853c-0.394-0.623-0.784-1.26-1.158-1.912c-1.284-2.225-2.366-4.549-3.064-6.329
	c-0.118-0.294-0.222-0.565-0.321-0.826c0.066,0.131,0.13,0.262,0.202,0.399c0.846,1.679,2.105,3.842,3.526,5.887
	c0.331,0.477,0.67,0.944,1.011,1.402c0.051-0.317,0.114-0.633,0.171-0.948c-0.177-0.29-0.357-0.576-0.53-0.871
	c-1.184-2.023-2.194-4.115-2.887-5.772c0.809,1.55,1.942,3.477,3.217,5.32c0.115,0.166,0.234,0.325,0.351,0.489
	c0.07-0.346,0.154-0.688,0.232-1.031c-1.001-1.755-1.87-3.539-2.507-5.02c0.728,1.288,1.659,2.786,2.684,4.249
	c0.091-0.367,0.195-0.729,0.296-1.092c-0.88-1.582-1.648-3.152-2.195-4.411c0.638,1.114,1.461,2.438,2.377,3.766
	c0.114-0.382,0.238-0.758,0.365-1.133c-0.699-1.285-1.312-2.531-1.766-3.55c-0.091-0.204-0.175-0.396-0.254-0.58
	c0.559,0.964,1.331,2.228,2.226,3.529c0.142-0.396,0.292-0.786,0.448-1.175c-0.5-0.941-0.941-1.838-1.291-2.588
	c0.406,0.653,0.901,1.416,1.447,2.21c0.168-0.402,0.341-0.801,0.525-1.192c-0.366-0.696-0.695-1.354-0.962-1.914
	c0.315,0.489,0.691,1.052,1.099,1.638c0.194-0.401,0.389-0.803,0.602-1.193c-0.041-0.077-0.092-0.167-0.131-0.243
	c0.046,0.066,0.104,0.143,0.151,0.21c0.218-0.398,0.449-0.786,0.687-1.17c-0.275-0.526-0.525-1.015-0.709-1.39
	c0.224,0.327,0.516,0.74,0.832,1.182c0.246-0.389,0.513-0.762,0.78-1.135c-0.092-0.174-0.19-0.357-0.269-0.511
	c0.096,0.133,0.211,0.288,0.32,0.437c0.271-0.376,0.557-0.741,0.852-1.102c-0.042-0.077-0.092-0.171-0.13-0.242
	c0.047,0.062,0.108,0.141,0.159,0.208c0.225-0.272,0.439-0.553,0.677-0.814l0.42,0.067c-0.096-0.178-0.182-0.338-0.26-0.484
	c2.384-1.621,4.744-3.529,6.762-5.833c2.221-2.532,2.713-5.89,3.069-9.219c5.532,6.65,9.664,11.027,14.113,13.594
	c1.531,0.884,3.215,1.616,5.196,2.477c3.604,1.565,8.045,3.516,13.041,7.259l-0.054,0.033c-0.211,0.127-0.417,0.258-0.621,0.395
	l-0.153,0.103l0.009,0.646l-0.605-0.206l-0.145,0.113c-0.195,0.154-0.386,0.312-0.572,0.474l-0.138,0.121l0.089,0.633l-0.629-0.129
	l-0.129,0.132c-0.173,0.176-0.342,0.354-0.506,0.539l-0.122,0.137l0.168,0.619l-0.64-0.049l-0.112,0.145
	c-0.151,0.196-0.295,0.396-0.436,0.598l-0.105,0.151l0.247,0.596l-0.644,0.031l-0.092,0.158c-0.124,0.212-0.242,0.428-0.356,0.645
	l-0.085,0.164l0.32,0.562l-0.643,0.114l-0.071,0.169c-0.095,0.224-0.185,0.448-0.27,0.676l-0.064,0.175l0.392,0.521l-0.619,0.192
	l-0.051,0.177c-0.067,0.234-0.128,0.471-0.183,0.709l-0.042,0.18l0.452,0.467l-0.595,0.271l-0.027,0.182
	c-0.037,0.239-0.067,0.48-0.091,0.724l-0.018,0.183l0.509,0.407l-0.552,0.34l-0.013,0.552l0.013,0.55l0.552,0.341l-0.509,0.408
	L125,81.143c0.024,0.243,0.054,0.484,0.091,0.724l0.027,0.182l0.595,0.27l-0.452,0.467l0.042,0.18
	c0.055,0.238,0.116,0.476,0.183,0.71l0.051,0.177l0.619,0.191l-0.392,0.522l0.064,0.173c0.085,0.229,0.175,0.454,0.27,0.677
	l0.072,0.17l0.642,0.113l-0.32,0.562l0.085,0.163c0.114,0.217,0.233,0.433,0.356,0.644l0.092,0.16l0.644,0.03l-0.247,0.596
	l0.105,0.151c0.141,0.203,0.285,0.401,0.436,0.598l0.112,0.146l0.64-0.05l-0.168,0.62l0.122,0.138
	c0.164,0.183,0.333,0.363,0.507,0.538l0.129,0.131l0.629-0.129l-0.089,0.632l0.138,0.122c0.187,0.163,0.377,0.32,0.572,0.475
	l0.145,0.113l0.605-0.207l-0.009,0.646l0.154,0.103c0.203,0.136,0.409,0.268,0.62,0.394l0.158,0.096l0.582-0.284l0.071,0.642
	l0.164,0.084c0.22,0.108,0.44,0.214,0.664,0.312l0.168,0.075l0.543-0.355l0.153,0.632l0.173,0.061
	c0.229,0.082,0.461,0.157,0.696,0.227l0.176,0.053l0.495-0.422l0.231,0.609l0.18,0.038c0.237,0.052,0.477,0.097,0.717,0.138
	l0.183,0.029l0.438-0.48l0.304,0.572l0.183,0.017c0.243,0.022,0.487,0.036,0.732,0.046l0.184,0.008l0.375-0.531l0.373,0.531
	l0.184-0.008c0.246-0.01,0.49-0.023,0.733-0.046l0.182-0.017l0.305-0.572l0.439,0.48l0.181-0.029
	c0.241-0.041,0.48-0.086,0.718-0.138l0.18-0.038l0.231-0.609l0.495,0.422l0.176-0.053c0.235-0.069,0.467-0.145,0.697-0.227
	l0.173-0.061l0.152-0.632l0.542,0.355l0.17-0.075c0.223-0.099,0.443-0.204,0.663-0.312l0.165-0.084l0.072-0.642l0.582,0.284
	l0.158-0.096c0.21-0.127,0.417-0.258,0.62-0.395l0.153-0.102l-0.01-0.646l0.607,0.207l0.145-0.115
	c0.194-0.152,0.385-0.31,0.571-0.473l0.139-0.122l-0.089-0.632l0.629,0.129l0.129-0.131c0.045-0.046,0.087-0.095,0.132-0.141
	c2.23,5.766,3.369,12.126,3.369,18.922c0,15.698-5.58,28.871-16.136,38.09c-9.058,7.913-20.82,12.13-34.014,12.193l-0.256,0.002
	c-8.049-0.002-15.693-1.869-22.529-5.384c-0.715-0.646-1.565-1.454-2.497-2.404c1.712,1.078,3.486,2.059,5.328,2.893
	c2.665,1.227,5.476,2.131,8.349,2.681c-2.864-0.611-5.644-1.57-8.272-2.845c-2.25-1.076-4.389-2.368-6.428-3.799
	c-0.996-1.067-2.051-2.277-3.113-3.618c0.618,0.48,1.22,0.982,1.857,1.438c0.491,0.353,0.991,0.69,1.492,1.026
	c-0.015,0.088-0.052,0.168-0.052,0.26c0,0.871,0.705,1.576,1.576,1.576c0.339,0,0.635-0.13,0.892-0.312
	c3.714,2.198,7.709,3.918,11.918,4.854c-4.151-1.014-8.061-2.789-11.682-5.023c0.232-0.24,0.368-0.561,0.411-0.909
	c0.401,0.229,0.799,0.463,1.215,0.666l1.824,0.925l1.88,0.811c1.239,0.57,2.559,0.928,3.835,1.402
	c-1.264-0.503-2.578-0.89-3.802-1.488l-1.854-0.847l-1.797-0.962c-0.436-0.226-0.854-0.482-1.272-0.736
	c-0.025-0.85-0.713-1.532-1.568-1.532c-0.239,0-0.459,0.062-0.662,0.157l-1.655-1.161c-0.565-0.376-1.083-0.817-1.623-1.228
	c-0.538-0.415-1.074-0.83-1.581-1.281c-0.511-0.446-1.04-0.872-1.535-1.336c-0.451-0.409-0.874-0.85-1.312-1.272
	c-0.324-0.524-0.64-1.061-0.948-1.608c0.458,0.437,0.903,0.888,1.371,1.312l1.493,1.261c0.49,0.431,1.027,0.802,1.538,1.204
	c0.512,0.402,1.035,0.79,1.579,1.147c0.54,0.363,1.068,0.744,1.616,1.094c1.117,0.666,2.208,1.377,3.376,1.952
	c0.58,0.293,1.141,0.623,1.735,0.887l1.78,0.795c1.182,0.54,2.427,0.917,3.636,1.384c-1.198-0.494-2.436-0.9-3.602-1.469
	l-1.755-0.832c-0.585-0.276-1.138-0.619-1.708-0.925c-1.148-0.599-2.219-1.332-3.313-2.02c-0.538-0.36-1.054-0.751-1.581-1.126
	c-0.531-0.367-1.042-0.764-1.541-1.175c-0.498-0.412-1.022-0.792-1.499-1.229l-1.451-1.285c-0.854-0.814-1.691-1.646-2.498-2.506
	c-0.238-0.465-0.468-0.938-0.691-1.417c0.194,0.196,0.383,0.409,0.578,0.601c1.376,1.316,2.754,2.539,4.14,3.598
	c1.373,1.073,2.721,2.023,4.008,2.83c1.26,0.851,2.503,1.487,3.568,2.105c1.106,0.548,2.055,1.057,2.86,1.418
	c1.622,0.706,2.548,1.11,2.548,1.11s-0.916-0.428-2.519-1.173c-0.797-0.384-1.73-0.914-2.817-1.486
	c-1.047-0.645-2.269-1.309-3.501-2.187c-1.26-0.834-2.576-1.813-3.912-2.912c-1.349-1.085-2.683-2.332-4.012-3.668
	c-0.543-0.563-1.079-1.157-1.61-1.759c-0.142-0.344-0.279-0.691-0.413-1.042c0.125,0.137,0.232,0.289,0.36,0.423
	c1.586,1.697,3.321,3.245,5.148,4.668c0.942,0.672,1.852,1.391,2.839,1.996c0.959,0.647,1.955,1.234,2.965,1.795
	c0.086,0.053,0.179,0.093,0.266,0.144c0.285,0.397,0.728,0.673,1.254,0.675c0.52,0.258,1.044,0.506,1.557,0.774
	c0.513,0.265,1.054,0.466,1.58,0.702l1.589,0.685l-1.57-0.726c-0.519-0.249-1.055-0.467-1.561-0.743
	c-0.456-0.254-0.92-0.491-1.381-0.733c0.578-0.079,1.055-0.448,1.256-0.977c0.33,0.171,0.656,0.342,0.949,0.469
	c1.468,0.678,2.308,1.065,2.308,1.065s-0.828-0.41-2.279-1.126c-0.297-0.139-0.624-0.32-0.958-0.506
	c0.046-0.147,0.093-0.297,0.093-0.46c0-0.187-0.046-0.36-0.106-0.526c0.804,0.396,1.613,0.782,2.418,1.176
	c-0.812-0.424-1.628-0.838-2.438-1.266c-0.239-0.564-0.799-0.96-1.451-0.96c-0.072,0-0.135,0.031-0.205,0.042
	c-0.653-0.371-1.304-0.744-1.925-1.169c-0.97-0.615-1.927-1.247-2.845-1.936c-0.945-0.65-1.817-1.397-2.719-2.104
	c-0.86-0.757-1.736-1.495-2.546-2.303c-0.833-0.784-1.617-1.619-2.374-2.474c-0.653-0.729-1.258-1.497-1.847-2.276
	c-0.034-0.176-0.066-0.354-0.097-0.532c1.093,1.333,2.254,2.574,3.426,3.711c1.231,1.145,2.46,2.205,3.68,3.142
	c1.211,0.949,2.416,1.763,3.526,2.513c1.146,0.693,2.169,1.376,3.136,1.879c0.961,0.51,1.775,0.999,2.489,1.316
	c1.407,0.676,2.211,1.062,2.211,1.062s-0.794-0.407-2.182-1.119c-0.705-0.337-1.505-0.847-2.449-1.38
	c-0.949-0.525-1.952-1.233-3.074-1.953c-1.086-0.776-2.262-1.616-3.439-2.591c-1.187-0.961-2.377-2.045-3.565-3.209
	c-1.37-1.399-2.729-2.943-3.949-4.608c-0.038-0.289-0.066-0.58-0.096-0.872c0.223,0.276,0.436,0.565,0.663,0.834
	c1.107,1.31,2.288,2.515,3.486,3.619c1.196,1.104,2.4,2.12,3.594,3.013c1.173,0.92,2.355,1.688,3.432,2.414
	c0.625,0.375,1.197,0.724,1.754,1.057c1.513,1.559,3.251,2.812,4.978,3.67c0.708,0.353,2.463,1.033,4.818,1.486
	c1.277,0.274,2.395,0.386,3.307,0.41c1.02,0.055,2.067,0.033,3.104-0.053c-0.455,0.003-0.845-0.016-1.127-0.049
	c-2.297-0.275-5.366-0.664-7.668-2.046c-4.997-2.998-7.603-7.442-7.537-12.851c0.062-5.13,2.357-9.544,6.392-12.502
	c0.757-0.587,1.621-1.135,2.585-1.576c0.054-0.027,0.104-0.058,0.159-0.084c3.147-1.537,6.735-1.174,9.189-0.601
	c3.1,0.725,4.117,1.129,7.201,3.097c3.534,2.253,6.363,7.044,6.363,12.026c0,1.678-0.292,3.286-0.823,4.783
	c4.59-2.845,9.337-5.786,12.648-5.845c0.021,0,0.042,0,0.063,0c2.885,0,6,3.397,9.012,6.684c3.01,3.284,5.852,6.386,8.773,6.611
	c1.81,0.148,3.576-0.606,5.233-2.225c4.132-4.039,6.584-12.656,6.281-18.171c-0.3-5.469-3.482-9.39-7.598-9.269
	c-3.692,0.09-7.601,2.937-11.381,5.689c-3.646,2.657-7.416,5.403-10.684,5.403c-0.012,0-0.026,0-0.038,0
	c-2.738-0.018-5.618-2.166-8.952-4.655c-4.817-3.595-10.813-8.068-19.291-8.27c-3.384-0.054-6.748,0.812-9.733,2.45
	c-0.165-0.107-0.344-0.224-0.56-0.364c-0.449-0.314-1.041-0.635-1.636-1.114c-0.606-0.462-1.292-0.982-2.039-1.55
	c-0.707-0.617-1.473-1.285-2.282-1.992c-0.754-0.767-1.588-1.534-2.376-2.399c-0.773-0.88-1.607-1.756-2.345-2.74
	c-0.783-0.945-1.502-1.964-2.213-2.987c-1.52-2.219-2.829-4.561-3.897-6.805c0.502,0.959,1.075,1.909,1.661,2.873
	c0.667,1.021,1.334,2.066,2.086,3.051c0.732,0.997,1.498,1.969,2.304,2.88c0.762,0.949,1.637,1.773,2.424,2.619
	c0.827,0.81,1.662,1.555,2.444,2.267c0.825,0.664,1.605,1.29,2.325,1.869c0.757,0.529,1.451,1.015,2.065,1.445
	c0.607,0.44,1.192,0.734,1.645,1.023c0.921,0.551,1.448,0.866,1.448,0.866s-0.514-0.336-1.413-0.923
	c-0.441-0.307-1.016-0.624-1.603-1.088c-0.594-0.451-1.264-0.96-1.995-1.515c-0.692-0.603-1.442-1.256-2.235-1.946
	c-0.748-0.738-1.545-1.508-2.33-2.339c-0.747-0.87-1.576-1.714-2.292-2.682c-0.76-0.93-1.476-1.915-2.158-2.926
	c-0.216-0.309-0.413-0.627-0.616-0.943c0.683,0.903,1.412,1.771,2.144,2.609c0.794,0.888,1.597,1.741,2.414,2.527
	c0.787,0.816,1.639,1.509,2.396,2.218c0.802,0.658,1.56,1.28,2.259,1.854c0.728,0.537,1.396,1.029,1.988,1.466
	c0.587,0.442,1.14,0.767,1.574,1.066c0.879,0.581,1.383,0.914,1.383,0.914s-0.494-0.346-1.358-0.949
	c-0.425-0.311-0.97-0.651-1.544-1.107c-0.579-0.451-1.231-0.959-1.943-1.513c-0.682-0.592-1.42-1.231-2.201-1.908
	c-0.736-0.726-1.564-1.436-2.324-2.269c-0.792-0.801-1.565-1.669-2.33-2.569c-0.751-0.91-1.503-1.846-2.192-2.826
	c-1.393-1.946-2.637-4.005-3.553-6.037c-0.242-0.542-0.446-1.085-0.629-1.624c0.197,0.429,0.402,0.86,0.627,1.295
	c1.033,1.949,2.322,3.916,3.766,5.758c0.728,0.916,1.462,1.828,2.25,2.665c0.761,0.864,1.57,1.655,2.347,2.426
	c1.578,1.518,3.147,2.825,4.525,3.9c1.402,1.048,2.579,1.901,3.443,2.441c0.85,0.561,1.336,0.882,1.336,0.882
	s-0.478-0.334-1.312-0.917c-0.85-0.562-2.005-1.448-3.372-2.526c-1.345-1.108-2.874-2.451-4.402-4.001
	c-0.752-0.786-1.534-1.593-2.266-2.469c-0.76-0.851-1.463-1.773-2.159-2.698c-1.379-1.857-2.599-3.832-3.558-5.765
	c-0.476-0.965-0.879-1.927-1.15-2.874c-0.073-0.241-0.132-0.472-0.198-0.708c0.393,0.922,0.843,1.876,1.372,2.825
	c1.033,1.874,2.33,3.752,3.741,5.532c0.726,0.873,1.448,1.747,2.216,2.559c0.736,0.84,1.55,1.581,2.292,2.341
	c1.554,1.449,3.071,2.724,4.417,3.757c1.358,1.021,2.506,1.841,3.345,2.365c0.824,0.546,1.296,0.856,1.296,0.856
	S83.784,104.983,82.975,104.417z M145.902,68.269l0.862-0.421c0.171,0.189,0.339,0.382,0.514,0.566l0.012,0.012l-0.01,0.717
	l1.166-0.396c0.007,0.005,0.014,0.011,0.021,0.016l-0.115,0.719l0.253,0.229l-0.067,0.475l0.5-0.104
	c0.177,0.153,0.35,0.311,0.53,0.457l0.259,0.211l-0.171,0.627l1.117-0.087l-0.006,0.163l0.281,0.194l-0.433,1.049l1.235,0.061
	c0.055,0.098,0.11,0.196,0.163,0.294l-0.611,1.077l1.224,0.215c0.042,0.102,0.083,0.204,0.123,0.307l-0.747,0.996l1.188,0.366
	c0.028,0.107,0.056,0.215,0.082,0.323l-0.862,0.892l1.134,0.515c0.016,0.106,0.029,0.217,0.042,0.325l-0.97,0.779l1.057,0.65
	l0.003,0.167l-0.003,0.166l-1.057,0.649l0.97,0.781c-0.012,0.108-0.026,0.217-0.042,0.324l-1.134,0.516l0.862,0.892
	c-0.026,0.107-0.053,0.216-0.082,0.322l-1.188,0.366l0.747,0.996c-0.039,0.103-0.08,0.206-0.123,0.307l-1.224,0.215l0.611,1.076
	c-0.053,0.101-0.107,0.198-0.163,0.295l-1.235,0.061l0.471,1.143c-0.064,0.092-0.132,0.183-0.199,0.273l-1.231-0.096l0.324,1.191
	c-0.077,0.082-0.154,0.165-0.232,0.248l-1.21-0.249l0.173,1.22c-0.087,0.074-0.175,0.147-0.264,0.219l-1.166-0.397l0.017,1.238
	c-0.094,0.061-0.188,0.121-0.282,0.181l-1.113-0.544l-0.138,1.229c-0.1,0.05-0.201,0.098-0.303,0.145l-1.037-0.68l-0.292,1.208
	c-0.104,0.035-0.209,0.069-0.314,0.103l-0.947-0.807l-0.439,1.162c-0.109,0.022-0.216,0.044-0.326,0.063l-0.838-0.919l-0.581,1.097
	c-0.11,0.007-0.222,0.015-0.333,0.02l-0.714-1.014l-0.715,1.014c-0.111-0.005-0.222-0.013-0.333-0.02l-0.582-1.097l-0.838,0.919
	c-0.109-0.02-0.217-0.041-0.325-0.063l-0.441-1.162l-0.946,0.807c-0.104-0.033-0.209-0.067-0.315-0.103l-0.291-1.208l-1.037,0.68
	c-0.103-0.047-0.203-0.095-0.304-0.145l-0.137-1.229l-1.114,0.544c-0.095-0.06-0.188-0.12-0.282-0.181l0.018-1.238l-1.167,0.397
	c-0.088-0.071-0.177-0.145-0.263-0.218l0.172-1.221l-1.21,0.249c-0.078-0.083-0.157-0.166-0.232-0.248l0.324-1.191l-1.231,0.096
	c-0.067-0.091-0.134-0.182-0.2-0.273l0.472-1.143l-1.236-0.061c-0.056-0.097-0.11-0.194-0.163-0.295l0.612-1.076l-1.226-0.215
	c-0.042-0.101-0.081-0.204-0.122-0.307l0.748-0.996l-1.187-0.366c-0.029-0.106-0.057-0.215-0.083-0.322l0.863-0.892l-1.134-0.516
	c-0.015-0.107-0.028-0.216-0.041-0.324l0.971-0.781l-1.058-0.649l-0.004-0.166l0.004-0.167l1.058-0.65l-0.971-0.779
	c0.013-0.108,0.026-0.219,0.041-0.325l1.134-0.515l-0.863-0.892c0.026-0.108,0.054-0.216,0.083-0.323l1.187-0.366l-0.748-0.996
	c0.041-0.103,0.08-0.205,0.123-0.307l1.225-0.215l-0.612-1.077c0.053-0.098,0.107-0.196,0.163-0.294l1.236-0.061l-0.472-1.142
	c0.066-0.092,0.132-0.184,0.2-0.274l1.231,0.097l-0.324-1.191c0.077-0.083,0.154-0.167,0.233-0.249l1.209,0.249l-0.172-1.221
	c0.086-0.073,0.174-0.146,0.263-0.217l1.167,0.396l-0.018-1.238c0.094-0.061,0.188-0.121,0.282-0.18l1.114,0.544l0.13-1.168
	l0.075-0.096c0.079-0.036,0.156-0.075,0.236-0.111l1.037,0.68l0.291-1.208c0.105-0.035,0.21-0.069,0.315-0.102l0.946,0.806
	l0.441-1.162c0.107-0.022,0.216-0.043,0.325-0.062l0.838,0.919l0.582-1.097c0.11-0.008,0.222-0.016,0.333-0.021l0.715,1.015
	l0.714-1.015c0.111,0.005,0.223,0.013,0.333,0.021l0.581,1.097l0.838-0.919c0.109,0.02,0.217,0.04,0.326,0.062l0.439,1.162
	l0.947-0.806c0.105,0.032,0.21,0.066,0.314,0.102l0.292,1.208l1.037-0.68c0.102,0.048,0.203,0.095,0.303,0.145L145.902,68.269z
	 M145.779,66.299l0.703-0.042l-0.097,0.333l-0.152-0.077C146.083,66.438,145.93,66.369,145.779,66.299z M147.905,136.386
	c2.829,2.563,5.43,5.349,7.79,8.334l-4.081,4.646c-1.054-0.157-2.091-0.33-3.438-0.592l-2.333-5.821l-4.689,4.148
	c-0.369-0.07-0.849-0.136-1.348-0.202c-0.106-0.016-0.217-0.03-0.327-0.045C142.812,143.749,145.628,140.245,147.905,136.386z
	 M72.972,145.193c-0.459-0.619-0.915-1.258-1.364-1.924c0.494,0.438,1.015,0.842,1.52,1.264c0.521,0.442,1.07,0.849,1.62,1.254
	c0.553,0.402,1.083,0.833,1.661,1.2l1.593,1.064c-0.232,0.169-0.433,0.376-0.546,0.645c-0.453-0.318-0.905-0.638-1.348-0.969
	C75.03,146.924,73.99,146.072,72.972,145.193z M68.886,134.564c1.258,1.208,2.56,2.275,3.815,3.258
	c0.643,0.471,1.269,0.93,1.874,1.371c0.625,0.413,1.23,0.812,1.81,1.195c0.777,0.482,1.5,0.914,2.198,1.317
	c-0.189,0.259-0.323,0.562-0.323,0.908c0,0.208,0.045,0.404,0.118,0.585c-0.983-0.581-1.951-1.186-2.88-1.85
	c-0.964-0.627-1.85-1.364-2.766-2.056c-1.775-1.459-3.449-3.035-4.97-4.748c-0.472-0.522-0.889-1.088-1.323-1.641
	c-0.147-0.451-0.289-0.905-0.419-1.366C66.944,132.612,67.893,133.642,68.886,134.564z M65.727,130.234
	c-0.027-0.036-0.053-0.074-0.078-0.112c-0.002-0.011-0.004-0.021-0.007-0.033c0.387,0.462,0.762,0.937,1.176,1.374
	c0.789,0.844,1.604,1.668,2.466,2.437c0.84,0.795,1.743,1.516,2.629,2.255c0.927,0.687,1.823,1.415,2.791,2.044
	c0.941,0.667,1.919,1.276,2.907,1.868c0.593,0.382,1.212,0.718,1.833,1.051c-0.297,0.078-0.561,0.222-0.763,0.441
	c-0.687-0.421-1.399-0.872-2.163-1.374c-0.567-0.396-1.157-0.809-1.769-1.235c-0.589-0.456-1.198-0.927-1.825-1.41
	c-1.221-1.009-2.482-2.102-3.695-3.327C67.999,133.006,66.828,131.66,65.727,130.234z M78.901,111.562
	c-0.699-0.537-1.422-1.164-2.205-1.802c-0.761-0.662-1.529-1.401-2.333-2.151c-0.747-0.809-1.581-1.584-2.312-2.479
	c-0.764-0.863-1.503-1.771-2.195-2.715c-1.278-1.69-2.397-3.478-3.354-5.235c0.995,1.552,2.086,3.114,3.314,4.596
	c1.451,1.807,3.067,3.471,4.645,4.952c0.822,0.706,1.571,1.438,2.361,2.039c0.79,0.601,1.502,1.21,2.217,1.697
	c0.998,0.699,1.844,1.258,2.587,1.717c-0.319,0.216-0.626,0.449-0.933,0.685C80.145,112.475,79.558,112.05,78.901,111.562z
	 M80.564,112.96c-0.346,0.27-0.679,0.56-1.009,0.854c-0.327-0.243-0.647-0.477-1-0.758c-2.899-2.251-6.43-5.694-9.267-9.659
	c-0.789-1.092-1.508-2.217-2.179-3.351c0.665,0.969,1.379,1.925,2.137,2.845c0.743,0.931,1.529,1.82,2.34,2.664
	c0.777,0.874,1.654,1.625,2.44,2.409c0.843,0.724,1.647,1.438,2.441,2.072c0.814,0.61,1.566,1.21,2.291,1.721
	C79.42,112.208,80.011,112.6,80.564,112.96z M68.669,103.861c3.042,3.914,6.741,7.242,9.74,9.387
	c0.353,0.26,0.672,0.475,0.999,0.697c-0.217,0.199-0.445,0.381-0.653,0.589c-0.017,0.017-0.03,0.034-0.046,0.051
	c-0.748-0.604-1.601-1.204-2.42-1.938c-0.845-0.714-1.716-1.486-2.575-2.332c-0.871-0.831-1.73-1.733-2.565-2.679
	c-0.84-0.942-1.651-1.938-2.412-2.968c-0.774-1.021-1.47-2.097-2.126-3.168c-0.378-0.646-0.711-1.291-1.021-1.941
	c-0.054-0.192-0.124-0.353-0.217-0.462c-0.052-0.115-0.112-0.229-0.162-0.345C66.219,100.478,67.38,102.22,68.669,103.861z
	 M71.404,120.363c-1.033-0.947-2.041-1.988-3.019-3.083c-0.974-1.1-1.917-2.258-2.765-3.479c-0.096-0.137-0.177-0.276-0.27-0.414
	c0.002-0.036,0.004-0.072,0.006-0.108c0.069,0.094,0.133,0.19,0.204,0.282c2.574,3.341,5.667,6.163,8.573,8.372
	c-0.07,0.214-0.12,0.43-0.18,0.646C73.111,121.889,72.248,121.168,71.404,120.363z M73.867,122.907
	c-0.101,0.388-0.19,0.776-0.26,1.166c-0.865-0.722-1.749-1.479-2.624-2.314c-2.048-1.937-4.041-4.204-5.728-6.676
	c0.013-0.225,0.026-0.452,0.039-0.675c0.849,1.131,1.764,2.204,2.71,3.219c1.019,1.081,2.064,2.104,3.13,3.032
	C72.042,121.48,72.969,122.209,73.867,122.907z M66.053,113.192c-0.223-0.309-0.427-0.627-0.64-0.94
	c0.006-0.113,0.012-0.224,0.018-0.336c0.258,0.354,0.51,0.713,0.778,1.061c1.8,2.278,3.834,4.353,5.888,6.121
	c0.796,0.693,1.592,1.326,2.379,1.924c-0.08,0.204-0.16,0.409-0.231,0.615C71.435,119.372,68.472,116.511,66.053,113.192z
	 M72.352,118.811c-1.99-1.808-3.949-3.915-5.66-6.202c-0.417-0.57-0.823-1.149-1.206-1.738c0.01-0.189,0.019-0.372,0.028-0.559
	c0.399,0.588,0.819,1.163,1.255,1.726c0.849,1.123,1.78,2.177,2.712,3.195c0.953,1.002,1.925,1.95,2.901,2.83
	c0.839,0.729,1.65,1.426,2.466,2.061c-0.091,0.199-0.177,0.397-0.259,0.598C73.846,120.124,73.098,119.495,72.352,118.811z
	 M72.635,117.789c-0.946-0.898-1.883-1.864-2.8-2.88c-0.896-1.032-1.788-2.097-2.594-3.225c-0.604-0.82-1.153-1.674-1.669-2.539
	c0.01-0.221,0.02-0.437,0.03-0.653c0.569,0.84,1.17,1.665,1.802,2.468c1.699,2.108,3.6,4.039,5.493,5.717
	c0.878,0.768,1.753,1.475,2.607,2.132c-0.192,0.344-0.356,0.696-0.523,1.049C74.202,119.217,73.431,118.518,72.635,117.789z
	 M73.137,116.41c-1.834-1.714-3.667-3.677-5.286-5.8c-0.786-1.056-1.544-2.132-2.201-3.243c0.008-0.189,0.016-0.381,0.023-0.565
	c0.692,1.022,1.433,2.032,2.237,2.987c0.833,1.019,1.719,1.991,2.631,2.904c0.895,0.934,1.843,1.781,2.766,2.592
	c0.927,0.808,1.85,1.553,2.755,2.223c0.057,0.045,0.113,0.084,0.169,0.123c-0.206,0.312-0.401,0.626-0.585,0.944
	C74.823,117.906,73.981,117.188,73.137,116.41z M76.22,117.306c-0.883-0.689-1.781-1.455-2.681-2.281
	c-0.894-0.828-1.812-1.694-2.674-2.642c-0.88-0.929-1.73-1.913-2.525-2.938c-0.961-1.235-1.854-2.521-2.624-3.834
	c0.008-0.248,0.016-0.491,0.022-0.728c0.476,0.77,0.974,1.527,1.524,2.247c2.881,3.933,6.493,7.194,9.641,9.563
	c-0.181,0.241-0.37,0.478-0.538,0.725C76.317,117.382,76.268,117.347,76.22,117.306z M67.743,106.784
	c-0.725-1.031-1.394-2.102-1.977-3.193c0.006-0.376,0.009-0.729,0.009-1.063c0.026,0.046,0.046,0.093,0.073,0.138
	c0.671,1.158,1.447,2.271,2.248,3.362c1.628,2.164,3.465,4.156,5.302,5.894c1.511,1.411,3,2.616,4.394,3.665
	c-0.262,0.3-0.507,0.609-0.748,0.921C73.975,114.066,70.476,110.732,67.743,106.784z M73.647,111.663
	c-1.777-1.772-3.543-3.794-5.093-5.97c-0.65-0.937-1.268-1.893-1.829-2.868c0.501,0.739,1.018,1.472,1.579,2.173
	c0.798,1.021,1.645,2.005,2.517,2.935c0.868,0.933,1.758,1.818,2.656,2.633c0.887,0.827,1.783,1.581,2.651,2.274
	c0.836,0.713,1.703,1.289,2.464,1.872c-0.229,0.233-0.444,0.477-0.659,0.72C76.569,114.348,75.115,113.107,73.647,111.663z
	 M70.702,122.062c0.953,0.863,1.915,1.641,2.85,2.378c-0.06,0.39-0.113,0.778-0.141,1.168c-0.948-0.788-1.905-1.637-2.864-2.556
	c-1.91-1.877-3.79-4.026-5.384-6.381c0.012-0.198,0.024-0.399,0.035-0.596C66.875,118.3,68.766,120.326,70.702,122.062z
	 M73.395,126.002c-0.015,0.317-0.042,0.636-0.035,0.952c0.005,0.217,0.028,0.429,0.043,0.642c-0.923-0.767-1.868-1.578-2.803-2.471
	c-1.982-1.881-3.905-4.078-5.554-6.465c0.021-0.341,0.041-0.682,0.06-1.02C67.608,120.971,70.564,123.797,73.395,126.002z
	 M70.317,125.43c1.043,0.943,2.096,1.798,3.114,2.595c0.038,0.359,0.092,0.714,0.158,1.064c-1.017-0.794-2.049-1.661-3.083-2.6
	c-1.961-1.827-3.898-3.929-5.556-6.242c0.013-0.2,0.025-0.402,0.037-0.602C66.62,121.788,68.446,123.745,70.317,125.43z
	 M70.222,126.806c1.139,0.981,2.271,1.886,3.382,2.696c0.029,0.021,0.056,0.039,0.084,0.06c0.104,0.462,0.233,0.915,0.382,1.359
	c-0.169-0.126-0.335-0.246-0.506-0.38c-1.103-0.855-2.224-1.811-3.338-2.847c-1.895-1.783-3.754-3.833-5.353-6.082
	c0.002-0.042,0.001-0.084,0.003-0.127c0.005-0.084,0.01-0.168,0.015-0.252C66.534,123.303,68.372,125.172,70.222,126.806z
	 M69.934,128.016c1.15,1.016,2.305,1.948,3.438,2.78c0.292,0.215,0.575,0.408,0.861,0.611c0.257,0.685,0.565,1.345,0.915,1.979
	c-0.628-0.445-1.264-0.908-1.906-1.438c-1.134-0.887-2.285-1.88-3.414-2.969c-1.147-1.069-2.24-2.27-3.306-3.518
	c-0.591-0.708-1.155-1.449-1.694-2.209c0-0.196,0.013-0.395,0.017-0.591C66.413,124.649,68.167,126.438,69.934,128.016z
	 M66.084,125.838c1.115,1.238,2.251,2.422,3.438,3.471c1.168,1.069,2.354,2.038,3.519,2.9c0.817,0.64,1.628,1.184,2.416,1.705
	c0.584,0.975,1.265,1.88,2.013,2.709c-0.378-0.244-0.767-0.495-1.178-0.756c-1.054-0.751-2.208-1.547-3.35-2.491
	c-1.162-0.917-2.331-1.956-3.485-3.081c-1.155-1.123-2.291-2.345-3.347-3.663c-0.422-0.528-0.827-1.076-1.226-1.629
	c-0.014-0.213-0.014-0.432-0.022-0.646C65.263,124.859,65.664,125.361,66.084,125.838z M109.236,116.54L109.236,116.54
	c0.002-0.001,0.004-0.001,0.004,0H109.236z M69.111,98.531c0.761,1.01,1.529,2.014,2.359,2.94c0.785,0.966,1.663,1.82,2.478,2.678
	c0.829,0.843,1.701,1.585,2.489,2.325c0.841,0.681,1.638,1.324,2.373,1.917c0.772,0.541,1.482,1.038,2.11,1.479
	c0.616,0.458,1.217,0.754,1.679,1.051c0.212,0.127,0.391,0.233,0.555,0.332c-0.486,0.269-0.966,0.548-1.43,0.858
	c-0.73-0.495-1.563-1.096-2.538-1.842c-0.688-0.513-1.373-1.149-2.129-1.777c-0.758-0.627-1.47-1.387-2.253-2.117
	c-1.5-1.531-3.023-3.239-4.375-5.078c-2.449-3.219-4.355-6.74-5.634-9.702C65.989,93.894,67.442,96.285,69.111,98.531z
	 M41.035,152.315l0.296,0.179l0.497-0.832c0.433-0.729,0.933-1.57,1.301-2.129c0.167-0.253,0.347-0.496,0.517-0.747l1.933,2.854
	l0.367-0.006c1.409-0.027,2.859-0.091,4.311-0.189l0.367-0.025l2.458-4.428l3.357,3.821l0.365-0.053
	c1.419-0.209,2.842-0.454,4.228-0.728l0.361-0.071l1.892-4.72l3.782,3.348l0.354-0.1c0.287-0.079,0.924-0.165,1.541-0.25
	c0.375-0.051,0.74-0.102,1.063-0.153c5.894,5.141,12.773,8.767,20.261,10.697l-0.132,0.159l1.562,1.305l-3.289,1.938l-0.017,0.365
	c-0.049,1.119-0.07,2.238-0.065,3.363l0.002,0.366l3.217,2.062l-3.024,2.338l0.03,0.366c0.091,1.113,0.212,2.227,0.36,3.343
	l0.048,0.363l3.45,1.641l-2.646,2.947C70.389,176.514,53.202,166.668,41.035,152.315z M106.766,179.969
	c-1.805,0.124-3.62,0.21-5.455,0.21c-3.422,0-6.791-0.234-10.104-0.656l0,0l3.54-3.528l-4.521-2.15
	c-0.108-0.849-0.199-1.697-0.273-2.544l3.962-3.062l-4.216-2.7c0-0.855,0.016-1.709,0.049-2.559l4.312-2.542l-1.294-1.078
	c3.38,0.691,6.868,1.055,10.435,1.055l0.258-0.001c1.136-0.006,2.258-0.053,3.373-0.117c-0.612,3.284-0.935,6.646-0.935,10.011
	C105.897,173.553,106.197,176.799,106.766,179.969z M108.123,179.865c-0.573-3.134-0.871-6.347-0.871-9.56
	c0-3.397,0.332-6.792,0.972-10.102c11.518-0.94,21.8-5.105,29.973-12.183c0.399,0.076,0.898,0.146,1.426,0.218
	c0.616,0.085,1.253,0.171,1.54,0.25l0.354,0.1l3.783-3.348l1.891,4.72l0.36,0.071c1.717,0.342,2.932,0.537,4.229,0.728l0.364,0.053
	l3.358-3.821l2.458,4.428l0.366,0.025c0.714,0.048,1.425,0.087,2.137,0.118c0.223,0.365,0.445,0.731,0.662,1.102
	C148.032,167.875,129.258,178.049,108.123,179.865z M156.025,145.143c1.258,1.617,2.447,3.288,3.56,5.016
	c-0.266-0.014-0.532-0.024-0.798-0.041L156.025,145.143z M162.06,151.587c-3.649-6.134-8.169-11.646-13.462-16.404
	c3.392-6.163,5.458-13.185,6.12-20.888c7.156,5.487,13.372,12.034,18.475,19.506C170.267,140.232,166.521,146.213,162.06,151.587z
	 M173.838,132.371c-1.975-2.833-4.101-5.541-6.383-8.103c2.705,0.325,5.131,0.478,7.78,0.478c0.487,0,0.968-0.023,1.451-0.036
	C175.871,127.326,174.913,129.879,173.838,132.371z M177.076,123.345c-0.612,0.02-1.223,0.046-1.841,0.046
	c-3.1,0-5.88-0.206-9.209-0.673c-1.736-1.854-3.551-3.633-5.444-5.327c5.936,0.044,11.75,1.062,17.299,3.03
	C177.635,121.403,177.359,122.376,177.076,123.345z M178.188,119.096c-5.641-1.984-12.361-3.187-19.186-3.072
	c-1.358-1.154-2.742-2.279-4.173-3.354c0.077-1.282,0.13-2.576,0.13-3.896c0-3.279-0.27-6.457-0.781-9.525
	c0.053-0.002,0.106-0.004,0.16-0.005l2.802,4.14l2.965-4.045c0.85,0.054,1.698,0.124,2.544,0.212l2.266,4.468l3.425-3.617
	c0.849,0.162,1.692,0.341,2.532,0.535l1.678,4.687l3.845-3.154c0.825,0.27,1.642,0.555,2.454,0.854l1.078,4.862
	C179.6,111.902,179.012,115.543,178.188,119.096z M180.249,101.241c0,0.645-0.033,1.281-0.048,1.922l-0.189-0.852l-0.344-0.13
	c-1.06-0.396-2.13-0.77-3.21-1.115l-0.352-0.112l-2.929,2.402l-1.277-3.568l-0.357-0.085c-1.096-0.262-2.202-0.496-3.315-0.702
	l-0.363-0.067l-2.611,2.758l-1.729-3.41l-0.366-0.04c-1.109-0.119-2.224-0.213-3.343-0.277l-0.368-0.021l-2.265,3.089l-2.137-3.158
	l-0.368,0.008c-0.246,0.005-0.493,0.015-0.74,0.021c-0.693-4.579-2.706-9.192-2.706-9.192l0.082-0.107
	c0.151-0.196,0.296-0.395,0.435-0.598l0.104-0.151l-0.244-0.596l0.644-0.03l0.093-0.16c0.123-0.211,0.242-0.427,0.355-0.644
	l0.086-0.163l-0.319-0.562l0.641-0.113l0.073-0.169c0.095-0.223,0.185-0.448,0.27-0.678l0.064-0.173l-0.392-0.522l0.62-0.191
	l0.05-0.177c0.067-0.234,0.127-0.472,0.183-0.71l0.042-0.18l-0.453-0.467l0.595-0.27l0.027-0.182
	c0.019-0.124,0.031-0.249,0.047-0.372c3.559,1.323,7.297,2.016,11.134,2.016c4.256,0,8.377-0.83,12.266-2.448
	C179.361,87.617,180.249,94.396,180.249,101.241z M177.285,79.74c-3.774,1.598-7.779,2.415-11.917,2.415
	c-3.805,0-7.512-0.697-11.026-2.055l0.005-0.179c0.003-0.087,0.006-0.174,0.006-0.261c0-0.088-0.003-0.175-0.006-0.261l-0.008-0.291
	l-0.551-0.34l0.509-0.407l-0.019-0.183c-0.023-0.243-0.054-0.484-0.09-0.724l-0.027-0.182l-0.595-0.271l0.453-0.467l-0.042-0.18
	c-0.056-0.238-0.116-0.475-0.183-0.709l-0.05-0.177l-0.62-0.192l0.392-0.521l-0.064-0.175c-0.084-0.229-0.175-0.452-0.27-0.676
	l-0.073-0.169l-0.641-0.114l0.319-0.562l-0.086-0.164c-0.067-0.128-0.14-0.255-0.21-0.381l0.83-0.387l0.091,0.983l0.325,0.171
	c0.369,0.195,0.745,0.379,1.123,0.555l0.333,0.154l0.835-0.525l0.213,0.964l0.345,0.129c0.389,0.146,0.783,0.283,1.179,0.41
	l0.351,0.112l0.767-0.629l0.334,0.933l0.357,0.086c0.403,0.097,0.81,0.183,1.219,0.258l0.363,0.068l0.683-0.724l0.455,0.895
	l0.365,0.039c0.408,0.045,0.818,0.08,1.229,0.104l0.368,0.021l0.595-0.811l0.56,0.827l0.368-0.007
	c0.411-0.008,0.824-0.026,1.238-0.054l0.366-0.026l0.486-0.873l0.663,0.755l0.364-0.053c0.405-0.06,0.81-0.129,1.215-0.209
	l0.36-0.07l0.375-0.934l0.747,0.659l0.556-0.152c0.132-0.036,0.265-0.072,0.397-0.112c0.134-0.04,0.267-0.086,0.399-0.131
	l0.539-0.18l0.251-0.963l0.831,0.565l0.339-0.142c0.173-0.072,0.34-0.153,0.511-0.229C176.108,75.883,176.735,77.797,177.285,79.74z
	 M159.778,48.207c-0.572,0.401-1.231,0.649-1.941,0.712c-1.071,0.097-2.116-0.232-2.94-0.922c-0.826-0.689-1.333-1.66-1.428-2.731
	c-0.083-0.938,0.183-1.861,0.71-2.629C156.143,44.409,158.014,46.265,159.778,48.207z M146.677,36.921l0.431,0.041
	c2.222,1.585,4.378,3.276,6.442,5.098c0.043,0.039,0.085,0.08,0.13,0.119c-0.652,0.91-0.986,2.021-0.885,3.147
	c0.112,1.252,0.704,2.385,1.667,3.19c0.855,0.715,1.909,1.097,3.01,1.097c0.142,0,0.284-0.007,0.426-0.02
	c0.855-0.076,1.646-0.385,2.329-0.88c6.318,7.073,11.292,15.195,14.707,24.019c-0.071,0.033-0.142,0.067-0.214,0.099l-1.808-1.233
	l-0.553,2.112l-0.42,0.128l-1.636-1.447l-0.814,2.031c-0.142,0.026-0.284,0.051-0.426,0.073l-1.445-1.644l-1.061,1.908
	c-0.146,0.008-0.292,0.015-0.438,0.02l-1.224-1.808l-1.293,1.764c-0.145-0.01-0.289-0.021-0.433-0.036l-0.99-1.95l-1.497,1.58
	c-0.146-0.029-0.292-0.06-0.437-0.092l-0.733-2.049l-1.68,1.379c-0.143-0.049-0.285-0.098-0.426-0.149l-0.47-2.119l-1.838,1.155
	c-0.136-0.065-0.271-0.132-0.405-0.201l-0.201-2.16l-1.966,0.914c-0.127-0.083-0.254-0.166-0.379-0.251l0.072-2.166l-2.075,0.664
	c-0.113-0.096-0.226-0.192-0.337-0.29l0.343-2.151l-2.141,0.4c-0.101-0.109-0.2-0.219-0.298-0.329l0.612-2.093l-2.181,0.128
	c-0.084-0.118-0.168-0.237-0.25-0.357l0.872-2.004l-2.182-0.147c-0.068-0.127-0.137-0.256-0.203-0.386l1.116-1.879l-2.142-0.418
	c-0.053-0.138-0.104-0.274-0.154-0.413l1.34-1.722l-2.072-0.684c-0.035-0.143-0.069-0.285-0.102-0.428l1.546-1.541l-1.975-0.939
	c-0.016-0.144-0.032-0.289-0.046-0.434l1.729-1.336l-1.84-1.18c0.001-0.146,0.004-0.291,0.009-0.438l1.882-1.108l-1.673-1.397
	c0.02-0.146,0.042-0.292,0.065-0.438l2-0.862l-1.485-1.596c0.039-0.142,0.078-0.283,0.119-0.426l2.095-0.604l-1.268-1.76
	c0.057-0.141,0.115-0.28,0.176-0.421l2.141-0.335l-1.037-1.907c0.073-0.131,0.148-0.262,0.226-0.392l2.169-0.064l-0.791-2.022
	C146.495,37.161,146.585,37.041,146.677,36.921z M145.699,35.979c-0.208,0.267-0.414,0.535-0.61,0.81l-0.214,0.3l0.359,0.918
	l-0.988,0.03l-0.19,0.314c-0.217,0.357-0.425,0.718-0.624,1.085l-0.175,0.322l0.472,0.868l-0.971,0.151l-0.15,0.335
	c-0.171,0.382-0.333,0.768-0.485,1.157l-0.135,0.344l0.576,0.8l-0.954,0.275l-0.108,0.353c-0.121,0.396-0.231,0.795-0.333,1.197
	l-0.09,0.356l0.679,0.729l-0.914,0.394l-0.062,0.362c-0.07,0.408-0.129,0.816-0.18,1.229l-0.045,0.365l0.767,0.641l-0.862,0.508
	l-0.017,0.366c-0.019,0.411-0.027,0.824-0.024,1.238l0.003,0.367l0.843,0.541l-0.794,0.613l0.031,0.366
	c0.033,0.408,0.078,0.818,0.133,1.229l0.048,0.365l0.904,0.43l-0.708,0.705l0.077,0.36c0.086,0.403,0.181,0.805,0.287,1.206
	l0.093,0.355l0.948,0.312l-0.612,0.787l0.12,0.348c0.136,0.394,0.281,0.779,0.434,1.16l0.137,0.342l0.982,0.192l-0.511,0.861
	l0.163,0.329c0.183,0.371,0.375,0.736,0.575,1.094l0.179,0.321l1,0.068l-0.4,0.918l0.204,0.308c0.229,0.344,0.465,0.684,0.71,1.014
	l0.095,0.131l-0.504,0.329l-0.153-0.632l-0.173-0.062c-0.229-0.081-0.461-0.156-0.696-0.226l-0.176-0.054l-0.495,0.424l-0.231-0.61
	l-0.18-0.037c-0.238-0.052-0.477-0.099-0.718-0.137l-0.181-0.031l-0.439,0.48l-0.305-0.572l-0.184-0.017
	c-0.242-0.021-0.486-0.036-0.731-0.046l-0.184-0.007l-0.373,0.53l-0.375-0.53l-0.184,0.007c-0.245,0.01-0.489,0.024-0.731,0.046
	l-0.184,0.017l-0.304,0.572l-0.248-0.271l0.317-0.158c-2.123-4.259-3.199-8.851-3.199-13.645c0-6.77,2.169-13.152,6.248-18.512
	C142.585,33.942,144.16,34.93,145.699,35.979z M112.824,23.16c9.495,1.396,18.629,4.511,26.975,9.174
	c-4.19,5.567-6.42,12.179-6.42,19.188c0,4.827,1.056,9.453,3.118,13.767l-0.152,0.032l-0.231,0.61l-0.495-0.424l-0.176,0.054
	c-0.235,0.069-0.467,0.145-0.695,0.226l-0.174,0.062l-0.153,0.632l-0.543-0.354l-0.168,0.074c-0.085,0.038-0.169,0.079-0.253,0.119
	c-3.793-2.914-7.265-4.797-10.329-6.234c0.046-1.226,0.078-2.468,0.071-3.722l-0.002-0.368l-4.271-2.735l4.015-3.104l-0.03-0.365
	c-0.117-1.414-0.272-2.854-0.462-4.279l-0.048-0.365l-4.581-2.179l3.586-3.574l-0.077-0.359c-0.297-1.41-0.633-2.823-0.996-4.199
	l-0.094-0.356l-4.806-1.584l3.108-3.993l-0.12-0.348c-0.466-1.343-0.975-2.703-1.513-4.042l-0.138-0.342l-4.049-0.791
	C112.757,23.306,112.789,23.232,112.824,23.16z M115.788,25.356c0.434,1.093,0.848,2.197,1.231,3.293l-3.837,4.929l5.933,1.955
	c0.292,1.125,0.563,2.272,0.812,3.42l-4.426,4.41l5.652,2.688c0.148,1.162,0.275,2.33,0.375,3.481l-4.954,3.829l5.269,3.375
	c0.002,0.921-0.03,1.826-0.058,2.73c-0.755-0.338-1.493-0.663-2.191-0.966c-1.914-0.832-3.566-1.55-5.029-2.396
	c-2.839-1.637-5.581-4.091-8.688-7.457c0.619-8.36,2.726-16.421,6.247-24.008L115.788,25.356z M101.311,22.305
	c1.278,0,2.562,0.037,3.846,0.098c0.458,0.022,0.914,0.063,1.37,0.094c0.195,0.014,0.391,0.027,0.586,0.041
	c0.019-0.004,0.041-0.017,0.058-0.016c0.234,0.009,0.867,0.069,1.577,0.144c0.059,0.006,0.118,0.009,0.176,0.015
	c0.134,0.012,0.267,0.031,0.4,0.045c1.082,0.115,2.147,0.236,2.147,0.236l-0.749,1.483c-3.31,7.241-5.347,14.906-6.077,22.842
	c-1.356-1.524-2.784-3.203-4.332-5.073l-1.552-1.878l-0.252,2.437c-0.35,3.359-0.71,6.834-2.823,9.241
	c-3.99,4.554-9.428,7.606-13.635,9.748l-0.999-0.639c-0.002-1.171,0.021-2.346,0.067-3.505l5.391-3.175l-4.792-3.999
	c0.146-1.154,0.317-2.325,0.513-3.488l5.726-2.464l-4.251-4.565c0.297-1.16,0.614-2.301,0.944-3.398l5.989-1.729l-3.623-5.03
	c0.433-1.099,0.895-2.202,1.378-3.29l6.121-0.958l-1.51-2.776C95.736,22.458,98.506,22.305,101.311,22.305z M91.563,22.928
	l0.843,1.55l-0.625,0.098c-0.24-0.53-0.489-1.056-0.743-1.58C91.213,22.972,91.388,22.949,91.563,22.928z M74.198,27.102
	c4.932-1.809,10.095-3.132,15.428-3.928c0.263,0.535,0.511,1.077,0.761,1.62l-2.929,0.458l-0.149,0.336
	c-0.597,1.33-1.164,2.687-1.688,4.031l-0.133,0.342l2.929,4.069l-4.848,1.398l-0.107,0.353c-0.41,1.337-0.799,2.741-1.159,4.17
	l-0.09,0.358l3.442,3.696l-4.635,1.996l-0.062,0.362c-0.246,1.427-0.457,2.866-0.63,4.28l-0.044,0.366l3.882,3.24l-4.368,2.572
	l-0.016,0.367c-0.063,1.42-0.09,2.869-0.083,4.306l0.002,0.368l0.944,0.604c-0.153,0.076-0.322,0.163-0.47,0.236
	c-0.737,0.367-1.462,0.771-2.187,1.178c0.002-0.193,0.01-0.389,0.01-0.584c0-12.036-4.409-23.486-12.421-32.407
	C68.363,29.471,71.233,28.189,74.198,27.102z M57.208,35.804l7.121-4.271c7.942,8.708,12.314,19.946,12.314,31.767
	c0,0.465-0.008,0.929-0.021,1.391c-4.438,2.693-8.544,6.118-12.021,10.041l-0.104,0.027c0,0,0.01,0.031,0.022,0.069
	c-0.447,0.507-0.887,1.019-1.312,1.542c-0.001-0.005-0.002-0.01-0.002-0.015l-0.042-0.32l-1.841-1.128l1.245-1.768l-0.086-0.31
	c-0.25-0.891-0.557-1.788-0.91-2.667l-0.121-0.3l-2.041-0.624l0.761-2.004l-0.16-0.278c-0.479-0.831-1-1.631-1.548-2.378
	l-0.192-0.261l-2.123-0.092l0.239-2.123l-0.225-0.229c-0.683-0.699-1.391-1.348-2.104-1.927l-0.25-0.205l-2.067,0.438l-0.292-2.092
	l-0.276-0.167c-0.842-0.51-1.7-0.965-2.548-1.354l-0.295-0.136l-1.863,0.928l-0.79-1.931l-0.309-0.093
	c-0.958-0.29-1.912-0.522-2.836-0.69l-0.319-0.057l-1.556,1.35l-1.228-1.655l-0.323-0.013c-0.396-0.016-0.788-0.017-1.179-0.016
	C43.264,47.073,49.785,40.822,57.208,35.804z M33.782,60.404c4.21-0.933,8.514-0.478,12.45,1.32
	c4.797,2.191,8.454,6.119,10.298,11.062c1.842,4.941,1.65,10.306-0.54,15.104c-4.524,9.902-16.261,14.278-26.166,9.758
	c-2.722-1.243-5.04-3.043-6.933-5.313C24.198,80.754,28.005,69.922,33.782,60.404z M22.708,94.162
	c1.857,1.963,4.08,3.587,6.553,4.717c2.833,1.295,5.805,1.906,8.734,1.906c8.01,0,15.686-4.583,19.226-12.333
	c2.341-5.127,2.546-10.858,0.577-16.139c-1.97-5.282-5.878-9.479-11.005-11.821c-3.805-1.739-7.93-2.295-12.014-1.649
	c0.695-1.087,1.416-2.155,2.162-3.205c0.587-0.026,1.181-0.045,1.784-0.026l1.713,2.307l2.167-1.88
	c0.674,0.133,1.364,0.302,2.059,0.503l1.099,2.68l2.586-1.287c0.614,0.294,1.233,0.623,1.845,0.982l0.402,2.892l2.853-0.605
	c0.511,0.429,1.019,0.896,1.516,1.391l-0.329,2.922l2.92,0.129c0.39,0.546,0.765,1.12,1.116,1.713l-1.046,2.755l2.804,0.857
	c0.247,0.634,0.467,1.277,0.656,1.918l-1.706,2.418l2.521,1.547l-0.026,2.486l-2.088,1.435l1.355,1.404
	c0.137,0.534,0.306,1.16,0.519,1.86c-0.051,0.274-0.087,0.553-0.147,0.824l-2.693,1.308l1.472,2.604
	c-0.124,0.303-0.253,0.605-0.389,0.904c-0.138,0.301-0.281,0.595-0.43,0.887l-2.931,0.593l0.774,2.892
	c-0.39,0.524-0.806,1.038-1.241,1.533l-2.98-0.161l0.02,2.067c-0.076,0.358-0.145,0.719-0.211,1.079
	c-0.445,0.349-0.902,0.692-1.388,1.02l-2.819-0.893l-0.71,2.872c-0.609,0.276-1.239,0.532-1.88,0.762l-2.484-1.558l-1.396,2.594
	c-0.677,0.121-1.356,0.216-2.027,0.279l-2.007-2.124l-1.994,2.162c-0.7-0.052-1.385-0.131-2.044-0.236l-1.41-2.552l-2.45,1.589
	c-0.672-0.227-1.326-0.479-1.951-0.752l-0.72-2.796l-2.744,0.925c-0.607-0.394-1.187-0.805-1.729-1.228l0.001-2.14H22.53
	C22.577,95.712,22.639,94.936,22.708,94.162z M22.412,99.759c0.634,0.49,1.304,0.97,2.017,1.419l0.273,0.171l1.975-0.665
	l0.519,2.016l0.295,0.135c0.852,0.386,1.758,0.734,2.692,1.037l0.307,0.1l1.773-1.15l1.021,1.85l0.319,0.057
	c0.906,0.158,1.858,0.268,2.833,0.327l0.321,0.02l1.447-1.57l1.459,1.544l0.324-0.026c0.927-0.073,1.873-0.204,2.81-0.386
	l0.315-0.062l1.018-1.886l1.807,1.132l0.306-0.104c0.897-0.309,1.775-0.664,2.612-1.059l0.292-0.137l0.519-2.098l2.058,0.651
	l0.27-0.177c0.2-0.132,0.388-0.27,0.582-0.405c-0.206,1.381-0.359,2.781-0.461,4.2c-3.042,1.668-6.266,2.977-9.593,3.936
	c-0.342,0.106-0.708,0.216-1.122,0.33c-9.065,2.502-18.541,1.046-18.541,1.046c-0.007-0.07-0.02-0.141-0.028-0.211
	c-0.303-2.815-0.458-5.692-0.458-8.551C22.374,100.744,22.403,100.254,22.412,99.759z"/>
</svg>
