<?xml version="1.0" encoding="utf-8"?>
<!-- Generator: Adobe Illustrator 16.0.0, SVG Export Plug-In . SVG Version: 6.00 Build 0)  -->
<!DOCTYPE svg PUBLIC "-//W3C//DTD SVG 1.1//EN" "http://www.w3.org/Graphics/SVG/1.1/DTD/svg11.dtd">
<svg version="1.1" id="Layer_1" xmlns="http://www.w3.org/2000/svg" xmlns:xlink="http://www.w3.org/1999/xlink" x="0px" y="0px"
	 width="599.632px" height="704.904px" viewBox="0 0 599.632 704.904" enable-background="new 0 0 599.632 704.904"
	 xml:space="preserve">
<g>
	<defs>
		<path id="SVGID_1_" d="M234.011,523.059h-20.989l0.034,39.401c0,11.515-4.92,20.83-16.397,20.83
			c-11.481,0-16.446-9.315-16.446-20.83v-39.364h-20.935l-0.006,39.364c0,22.753,14.578,41.195,37.26,41.195
			c22.676,0,37.471-18.442,37.471-41.195L234.011,523.059z"/>
	</defs>
	<clipPath id="SVGID_2_">
		<use xlink:href="#SVGID_1_"  overflow="visible"/>
	</clipPath>
	<rect x="154.272" y="518.059" clip-path="url(#SVGID_2_)" fill="#DBD7D5" width="84.738" height="90.597"/>
</g>
<g>
	<defs>
		<path id="SVGID_3_" d="M489.818,603.655h20.988l-0.034-39.401c0-11.515,4.92-20.831,16.397-20.831
			c11.481,0,16.446,9.316,16.446,20.831v39.363h20.935l0.006-39.363c0-22.754-14.578-41.195-37.261-41.195
			c-22.675,0-37.472,18.441-37.472,41.195L489.818,603.655z"/>
	</defs>
	<clipPath id="SVGID_4_">
		<use xlink:href="#SVGID_3_"  overflow="visible"/>
	</clipPath>
	<rect x="484.818" y="518.059" clip-path="url(#SVGID_4_)" fill="#DBD7D5" width="84.738" height="90.597"/>
</g>
<g>
	<defs>
		<rect id="SVGID_5_" x="423.272" y="499" width="20.886" height="102.572"/>
	</defs>
	<clipPath id="SVGID_6_">
		<use xlink:href="#SVGID_5_"  overflow="visible"/>
	</clipPath>
	<rect x="418.272" y="494" clip-path="url(#SVGID_6_)" fill="#DBD7D5" width="30.886" height="112.572"/>
</g>
<g>
	<defs>
		<rect id="SVGID_7_" x="578.728" y="499" width="20.886" height="102.572"/>
	</defs>
	<clipPath id="SVGID_8_">
		<use xlink:href="#SVGID_7_"  overflow="visible"/>
	</clipPath>
	<rect x="573.728" y="494" clip-path="url(#SVGID_8_)" fill="#DBD7D5" width="30.886" height="112.572"/>
</g>
<g>
	<defs>
		<polygon id="SVGID_9_" points="459.436,500.984 459.436,499.14 467.574,499.14 467.574,500.982 464.598,500.982 464.598,509.104 
			462.414,509.104 462.414,500.984 		"/>
	</defs>
	<clipPath id="SVGID_10_">
		<use xlink:href="#SVGID_9_"  overflow="visible"/>
	</clipPath>
	<rect x="454.436" y="494.14" clip-path="url(#SVGID_10_)" fill="#DBD7D5" width="18.139" height="19.964"/>
</g>
<g>
	<defs>
		<polygon id="SVGID_11_" points="471.787,499.14 474.11,505.991 474.139,505.991 476.334,499.14 479.409,499.14 479.409,509.104 
			477.365,509.104 477.365,502.042 477.337,502.042 474.903,509.104 473.22,509.104 470.786,502.112 470.76,502.112 470.76,509.104 
			468.715,509.104 468.715,499.14 		"/>
	</defs>
	<clipPath id="SVGID_12_">
		<use xlink:href="#SVGID_11_"  overflow="visible"/>
	</clipPath>
	<rect x="463.715" y="494.14" clip-path="url(#SVGID_12_)" fill="#DBD7D5" width="20.694" height="19.964"/>
</g>
<g>
	<defs>
		<path id="SVGID_13_" d="M142.001,522.045c-18.003-4.169-29.36,13.776-29.832,14.738c-0.232,0.472-0.241,0.747-1.039,0.726
			c-0.659-0.013-0.734-0.726-0.734-0.726l-2.234-13.728H89.455v78.341h20.972v-42.403c0-3.465,9.301-20.08,27.32-15.804
			c9.113,2.164,12.979,6.043,12.979,6.043v-23.864C147.353,523.604,145.039,522.748,142.001,522.045z"/>
	</defs>
	<clipPath id="SVGID_14_">
		<use xlink:href="#SVGID_13_"  overflow="visible"/>
	</clipPath>
	<rect x="84.455" y="516.418" clip-path="url(#SVGID_14_)" fill="#DBD7D5" width="71.271" height="89.979"/>
</g>
<g>
	<defs>
		<path id="SVGID_15_" d="M282.994,541.904c11.56,0,20.928,9.4,20.928,20.99c0,11.599-9.368,21-20.928,21
			c-11.557,0-20.922-9.4-20.922-21C262.072,551.305,271.438,541.904,282.994,541.904z M262.666,627.209V599.02
			c0.002,0,0.005,0.004,0.007,0.006l0.003-10.557c0,0,0.033-0.845,0.792-0.854c0.677-0.009,0.828,0.441,0.992,0.854
			c1.59,3.971,10.336,19.094,29.743,14.351c17.373-4.91,30.116-20.916,30.116-39.927c0-22.901-18.51-41.475-41.342-41.475
			s-41.34,18.573-41.34,41.475v64.315L262.666,627.209L262.666,627.209z"/>
	</defs>
	<clipPath id="SVGID_16_">
		<use xlink:href="#SVGID_15_"  overflow="visible"/>
	</clipPath>
	<rect x="236.636" y="516.418" clip-path="url(#SVGID_16_)" fill="#DBD7D5" width="92.682" height="115.791"/>
</g>
<g>
	<defs>
		<path id="SVGID_17_" d="M394.43,562.893c0,11.6-9.369,21.002-20.924,21.002c-11.558,0-20.928-9.401-20.928-21.002
			c0-11.589,9.37-20.989,20.928-20.989C385.061,541.903,394.43,551.304,394.43,562.893z M393.834,601.439h21.029v-38.547
			c0-22.901-18.506-41.475-41.34-41.475c-22.832,0-41.342,18.573-41.342,41.475c0,19.01,12.744,35.016,30.117,39.927
			c19.407,4.743,28.149-10.38,29.742-14.351c0.165-0.413,0.313-0.861,0.992-0.854c0.759,0.01,0.79,0.854,0.79,0.854L393.834,601.439
			z"/>
	</defs>
	<clipPath id="SVGID_18_">
		<use xlink:href="#SVGID_17_"  overflow="visible"/>
	</clipPath>
	<rect x="327.182" y="516.418" clip-path="url(#SVGID_18_)" fill="#DBD7D5" width="92.682" height="92.312"/>
</g>
<g>
	<defs>
		<path id="SVGID_19_" d="M29.552,516.753h-8.434v66.896l8.661,0.223c17.76,0,29.2-1.622,29.2-33.662
			C58.979,519.482,48.88,516.753,29.552,516.753z M23.856,601.419H0V499h25.597c30.996,0,54.504,5.706,54.504,51.21
			C80.101,595.273,55.2,601.419,23.856,601.419z"/>
	</defs>
	<clipPath id="SVGID_20_">
		<use xlink:href="#SVGID_19_"  overflow="visible"/>
	</clipPath>
	<rect x="-5" y="494" clip-path="url(#SVGID_20_)" fill="#DBD7D5" width="90.101" height="112.419"/>
</g>
<g>
	<defs>
		<path id="SVGID_21_" d="M300.042,0c-30.219,79.676-80.963,109.201-131.639,173.668c-53.625,66.383-49.588,163.9,12.109,225.597
			c33.008,33.009,76.268,49.511,119.53,49.511c43.261,0,86.521-16.502,119.528-49.511c61.697-61.696,65.725-159.214,12.1-225.597
			C380.995,109.202,330.262,79.676,300.042,0z M300.042,55.114c18.989,31.754,41.578,55.366,65.076,79.93
			c15.616,16.325,31.765,33.205,47.685,53.457l0.1,0.125l0.1,0.124c22.352,27.667,33.678,62.57,31.896,98.278
			c-1.795,35.954-16.815,69.786-42.297,95.267c-27.393,27.395-63.815,42.48-102.558,42.48c-38.742,0-75.165-15.086-102.56-42.48
			c-25.482-25.48-40.505-59.315-42.301-95.268c-1.785-35.708,9.541-70.61,31.891-98.277l0.1-0.124l0.099-0.125
			c15.921-20.254,32.072-37.136,47.691-53.462C258.463,110.475,281.051,86.866,300.042,55.114z"/>
	</defs>
	<clipPath id="SVGID_22_">
		<use xlink:href="#SVGID_21_"  overflow="visible"/>
	</clipPath>
	<rect x="126" y="-5" clip-path="url(#SVGID_22_)" fill="#DBD7D5" width="348.077" height="458.775"/>
</g>
<g>
	<path fill="#DBD7D5" d="M15.336,669.301c-0.48-0.696-1.122-1.206-1.926-1.53c-0.805-0.324-1.65-0.486-2.538-0.486
		c-0.528,0-1.039,0.061-1.53,0.181c-0.492,0.12-0.936,0.312-1.332,0.575c-0.396,0.265-0.714,0.606-0.954,1.026
		c-0.24,0.42-0.36,0.918-0.36,1.494c0,0.864,0.3,1.524,0.9,1.979c0.6,0.457,1.344,0.853,2.232,1.188
		c0.888,0.336,1.859,0.66,2.916,0.972c1.056,0.312,2.028,0.744,2.916,1.296c0.888,0.553,1.632,1.284,2.232,2.196
		c0.6,0.912,0.9,2.124,0.9,3.636c0,1.368-0.252,2.562-0.756,3.582c-0.504,1.021-1.183,1.866-2.034,2.538
		c-0.852,0.672-1.842,1.177-2.97,1.512c-1.128,0.336-2.316,0.505-3.564,0.505c-1.584,0-3.108-0.265-4.572-0.792
		c-1.464-0.528-2.724-1.416-3.78-2.664l3.42-3.312c0.552,0.841,1.278,1.494,2.178,1.962s1.854,0.702,2.862,0.702
		c0.527,0,1.056-0.072,1.584-0.216c0.527-0.145,1.008-0.36,1.44-0.648s0.779-0.653,1.044-1.098c0.264-0.443,0.396-0.954,0.396-1.53
		c0-0.936-0.3-1.655-0.9-2.16c-0.6-0.504-1.345-0.93-2.232-1.277c-0.888-0.348-1.86-0.678-2.916-0.99
		c-1.057-0.312-2.028-0.738-2.916-1.278c-0.888-0.54-1.632-1.26-2.232-2.16c-0.601-0.899-0.9-2.105-0.9-3.617
		c0-1.32,0.27-2.46,0.81-3.42s1.248-1.758,2.124-2.395c0.876-0.636,1.878-1.109,3.006-1.422c1.128-0.312,2.28-0.468,3.456-0.468
		c1.344,0,2.646,0.204,3.906,0.611c1.26,0.409,2.394,1.08,3.402,2.017L15.336,669.301z"/>
	<path fill="#DBD7D5" d="M29.7,667.933h-7.812v-4.104h20.16v4.104h-7.812v21.384H29.7V667.933z"/>
	<path fill="#DBD7D5" d="M46.007,663.828h4.536v25.488h-4.536V663.828z"/>
	<path fill="#DBD7D5" d="M74.591,669.805c-0.936-1.008-1.842-1.68-2.718-2.017c-0.876-0.336-1.758-0.504-2.646-0.504
		c-1.32,0-2.515,0.234-3.582,0.702c-1.068,0.468-1.986,1.116-2.754,1.944c-0.769,0.828-1.362,1.794-1.782,2.897
		c-0.42,1.104-0.63,2.292-0.63,3.564c0,1.368,0.21,2.628,0.63,3.78c0.42,1.151,1.014,2.147,1.782,2.987
		c0.768,0.841,1.686,1.5,2.754,1.98c1.067,0.48,2.262,0.72,3.582,0.72c1.032,0,2.034-0.246,3.006-0.738
		c0.972-0.491,1.878-1.277,2.718-2.357l3.744,2.664c-1.152,1.584-2.556,2.735-4.212,3.456c-1.656,0.72-3.42,1.08-5.292,1.08
		c-1.968,0-3.774-0.318-5.418-0.954c-1.644-0.636-3.06-1.536-4.248-2.7s-2.118-2.562-2.79-4.194
		c-0.672-1.632-1.008-3.443-1.008-5.436c0-2.04,0.336-3.894,1.008-5.562c0.672-1.668,1.602-3.09,2.79-4.266s2.604-2.082,4.248-2.718
		c1.644-0.636,3.45-0.954,5.418-0.954c1.728,0,3.33,0.306,4.806,0.918c1.476,0.611,2.85,1.65,4.122,3.114L74.591,669.805z"/>
	<path fill="#DBD7D5" d="M82.728,663.828h4.536v10.152h11.916v-10.152h4.536v25.488h-4.536v-11.232H87.263v11.232h-4.536V663.828z"
		/>
	<path fill="#DBD7D5" d="M115.595,667.933h-7.812v-4.104h20.16v4.104h-7.812v21.384h-4.536V667.933z"/>
	<path fill="#DBD7D5" d="M131.902,663.828h4.536v25.488h-4.536V663.828z"/>
	<path fill="#DBD7D5" d="M142.991,663.828h6.012l12.348,18.937h0.072v-18.937h4.536v25.488h-5.76l-12.6-19.548h-0.072v19.548h-4.536
		V663.828z"/>
	<path fill="#DBD7D5" d="M195.262,687.444c-3.144,1.681-6.66,2.521-10.548,2.521c-1.968,0-3.774-0.318-5.418-0.954
		c-1.644-0.636-3.06-1.536-4.248-2.7s-2.118-2.562-2.79-4.194c-0.672-1.632-1.008-3.443-1.008-5.436c0-2.04,0.336-3.894,1.008-5.562
		c0.672-1.668,1.602-3.09,2.79-4.266s2.604-2.082,4.248-2.718c1.644-0.636,3.45-0.954,5.418-0.954c1.944,0,3.768,0.233,5.472,0.702
		c1.704,0.468,3.228,1.302,4.572,2.502l-3.348,3.384c-0.816-0.792-1.807-1.404-2.97-1.836c-1.165-0.433-2.394-0.648-3.69-0.648
		c-1.32,0-2.515,0.234-3.582,0.702c-1.068,0.468-1.986,1.116-2.754,1.944c-0.769,0.828-1.362,1.794-1.782,2.897
		c-0.42,1.104-0.63,2.292-0.63,3.564c0,1.368,0.21,2.628,0.63,3.78c0.42,1.151,1.014,2.147,1.782,2.987
		c0.768,0.841,1.686,1.5,2.754,1.98c1.067,0.48,2.262,0.72,3.582,0.72c1.152,0,2.238-0.108,3.258-0.324s1.926-0.552,2.718-1.008
		v-6.012h-5.22v-4.104h9.756V687.444z"/>
	<path fill="#DBD7D5" d="M213.226,663.828h10.044c1.679,0,3.299,0.259,4.86,0.774c1.56,0.517,2.939,1.302,4.14,2.357
		c1.2,1.057,2.16,2.383,2.88,3.979c0.72,1.597,1.08,3.474,1.08,5.634c0,2.185-0.414,4.074-1.242,5.67
		c-0.828,1.597-1.896,2.916-3.204,3.96s-2.76,1.824-4.356,2.34c-1.596,0.517-3.162,0.774-4.698,0.774h-9.504V663.828z
		 M221.146,685.213c1.416,0,2.754-0.162,4.014-0.486c1.26-0.324,2.358-0.828,3.294-1.512c0.936-0.685,1.674-1.572,2.214-2.664
		s0.81-2.418,0.81-3.979c0-1.535-0.24-2.855-0.72-3.96c-0.48-1.104-1.146-1.998-1.998-2.682c-0.852-0.685-1.86-1.188-3.024-1.513
		c-1.165-0.323-2.442-0.485-3.834-0.485h-4.14v17.28H221.146z"/>
	<path fill="#DBD7D5" d="M241.522,663.828h8.856c1.224,0,2.406,0.114,3.546,0.342c1.14,0.229,2.154,0.619,3.042,1.171
		c0.888,0.552,1.596,1.296,2.124,2.231c0.527,0.937,0.792,2.124,0.792,3.564c0,1.848-0.51,3.396-1.53,4.644
		c-1.02,1.248-2.478,2.004-4.374,2.269l6.768,11.268h-5.472l-5.904-10.8h-3.312v10.8h-4.536V663.828z M249.586,674.628
		c0.648,0,1.296-0.029,1.944-0.09c0.648-0.06,1.242-0.203,1.782-0.432c0.54-0.228,0.978-0.576,1.314-1.044
		c0.335-0.468,0.504-1.122,0.504-1.962c0-0.744-0.157-1.344-0.468-1.8c-0.312-0.456-0.72-0.798-1.224-1.026
		c-0.504-0.228-1.062-0.378-1.674-0.45c-0.612-0.072-1.206-0.107-1.782-0.107h-3.924v6.911H249.586z"/>
	<path fill="#DBD7D5" d="M285.585,679.956c0,1.536-0.264,2.923-0.792,4.158c-0.528,1.236-1.248,2.286-2.16,3.15
		c-0.913,0.863-1.993,1.529-3.24,1.998c-1.248,0.468-2.604,0.702-4.068,0.702c-1.464,0-2.82-0.234-4.068-0.702
		c-1.249-0.469-2.334-1.135-3.258-1.998c-0.924-0.864-1.644-1.914-2.16-3.15c-0.516-1.235-0.774-2.622-0.774-4.158v-16.128h4.536
		v15.984c0,0.624,0.096,1.278,0.288,1.962c0.192,0.684,0.51,1.314,0.954,1.89c0.444,0.576,1.031,1.051,1.764,1.422
		c0.732,0.373,1.638,0.559,2.718,0.559s1.985-0.186,2.718-0.559c0.732-0.371,1.32-0.846,1.764-1.422
		c0.444-0.575,0.762-1.206,0.954-1.89c0.192-0.684,0.288-1.338,0.288-1.962v-15.984h4.536V679.956z"/>
	<path fill="#DBD7D5" d="M292.137,663.828h8.568c1.224,0,2.406,0.121,3.546,0.36c1.14,0.24,2.142,0.643,3.005,1.206
		c0.865,0.564,1.555,1.32,2.07,2.268c0.516,0.948,0.774,2.131,0.774,3.546c0,1.608-0.276,2.904-0.828,3.889
		s-1.296,1.746-2.231,2.286c-0.937,0.54-2.023,0.906-3.258,1.098c-1.237,0.192-2.526,0.288-3.87,0.288h-3.24v10.548h-4.536V663.828z
		 M299.409,674.881c0.648,0,1.319-0.024,2.016-0.072c0.696-0.048,1.338-0.192,1.926-0.433c0.588-0.239,1.067-0.6,1.44-1.079
		c0.372-0.48,0.558-1.152,0.558-2.017c0-0.792-0.168-1.422-0.504-1.89s-0.768-0.828-1.296-1.08s-1.116-0.414-1.764-0.486
		s-1.272-0.107-1.872-0.107h-3.24v7.164H299.409z"/>
	<path fill="#DBD7D5" d="M320.721,663.828h3.924l10.98,25.488h-5.185l-2.376-5.832h-11.053l-2.303,5.832h-5.076L320.721,663.828z
		 M326.48,679.597l-3.924-10.368l-3.996,10.368H326.48z"/>
	<path fill="#DBD7D5" d="M339.439,663.828h4.536v21.385h10.836v4.104h-15.372V663.828z"/>
	<path fill="#DBD7D5" d="M370.724,663.828h6.012l12.349,18.937h0.071v-18.937h4.536v25.488h-5.76l-12.6-19.548h-0.072v19.548h-4.536
		V663.828z"/>
	<path fill="#DBD7D5" d="M400.352,663.828h16.883v4.104h-12.348v6.264h11.7v4.104h-11.7v6.912h12.996v4.104h-17.531V663.828z"/>
	<path fill="#DBD7D5" d="M423.318,663.828h10.045c1.679,0,3.299,0.259,4.859,0.774c1.56,0.517,2.939,1.302,4.141,2.357
		c1.199,1.057,2.159,2.383,2.879,3.979c0.721,1.597,1.08,3.474,1.08,5.634c0,2.185-0.414,4.074-1.242,5.67
		c-0.828,1.597-1.896,2.916-3.203,3.96c-1.309,1.044-2.761,1.824-4.356,2.34c-1.597,0.517-3.162,0.774-4.698,0.774h-9.504V663.828z
		 M431.238,685.213c1.416,0,2.754-0.162,4.014-0.486c1.261-0.324,2.359-0.828,3.295-1.512c0.936-0.685,1.674-1.572,2.214-2.664
		s0.81-2.418,0.81-3.979c0-1.535-0.24-2.855-0.72-3.96c-0.48-1.104-1.146-1.998-1.998-2.682c-0.853-0.685-1.86-1.188-3.024-1.513
		c-1.164-0.323-2.441-0.485-3.834-0.485h-4.14v17.28H431.238z"/>
	<path fill="#DBD7D5" d="M451.615,663.828h16.883v4.104H456.15v6.264h11.7v4.104h-11.7v6.912h12.996v4.104h-17.531V663.828z"/>
	<path fill="#DBD7D5" d="M474.582,663.828h8.855c1.225,0,2.406,0.114,3.547,0.342c1.139,0.229,2.153,0.619,3.041,1.171
		c0.889,0.552,1.596,1.296,2.125,2.231c0.527,0.937,0.791,2.124,0.791,3.564c0,1.848-0.51,3.396-1.529,4.644
		c-1.021,1.248-2.479,2.004-4.375,2.269l6.769,11.268h-5.472l-5.904-10.8h-3.312v10.8h-4.535V663.828z M482.646,674.628
		c0.647,0,1.295-0.029,1.943-0.09c0.648-0.06,1.242-0.203,1.781-0.432c0.541-0.228,0.979-0.576,1.314-1.044s0.504-1.122,0.504-1.962
		c0-0.744-0.156-1.344-0.468-1.8s-0.72-0.798-1.224-1.026c-0.504-0.228-1.062-0.378-1.674-0.45
		c-0.612-0.072-1.207-0.107-1.782-0.107h-3.925v6.911H482.646z"/>
	<path fill="#DBD7D5" d="M498.234,663.828h4.535v21.385h10.836v4.104h-15.371V663.828z"/>
	<path fill="#DBD7D5" d="M526.133,663.828h3.925l10.979,25.488h-5.184l-2.376-5.832h-11.052l-2.305,5.832h-5.076L526.133,663.828z
		 M531.894,679.597l-3.925-10.368l-3.995,10.368H531.894z"/>
	<path fill="#DBD7D5" d="M544.854,663.828h6.012l12.348,18.937h0.072v-18.937h4.535v25.488h-5.76l-12.6-19.548h-0.072v19.548h-4.535
		V663.828z"/>
</g>
<text transform="matrix(1 0 0 1 572.3086 689.3164)" fill="#DBD7D5" font-family="'Avenir-Heavy'" font-size="36">D</text>
</svg>
